<svg xmlns="http://www.w3.org/2000/svg" width="24" height="24" viewBox="0 0 24 24"><path fill="currentColor" fill-rule="evenodd" stroke="#00000000" d="M16.34 9.33q1.06 0 1.62.82t.58 2.34v1.37q0 1.58-.57 2.4-.57.83-1.62.83-1.04 0-1.61-.8a4 4 0 0 1-.59-2.32v-1.42q0-1.57.57-2.4t1.62-.82Zm-10 0q1.03 0 1.63.57.6.58.59 1.58 0 .51-.27.95-.27.45-.7.68.53.23.8.68.26.45.26 1.08 0 1-.64 1.61-.65.6-1.69.61-.96 0-1.57-.6-.6-.6-.6-1.57H5.6q0 .4.21.68.22.27.54.27.39 0 .6-.28.22-.28.22-.75 0-1.1-.86-1.12H5.6v-1.18h.7q.41 0 .6-.28.2-.29.2-.76 0-.45-.2-.7a.6.6 0 0 0-.53-.25q-.3 0-.5.24a1 1 0 0 0-.2.6H4.22q0-.6.27-1.06t.77-.74q.48-.26 1.08-.26Zm6.35.02v1.25h-.09q-.82 0-1.3.5-.5.48-.6 1.37.48-.54 1.19-.54.82 0 1.3.7.5.7.5 1.87 0 .75-.28 1.33-.28.6-.79.93t-1.14.33q-1.04 0-1.65-.82a3.6 3.6 0 0 1-.62-2.23v-.54q0-1.24.4-2.19.38-.93 1.12-1.45a3 3 0 0 1 1.73-.5zm3.65 1.2q-.7 0-.73 1.63v1.89q0 .9.18 1.35t.56.45q.36 0 .53-.42.18-.4.19-1.28v-1.84q0-.9-.18-1.34t-.55-.44Zm-4.91 2.6a.7.7 0 0 0-.47.17 1 1 0 0 0-.29.43v.53q0 .8.22 1.2.21.39.56.39t.56-.38.22-.98-.23-.99q-.22-.38-.57-.38Zm7.33-6.24c.6 0 1.1.49 1.1 1.09a1.1 1.1 0 0 1-2.19 0c0-.6.5-1.1 1.1-1.1Zm0 .72c-.2 0-.37.16-.37.37s.16.37.37.37.38-.17.38-.37-.17-.37-.38-.37Z"/></svg>