<svg xmlns="http://www.w3.org/2000/svg" width="24" height="24" viewBox="0 0 24 24"><path fill="none" stroke="currentColor" stroke-linecap="round" stroke-linejoin="round" stroke-width="1.5" d="M18.85 8.5H5.15a1.15 1.15 0 1 0 0 2.3l3.75.3q.19.01.24.19c.15.58.22.96.22 1.56q0 .39-.1.76l-1.93 6.77a1.15 1.15 0 0 0 2.22.6l2.14-5.35h.38l2.13 5.35a1.15 1.15 0 1 0 2.22-.6l-1.93-6.77a3 3 0 0 1-.1-.76c0-.6.08-.98.23-1.56q.05-.18.23-.2l4-.3a1.15 1.15 0 1 0 0-2.3m-5-3.7a1.97 1.97 0 0 0-3.96 0 1.97 1.97 0 0 0 3.97 0"/></svg>