<svg xmlns="http://www.w3.org/2000/svg" width="66" height="66" viewBox="0 0 66 66"><path fill="currentColor" d="M51.5 23h-37c-1.7 0-3.1 1.4-3.1 3.1s1.4 3.1 3.1 3.1l10.1.8c.3 0 .6.2.6.5.4 1.6.6 2.6.6 4.3 0 .7-.1 1.4-.3 2l-5.2 18.4c-.4 1.7.5 3.4 2.2 3.8s3.4-.5 3.8-2.2l5.8-14.5h1l5.8 14.5a3 3 0 0 0 3.8 2.2c1.7-.4 2.6-2.2 2.2-3.8l-5.2-18.4c-.2-.7-.3-1.4-.3-2 0-1.6.2-2.7.6-4.3.1-.3.3-.5.6-.5l10.8-.8c1.7 0 3.1-1.4 3.1-3.1.1-1.7-1.3-3.1-3-3.1m-18.8-3.8c3.4 0 6.2-2.8 6.2-6.2s-2.8-6.2-6.2-6.2-6.2 2.8-6.2 6.2 2.7 6.2 6.2 6.2"/><path fill="currentColor" d="M32.7 6.8c3.4 0 6.2 2.8 6.2 6.2s-2.8 6.2-6.2 6.2-6.2-2.8-6.2-6.2 2.7-6.2 6.2-6.2M51.5 23c1.7 0 3.1 1.4 3.1 3.1s-1.4 3.1-3.1 3.1l-10.8.8c-.3 0-.6.2-.6.5-.4 1.6-.6 2.6-.6 4.3 0 .7.1 1.4.3 2L45 55.2c.4 1.7-.5 3.4-2.2 3.8-.3.1-.5.1-.8.1-1.4 0-2.6-.9-3-2.3l-5.8-14.5h-1l-5.8 14.5a3.1 3.1 0 0 1-3 2.3c-.3 0-.5 0-.8-.1-1.7-.4-2.6-2.2-2.2-3.8l5.2-18.4c.2-.7.3-1.4.3-2 0-1.6-.2-2.7-.6-4.3-.1-.3-.3-.5-.6-.5l-10.1-.8c-1.7 0-3.1-1.4-3.1-3.1s1.4-3.1 3.1-3.1zM32.7 5.8c-4 0-7.2 3.2-7.2 7.2s3.2 7.2 7.2 7.2 7.2-3.2 7.2-7.2-3.3-7.2-7.2-7.2M51.5 22h-37c-2.3 0-4.1 1.8-4.1 4.1s1.8 4.1 4.1 4.1l9.9.8c.4 1.4.5 2.4.5 3.8 0 .6-.1 1.2-.2 1.8L19.5 55c-.6 2.2.7 4.5 2.9 5.1.4.1.7.1 1.1.1 1.8 0 3.5-1.2 4-3l5.3-13.4 5.3 13.4c.5 1.8 2.1 3 4 3 .4 0 .7 0 1.1-.1 2.2-.6 3.5-2.9 2.9-5.1l-5.2-18.4c-.2-.6-.2-1.2-.2-1.8 0-1.4.2-2.4.5-3.8l10.6-.8c2.2 0 4.1-1.9 4.1-4.1-.3-2.2-2.1-4.1-4.4-4.1"/></svg>