<svg xmlns="http://www.w3.org/2000/svg" width="24" height="24" viewBox="0 0 24 24"><path fill="currentColor" stroke="#00000000" d="m15.3 4.09-.6.29c-.6.29-.98.89-.98 1.56 0 .68.38 1.28.99 1.57l1.29.62.7 2.08a1.74 1.74 0 0 0 2.78.76v6.12a2.5 2.5 0 0 1-2.5 2.5H6.48a2.5 2.5 0 0 1-2.5-2.5V6.59a2.5 2.5 0 0 1 2.5-2.5zM9.42 7.74c-.3 0-.6.23-.6.68v6.64c0 .44.3.68.6.68q.2 0 .4-.13l5.07-3.28a.7.7 0 0 0 .35-.6.7.7 0 0 0-.35-.59L9.83 7.87a1 1 0 0 0-.4-.13Zm12.4-.7c.04-.14.24-.14.29 0l.58 1.74 1.22.59c.12.06.12.22 0 .28l-1.22.59-.58 1.74a.16.16 0 0 1-.3 0l-.58-1.74L20 9.65a.16.16 0 0 1 0-.28l1.22-.59Zm-3.7-4.88a.24.24 0 0 1 .45 0l.9 2.67 1.86.9c.18.08.18.34 0 .43l-1.87.9-.89 2.67c-.07.22-.38.22-.46 0l-.89-2.67-1.87-.9a.24.24 0 0 1 0-.43l1.87-.9Z"/></svg>