<svg xmlns="http://www.w3.org/2000/svg" width="19" height="19" viewBox="0 0 19 19"><path fill="currentColor" stroke="#00000000" d="M8.15 2.71a2.1 2.1 0 0 1 2.68 0l4.48 3.9a3.3 3.3 0 0 1 1.19 2.55v4.91a2.7 2.7 0 0 1-2.71 2.7H5.2c-1.5 0-2.7-1.2-2.7-2.7V9.16c0-1 .43-1.93 1.2-2.56Zm1.35.76a1 1 0 0 0-.53.2L4.5 7.54c-.48.4-.76.99-.76 1.6v4.92c0 .8.66 1.46 1.46 1.46h8.58c.8 0 1.46-.65 1.46-1.46v-4.9c0-.62-.28-1.2-.75-1.6l-4.48-3.9a1 1 0 0 0-.52-.2Zm0 3.3c.35 0 .63.29.63.63v2.3h2.29a.63.63 0 0 1 0 1.24h-2.3v2.3a.62.62 0 1 1-1.24 0v-2.3h-2.3a.62.62 0 1 1 0-1.25h2.3V7.4c0-.34.28-.62.62-.62Z"/></svg>