<svg xmlns="http://www.w3.org/2000/svg" width="24" height="24" viewBox="0 0 24 24"><path fill="currentColor" fill-rule="evenodd" d="M9 8.96q-.15.12-.41.12h-.6V8.1h.61q.25 0 .39.15.13.15.13.38T9 8.96m.45-1.64a2 2 0 0 0-.86-.18H6.87v4.31h1.11v-1.42h.6q.76 0 1.2-.37.46-.38.46-1.04 0-.44-.2-.77-.21-.34-.6-.53m3.34 2.1q0 .54-.24.82-.21.27-.63.27h-.27V8.09h.27q.43 0 .64.27.23.28.23.84zm.15-2.02q-.45-.26-1.02-.26h-1.37v4.31h1.38q.57 0 1.02-.26t.7-.73.25-1.07v-.18q0-.6-.25-1.07t-.7-.74m4.19.7v-.96h-2.9v4.31h1.1V9.8h1.6v-.94h-1.6v-.77z"/><path fill="currentColor" fill-rule="evenodd" d="M7.25 21h3a.75.75 0 1 0 0-1.5h-3c-.97 0-1.75-.78-1.75-1.75V6.25c0-.96.78-1.75 1.75-1.75h9.5c.96 0 1.75.79 1.75 1.75V10a.75.75 0 0 0 1.5 0V6.25C20 4.45 18.54 3 16.75 3h-9.5A3.25 3.25 0 0 0 4 6.25v11.5C4 19.55 5.46 21 7.25 21" clip-path="url(#a)"/><clipPath id="a"><path d="M4 3h16v18H4zM0 0"/></clipPath><path fill="currentColor" fill-rule="evenodd" d="M18.28 17.33h-1.37v1.37a.63.63 0 0 1-1.25 0v-1.37h-1.38a.62.62 0 1 1 0-1.25h1.38V14.7a.62.62 0 1 1 1.25 0v1.38h1.37a.62.62 0 1 1 0 1.25m-2-4.98a4.35 4.35 0 1 0 .01 8.7 4.35 4.35 0 0 0 0-8.7" clip-path="url(#b)"/><clipPath id="b"><path d="M11.94 12.35h8.69v8.7h-8.7zM0 0"/></clipPath></svg>