<svg xmlns="http://www.w3.org/2000/svg" width="24" height="24" viewBox="0 0 24 24"><path fill="currentColor" d="M8.63 7.35q.49 0 .86.18a1.4 1.4 0 0 1 .8 1.29q0 .65-.46 1.04-.45.37-1.21.37h-.6v1.42h-1.1v-4.3Zm3.33 0q.57 0 1.02.25.46.26.7.74.27.47.26 1.07v.18q0 .6-.25 1.07t-.7.73q-.46.25-1.02.27h-1.39V7.34Zm5.21 0v.94h-1.8v.77h1.6v.95h-1.6v1.64h-1.1v-4.3zm-5.21.94h-.27v2.42h.26q.43 0 .64-.27.23-.28.23-.82V9.4q0-.57-.22-.85-.21-.27-.64-.27m-3.31 0h-.62v1h.6q.28 0 .41-.13.13-.1.13-.34a.5.5 0 0 0-.14-.38q-.13-.14-.38-.14"/><path fill="#00000000" fill-rule="evenodd" stroke="currentColor" stroke-linecap="round" stroke-linejoin="round" stroke-width="1.5" d="M11.25 20.25h-3.5a2.5 2.5 0 0 1-2.5-2.5V6.25a2.5 2.5 0 0 1 2.5-2.5h8.5a2.5 2.5 0 0 1 2.5 2.5v6.5m-2.5 2.5v5m-2.5-2.5h5"/></svg>