<svg xmlns="http://www.w3.org/2000/svg" width="24" height="24" viewBox="0 0 24 24"><path fill="currentColor" d="M11.54 1.95c.15-.03.72-.03.86-.03 3.93-.03 9.37 3.3 9.68 9.65v7.93a2.6 2.6 0 0 1-2.6 2.58c-1.04 0-2.44-1.32-2.44-2.57v-7.93a5.03 5.03 0 0 0-5.5-4.61"/><path fill="currentColor" d="M22.08 19.56a2.52 2.52 0 1 1-5.04 0 2.52 2.52 0 0 1 5.04 0M11.68 22a2.6 2.6 0 0 0 2.61-2.57c0-1.41-1.2-2.44-2.64-2.44h-.03A5.05 5.05 0 0 1 7 11.64v-.05a5.06 5.06 0 0 1 4.69-4.63c1.44 0 2.61-1.04 2.61-2.45a2.6 2.6 0 0 0-2.61-2.56h-.18c-4.37.15-9.53 3.79-9.58 9.98v.04c0 6.28 5.5 10.03 9.61 10.03z"/></svg>