<svg xmlns="http://www.w3.org/2000/svg" width="24" height="24" viewBox="0 0 24 24"><path fill="currentColor" fill-rule="evenodd" stroke="#00000000" d="M6.1 3.7h.1c.4.01.82.17 1.38.73l1.4 1.4c.56.56.72.98.74 1.37s-.1.8-.6 1.3l-.57.57c-.5.51-.63.92-.6 1.31.01.33.17.65.2.68.28.57 1.78 3.21 4.95 5.03.1.06.52.29.84.3.4 0 .8-.1 1.31-.62l.57-.56c.5-.5.91-.62 1.3-.6.4.01.82.17 1.38.73l1.4 1.4c.56.56.72.98.73 1.38s-.1.8-.6 1.3a5.8 5.8 0 0 1-4.72 1.9 6.4 6.4 0 0 1-3.66-1.35c-5-3.52-7.6-7.76-7.6-7.76a6.4 6.4 0 0 1-1.04-3.2A5.8 5.8 0 0 1 4.9 4.3c.51-.5.92-.63 1.3-.6Zm13.27-1.03a1.63 1.63 0 1 1-.9 2.99l-3.24 1.92a2 2 0 0 1 0 .4l3.24 1.92q.4-.26.9-.27a1.63 1.63 0 1 1-1.61 1.43L14.5 9.14a1.63 1.63 0 1 1 0-2.71l3.25-1.92-.02-.2c0-.9.73-1.64 1.63-1.64Z"/></svg>