<svg xmlns="http://www.w3.org/2000/svg" width="66" height="66" viewBox="0 0 66 66"><path fill="currentColor" d="M29 33a4 4 0 1 1 8 0 4 4 0 1 1-8 0"/><path fill="currentColor" d="M29.5 33a3.5 3.5 0 1 1 7 0 3.5 3.5 0 1 1-7 0M29 15.9a4 4 0 1 1 8 0 4 4 0 1 1-8 0"/><path fill="currentColor" d="M29.5 15.9a3.5 3.5 0 1 1 7 0 3.5 3.5 0 1 1-7 0M29 50.1a4 4 0 1 1 8 0 4 4 0 1 1-8 0"/><path fill="currentColor" d="M29.5 50.1a3.5 3.5 0 1 1 7 0 3.5 3.5 0 1 1-7 0M46.9 33a4 4 0 1 1 8 0 4 4 0 1 1-8 0"/><path fill="currentColor" d="M47.4 33a3.5 3.5 0 1 1 7 0 3.5 3.5 0 1 1-7 0m-.5-17.1a4 4 0 1 1 8 0 4 4 0 1 1-8 0"/><path fill="currentColor" d="M47.4 15.9a3.5 3.5 0 1 1 7 0 3.5 3.5 0 1 1-7 0m-.5 34.2a4 4 0 1 1 8 0 4 4 0 1 1-8 0"/><path fill="currentColor" d="M47.4 50.1a3.5 3.5 0 1 1 7 0 3.5 3.5 0 1 1-7 0M11.1 33a4 4 0 1 1 8 0 4 4 0 1 1-8 0"/><path fill="currentColor" d="M11.6 33a3.5 3.5 0 1 1 7 0 3.5 3.5 0 1 1-7 0m-.5-17.1a4 4 0 1 1 8 0 4 4 0 1 1-8 0"/><path fill="currentColor" d="M11.6 15.9a3.5 3.5 0 1 1 7 0 3.5 3.5 0 1 1-7 0m-.5 34.2a4 4 0 1 1 8 0 4 4 0 1 1-8 0"/><path fill="currentColor" d="M11.6 50.1a3.5 3.5 0 1 1 7 0 3.5 3.5 0 1 1-7 0"/></svg>