<svg xmlns="http://www.w3.org/2000/svg" width="24" height="24" viewBox="0 0 24 24"><path fill="currentColor" fill-rule="evenodd" stroke="#00000000" d="M1.6 7.96c.53 0 .96.42.96.95v7.31c0 1.12.9 2.04 2.03 2.04h10.36a.95.95 0 0 1 0 1.9H4.59a3.93 3.93 0 0 1-3.93-3.94V8.91c0-.53.42-.95.95-.95Zm14.34-4.11a2.7 2.7 0 0 1 2.7 2.7V7.6l3.72-2.15a1 1 0 0 1 .38-.12c.3 0 .6.23.6.68v8.59c0 .43-.3.66-.58.66a1 1 0 0 1-.4-.13l-3.71-2.15v1.04c0 1.5-1.22 2.71-2.71 2.71H6.5c-1.2 0-2.17-.97-2.17-2.17V6.32A2.5 2.5 0 0 1 6.8 3.85Z"/></svg>