<svg xmlns="http://www.w3.org/2000/svg" width="24" height="24" viewBox="0 0 24 24"><path fill="currentColor" fill-rule="evenodd" stroke="#00000000" d="M15.61 12a1 1 0 1 1 0-2 1 1 0 0 1 0 2m.54 3.34c-.72 1.1-2.3 1.78-4.15 1.78-1.84 0-3.43-.68-4.15-1.78a.63.63 0 0 1 1.05-.69c.47.73 1.72 1.22 3.1 1.22s2.63-.49 3.1-1.22a.63.63 0 0 1 1.05.69M7.39 11a1.1 1.1 0 0 1 .53-.95q.26-.17.6-.18A1.12 1.12 0 1 1 7.38 11m4.61.98c.7 0 1.26 0 1.26.48s-.56 1.27-1.26 1.27-1.26-.79-1.26-1.27.56-.48 1.26-.48m6.42-7.71c-.87 0-1.66.33-2.26.88A7.7 7.7 0 0 0 12 3.92c-1.51 0-2.93.46-4.16 1.23a3.35 3.35 0 0 0-5.63 2.48c0 1.27.7 2.38 1.74 2.95a9 9 0 0 0-.26 2.12c0 4.59 3.72 7.38 8.31 7.38s8.31-2.8 8.31-7.38q0-1.08-.26-2.12a3.36 3.36 0 0 0-1.63-6.31"/></svg>