<svg xmlns="http://www.w3.org/2000/svg" width="24" height="24" viewBox="0 0 24 24"><path fill="currentColor" fill-rule="evenodd" stroke="#00000000" d="M4.63 7.76 2 16.22h1.99l.44-1.68H6.5l.44 1.68h2L6.32 7.76zm13.18 0v3.3l.32-.54 1.55-2.76h2.3l-2.42 3.74L22 16.23h-2.22l-1.45-3.09-.52.66v2.43h-1.88V7.76zm-5.31 0q1.27 0 2.02.8.75.78.76 2.04 0 1.26-.75 2-.76.73-2.06.73h-1v2.9H9.6V7.75Zm-7.03 2.79.62 2.38H4.85zm7.05-1.18h-1.04v2.35h1.02q.42 0 .65-.27.23-.3.23-.84 0-.58-.24-.91a.7.7 0 0 0-.62-.33Z"/></svg>