<svg xmlns="http://www.w3.org/2000/svg" width="24" height="24" viewBox="0 0 24 24"><path fill="#00000000" fill-rule="evenodd" stroke="currentColor" stroke-linecap="round" stroke-linejoin="round" stroke-width="1.5" d="M7.5 13.75a2.76 2.76 0 0 1 2.75 2.75 2.76 2.76 0 0 1-2.58 2.75H7.5a2.76 2.76 0 0 1-2.75-2.75 2.76 2.76 0 0 1 2.75-2.75m9 0a2.76 2.76 0 0 1 2.75 2.75 2.76 2.76 0 0 1-2.58 2.75h-.17a2.76 2.76 0 0 1-2.75-2.75 2.76 2.76 0 0 1 2.75-2.75m-9-9a2.76 2.76 0 0 1 2.75 2.75 2.76 2.76 0 0 1-2.58 2.74l-.17.01A2.76 2.76 0 0 1 4.75 7.5 2.76 2.76 0 0 1 7.5 4.75m9 0a2.76 2.76 0 0 1 2.75 2.75 2.76 2.76 0 0 1-2.58 2.74l-.17.01a2.76 2.76 0 0 1-2.75-2.75 2.76 2.76 0 0 1 2.75-2.75"/></svg>