<svg xmlns="http://www.w3.org/2000/svg" width="24" height="24" viewBox="0 0 24 24"><path fill="currentColor" fill-rule="evenodd" d="m3.12 4.07 16.25 16.25a.75.75 0 1 0 1.06-1.06L4.18 3.01a.75.75 0 1 0-1.06 1.06"/><path fill="currentColor" d="M-2.33-2.33h25.66v25.66H-7z" clip-path="url(#a)"/><clipPath id="a"><path d="M17.9 11.02a3.9 3.9 0 0 1-4.22.9.8.8 0 0 0-.8.17l-6.56 6.56a1.3 1.3 0 0 1-.91.38q-.45 0-.77-.3a1.15 1.15 0 0 1-.02-1.66l6.62-6.62a.8.8 0 0 0 .17-.8 3.94 3.94 0 0 1 4.43-5.3l-2.12 2.13a1.56 1.56 0 0 0 0 2.2l.93.94a1.56 1.56 0 0 0 2.2 0l2.13-2.13q.06.38.07.74c0 1.02-.38 2.02-1.15 2.8m2.65-2.8q0-.9-.3-1.77a1.16 1.16 0 0 0-1.9-.45l-2.56 2.55-.04.01-.04-.01-.93-.93-.02-.05.02-.04 2.54-2.55a1.16 1.16 0 0 0-.44-1.91 5.44 5.44 0 0 0-7 6.62L3.55 16a2.65 2.65 0 0 0 .05 3.81c.5.48 1.16.71 1.8.7a2.8 2.8 0 0 0 1.97-.81l6.26-6.25q.72.2 1.46.22a5.43 5.43 0 0 0 5.45-5.45"/></clipPath></svg>