<svg xmlns="http://www.w3.org/2000/svg" width="24" height="24" viewBox="0 0 24 24"><path fill="currentColor" fill-rule="evenodd" d="M-2.33-2.33h25.66v25.66H-7z" clip-path="url(#a)"/><clipPath id="a"><path d="M13.4 18.18a.75.75 0 0 1 .88 1.21c-.71.52-1.63.82-2.61.82-.99 0-1.9-.3-2.62-.82a.75.75 0 1 1 .88-1.21c.45.32 1.06.53 1.74.53q1.04-.02 1.73-.53M11.67 3.13a5.9 5.9 0 0 1 5.88 5.63l.01.06v2.54l.01.03L19 14.4a1.56 1.56 0 0 1-1.4 2.24H5.73a1.56 1.56 0 0 1-1.4-2.24l1.42-3.01.01-.03V8.81l.01-.06a5.9 5.9 0 0 1 5.89-5.62m0 1.5a4.4 4.4 0 0 0-4.4 4.21v2.52q0 .35-.15.68l-1.43 3-.01.03.02.05.04.02H17.6l.05-.02.02-.05-.01-.02-1.44-3.02q-.15-.3-.15-.67V8.84a4.4 4.4 0 0 0-4.4-4.21"/></clipPath></svg>