<svg xmlns="http://www.w3.org/2000/svg" width="24" height="24" viewBox="0 0 24 24"><path fill="currentColor" fill-rule="evenodd" stroke="#00000000" d="M17.21 6.45a.8.8 0 0 1 1.14-.04 9.6 9.6 0 0 1 3.15 7.06 9.6 9.6 0 0 1-3.15 7.06.8.8 0 0 1-1.14-.04.8.8 0 0 1 .04-1.14 8 8 0 0 0 2.63-5.88c0-2.21-.93-4.3-2.63-5.87a.8.8 0 0 1-.04-1.15Zm-5.99-3.2c1.54 0 2.94.5 4.06 1.47a.81.81 0 0 1-1.06 1.23 4.5 4.5 0 0 0-3-1.08h-.54V16.4l-.02.18a4.1 4.1 0 0 1-4.07 3.66A4.07 4.07 0 0 1 2.5 16.2 4.07 4.07 0 0 1 9.07 13V4.6c0-.75.6-1.35 1.34-1.35Zm3.7 6.3a.8.8 0 0 1 1.14-.03 5.4 5.4 0 0 1 0 7.91.81.81 0 0 1-1.12-1.18 3.8 3.8 0 0 0 0-5.56.8.8 0 0 1-.03-1.14Z"/></svg>