<svg xmlns="http://www.w3.org/2000/svg" width="24" height="24" viewBox="0 0 24 24"><path fill="currentColor" stroke="#00000000" d="M20.5 19.5a1.5 1.5 0 1 1-3 0 1.5 1.5 0 0 1 3 0m0-5.91a1.5 1.5 0 1 1-3 0 1.5 1.5 0 0 1 3 0m-4.9 2.95a1.5 1.5 0 1 1-3 0 1.5 1.5 0 0 1 3 0"/><path fill="#00000000" fill-rule="evenodd" stroke="currentColor" stroke-linecap="round" stroke-linejoin="round" stroke-width="1.5" d="M10.09 15.27c0 1.66-1.37 3-3.04 3a3 3 0 0 1-3.05-3c0-1.66 1.36-3 3.05-3a3 3 0 0 1 3.04 3m6.56-5.6c0-2.32-1.7-5.67-5.31-5.67h-.75a.5.5 0 0 0-.5.5v10.96m5.3.3 2.33-1.39m0 4.34-2.34-1.38"/></svg>