<svg xmlns="http://www.w3.org/2000/svg" width="24" height="24" viewBox="0 0 24 24"><path fill="currentColor" fill-rule="evenodd" stroke="#00000000" d="M4.48 10.21a1.06 1.06 0 0 1 1.33-.67 1.05 1.05 0 1 1-1.33.67m7.52.67a1.78 1.78 0 1 1 0 3.55 1.78 1.78 0 0 1 0-3.55M10.95 5.8a1.05 1.05 0 1 1 2.1 0 1.05 1.05 0 0 1-2.1 0m5.07 11.34a1.05 1.05 0 1 1-.85 1.68 1.05 1.05 0 0 1 .85-1.67m-7.2 1.67a1.05 1.05 0 1 1-1.7-1.25 1.05 1.05 0 0 1 1.7 1.25m9.37-9.28q.16-.06.32-.06a1.06 1.06 0 0 1 .33 2.06q-.41.13-.8-.06a1.06 1.06 0 0 1 .15-1.94m-13.5 3.43A2.54 2.54 0 0 0 7.58 12l1.17.38-.02.27c0 .82.3 1.56.8 2.14l-.72 1a2.54 2.54 0 0 0-2.9.9 2.56 2.56 0 1 0 4.12-.03l.71-.99a3.3 3.3 0 0 0 2.54 0l.71 1a2.56 2.56 0 1 0 1.22-.89l-.72-.99a3.3 3.3 0 0 0 .78-2.4l1.17-.38a2.55 2.55 0 1 0-.47-1.43l-1.16.38a3.3 3.3 0 0 0-2.05-1.5V8.25a2.56 2.56 0 0 0-.76-5 2.56 2.56 0 0 0-.75 5v1.22c-.86.2-1.6.75-2.04 1.49l-1.17-.38a2.56 2.56 0 1 0-3.34 2.39"/></svg>