<svg xmlns="http://www.w3.org/2000/svg" width="24" height="24" viewBox="0 0 24 24"><path fill="currentColor" fill-rule="evenodd" stroke="#00000000" d="M13.94 4.27a.75.75 0 0 1 .96-.45A8.7 8.7 0 0 1 17.1 19h1.32a.75.75 0 1 1 0 1.5h-3.01c-.68 0-1.23-.55-1.23-1.23v-2.8a.75.75 0 0 1 1.5 0v1.68a7.2 7.2 0 0 0-1.29-12.92.75.75 0 0 1-.45-.96ZM8.59 3.5c.68 0 1.23.55 1.23 1.23v2.8a.75.75 0 0 1-1.5 0V5.84a7.21 7.21 0 0 0 1.29 12.92.75.75 0 1 1-.51 1.4A8.7 8.7 0 0 1 6.9 5H5.58a.75.75 0 1 1 0-1.5Zm4.24 4.58 2.34 6.83h-1.6l-.45-1.42H11l-.45 1.42h-1.6l2.35-6.83zm-.77 2.04-.66 2.08h1.32z"/></svg>