<svg xmlns="http://www.w3.org/2000/svg" width="24" height="24" viewBox="0 0 24 24"><path fill="currentColor" d="M11.9 21c-5 0-9.1-4.1-9.1-9.1s4.1-9.1 9.1-9.1S21 6.9 21 11.9 16.9 21 11.9 21m.7-8.4v6.9c3.6-.4 6.5-3.2 6.8-6.8h-6.8zm-8.3 0c.3 3.6 3.2 6.5 6.8 6.9v-6.9zm8.3-1.5h6.9c-.4-3.6-3.3-6.5-6.9-6.8zm-8.3 0h6.8V4.3c-3.6.3-6.5 3.2-6.8 6.8"/><path fill="currentColor" d="M17.7 18.2c-.3 0-.5-.1-.7-.4-.3-.5-.7-1.2-1.1-1.8l-.1-.1c-1-1.5-1.4-2.5-1.4-4.1s.4-2.6 1.4-4.1l.1-.1c.4-.6.8-1.2 1-1.7.2-.4.7-.5 1-.3.4.2.5.7.3 1-.3.5-.7 1.2-1.1 1.8l-.1.1c-.9 1.4-1.2 2.1-1.2 3.3s.3 1.9 1.2 3.3l.1.1c.4.7.9 1.4 1.2 1.9.2.4.1.8-.3 1 0 .1-.1.1-.3.1M6 18.2c-.1 0-.2 0-.4-.1-.4-.2-.5-.7-.3-1 .3-.5.7-1.2 1.2-1.9l.1-.1c.9-1.4 1.2-2.1 1.2-3.3s-.3-1.9-1.2-3.3h-.1c-.4-.7-.9-1.4-1.2-2-.2-.4 0-.8.3-1 .4-.2.8 0 1 .3l1.1 1.9.1.1c1 1.5 1.4 2.5 1.4 4.1s-.4 2.6-1.4 4.1l-.1.1c-.4.6-.8 1.3-1.1 1.8q-.15.3-.6.3"/></svg>