<svg xmlns="http://www.w3.org/2000/svg" width="24" height="24" viewBox="0 0 24 24"><path fill="currentColor" stroke="#00000000" d="M22.5 18.75h-2.27a.25.25 0 0 1-.25-.25v-1.35c0-.13.1-.25.25-.25h2.27c.14 0 .25.12.25.25v1.35q-.02.23-.25.25m-6.98.93h-2.27a.25.25 0 0 1-.25-.25v-1.36c0-.13.11-.25.25-.25h2.27c.14 0 .25.12.25.25v1.36c0 .13-.1.25-.25.25m3.5-3.76h-2.28a.25.25 0 0 1-.25-.25v-1.35c0-.13.11-.25.25-.25H19c.14 0 .25.12.25.25v1.35q-.02.23-.25.25"/><path fill="#00000000" fill-rule="evenodd" stroke="currentColor" stroke-linecap="round" stroke-linejoin="round" stroke-width="1.5" d="M15.74 10.97c-.17-1.46-.7-3.07-2.1-4.1-1.11-.8-3.1-1.48-4.7-.56-1.55.89-1.87 2.78-1.9 2.95a5 5 0 0 0 .4 2.62c.2.4.42 1.01.39 1.74-.07 1.3-.88 1.57-1.1 2.88a3.8 3.8 0 0 0 .99 3.24c.64.62 1.48.87 2.32.9M6.9 10.34a4.06 4.06 0 1 1 6.46-3.68m8 6.38V21m-3.48 0v-7.97M14.38 21v-7.97"/></svg>