<svg xmlns="http://www.w3.org/2000/svg" width="24" height="24" viewBox="0 0 24 24"><path fill="#00000000" fill-rule="evenodd" stroke="currentColor" stroke-linecap="round" stroke-linejoin="round" stroke-width="1.5" d="M14.9 10.48a5.3 5.3 0 0 0-2-3.46c-1.1-.8-3.07-1.47-4.65-.56-1.53.88-1.84 2.75-1.87 2.92a5 5 0 0 0 .39 2.6c.19.4.41 1 .38 1.72-.06 1.29-.87 1.56-1.08 2.85-.18 1.08.14 2.4.98 3.22 1.18 1.14 3.1 1.03 4.32.55m1.01-3.85h3.13l.96-3.73 1.4 6.95 1.63-5.78.59 2.54h3.31m-.6-4.02-8.4 8.4m-8.16-10.4a4.02 4.02 0 1 1 6.4-3.65"/></svg>