<svg xmlns="http://www.w3.org/2000/svg" width="24" height="24" viewBox="0 0 24 24"><path fill="#00000000" fill-rule="evenodd" stroke="currentColor" stroke-linecap="round" stroke-linejoin="round" stroke-width="1.25" d="M20.05 12.82a3.36 3.36 0 1 0-6.14.7m7.82 1.15a.8.8 0 0 0-.85.79c.09-.52-.3-.99-.77-1a.85.85 0 0 0-.85.84c.09-.52-.3-.98-.76-1a.85.85 0 0 0-.86.84v-2.96a.8.8 0 0 0-.8-.82.8.8 0 0 0-.82.82v4.94l-.35-.4a1 1 0 0 0-.55-.3.7.7 0 0 0-.61.13c-.26.2-.26.53-.26.6 0 .33.17.54.23.6l1.3 1.5c.09.11 1.8 2.1 3.98 1.7a3.6 3.6 0 0 0 1.8-.97c.94-.96.94-2.18.94-2.45v-2.02a.8.8 0 0 0-.77-.84"/><path fill="#00000000" fill-rule="evenodd" stroke="currentColor" stroke-linecap="round" stroke-linejoin="round" stroke-width="1.5" d="M15.22 8.52a4.6 4.6 0 0 0-1.41-1.68c-1.1-.8-3.08-1.47-4.66-.56-1.53.88-1.84 2.75-1.87 2.92a5 5 0 0 0 .39 2.6c.19.4.42 1 .38 1.72-.06 1.29-.87 1.56-1.08 2.85-.18 1.08.14 2.4.98 3.22 1.18 1.14 3.1 1.03 4.32.55a4.7 4.7 0 0 0 2.23-1.95m-7.37-7.93a4.02 4.02 0 1 1 6.4-3.64"/></svg>