<svg xmlns="http://www.w3.org/2000/svg" width="24" height="24" viewBox="0 0 24 24"><path fill="currentColor" fill-rule="evenodd" stroke="#00000000" d="M17.15 16.24h-.6v-.6a.37.37 0 1 0-.75 0v.6h-.6a.38.38 0 0 0 0 .75h.6v.6a.38.38 0 0 0 .75 0v-.6h.6a.38.38 0 0 0 0-.75m3.53 1.15a.54.54 0 1 1-1.09 0 .54.54 0 0 1 1.09 0m-1.22-1.33a.54.54 0 1 1-1.09 0 .54.54 0 0 1 1.09 0"/><path fill="#00000000" fill-rule="evenodd" stroke="currentColor" stroke-linecap="round" stroke-linejoin="round" stroke-width="1.5" d="M16.4 13.74c.15-1.47.3-4.92-2.08-6.64-1.1-.8-3.08-1.47-4.66-.57-1.54.88-1.85 2.75-1.88 2.93a5 5 0 0 0 .39 2.6c.2.4.42 1 .38 1.72-.06 1.29-.86 1.56-1.08 2.86-.18 1.07.14 2.4.98 3.21 1.18 1.15 3.11 1.03 4.33.55q.41-.16.77-.4M22 16.9c0-1.6-1.3-2.9-2.9-2.9h-2.57a2.9 2.9 0 0 0-2.9 2.9v2.72c0 .7.6 1.13 1.14 1.13q.43 0 .76-.3l1.24-1.17q.07-.07.18-.07h1.74q.1 0 .17.07l1.25 1.16q.31.3.76.3c.54 0 1.13-.42 1.13-1.12zM7.63 10.51a4.03 4.03 0 1 1 6.41-3.65"/></svg>