<svg xmlns="http://www.w3.org/2000/svg" width="24" height="24" viewBox="0 0 24 24"><path fill="currentColor" stroke="#00000000" d="M20.75 3.25a2 2 0 1 1 0 4 2 2 0 0 1 0-4"/><path fill="#00000000" fill-rule="evenodd" stroke="currentColor" stroke-linecap="round" stroke-linejoin="round" stroke-width="1.5" d="M8.9 6.56c-1.53.88-1.85 2.75-1.87 2.92a5 5 0 0 0 .38 2.6c.2.39.42 1 .39 1.72-.06 1.28-.87 1.55-1.08 2.84-.18 1.08.14 2.4.97 3.22 1.19 1.14 3.11 1.02 4.32.54 2.94-1.16 3.44-5.19 3.57-6.2s.64-5.14-2.03-7.08c-1.1-.8-3.07-1.47-4.65-.56m-2.02 3.98a4.02 4.02 0 1 1 6.4-3.65"/></svg>