<svg xmlns="http://www.w3.org/2000/svg" width="24" height="24" viewBox="0 0 24 24"><path fill="#00000000" fill-rule="evenodd" stroke="currentColor" stroke-linecap="round" stroke-linejoin="round" stroke-width="1.5" d="M10.42 6.53c-1.54.88-1.86 2.75-1.88 2.93a5 5 0 0 0 .38 2.6c.2.4.42 1 .39 1.72-.06 1.29-.87 1.56-1.09 2.86-.18 1.07.14 2.4.99 3.21 1.18 1.15 3.12 1.03 4.33.55 2.95-1.17 3.46-5.2 3.58-6.21s.65-5.15-2.03-7.1c-1.1-.8-3.09-1.46-4.67-.56m-2.03 3.99a4.02 4.02 0 0 1 2.08-7.26 4.04 4.04 0 0 1 4.34 3.6"/></svg>