<svg xmlns="http://www.w3.org/2000/svg" width="24" height="24" viewBox="0 0 24 24"><path fill="currentColor" stroke="#00000000" d="M18.27 14.48c-.2 0-.37.17-.37.37v3.61a.38.38 0 0 0 .75 0v-3.6a.4.4 0 0 0-.38-.38m-1.32.86c-.2 0-.37.16-.37.37v1.9a.38.38 0 0 0 .75 0v-1.9c0-.2-.17-.37-.38-.37m2.64 0c-.2 0-.37.16-.37.37v1.9a.38.38 0 0 0 .75 0v-1.9c0-.2-.17-.37-.38-.37m-3.96.6c-.2 0-.37.16-.37.37v.7a.38.38 0 0 0 .75 0v-.7a.4.4 0 0 0-.38-.38m5.28 0c-.2 0-.37.17-.37.38v.7a.37.37 0 1 0 .75 0v-.7a.4.4 0 0 0-.38-.38"/><path fill="#00000000" fill-rule="evenodd" stroke="currentColor" stroke-linecap="round" stroke-linejoin="round" stroke-width="1.5" d="M15.95 12.13c0-1.68-.35-3.98-2.15-5.3-1.1-.79-3.07-1.46-4.65-.55-1.53.87-1.85 2.74-1.87 2.92a5 5 0 0 0 .38 2.59c.2.4.42 1 .39 1.72-.06 1.29-.87 1.56-1.08 2.85-.18 1.08.14 2.4.97 3.21 1.19 1.15 3.11 1.03 4.32.55a4.5 4.5 0 0 0 2-1.61m-.21-5.71q.01-.23.25-.25h4.06A4.23 4.23 0 0 1 18.3 21h-.06a4.26 4.26 0 0 1-4.2-4.17zm-6.92-2.54a4.02 4.02 0 1 1 6.4-3.65"/></svg>