<svg xmlns="http://www.w3.org/2000/svg" width="24" height="24" viewBox="0 0 24 24"><path fill="currentColor" stroke="#00000000" d="M20.62 18.24a.62.62 0 1 0-1 .5v.85a.38.38 0 0 0 .75 0v-.86a.6.6 0 0 0 .25-.49"/><path fill="#00000000" fill-rule="evenodd" stroke="currentColor" stroke-linecap="round" stroke-linejoin="round" stroke-width="1.5" d="M8.9 6.28c-1.53.88-1.84 2.75-1.87 2.93a5 5 0 0 0 .39 2.6c.2.4.42 1 .38 1.72-.06 1.29-.86 1.56-1.08 2.86-.18 1.07.14 2.4.98 3.21 1.18 1.15 3.11 1.03 4.33.55 2.94-1.17 3.44-5.2 3.57-6.21s.64-5.15-2.03-7.1c-1.1-.8-3.08-1.47-4.66-.56m-2.02 3.99a4.03 4.03 0 1 1 6.41-3.65m8.28 9.84V14.6a1.57 1.57 0 0 0-3.14 0v1.87M22 21h-4a.75.75 0 0 1-.75-.75v-3.04c0-.41.34-.75.75-.75h4c.41 0 .75.34.75.75v3.04c0 .41-.34.75-.75.75"/></svg>