<svg xmlns="http://www.w3.org/2000/svg" width="24" height="24" viewBox="0 0 24 24"><path fill="currentColor" fill-rule="evenodd" stroke="#00000000" d="m16.91 15.93 1.58.72a.97.97 0 0 1-.97 1.68l-1.4-1c-.47-.27-.68-.78-.45-1.18.22-.38.78-.48 1.24-.22Zm3.12-4.92c.54 0 .97.43.97.96 0 .54-.43.97-.96.97L18 12.78c-.53 0-.96-.34-.96-.8 0-.44.43-.8.96-.8zm-1.2-5a.97.97 0 0 1-.36 1.33l-1.57.72c-.46.26-1.01.19-1.24-.21-.22-.38-.03-.91.43-1.18l1.41-1a.97.97 0 0 1 1.32.35Z"/><path fill="#00000000" fill-rule="evenodd" stroke="currentColor" stroke-linecap="round" stroke-linejoin="round" stroke-width="1.5" d="M12.02 4.87 7.14 9H4.5C3.67 9 3 9.67 3 10.5v3.01c0 .83.68 1.5 1.5 1.5h2.64l4.9 4.12a.5.5 0 0 0 .82-.38l-.02-13.5a.5.5 0 0 0-.82-.38"/></svg>