<svg xmlns="http://www.w3.org/2000/svg" width="24" height="24" viewBox="0 0 24 24"><path fill="currentColor" stroke="#00000000" d="M8.24 5.08a.47.47 0 1 0-.93 0 .47.47 0 0 0 .93 0m2.91 0a.58.58 0 1 0-1.16 0 .58.58 0 0 0 1.16 0m2.8 0a.58.58 0 1 0-1.17 0 .58.58 0 0 0 1.17 0m2.67 0a.46.46 0 1 0-.93 0 .46.46 0 0 0 .93 0M5.45 7.64a.47.47 0 1 0-.93 0 .47.47 0 0 0 .93 0m2.91 0a.58.58 0 1 0-1.16 0 .58.58 0 0 0 1.16 0m8.38 0a.58.58 0 1 0-1.17 0 .58.58 0 0 0 1.17 0m2.67 0a.47.47 0 1 0-.93 0 .47.47 0 0 0 .93 0M8.48 10.43a.7.7 0 1 0-1.4 0 .7.7 0 0 0 1.4 0m8.37 0a.7.7 0 1 0-1.4 0 .7.7 0 0 0 1.4 0m-11.28 2.8a.58.58 0 1 0-1.17 0 .58.58 0 0 0 1.17 0m0-2.8a.58.58 0 1 0-1.17 0 .58.58 0 0 0 1.17 0m2.91 2.8a.7.7 0 1 0-1.4 0 .7.7 0 0 0 1.4 0m-.12 2.79a.58.58 0 1 0-1.16 0 .58.58 0 0 0 1.16 0m8.49-2.79a.7.7 0 1 0-1.4 0 .7.7 0 0 0 1.4 0m-.11 2.79a.58.58 0 1 0-1.17 0 .58.58 0 0 0 1.17 0m2.79-2.79a.58.58 0 1 0-1.17 0 .58.58 0 0 0 1.17 0"/><path fill="currentColor" fill-rule="evenodd" stroke="#00000000" d="M5.45 16.02a.47.47 0 0 0-.93 0 .47.47 0 0 0 .93 0m13.96 0a.47.47 0 0 0-.93 0 .47.47 0 0 0 .93 0"/><path fill="currentColor" stroke="#00000000" d="M8.24 18.58a.47.47 0 1 0-.93 0 .47.47 0 0 0 .93 0"/><path fill="currentColor" fill-rule="evenodd" stroke="#00000000" d="M16.62 18.58a.46.46 0 1 0-.93 0 .47.47 0 0 0 .93 0"/><path fill="currentColor" stroke="#00000000" d="M13.53 9.76a1.56 1.56 0 1 1-3.13 0 1.56 1.56 0 0 1 3.13 0m.73 5.26q.21-.02.23-.23v-.49c0-1.13-1.13-2.18-2.52-2.18s-2.53 1.05-2.53 2.18v.49q.02.21.24.23z"/><path fill="currentColor" stroke="#00000000" d="M19.53 10.43a.58.58 0 1 0-1.16 0 .58.58 0 0 0 1.16 0" clip-path="url(#a)"/><clipPath id="a"><path d="M18.37 9.85h1.16v1.17h-1.16z"/></clipPath><path fill="currentColor" fill-rule="evenodd" stroke="#00000000" d="M11.15 18.58a.58.58 0 1 0-1.16 0 .58.58 0 0 0 1.16 0" clip-path="url(#b)"/><clipPath id="b"><path d="M9.99 18h1.16v1.16H10z"/></clipPath><path fill="currentColor" stroke="#00000000" d="M13.95 18.58a.58.58 0 1 0-1.17 0 .58.58 0 0 0 1.17 0" clip-path="url(#c)"/><clipPath id="c"><path d="M12.78 18h1.17v1.16h-1.17z"/></clipPath></svg>