<svg xmlns="http://www.w3.org/2000/svg" width="80" height="80" viewBox="0 0 80 80"><path fill="currentColor" fill-rule="evenodd" stroke="#00000000" d="M31 34.5a2.5 2.5 0 1 1-5 0 2.5 2.5 0 0 1 5 0m24 0a2.5 2.5 0 1 1-5 0 2.5 2.5 0 0 1 5 0M40.85 44c-.69 0-1.25-.6-1.25-1.36V32.36c0-.75.56-1.36 1.25-1.36.7 0 1.25.6 1.25 1.36v10.28c0 .75-.56 1.36-1.25 1.36m-8.4 7.29c2.12 2.17 5 3.42 8.05 3.42s5.93-1.25 8.05-3.42zM40.5 57a13.5 13.5 0 0 1-11.31-6.22c-.23-.35-.25-.8-.06-1.17.2-.38.57-.61.98-.61h20.78c.41 0 .79.23.98.6.2.38.17.83-.06 1.18A13.5 13.5 0 0 1 40.5 57Z"/><path fill="currentColor" fill-rule="evenodd" stroke="#00000000" d="M40.45 8.82A30.77 30.77 0 0 0 9.72 39.55a30.77 30.77 0 0 0 30.73 30.73 30.77 30.77 0 0 0 30.73-30.73A30.77 30.77 0 0 0 40.45 8.82m0 64.18C22 73 7 58 7 39.55 7 21.11 22 6.1 40.45 6.1c18.44 0 33.45 15 33.45 33.45S58.9 73 40.45 73" clip-path="url(#a)"/><clipPath id="a"><path d="M7 6.1h66.9V73H7z"/></clipPath></svg>