<svg xmlns="http://www.w3.org/2000/svg" width="40" height="40" viewBox="0 0 40 40"><path fill="currentColor" stroke="#00000000" stroke-width=".4" d="M29.09 31.9a8.5 8.5 0 0 1-4.81-1.48c-3.23-2.2-4.97-6.1-4.76-10.39 0-.36.36-.67.71-.67.36 0 .67.36.67.72-.2 3.84 1.33 7.27 4.15 9.21a7 7 0 0 0 4.14 1.23c.36 0 .72.3.72.67 0 .36-.31.71-.67.71zM14.2 34c-.16 0-.36-.05-.46-.2a10 10 0 0 1-1.9-2.51A21.4 21.4 0 0 1 9.7 18.75c0-.15.05-.3.05-.46.05-.36.41-.61.82-.56.36.05.62.4.57.82 0 .15-.06.25-.06.4-.5 4.15.2 8.2 2.05 11.73q.63 1.22 1.64 2.14c.25.26.3.72 0 .98-.2.15-.36.2-.56.2Zm15.7-10.9h-.15c-.35-.1-.61-.46-.5-.82a9.3 9.3 0 0 0-4.97-10.49 9.3 9.3 0 0 0-11.31 2.61c-.26.3-.67.36-.97.1a.66.66 0 0 1-.1-.97 10.74 10.74 0 0 1 13-3.02 10.7 10.7 0 0 1 5.67 12.08.7.7 0 0 1-.66.51Z"/><path fill="currentColor" stroke="#00000000" stroke-width=".4" d="M23.2 35.33c-.05 0-.15 0-.2-.05a10 10 0 0 1-3.58-2.15 16.5 16.5 0 0 1-4.81-13.77c.2-1.53.92-2.86 2.14-3.78a6 6 0 0 1 4.2-1.18 5.6 5.6 0 0 1 4.91 6.3c-.35 2.81 1.03 4.96 3.48 5.37 1.03.2 2.1-.1 3.02-.77a5.2 5.2 0 0 0 2.05-3.58A14.26 14.26 0 0 0 22.03 6 14.3 14.3 0 0 0 6.16 18.29c-.36 2.3-.3 4.6 0 6.86.1.51.2 1.02.41 1.53l.05.1a.65.65 0 0 1-.4.88.65.65 0 0 1-.88-.41l-.05-.06a8 8 0 0 1-.51-1.84 26 26 0 0 1-.05-7.16 15.6 15.6 0 0 1 17.4-13.46 15.7 15.7 0 0 1 13.61 17.24 6.5 6.5 0 0 1-2.56 4.5 5.2 5.2 0 0 1-4.1 1.03c-3.11-.51-5-3.32-4.6-6.9a4.24 4.24 0 0 0-3.73-4.77 4.34 4.34 0 0 0-4.81 3.74c-.52 4.86 1.07 9.47 4.4 12.59q1.31 1.23 3.07 1.84c.36.1.56.51.4.87-.1.26-.35.46-.6.46Z"/></svg>