<svg xmlns="http://www.w3.org/2000/svg" width="24" height="24" viewBox="0 0 24 24"><path fill="#00000000" fill-rule="evenodd" stroke="currentColor" stroke-linecap="round" stroke-linejoin="round" stroke-width="1.5" d="m16.6 16.47-2.76 2.09m-2.9 1.94H7.2A2.5 2.5 0 0 1 4.7 18V6a2.5 2.5 0 0 1 2.5-2.5h7A2.5 2.5 0 0 1 16.7 6v3.18m-7.64 8.09h1.88m2.9-3.29 7.7 5.79"/><path fill="currentColor" stroke="#00000000" d="M16.07 19.84a1.24 1.24 0 0 0 1.25 1.25q.4 0 .74-.24L20 19.44a.75.75 0 0 0-.89-1.21l-1.53 1.12v-2.67l.37-.28-1.87-1.3zm1.5-6.66 1.09.8-.52.39 1.24.94.64-.49c.26-.22.4-.56.38-.9-.03-.36-.2-.69-.49-.88l-1.84-1.36a1.2 1.2 0 0 0-1.31-.1c-.42.21-.69.64-.69 1.11v.13l1.5 1.13z"/></svg>