<svg xmlns="http://www.w3.org/2000/svg" width="24" height="24" viewBox="0 0 24 24"><path fill="currentColor" stroke="#00000000" d="m7.06 6.6 1.76 1.76 1.06 1.06 4.66 4.66-1.18-.9v5.69q-.02.05.07.11.08.04.12 0h.01l3.39-2.5 1.07 1.08-3.57 2.62q-.36.27-.8.31h-.16a1.6 1.6 0 0 1-1.62-1.47l-.01-.15v-5.54l-4.59 3.46a.75.75 0 0 1-.98-1.12l.08-.08 5.09-3.84-5.1-3.84a.75.75 0 0 1 .7-1.32Zm7.26-3.37.13.09 3.73 2.73a1.53 1.53 0 0 1 .17 2.37l-.03.02-.02.02-4.14 3.13-2.3-2.3V4.62c0-.57.29-1.08.76-1.38l.13-.07c.5-.26 1.1-.23 1.57.05ZM13.5 4.5l-.06.01a.1.1 0 0 0-.07.1v5.7l3.98-3-.01-.02-.02-.02-3.75-2.74q0-.02-.07-.03Zm-8.76-.24a.75.75 0 0 0-1.01 1.1L7.8 9.44l1.06 1.06 10.27 10.27a.75.75 0 0 0 1.06 0 .75.75 0 0 0 .04-1.01z"/><path fill="currentColor" stroke="#00000000" d="M4.73 4.26a.75.75 0 0 0-1.01 1.1L7.8 9.44l1.06 1.06 10.27 10.27a.75.75 0 0 0 1.06 0 .75.75 0 0 0 .04-1.01z"/></svg>