<svg xmlns="http://www.w3.org/2000/svg" width="24" height="24" viewBox="0 0 24 24"><path fill="#00000000" fill-rule="evenodd" stroke="currentColor" stroke-linecap="round" stroke-linejoin="round" stroke-width="1.5" d="M10.74 20.92H7a2.5 2.5 0 0 1-2.5-2.5v-12A2.5 2.5 0 0 1 7 3.92h7a2.5 2.5 0 0 1 2.5 2.5V9.6m-2.86 4.8 5.63 4.25c.27.17.3.4.08.6l-1.93 1.41a.5.5 0 0 1-.8-.4v-7.15a.5.5 0 0 1 .8-.4l1.85 1.35a.4.4 0 0 1 .06.62l-5.68 4.3m-4.78-1.3h1.87"/><path fill="#00000000" fill-rule="evenodd" stroke="currentColor" stroke-linecap="round" stroke-linejoin="round" stroke-width="1.25" d="M22.93 20.09a4.67 4.67 0 0 0 0-6.74h0m-1.28 5.48a3.07 3.07 0 0 0 0-4.22h0"/></svg>