<svg xmlns="http://www.w3.org/2000/svg" width="24" height="24" viewBox="0 0 24 24"><path fill="#00000000" stroke="currentColor" stroke-linecap="round" stroke-linejoin="round" stroke-width="1.5" d="m15.88 9.3-1.62 1.68a.3.3 0 0 0-.08.24l.34 2.38q.02.18-.06.24a.2.2 0 0 1-.19.08l-.15-.05-2.03-1.1a.3.3 0 0 0-.23 0l-2.04 1.08q-.21.09-.34-.05a.3.3 0 0 1-.06-.24l.37-2.37a.4.4 0 0 0-.07-.24l-1.6-1.7q-.12-.15-.08-.3.05-.14.23-.17l2.26-.38a.3.3 0 0 0 .19-.14l1.06-2.13q.08-.17.24-.17t.24.17l1.03 2.14a.3.3 0 0 0 .2.15l2.24.4q.18.05.23.19.04.16-.08.28m.45-6.12H7.67A2.5 2.5 0 0 0 5.13 5.6v14.23a1 1 0 0 0 1.54.83l5.06-3.13a.5.5 0 0 1 .54 0l5.06 3.13a1 1 0 0 0 1.55-.83V5.6a2.5 2.5 0 0 0-2.55-2.43"/></svg>