<svg xmlns="http://www.w3.org/2000/svg" width="24" height="24" viewBox="0 0 24 24"><path fill="#00000000" fill-rule="evenodd" stroke="currentColor" stroke-linecap="round" stroke-linejoin="round" stroke-width="1.5" d="M14.58 12c0-.83.67-1.5 1.5-1.5h2.31a1.5 1.5 0 0 0 1.35-2.17 8.25 8.25 0 1 0 0 7.35c.5-1-.23-2.18-1.35-2.18h-2.31a1.5 1.5 0 0 1-1.5-1.5"/><path fill="currentColor" d="M12.4 16.13a1.12 1.12 0 1 1 0 2.24 1.12 1.12 0 0 1 0-2.24m-3.75-1.38a1 1 0 1 1 0 2 1 1 0 0 1 0-2M6.9 10.88a1.12 1.12 0 1 1 0 2.24 1.12 1.12 0 0 1 0-2.24m1.75-3.75a1.12 1.12 0 1 1 0 2.24 1.12 1.12 0 0 1 0-2.24m3.75-1.5a1.12 1.12 0 1 1 0 2.24 1.12 1.12 0 0 1 0-2.24"/></svg>