<svg xmlns="http://www.w3.org/2000/svg" width="24" height="24" viewBox="0 0 24 24"><path fill="currentColor" fill-rule="evenodd" d="M12.48 6.76a1.43 1.43 0 1 1 0-2.85 1.43 1.43 0 0 1 0 2.85m0 13.34a1.43 1.43 0 1 1 0-2.86 1.43 1.43 0 0 1 0 2.86M7.72 8.67a1.43 1.43 0 1 1 .01-2.86 1.43 1.43 0 0 1 0 2.86m0 9.52a1.43 1.43 0 1 1 0-2.85 1.43 1.43 0 0 1 0 2.85M4.4 12a1.43 1.43 0 1 1 2.85 0 1.43 1.43 0 0 1-2.85 0m15 1.8h-3.23c-1 0-1.82-.84-1.79-1.85.03-.99.89-1.74 1.87-1.74h3.15a2.1 2.1 0 0 0 1.83-3.1 10 10 0 1 0 0 9.79 2.1 2.1 0 0 0-1.83-3.1"/></svg>