<svg xmlns="http://www.w3.org/2000/svg" width="24" height="24" viewBox="0 0 24 24"><path fill="currentColor" stroke="#00000000" d="M20.37 17.24a.62.62 0 1 0-1 .5v.85a.38.38 0 0 0 .75 0v-.86a.6.6 0 0 0 .25-.49"/><path fill="#00000000" fill-rule="evenodd" stroke="currentColor" stroke-linecap="round" stroke-linejoin="round" stroke-width="1.5" d="M12.42 9.4h-.02q-3.35 0-3.36 2.7c0 2.2 1.85 4.06 3.36 4.06h.02c1.51 0 3.36-1.87 3.36-4.05q0-2.7-3.36-2.71m8.9 6.06V13.6a1.57 1.57 0 0 0-3.14 0v1.87M21.75 20h-4a.75.75 0 0 1-.75-.75v-3.04c0-.41.34-.75.75-.75h4c.41 0 .75.34.75.75v3.04c0 .41-.34.75-.75.75M5.5 11.68c-.01-.43.02-1.13.34-1.9a5 5 0 0 1 1.9-2.1c1.8-1.22 3.75-1.16 4.8-1.14a8 8 0 0 1 3.32.85m1 10.31q-.58.69-1.33 1.2a5.4 5.4 0 0 1-3.1 1.1c-1.8 0-3.1-1.1-3.93-1.82a9 9 0 0 1-2.1-2.67 9 9 0 0 1-.89-4.3q.16-3.9 2.8-5.98A6 6 0 0 1 11.63 4q.14 0 .24.03c.9.26 1.42 1.1 1.58 1.36 1.15 1.87 3.2 1.7 4.44 4.13.56 1.1.72 2.15.76 2.78"/></svg>