<svg xmlns="http://www.w3.org/2000/svg" width="24" height="24" viewBox="0 0 24 24"><path fill="#00000000" fill-rule="evenodd" stroke="currentColor" stroke-linecap="round" stroke-linejoin="round" stroke-width="1.25" d="M22.23 14.67a.8.8 0 0 0-.85.8c.09-.53-.3-1-.77-1.02a.86.86 0 0 0-.85.85c.09-.52-.3-.98-.76-1a.85.85 0 0 0-.86.84v-2.96a.8.8 0 0 0-.8-.82.8.8 0 0 0-.82.82v4.94l-.35-.4a1 1 0 0 0-.55-.3.8.8 0 0 0-.61.13c-.25.2-.26.52-.26.6 0 .32.17.54.23.6l1.3 1.5c.09.11 1.8 2.1 3.98 1.7a3.6 3.6 0 0 0 1.8-.97 3.5 3.5 0 0 0 .94-2.45v-2.02a.8.8 0 0 0-.77-.84m-1.68-1.85a3.37 3.37 0 0 0-3.22-4.3 3.36 3.36 0 0 0-2.92 5"/><path fill="#00000000" fill-rule="evenodd" stroke="currentColor" stroke-linecap="round" stroke-linejoin="round" stroke-width="1.5" d="M14.76 9.4q-.81-1-2.84-1h-.02q-3.35 0-3.36 2.7c0 2.2 1.85 4.06 3.36 4.06h.02c.83 0 1.75-.55 2.42-1.42M5 10.68c-.01-.43.02-1.13.34-1.9a5 5 0 0 1 1.9-2.1 8 8 0 0 1 4.56-1.14 7 7 0 0 1 3.56.85M14.9 18a5.2 5.2 0 0 1-2.97 1c-1.8 0-3.07-1.08-3.94-1.82a8.6 8.6 0 0 1-2.98-6.98q.16-3.87 2.8-5.97A6 6 0 0 1 11.13 3q.14 0 .24.03c.9.26 1.42 1.1 1.58 1.36 1.15 1.87 3.2 1.7 4.44 4.13"/></svg>