<svg xmlns="http://www.w3.org/2000/svg" width="24" height="24" viewBox="0 0 24 24"><path fill="currentColor" stroke="#00000000" d="M21 4a2 2 0 1 1 0 4 2 2 0 0 1 0-4"/><path fill="#00000000" fill-rule="evenodd" stroke="currentColor" stroke-linecap="round" stroke-linejoin="round" stroke-width="1.5" d="M11.92 9.4h-.02q-3.35 0-3.36 2.7c0 2.2 1.85 4.06 3.36 4.06h.02c1.51 0 3.36-1.87 3.36-4.05q0-2.7-3.36-2.71M5 11.68c-.01-.43.02-1.13.34-1.9a5 5 0 0 1 1.9-2.1 8 8 0 0 1 4.8-1.14 8 8 0 0 1 3.32.85M11.12 4q.13 0 .24.03c.9.26 1.42 1.1 1.58 1.36 1.15 1.87 3.2 1.7 4.44 4.13a7.5 7.5 0 0 1-2.35 9.38 5.4 5.4 0 0 1-3.1 1.1c-1.8 0-3.1-1.1-3.94-1.82A9 9 0 0 1 5.9 15.5a9 9 0 0 1-.89-4.3q.16-3.9 2.8-5.98A6 6 0 0 1 11.13 4"/></svg>