<svg xmlns="http://www.w3.org/2000/svg" width="24" height="24" viewBox="0 0 24 24"><path fill="currentColor" stroke="#00000000" d="M23.25 18.25h-2.27a.25.25 0 0 1-.25-.25v-1.35c0-.13.1-.25.25-.25h2.27c.14 0 .25.12.25.25V18q-.02.23-.25.25m-6.98.92H14a.25.25 0 0 1-.25-.25v-1.35c0-.13.11-.25.25-.25h2.27c.14 0 .25.12.25.25v1.35q-.01.23-.25.25m3.5-3.75h-2.28a.25.25 0 0 1-.25-.25v-1.35c0-.13.11-.25.25-.25h2.27c.14 0 .25.12.25.25v1.35q-.02.23-.25.25"/><path fill="#00000000" fill-rule="evenodd" stroke="currentColor" stroke-linecap="round" stroke-linejoin="round" stroke-width="1.5" d="M14.3 9.96q-.78-1.05-2.88-1.06h-.02q-3.35 0-3.36 2.7c0 2.2 1.85 4.06 3.36 4.06h.02M4.5 11.18c-.01-.43.02-1.13.34-1.9a5 5 0 0 1 1.9-2.1 8 8 0 0 1 4.8-1.14 8 8 0 0 1 3.32.85m-3.83 12.59c-1.6-.15-2.76-1.14-3.54-1.8A9 9 0 0 1 5.4 15a9 9 0 0 1-.89-4.3q.16-3.9 2.8-5.98a6 6 0 0 1 3.31-1.23q.14 0 .24.03c.9.26 1.42 1.1 1.58 1.35 1.15 1.88 3.2 1.7 4.44 4.14l.2.44m5.03 3.07v7.97m-3.48 0v-7.97m-3.5 7.97v-7.97"/></svg>