<svg xmlns="http://www.w3.org/2000/svg" width="24" height="24" viewBox="0 0 24 24"><path fill="currentColor" stroke="#00000000" d="M17.15 15.73h-.6v-.6c0-.2-.16-.37-.37-.37s-.38.17-.38.38v.6h-.6a.38.38 0 0 0 0 .74h.6v.6a.38.38 0 0 0 .75 0v-.6h.6a.37.37 0 1 0 0-.75m3.53 1.16a.54.54 0 1 1-1.09 0 .54.54 0 0 1 1.09 0m-1.22-1.33a.54.54 0 1 1-1.09 0 .54.54 0 0 1 1.09 0"/><path fill="#00000000" fill-rule="evenodd" stroke="currentColor" stroke-linecap="round" stroke-linejoin="round" stroke-width="1.5" d="M16.02 13.28q.26-.67.26-1.42 0-2.7-3.36-2.71h-.02q-3.35 0-3.36 2.7c0 2.2 1.85 4.06 3.36 4.06h.02q.26 0 .51-.06m8.57.54c0-1.6-1.3-2.9-2.9-2.9h-2.57a2.9 2.9 0 0 0-2.9 2.9v2.73c0 .7.6 1.13 1.14 1.13q.43 0 .76-.3l1.24-1.17q.07-.07.18-.07h1.74q.1 0 .17.07l1.25 1.16a1.13 1.13 0 0 0 1.79-.34q.1-.21.1-.48zM6 11.43c-.01-.43.02-1.13.34-1.9a5 5 0 0 1 1.9-2.1 8 8 0 0 1 4.8-1.14 8 8 0 0 1 3.32.85M13.64 19.7a5 5 0 0 1-.71.05c-1.8 0-3.1-1.1-3.94-1.82a9 9 0 0 1-2.09-2.67 9 9 0 0 1-.89-4.3q.16-3.9 2.8-5.98a6 6 0 0 1 3.31-1.23q.14 0 .24.03c.9.26 1.42 1.1 1.58 1.36 1.15 1.87 3.2 1.7 4.44 4.13a7.3 7.3 0 0 1 .74 4.03"/></svg>