<svg xmlns="http://www.w3.org/2000/svg" width="24" height="24" viewBox="0 0 24 24"><path fill="#00000000" fill-rule="evenodd" stroke="currentColor" stroke-linecap="round" stroke-linejoin="round" stroke-width="1.5" d="M14.5 11.64q-.28-2.24-3.33-2.24h-.02q-3.35 0-3.36 2.7c0 1.98 1.5 3.7 2.9 4.01m-6.44-4.43c-.01-.43.02-1.13.34-1.9a5 5 0 0 1 1.9-2.1 8 8 0 0 1 4.8-1.13 8 8 0 0 1 3.32.84m-2.35 12.46q-.5.13-1.08.15c-1.76.04-3.06-1.07-3.94-1.82a9 9 0 0 1-2.09-2.67 9 9 0 0 1-.89-4.3q.16-3.9 2.8-5.98A6 6 0 0 1 10.38 4q.13 0 .24.03c.9.26 1.42 1.1 1.58 1.36 1.15 1.87 3.2 1.7 4.44 4.13l.3.68m6.82 6.66H21.4a.25.25 0 0 1-.24-.2l-.5-2.11c-.02-.13-.2-.13-.23 0L18.9 19.9c-.04.13-.22.12-.24-.01l-1.33-6.57c-.02-.14-.2-.14-.24-.01l-.86 3.37a.25.25 0 0 1-.24.19h-2.15"/></svg>