<svg xmlns="http://www.w3.org/2000/svg" width="24" height="24" viewBox="0 0 24 24"><path fill="currentColor" fill-rule="evenodd" stroke="#00000000" d="m14.33 15.82-1.93.5-.18.02a.76.76 0 0 1-.19-1.5l1.92-.48a.75.75 0 1 1 .38 1.46m-7.3 3.02a3.98 3.98 0 0 1-1.12-6.73c-.38 3.1.93 5.65 3.68 6.87-.84.23-1.73.2-2.56-.14m12.65-9.99a6.9 6.9 0 0 0-3.97-4.34 6 6 0 0 0-5.52.34 9 9 0 0 0-3.56 4.49l-.26.7h-.02a5.5 5.5 0 0 0-2.9 7.25 5.5 5.5 0 0 0 5.06 3.35q1.52 0 2.89-.81l.31-.27q.31.03.62.03c3.17 0 6.07-2.28 7.2-5.08a8.4 8.4 0 0 0 .15-5.66"/></svg>