<svg xmlns="http://www.w3.org/2000/svg" width="24" height="24" viewBox="0 0 24 24"><path fill="currentColor" stroke="#00000000" d="M18.51 14.67h-2.27a.25.25 0 0 1-.25-.25v-1.35c0-.13.1-.25.25-.25h2.27c.14 0 .25.12.25.25v1.35q-.02.23-.25.25M22 17.5h-2.27a.25.25 0 0 1-.25-.25V15.9c0-.13.1-.25.25-.25H22c.14 0 .25.12.25.25v1.35q-.02.23-.25.25m-6.98.92h-2.27a.25.25 0 0 1-.25-.25v-1.35c0-.13.11-.25.25-.25h2.27c.14 0 .25.12.25.25v1.35q-.01.23-.25.25"/><path fill="#00000000" fill-rule="evenodd" stroke="currentColor" stroke-linecap="round" stroke-linejoin="round" stroke-width="1.5" d="M10.28 18.11c-.56-.02-3.19-.24-4.72-2.42a6.2 6.2 0 0 1-.93-4.23c.25-2.81 2.14-6.52 5.5-7.13 2.4-.43 4.32.93 4.53 1.07a6.2 6.2 0 0 1 2.36 3.57m-7.43 9.1a4.71 4.71 0 0 1-7.84-3.56c0-2.05 1.3-3.8 3.13-4.45m5.3 4.89.72-.2m9.96-2.97v7.97m-3.49 0v-7.97m-3.48 7.97v-7.97"/></svg>