<svg xmlns="http://www.w3.org/2000/svg" width="24" height="24" viewBox="0 0 24 24"><path fill="#00000000" fill-rule="evenodd" stroke="currentColor" stroke-linecap="round" stroke-linejoin="round" stroke-width="1.25" d="M21.23 13.67a.8.8 0 0 0-.85.79c.09-.52-.3-.99-.77-1a.85.85 0 0 0-.85.84c.09-.52-.3-.98-.76-1a.85.85 0 0 0-.86.84v-2.96a.8.8 0 0 0-.8-.82.8.8 0 0 0-.82.82v4.94l-.35-.4a1 1 0 0 0-.55-.3.7.7 0 0 0-.61.13c-.26.2-.26.52-.26.6 0 .33.17.54.23.6l1.3 1.5c.09.11 1.8 2.1 3.98 1.7a3.6 3.6 0 0 0 1.81-.97c.93-.96.93-2.18.93-2.45v-2.02a.8.8 0 0 0-.77-.84m-1.68-1.85a3.36 3.36 0 1 0-6.14.7"/><path fill="#00000000" fill-rule="evenodd" stroke="currentColor" stroke-linecap="round" stroke-linejoin="round" stroke-width="1.5" d="M13.75 17.05a6.16 6.16 0 0 1-7.94-1.61 6.2 6.2 0 0 1-.93-4.24c.25-2.8 2.14-6.51 5.5-7.12 2.4-.43 4.33.93 4.53 1.07a6 6 0 0 1 1.9 2.3M9.84 17.81A4.71 4.71 0 0 1 2 14.26c0-2.05 1.3-3.8 3.13-4.45m5.3 4.89 1.91-.5"/></svg>