<svg xmlns="http://www.w3.org/2000/svg" width="24" height="24" viewBox="0 0 24 24"><path fill="currentColor" stroke="#00000000" d="M19.37 16.53a.62.62 0 1 0-1 .49v.85a.38.38 0 0 0 .75 0v-.85a.6.6 0 0 0 .25-.5"/><path fill="#00000000" fill-rule="evenodd" stroke="currentColor" stroke-linecap="round" stroke-linejoin="round" stroke-width="1.5" d="M15.71 17.3a6.3 6.3 0 0 1-3.6 1.08c-.31 0-3.17-.11-4.8-2.43a6.2 6.2 0 0 1-.92-4.24c.24-2.81 2.13-6.52 5.5-7.13 2.4-.43 4.34.93 4.53 1.07a6.2 6.2 0 0 1 2.25 3.16q.36 1.13.37 2.33m1.28 3.6v-1.87a1.57 1.57 0 1 0-3.14 0v1.88m3.57 4.53h-4a.75.75 0 0 1-.75-.75V15.5c0-.42.33-.75.75-.75h4c.41 0 .75.33.75.75v3.03c0 .42-.34.75-.75.75m-9.4-.95a4.72 4.72 0 0 1-7.85-3.56c0-2.05 1.3-3.8 3.13-4.46m5.3 4.9 1.92-.5"/></svg>