<svg xmlns="http://www.w3.org/2000/svg" width="24" height="24" viewBox="0 0 24 24"><path fill="#00000000" fill-rule="evenodd" stroke="currentColor" stroke-linecap="round" stroke-linejoin="round" stroke-width="1.5" d="M12.39 9.07h-.02q-3.83.01-3.84 3.05c0 2.46 2.1 4.56 3.84 4.56h.02c1.72 0 3.83-2.1 3.83-4.56q-.01-3.04-3.83-3.05M4.5 11.64c-.02-.48.02-1.28.4-2.14a5.4 5.4 0 0 1 2.15-2.37c2.06-1.36 4.28-1.3 5.48-1.27a9 9 0 0 1 3.78.96M11.48 3q.15 0 .27.04a3.4 3.4 0 0 1 1.8 1.52c1.3 2.11 3.65 1.92 5.06 4.65.78 1.52.88 2.92.89 3.52a8.4 8.4 0 0 1-3.57 7.04c-.6.4-1.84 1.24-3.53 1.23-2.06-.01-3.53-1.25-4.49-2.05a10 10 0 0 1-2.38-3A10 10 0 0 1 4.5 11.1q.2-4.37 3.2-6.72A7 7 0 0 1 11.48 3"/></svg>