<svg xmlns="http://www.w3.org/2000/svg" width="24" height="24" viewBox="0 0 24 24"><path fill="currentColor" stroke="#00000000" d="M16.65 15.48h-.6v-.6a.37.37 0 1 0-.75 0v.6h-.6a.38.38 0 0 0 0 .75h.6v.6a.38.38 0 0 0 .75 0v-.6h.6a.38.38 0 0 0 0-.75m3.53 1.16a.54.54 0 1 1-1.09 0 .54.54 0 0 1 1.09 0m-1.22-1.33a.54.54 0 1 1-1.09 0 .54.54 0 0 1 1.09 0"/><path fill="#00000000" fill-rule="evenodd" stroke="currentColor" stroke-linecap="round" stroke-linejoin="round" stroke-width="1.5" d="M12.87 17.63q-.84.25-1.77.23c-.31 0-3.17-.1-4.79-2.42a6.2 6.2 0 0 1-.93-4.24c.25-2.8 2.14-6.51 5.5-7.12 2.4-.43 4.33.93 4.53 1.07a6.2 6.2 0 0 1 2.24 3.15 7.5 7.5 0 0 1 .07 4.45m3.78 3.4c0-1.6-1.3-2.9-2.9-2.9h-2.57a2.9 2.9 0 0 0-2.9 2.9v2.72c0 .7.6 1.13 1.14 1.13q.43 0 .76-.3l1.24-1.17q.08-.07.17-.07h1.75q.1 0 .17.07l1.24 1.16q.33.3.77.3c.54.01 1.13-.42 1.13-1.12zM10.34 17.8a4.71 4.71 0 0 1-7.84-3.55c0-2.05 1.3-3.8 3.12-4.45m5.3 4.89 1.92-.5"/></svg>