<svg xmlns="http://www.w3.org/2000/svg" width="24" height="24" viewBox="0 0 24 24"><path fill="currentColor" stroke="#00000000" d="M20 3.5a2 2 0 1 1 0 4 2 2 0 0 1 0-4"/><path fill="#00000000" fill-rule="evenodd" stroke="currentColor" stroke-linecap="round" stroke-linejoin="round" stroke-width="1.5" d="M5.81 16.95a6.2 6.2 0 0 1-.93-4.23c.25-2.81 2.14-6.52 5.5-7.12 2.4-.43 4.33.93 4.53 1.07a6.2 6.2 0 0 1 2.24 3.15 7.5 7.5 0 0 1-.14 5.04c-.94 2.35-3.4 4.58-6.4 4.52-.32 0-3.18-.11-4.8-2.43m4.03 2.38A4.71 4.71 0 0 1 2 15.77c0-2.05 1.3-3.79 3.12-4.45m5.3 4.89 1.92-.49"/></svg>