<svg xmlns="http://www.w3.org/2000/svg" width="24" height="24" viewBox="0 0 24 24"><path fill="#00000000" fill-rule="evenodd" stroke="currentColor" stroke-linecap="round" stroke-linejoin="round" stroke-width="1.5" d="M9.63 17.61c-.56-.02-3.19-.24-4.72-2.42a6.2 6.2 0 0 1-.93-4.23c.25-2.81 2.14-6.52 5.5-7.13 2.4-.43 4.32.93 4.53 1.07a6.2 6.2 0 0 1 2.36 3.57m-4.5 7.43H15l.96-3.74 1.4 6.96L19 13.33l.58 2.54h3.32m-.6-4.02-8.4 8.4m-4.96-2.69a4.71 4.71 0 0 1-7.84-3.55c0-2.05 1.3-3.8 3.12-4.45m5.3 4.89.73-.2"/></svg>