<svg xmlns="http://www.w3.org/2000/svg" width="24" height="24" viewBox="0 0 24 24"><path fill="currentColor" fill-rule="evenodd" stroke="#00000000" d="M13.07 4.18c-1-.14-2.3.05-3.16.49a4.9 4.9 0 0 0-2.35 3.66 3.5 3.5 0 0 1-.42-2.23 3.6 3.6 0 0 1 4.1-3.03c.87.12 1.65.53 2.22 1.18l-.4-.07m2.68 1.2a5.1 5.1 0 0 0-4.3-3.82 5.16 5.16 0 0 0-5.82 4.33 5 5 0 0 0 2.1 4.85q.08.3.2.54l.2.45c.23.44.52 1.25.4 2.01q-.15 1-.57 1.6-.6.86-.78 1.97c-.34 2.37.83 4.7 3.56 5.15 4.53.47 6.85-3.32 7.55-8.21.57-3.96-.53-7.2-2.54-8.88"/></svg>