<svg xmlns="http://www.w3.org/2000/svg" width="24" height="24" viewBox="0 0 24 24"><path fill="currentColor" fill-rule="evenodd" stroke="#00000000" d="M11.43 2.13c1.2 0 1.8.88 2.25 1.7.55 1 2.26 2.1 2.87 2.45a7.3 7.3 0 0 1 3.55 7.05q-.07 1.2-.47 2.4a10 10 0 0 1-3.96 5.19 6 6 0 0 1-3.24.95c-1.71 0-3.45-.8-4.86-2.25a10.5 10.5 0 0 1-3.68-8.6q.2-4.8 3.46-7.38a7.5 7.5 0 0 1 4.08-1.51Zm1 5.78h-.04q-5 0-5.02 4.05c0 3.26 2.76 6.06 5.02 6.06h.03c2.26 0 5.02-2.8 5.02-6.06q0-4.04-5.02-4.05Zm0 1.7c2.29 0 3.3.77 3.3 2.5 0 2.23-1.85 4.2-3.3 4.2h-.04c-1.46 0-3.32-1.97-3.32-4.2 0-1.73 1.03-2.5 3.32-2.5Zm-1-6.2c-.7 0-2.2.4-3.27 1.25a7.7 7.7 0 0 0-2.85 5.1 7.3 7.3 0 0 1 6.97-4.5h.3q.3 0 .58.03a5 5 0 0 1-.61-.83c-.49-.88-.76-1.04-1.12-1.04Z"/></svg>