<svg xmlns="http://www.w3.org/2000/svg" width="24" height="24" viewBox="0 0 24 24"><path fill="currentColor" stroke="#00000000" d="M17.27 18.09a.4.4 0 0 1-.37-.38v-3.6a.38.38 0 0 1 .75 0v3.6c0 .2-.17.38-.38.38m-1.32-.86a.4.4 0 0 1-.37-.37v-1.9a.38.38 0 0 1 .75 0v1.9c0 .2-.17.37-.38.37m3.96-.6a.4.4 0 0 1-.37-.37v-.7a.38.38 0 0 1 .75 0v.7c0 .2-.17.37-.38.37m-1.32.6a.4.4 0 0 1-.37-.37v-1.9a.38.38 0 0 1 .75 0v1.9c0 .2-.17.37-.38.37m-3.96-.6a.37.37 0 0 1-.37-.37v-.7a.37.37 0 1 1 .75 0v.7c0 .2-.17.37-.38.37"/><path fill="#00000000" fill-rule="evenodd" stroke="currentColor" stroke-linecap="round" stroke-linejoin="round" stroke-width="1.5" d="M13.04 17.33q-.91.3-1.93.28c-.32 0-3.18-.1-4.8-2.42a6.2 6.2 0 0 1-.93-4.23c.25-2.82 2.14-6.52 5.5-7.13 2.4-.43 4.33.93 4.53 1.07a6.2 6.2 0 0 1 2.24 3.15c.36 1.1.46 2.29.3 3.42m-4.9.58q.02-.23.24-.25h4.07a4.23 4.23 0 0 1-.06 8.45h-.06a4.26 4.26 0 0 1-4.2-4.17zm-2.7 5.51a4.71 4.71 0 0 1-7.85-3.55c0-2.05 1.3-3.8 3.12-4.45m5.3 4.89 1.92-.5"/></svg>