<svg xmlns="http://www.w3.org/2000/svg" width="24" height="24" viewBox="0 0 24 24"><path fill="#00000000" fill-rule="evenodd" stroke="currentColor" stroke-linecap="round" stroke-linejoin="round" stroke-width="1.5" d="M5.99 14.17h.57c.63 0 1.2.42 1.43 1.05l1.29 3.48c.13.35.6.35.72-.01l3.39-9.86c.23-.65.8-1.08 1.44-1.08H21"/><path fill="currentColor" stroke="#00000000" d="M4.04 8.23h.71q.5 0 .71-.26.22-.27.22-.75t-.24-.74q-.22-.26-.69-.26-.41 0-.67.25a1 1 0 0 0-.26.68h-.98l-.01-.03q-.03-.75.52-1.27.54-.52 1.4-.52.89 0 1.41.5.54.48.54 1.39 0 .42-.24.81a1.6 1.6 0 0 1-.68.61q.51.2.76.61t.25.93q0 .9-.58 1.43-.57.51-1.47.52-.84 0-1.42-.5a1.6 1.6 0 0 1-.55-1.34v-.03h.99q0 .45.27.71.27.27.72.27a1 1 0 0 0 .75-.27q.27-.28.27-.79 0-.55-.25-.82-.24-.26-.77-.26h-.7z"/></svg>