<svg xmlns="http://www.w3.org/2000/svg" width="24" height="24" viewBox="0 0 24 24"><path fill="#00000000" fill-rule="evenodd" stroke="currentColor" stroke-linecap="round" stroke-linejoin="round" stroke-width="1.5" d="M17.63 20.01h-11a2.5 2.5 0 0 1-2.5-2.5v-11a2.5 2.5 0 0 1 2.5-2.5h11a2.5 2.5 0 0 1 2.5 2.5v11a2.5 2.5 0 0 1-2.5 2.5M6.87 9.48h5m-2.5-2.5v5m3.02 2.57h5"/><path fill="currentColor" stroke="#00000000" d="M14.9 16.07a.87.87 0 1 1 0 1.73.87.87 0 0 1 0-1.73Zm0-4.78a.87.87 0 1 1 0 1.73.87.87 0 0 1 0-1.73Z"/></svg>