<svg xmlns="http://www.w3.org/2000/svg" width="24" height="24" viewBox="0 0 24 24"><path fill="currentColor" stroke="#00000000" d="M19.5 8.5v2A2.5 2.5 0 0 0 17 8H7a2.5 2.5 0 0 0-2.5 2.5v-2A2.5 2.5 0 0 1 7 6h10a2.5 2.5 0 0 1 2.5 2.5"/><path fill="#00000000" fill-rule="evenodd" stroke="currentColor" stroke-linecap="round" stroke-linejoin="round" stroke-width="1.5" d="M17 20H7a2.5 2.5 0 0 1-2.5-2.5v-9A2.5 2.5 0 0 1 7 6h10a2.5 2.5 0 0 1 2.5 2.5v9A2.5 2.5 0 0 1 17 20m0 0H7a2.5 2.5 0 0 1-2.5-2.5v-7A2.5 2.5 0 0 1 7 8h10a2.5 2.5 0 0 1 2.5 2.5v7A2.5 2.5 0 0 1 17 20M8.5 4v1.5m7-1.5v1.5"/><path fill="#00000000" fill-rule="evenodd" stroke="currentColor" stroke-linecap="round" stroke-linejoin="round" stroke-width="1.5" d="M13.95 13.49a2.6 2.6 0 1 1-5.2 0 2.6 2.6 0 0 1 5.2 0m1.3 3.9-2.05-2.05"/></svg>