<svg xmlns="http://www.w3.org/2000/svg" width="24" height="24" viewBox="0 0 24 24"><path fill="#00000000" fill-rule="evenodd" stroke="currentColor" stroke-linecap="round" stroke-linejoin="round" stroke-width="1.5" d="m19.51 4.23-6.67-.04a1.75 1.75 0 0 0-1.76 1.74l-.03 4.23c0 .95.76 1.73 1.7 1.73l.96.01c.12 0 .22.1.22.22l-.02 1.77c0 .32.19.4.42.19l2.48-2.1q.08-.06.15-.06l2.5.02c.96 0 1.75-.78 1.76-1.74l.03-4.2c0-.97-.77-1.76-1.74-1.77m-7.88 12.82-.35.35c-.3.31-.56.38-.8.37-.2 0-.46-.14-.52-.18A8 8 0 0 1 6.9 14.5a1 1 0 0 1-.12-.42c-.01-.24.06-.49.37-.8l.35-.35c.31-.3.38-.56.37-.8 0-.24-.1-.5-.45-.84l-.86-.87c-.35-.34-.6-.44-.85-.45-.24-.01-.49.06-.8.37h0a3.6 3.6 0 0 0-1.16 2.9c.02.61.19 1.24.64 1.97 0 0 1.59 2.6 4.67 4.77l.1.07a4.4 4.4 0 0 0 2.15.76c.97.04 1.91-.18 2.9-1.17h0c.31-.3.38-.56.37-.8s-.1-.5-.45-.84l-.86-.87c-.35-.34-.6-.44-.85-.45-.24-.01-.49.06-.8.37"/></svg>