<svg xmlns="http://www.w3.org/2000/svg" width="24" height="24" viewBox="0 0 24 24"><path fill="currentColor" fill-rule="evenodd" stroke="#00000000" d="M15.89 11.37a4.5 4.5 0 1 1-.01 9.02 4.5 4.5 0 0 1 0-9.02ZM14.6 3.63a5.2 5.2 0 0 1 4.22 1.7c.45.45.56.81.54 1.16s-.16.73-.66 1.23l-1.25 1.25c-.5.5-.87.64-1.23.66-.35.01-.7-.1-1.16-.54l-.5-.5c-.46-.46-.82-.57-1.18-.55-.28.02-.57.16-.6.18-.5.26-2.87 1.59-4.49 4.42-.06.09-.26.47-.26.76 0 .35.09.71.54 1.17l.5.5c.45.45.56.82.54 1.17-.01.35-.15.73-.65 1.22L7.7 18.72c-.5.5-.87.64-1.22.65s-.72-.08-1.17-.53a5.2 5.2 0 0 1-1.69-4.22 5.7 5.7 0 0 1 1.1-3.11l.1-.16a26 26 0 0 1 6.91-6.78h.02a5.7 5.7 0 0 1 2.85-.94Zm-1.4 10.43a3.25 3.25 0 0 0 4.5 4.5v.01Zm2.69-1.44q-1.03.02-1.81.56l4.5 4.5q.54-.78.56-1.8c0-1.8-1.46-3.26-3.25-3.26Z"/></svg>