<svg xmlns="http://www.w3.org/2000/svg" width="24" height="24" viewBox="0 0 24 24"><path fill="currentColor" stroke="#00000000" d="M5.5 4.38h.12c.36.02.75.16 1.26.68l1.3 1.3c.51.5.66.9.67 1.26s-.09.73-.55 1.2l-.52.52c-.47.47-.58.84-.56 1.2.01.3.16.6.18.64.27.52 1.64 2.95 4.56 4.62.1.06.48.27.78.27.37.01.74-.09 1.2-.56l.53-.52c.47-.46.84-.57 1.2-.55.37.01.75.16 1.27.67l1.3 1.3c.5.51.65.9.67 1.26s-.1.74-.56 1.2A5.4 5.4 0 0 1 14 20.63a6 6 0 0 1-3.05-1.02l-.1-.08-.06-.03-.16-.11c-4.61-3.24-7-7.15-7-7.15a6 6 0 0 1-.96-2.94A5.4 5.4 0 0 1 4.4 4.94c.47-.47.84-.58 1.2-.56Zm14.9 1.75c.24 0 .5.1.67.27q.27.29.27.68l-.05 2.52c0 .34-.29.61-.63.61a.63.63 0 0 1-.62-.63l.03-1.29-3.9 3.9a.6.6 0 0 1-.9 0 .6.6 0 0 1 0-.88l3.91-3.9-1.28.02a.63.63 0 0 1-.64-.6c0-.35.27-.64.61-.65Zm-4.18-2.58a.63.63 0 0 1 .89.89l-3.9 3.9 1.28-.03h.01a.63.63 0 0 1 .01 1.25L12 9.63h-.02a1 1 0 0 1-.66-.27 1 1 0 0 1-.27-.68l.05-2.52c.01-.35.3-.62.64-.62.35.01.62.3.61.64l-.02 1.29Z"/></svg>