<svg xmlns="http://www.w3.org/2000/svg" width="24" height="24" viewBox="0 0 24 24"><path fill="currentColor" stroke="#00000000" d="M15.29 12.62a.92.92 0 1 1 0-1.84.92.92 0 0 1 0 1.84m-1.5 2.47c-.48 0-1.28-.34-1.79-.84-.52.5-1.3.84-1.79.84a.5.5 0 1 1 0-1c.43 0 1.27-.58 1.29-.82v-.05c-.26-.22-.5-.54-.5-.77 0-.38.62-.38 1-.38s1 0 1 .38c0 .23-.24.55-.5.77v.05c.02.24.86.82 1.29.82a.5.5 0 1 1 0 1M8.7 12.62a.92.92 0 1 1 0-1.84.92.92 0 0 1 0 1.84m9.43-7.8a.97.97 0 0 0-1.35-.66c-.75.36-1.65 1.09-3.23 2.55a6.5 6.5 0 0 0-3.11 0h-.01c-1.57-1.45-2.45-2.17-3.2-2.54a.98.98 0 0 0-1.38.65c-.18.73-2.1 5.63-1.7 9.02.34 3.07 3.44 6.06 7.81 6.09h.06c4.37-.03 7.47-3.02 7.82-6.09.39-3.4-1.53-8.29-1.7-9.02"/></svg>