<svg xmlns="http://www.w3.org/2000/svg" width="24" height="24" viewBox="0 0 24 24"><path fill="currentColor" stroke="#00000000" d="m4.43 17.34 3.83-3.61a1.3 1.3 0 0 1 1.66-.07l.1.09 1.54 1.5 1.51-1.44a.75.75 0 0 1 .98-.06l.08.08c.26.27.28.69.05.98l-.07.08-1.68 1.6c-.46.44-1.17.46-1.66.08l-.1-.09-1.54-1.5-4.2 3.95q.45.46 1.1.53h11.15c.91 0 1.67-.71 1.74-1.6l.01-.15V12.8a.75.75 0 0 1 1.5-.1v5.02a3.26 3.26 0 0 1-3.07 3.25H6.18a3.26 3.26 0 0 1-3.24-3.06l-.01-.19v-11A3.26 3.26 0 0 1 6 3.47h5.39a.75.75 0 0 1 .1 1.48l-.1.01H6.18c-.91 0-1.67.71-1.74 1.6l-.01.15zM17.35 3.17a1.9 1.9 0 0 1 2.65 0l1.2 1.2c.73.73.73 1.92 0 2.65l-4.01 4.01q-.35.36-.78.57l-.05.03-.02.01-.1.03-3.05.62a.93.93 0 0 1-1.1-1.1l.44-2.22.2-.91v-.04l.15-.27q.2-.3.45-.57zm-3.22 5.46-.41 2.02 2.03-.41h.01l.11-.06q.15-.1.26-.2l4-4.02a.4.4 0 0 0 0-.53l-1.19-1.2a.4.4 0 0 0-.53 0L14.4 8.24q-.19.19-.29.39l.01-.03h.01zm-5.4-1.51a2.5 2.5 0 1 1-.01 5 2.5 2.5 0 0 1 0-5Zm0 1.5a1 1 0 0 0 0 2 1 1 0 0 0 0-2Z"/></svg>