<svg xmlns="http://www.w3.org/2000/svg" width="24" height="24" viewBox="0 0 24 24"><path fill="#00000000" fill-rule="evenodd" stroke="currentColor" stroke-linecap="round" stroke-linejoin="round" stroke-width="1.5" d="m5.16 18.05.55-3.3q.14-.82.14-1.64v-1.67c0-1.1.9-2 2-2h3V5.71c0-.83.67-1.5 1.5-1.5h.04c.83 0 1.5.67 1.5 1.5v3.73h2.96a2 2 0 0 1 2 2v6.86c0 .82-.67 1.5-1.5 1.5H6.64a1.5 1.5 0 0 1-1.48-1.75m.7-5.61h13"/><path fill="currentColor" stroke="#00000000" d="M14.36 14.04c.05-.14.24-.14.28 0l.54 1.63 1.15.55c.1.05.1.2 0 .26l-1.15.55-.54 1.63c-.04.14-.23.14-.28 0l-.54-1.63-1.15-.55a.15.15 0 0 1 0-.26l1.15-.55Zm-4.97-.55c.03-.11.18-.11.22 0l.43 1.29.9.43c.1.05.1.17 0 .21l-.9.44-.43 1.3c-.04.1-.19.1-.22 0l-.43-1.3-.9-.44a.12.12 0 0 1 0-.2l.9-.44Z"/></svg>