<svg xmlns="http://www.w3.org/2000/svg" width="24" height="24" viewBox="0 0 24 24"><path fill="currentColor" fill-rule="evenodd" stroke="#00000000" d="M15.45 11.4v3a1.85 1.85 0 1 0 2.37 2.36h2.99a4.78 4.78 0 1 1-5.36-5.36Zm-4.8 1.6a6.2 6.2 0 0 0 .18 6.58H4.69a1.5 1.5 0 0 1-1.5-1.5L3.94 13Zm6.05-1.6a4.8 4.8 0 0 1 4.11 4.11h-2.99c-.19-.52-.6-.93-1.12-1.12Zm-5.34-8.32c.82 0 1.5.68 1.5 1.5v3.07h3.08a2.5 2.5 0 0 1 2.5 2.5v.17a6.2 6.2 0 0 0-6.59 1.17H3.94v-1.34a2.5 2.5 0 0 1 2.5-2.5h3.08V4.58c0-.82.68-1.5 1.5-1.5Z"/></svg>