<svg xmlns="http://www.w3.org/2000/svg" width="24" height="24" viewBox="0 0 24 24"><path fill="#00000000" fill-rule="evenodd" stroke="currentColor" stroke-linecap="round" stroke-linejoin="round" stroke-width="1.5" d="M13.99 19.8H6.64a1.5 1.5 0 0 1-1.48-1.75l.55-3.3a10 10 0 0 0 .14-1.64v-1.67c0-1.1.9-2 2-2h3V5.71c0-.83.67-1.5 1.5-1.5h.04c.83 0 1.5.67 1.5 1.5v3.73h2.95a2 2 0 0 1 2 1.98v.56m-12.99.46h9.48m7.14 4.2a4.81 4.81 0 1 1-9.63 0 4.81 4.81 0 0 1 9.63 0m-4.81 1.85a1.84 1.84 0 1 1 0-3.68 1.84 1.84 0 0 1 0 3.68m0-6.2v2.27m2.02 2.09h2.26"/></svg>