<svg xmlns="http://www.w3.org/2000/svg" width="24" height="24" viewBox="0 0 24 24"><path fill="currentColor" fill-rule="evenodd" stroke="#00000000" d="M19.62 13.66v5.09c0 .82-.67 1.5-1.5 1.5h-3.54l.47-1.4 1.12-.53a.14.14 0 0 0 0-.26l-1.12-.54-.54-1.6a.14.14 0 0 0-.27 0l-.54 1.6-1.12.54c-.1.05-.1.2 0 .26l1.12.54.47 1.39h-8.3a1.5 1.5 0 0 1-1.5-1.5l.75-5.1zm-10.12.58c-.03-.1-.18-.1-.22 0l-.43 1.3-.9.43a.12.12 0 0 0 0 .2l.9.44.43 1.3c.04.1.19.1.22 0l.44-1.3.9-.43a.12.12 0 0 0 0-.21l-.9-.44Zm3.04-10.49c.83 0 1.5.68 1.5 1.5v3.07h3.09a2.5 2.5 0 0 1 2.5 2.5v1.34H5.13v-1.34a2.5 2.5 0 0 1 2.5-2.5h3.08V5.25c0-.82.67-1.5 1.5-1.5Z"/></svg>