<svg xmlns="http://www.w3.org/2000/svg" width="24" height="24" viewBox="0 0 24 24"><path fill="#00000000" fill-rule="evenodd" stroke="currentColor" stroke-linecap="round" stroke-linejoin="round" stroke-width="1.65" d="M10.46 9.04 4.7 14.79l-.02.03-.36.38c-.46.45-.63.66-1.33 2.28a.8.8 0 0 0 .16.83l.54.54c.22.22.55.28.83.16 1.62-.7 1.83-.87 2.28-1.33l.38-.36.03-.02 5.75-5.76m-4-3.77 5.27 5.27M13.36 12s-.05-1.74 1.64-2.41c0 0 1.93-.36 3.08-1.45l.08-.08c1.1-1.14 1.32-2.9.03-4.18l-.07-.07c-1.29-1.29-3.04-1.07-4.18.03l-.08.08A7 7 0 0 0 12.4 7C11.73 8.7 10 8.64 10 8.64"/></svg>