<svg xmlns="http://www.w3.org/2000/svg" width="24" height="24" viewBox="0 0 24 24"><path fill="currentColor" fill-rule="evenodd" stroke="#00000000" d="M16.4 4.44v15.2a9 9 0 0 0 4.38-7.6 9 9 0 0 0-4.37-7.6m-8.74 0v15.2a9 9 0 0 1-4.37-7.6 9 9 0 0 1 4.37-7.6"/><path fill="currentColor" fill-rule="evenodd" stroke="#00000000" d="M7.67 4.44v15.2a8.4 8.4 0 0 0 4.37 1.18V3.26c-1.67 0-3.12.44-4.37 1.18" clip-path="url(#a)"/><clipPath id="a"><path d="M7.67 3.26h4.37v17.56H7.67z"/></clipPath><path fill="currentColor" fill-rule="evenodd" stroke="#00000000" d="M12.04 3.26v17.56c1.46 0 2.91-.44 4.37-1.19V4.44a9.6 9.6 0 0 0-4.37-1.18" clip-path="url(#b)"/><clipPath id="b"><path d="M12.04 3.26h4.37v17.56h-4.37z"/></clipPath></svg>