<svg xmlns="http://www.w3.org/2000/svg" width="24" height="24" viewBox="0 0 24 24"><path fill="currentColor" fill-rule="evenodd" stroke="#00000000" d="m16.36 7.6 1.97-1.95A9 9 0 0 0 12 3.03V5.8c1.7 0 3.25.68 4.36 1.8Zm1.8 4.37h2.79c0-2.46-1-4.7-2.62-6.32L16.36 7.6a6.2 6.2 0 0 1 1.8 4.36ZM12 5.8V3.04c-2.47 0-4.7 1-6.33 2.62L7.63 7.6A6.2 6.2 0 0 1 12 5.8Z"/><path fill="currentColor" fill-rule="evenodd" stroke="#00000000" d="M7.63 7.6 5.67 5.66a9 9 0 0 0-2.62 6.32h2.78c0-1.7.69-3.24 1.8-4.36ZM12 18.14v2.78c2.47 0 4.7-1 6.33-2.62l-1.97-1.96a6.2 6.2 0 0 1-4.36 1.8Z"/><path fill="currentColor" fill-rule="evenodd" stroke="#00000000" d="M18.16 11.97a6.2 6.2 0 0 1-1.8 4.37l1.96 1.96a9 9 0 0 0 2.62-6.33zM7.63 16.34 5.67 18.3A9 9 0 0 0 12 20.92v-2.78a6.2 6.2 0 0 1-4.37-1.8Z"/><path fill="currentColor" fill-rule="evenodd" stroke="#00000000" d="M5.83 11.97H3.05c0 2.47 1 4.71 2.62 6.33l1.96-1.96a6.2 6.2 0 0 1-1.8-4.37Z"/></svg>