<svg xmlns="http://www.w3.org/2000/svg" width="24" height="24" viewBox="0 0 24 24"><path fill="currentColor" fill-rule="evenodd" stroke="#00000000" d="M11.98 6.5a1.5 1.5 0 1 0 0 3.01 1.5 1.5 0 0 0 0-3.01Zm0 4.5a3 3 0 1 1 0-6 3 3 0 0 1 0 6ZM6.3 9.1a.74.74 0 1 0 0 1.48.74.74 0 0 0 0-1.48Zm0 2.98a2.24 2.24 0 1 1 0-4.49 2.24 2.24 0 0 1 0 4.49ZM17.66 9.1a.74.74 0 1 0 0 1.48.74.74 0 0 0 0-1.48Zm0 2.98a2.24 2.24 0 1 1 0-4.49 2.24 2.24 0 0 1 0 4.49Zm-5.68 1.21c-1.87 0-3.5 1.37-3.5 2.93v.8l6.97.04.04-.84c0-1.56-1.64-2.93-3.51-2.93Zm5 3.77h3.03l-.05-.93c0-.89-.98-1.88-2.3-1.88q-.57 0-1.09.24.41.81.42 1.73v.84ZM6.3 14.25c-1.32 0-2.3.98-2.3 1.88v.97l2.97-.04v-.84q0-.93.42-1.74-.5-.24-1.09-.24Zm13.7 4.3h-3.66a1 1 0 0 1-.36-.1q-.25.1-.53.1H8.51q-.28 0-.53-.1-.16.1-.36.1H3.95c-.8 0-1.45-.65-1.45-1.45v-.98c0-1.83 1.74-3.38 3.8-3.38q1.06 0 1.99.52a5.3 5.3 0 0 1 3.69-1.48c1.45 0 2.77.58 3.7 1.48q.91-.52 1.98-.52c2.06 0 3.8 1.55 3.8 3.39v.97c0 .8-.65 1.45-1.45 1.45Z"/></svg>