<svg xmlns="http://www.w3.org/2000/svg" width="24" height="24" viewBox="0 0 24 24"><path fill="currentColor" stroke="#00000000" d="M6.8 13.38a5 5 0 0 0-.73 2.54v1.88q0 .45.15.84h-1.9a.7.7 0 0 1-.7-.7v-1.55c0-1.48 1.4-2.86 3.18-3Zm10.4 0c1.78.15 3.18 1.53 3.18 3v1.55a.7.7 0 0 1-.7.7h-1.9q.15-.38.15-.83v-1.88q-.01-1.38-.73-2.54Zm-5.2-1.3c2.45 0 4.43 1.85 4.43 3.84v1.88c0 .47-.37.84-.83.84H8.4a.84.84 0 0 1-.83-.84v-1.88c0-2 1.98-3.84 4.43-3.84ZM6.92 8.66a1.77 1.77 0 1 1 0 3.54 1.77 1.77 0 0 1 0-3.54Zm10.16 0a1.77 1.77 0 1 1 0 3.54 1.77 1.77 0 0 1 0-3.54ZM12 5.36a2.66 2.66 0 1 1 0 5.33 2.66 2.66 0 0 1 0-5.33Z"/></svg>