<svg xmlns="http://www.w3.org/2000/svg" width="24" height="24" viewBox="0 0 24 24"><path fill="#00000000" fill-rule="evenodd" stroke="currentColor" stroke-linecap="round" stroke-linejoin="round" stroke-width="1.5" d="M13.47 14.15a3 3 0 0 1-.88.58l-3.77.74c-.2.04-.33-.09-.3-.29l.75-3.77c.04-.2.44-.74.58-.88"/><path fill="#00000000" fill-rule="evenodd" stroke="currentColor" stroke-linecap="round" stroke-linejoin="round" stroke-width="1.5" d="M13.75 13.87c-.3.3-.77.3-1.06 0l-2.56-2.56a.75.75 0 0 1 0-1.06l6.07-6.07c.57-.57 1.5-.57 2.07 0l1.55 1.55c.57.57.57 1.5 0 2.07z"/><path fill="#00000000" fill-rule="evenodd" stroke="currentColor" stroke-linecap="round" stroke-linejoin="round" stroke-width="1.5" d="M19.75 12.25v5.5a2.5 2.5 0 0 1-2.5 2.5h-11a2.5 2.5 0 0 1-2.5-2.5v-11a2.5 2.5 0 0 1 2.5-2.5h5.5"/></svg>