<svg xmlns="http://www.w3.org/2000/svg" width="24" height="24" viewBox="0 0 24 24"><path fill="currentColor" fill-rule="evenodd" stroke="#00000000" d="m8.72 12.82 1.96 1.96 5.31-5.31-1.96-1.96zm-.75 1.38-.32 1.64 1.65-.32zm-1.02 3.3c-.25 0-.5-.1-.67-.28a1 1 0 0 1-.25-.87l.61-3.15a3 3 0 0 1 .75-1.16l.06-.07 5.52-5.52a1.5 1.5 0 0 1 2.12 0l1.96 1.96a1.5 1.5 0 0 1 0 2.12l-5.52 5.52-.11.11s-.65.6-1.12.7l-3.15.61-.2.02Zm-.7-13c-.97 0-1.75.79-1.75 1.75v11c0 .97.78 1.75 1.75 1.75h11c.96 0 1.75-.78 1.75-1.75v-11c0-.96-.79-1.75-1.75-1.75zm11 16h-11A3.25 3.25 0 0 1 3 17.25v-11C3 4.45 4.46 3 6.25 3h11c1.8 0 3.25 1.46 3.25 3.25v11c0 1.8-1.46 3.25-3.25 3.25Z"/></svg>