<svg xmlns="http://www.w3.org/2000/svg" width="24" height="24" viewBox="0 0 24 24"><path fill="currentColor" fill-rule="evenodd" stroke="#00000000" d="M7.4 9.5a.75.75 0 1 1 0 1.5.75.75 0 0 1 0-1.5Zm0-3a.75.75 0 1 1 0 1.5.75.75 0 0 1 0-1.5Zm-.75 6.99a.75.75 0 0 1 1.5 0v1.67a.75.75 0 0 1-1.5 0z"/><path fill="#00000000" stroke="currentColor" stroke-linecap="round" stroke-linejoin="round" stroke-width="1.5" d="M3.6 7.5v9.75a2.5 2.5 0 0 0 2.5 2.5h12.5a2.5 2.5 0 0 0 2.5-2.5V9.91a2.5 2.5 0 0 0-2.5-2.5h-5.2c-.36 0-.48-.07-.72-.33l-1.73-1.6A1.7 1.7 0 0 0 9.85 5H6.1a2.5 2.5 0 0 0-2.5 2.5"/></svg>