<svg xmlns="http://www.w3.org/2000/svg" width="24" height="24" viewBox="0 0 24 24"><path fill="#00000000" fill-rule="evenodd" stroke="currentColor" stroke-linecap="round" stroke-linejoin="round" stroke-width="1.5" d="M17.07 21v-4.48a1 1 0 0 0-1-1h-1.91a1 1 0 0 0-1 1V21h-1.68c-.97 0-1.75-.78-1.75-1.75v-4.34a2 2 0 0 1 .68-1.5l3.88-3.43a1.25 1.25 0 0 1 1.65 0l3.88 3.43a2 2 0 0 1 .68 1.5v4.34c0 .97-.78 1.75-1.75 1.75zM9.9 20H6a2.5 2.5 0 0 1-2.5-2.5v-12A2.5 2.5 0 0 1 6 3h8.2a2.5 2.5 0 0 1 2.5 2.5v5.09M7.44 6.94h.76m3.54 0h.76"/></svg>