<svg xmlns="http://www.w3.org/2000/svg" width="24" height="24" viewBox="0 0 24 24"><path fill="#00000000" fill-rule="evenodd" stroke="currentColor" stroke-linecap="round" stroke-linejoin="round" stroke-width="1.5" d="M8.75 13.75c.83 0 1.5.67 1.5 1.5v2.5c0 .82-.67 1.5-1.5 1.5h-2.5a1.5 1.5 0 0 1-1.5-1.5v-2.5c0-.83.68-1.5 1.5-1.5zm7.75 0a2.76 2.76 0 0 1 2.75 2.75 2.76 2.76 0 0 1-2.58 2.74h-.17a2.76 2.76 0 0 1-2.75-2.74 2.76 2.76 0 0 1 2.75-2.75m1.25-9c.83 0 1.5.67 1.5 1.5v2.5c0 .82-.67 1.5-1.5 1.5h-2.5a1.5 1.5 0 0 1-1.5-1.5v-2.5c0-.83.68-1.5 1.5-1.5z"/><path fill="currentColor" stroke="#00000000" d="M7.45 3.92a3.5 3.5 0 0 1 3.52 3.51v2.59c0 .63-.52 1.15-1.16 1.15h-.1c-.63 0-1.15-.52-1.15-1.15V8.4c0-.63.52-1.15 1.15-1.15a2.27 2.27 0 0 0-4.51 0c.63 0 1.15.52 1.15 1.15v1.62c0 .63-.52 1.15-1.16 1.15h-.1c-.63 0-1.15-.52-1.15-1.15V7.43a3.5 3.5 0 0 1 3.51-3.51"/></svg>