<svg xmlns="http://www.w3.org/2000/svg" width="24" height="24" viewBox="0 0 24 24"><path fill="currentColor" stroke="#00000000" d="M8.28 16.66a1 1 0 1 1 0 2 1 1 0 0 1 0-2Zm0-3.77a1 1 0 1 1 0 2 1 1 0 0 1 0-2Zm0-3.78a1 1 0 1 1 0 2 1 1 0 0 1 0-2Zm0-3.77a1 1 0 1 1 0 2 1 1 0 0 1 0-2Z"/><path fill="#00000000" fill-rule="evenodd" stroke="currentColor" stroke-linecap="round" stroke-linejoin="round" stroke-width="1.5" d="M20.62 8.68a3.3 3.3 0 0 0-3.3 3.32 3.3 3.3 0 0 0 3.3 3.32v.56a2.5 2.5 0 0 1-2.5 2.5H5.87a2.5 2.5 0 0 1-2.5-2.5V8.13a2.5 2.5 0 0 1 2.5-2.5h12.25a2.5 2.5 0 0 1 2.5 2.5z"/></svg>