<svg xmlns="http://www.w3.org/2000/svg" width="24" height="24" viewBox="0 0 24 24"><path fill="currentColor" fill-rule="evenodd" stroke="#00000000" d="M11.28 7.26a1.25 1.25 0 1 0 0 2.5 1.25 1.25 0 0 0 0-2.5"/><path fill="currentColor" fill-rule="evenodd" stroke="#00000000" d="M12 11.64a3.13 3.13 0 1 1 0-6.25 3.13 3.13 0 0 1 0 6.25m7 5.57-.03-.03a2.5 2.5 0 0 1-.9-1.92V8.57a6.07 6.07 0 0 0-5.95-6.07 6.2 6.2 0 0 0-6.2 6.21v6.55a2.5 2.5 0 0 1-.9 1.92l-.03.03a1.37 1.37 0 1 0 1.76 2.1L8.2 18.1l-.4 1.25a1.65 1.65 0 1 0 3.16.99l.59-1.89a.46.46 0 0 1 .88 0l.59 1.89a1.65 1.65 0 1 0 3.16-.98l-.4-1.26 1.46 1.21a1.37 1.37 0 1 0 1.76-2.1" clip-path="url(#a)"/><clipPath id="a"><path d="M4.5 2.5h15v19h-15z"/></clipPath></svg>