<svg xmlns="http://www.w3.org/2000/svg" width="24" height="24" viewBox="0 0 24 24"><path fill="currentColor" fill-rule="evenodd" stroke="#00000000" d="M12 6.26a2.3 2.3 0 1 0 0 4.6 2.3 2.3 0 0 0 0-4.6m0 6.06a3.76 3.76 0 1 1 0-7.53 3.76 3.76 0 0 1 0 7.53"/><path fill="currentColor" fill-rule="evenodd" stroke="#00000000" d="M12.51 8.56a1.21 1.21 0 1 0-2.42 0 1.21 1.21 0 0 0 2.42 0"/><path fill="currentColor" fill-rule="evenodd" stroke="#00000000" d="M8.32 17.13a.73.73 0 0 1 .7.94l-.38 1.22a.87.87 0 0 0 .57 1.1.87.87 0 0 0 1.1-.58l.57-1.83c.15-.5.6-.82 1.12-.82s.97.33 1.12.82l.57 1.83a.87.87 0 0 0 1.1.57.87.87 0 0 0 .57-1.1l-.38-1.21a.73.73 0 0 1 1.16-.78l1.42 1.18a.6.6 0 1 0 .77-.92l-.04-.03a3.1 3.1 0 0 1-1.13-2.42V8.62c0-2.8-2.27-5.11-5.06-5.16a5 5 0 0 0-3.65 1.47 5.4 5.4 0 0 0-1.61 3.82v6.35c0 .94-.42 1.82-1.13 2.42l-.04.03a.6.6 0 0 0 .03.95.6.6 0 0 0 .74-.03l1.41-1.18q.21-.16.47-.16m1.15 4.75a2.34 2.34 0 0 1-2.32-2.13 2.05 2.05 0 0 1-2.41-3.32l.03-.02c.4-.33.61-.8.61-1.3V8.74c0-1.81.75-3.58 2.05-4.86A6.5 6.5 0 0 1 12.13 2a6.65 6.65 0 0 1 6.49 6.62v6.48c0 .5.22.98.6 1.3l.04.04a2.04 2.04 0 0 1-.1 3.24c-.7.5-1.6.52-2.3.07a2.33 2.33 0 0 1-4.56.5l-.3-.99-.3.98a2.3 2.3 0 0 1-2.23 1.64" clip-path="url(#a)"/><clipPath id="a"><path d="M4 2h16v19.88H4z"/></clipPath></svg>