<svg xmlns="http://www.w3.org/2000/svg" width="24" height="24" viewBox="0 0 24 24"><path fill="currentColor" stroke="#00000000" d="M6.96 18.9H4v-2.97a.75.75 0 1 0-1.5 0v2.96c0 .83.67 1.5 1.5 1.5h2.96a.75.75 0 0 0 0-1.5ZM17.02 5.14h2.96V8.1a.75.75 0 0 0 1.5 0V5.14c0-.83-.67-1.5-1.5-1.5h-2.96a.75.75 0 1 0 0 1.5ZM16 6.52H7.98a2.75 2.75 0 0 0-2.75 2.75v5.5a2.75 2.75 0 0 0 2.75 2.75h8.04a2.75 2.75 0 0 0 2.75-2.75v-5.5A2.75 2.75 0 0 0 16 6.52Zm0 1.5c.7 0 1.26.56 1.26 1.25v5.5c0 .69-.56 1.25-1.25 1.25H7.97c-.69 0-1.25-.56-1.25-1.25v-5.5c0-.7.56-1.25 1.25-1.25z"/><path fill="currentColor" stroke="#00000000" d="m4.28 19.7 2.61-2.61a.75.75 0 0 0-1.06-1.07l-2.6 2.61a.75.75 0 0 0 1.05 1.06ZM19.7 4.34l-2.9 2.9a.75.75 0 1 0 1.06 1.06l2.9-2.9a.75.75 0 1 0-1.07-1.06Z"/></svg>