<svg xmlns="http://www.w3.org/2000/svg" width="24" height="24" viewBox="0 0 24 24"><path fill="currentColor" stroke="#00000000" d="M3.44 11q.33 0 .62-.14a.5.5 0 0 0 0 .29l1.79 6.65a2 2 0 0 0 1.93 1.48h8.44a2 2 0 0 0 1.93-1.48l1.8-6.65a.5.5 0 0 0-.01-.3q.29.15.62.15a1.5 1.5 0 0 0 1.48-1.5c0-.83-.66-1.5-1.48-1.5s-1.48.67-1.48 1.5q.01.6.4 1.02l-.25.06-2.46 1.81a1.5 1.5 0 0 1-1.96-.49l-2.4-4.07-.14-.14a1.5 1.5 0 0 0 1.21-1.47c0-.83-.66-1.5-1.48-1.5a1.5 1.5 0 0 0-1.48 1.5c0 .73.52 1.34 1.2 1.47l-.14.14-2.4 4.07a1.5 1.5 0 0 1-1.95.5l-2.46-1.82-.25-.06A1.5 1.5 0 0 0 3.44 8c-.82 0-1.48.67-1.48 1.5 0 .82.66 1.5 1.48 1.5"/></svg>