<svg xmlns="http://www.w3.org/2000/svg" width="24" height="24" viewBox="0 0 24 24"><path fill="currentColor" fill-rule="evenodd" stroke="#00000000" d="M11.99 5.5c-.4 0-.73.34-.73.75 0 .36.25.67.6.74l.13.03.13-.03c.35-.07.6-.38.6-.74A.74.74 0 0 0 12 5.5ZM3.43 8.78c-.4 0-.73.34-.73.75 0 .52.55.9 1.03.68l.14-.05.1-.12q.19-.22.2-.51a.74.74 0 0 0-.74-.75Zm16.68 1.38.14.05c.47.22 1.03-.16 1.03-.68a.74.74 0 0 0-.73-.75c-.4 0-.73.34-.73.75q0 .3.2.51zM4.95 11.68l1.61 5.96c.15.54.65.92 1.21.92h8.44c.56 0 1.06-.38 1.2-.92l1.61-5.96-1.82 1.35-.09.06a2.24 2.24 0 0 1-2.93-.74l-2.2-3.72-2.16 3.69a2.25 2.25 0 0 1-3.04.7zm11.26 8.38H7.77a2.76 2.76 0 0 1-2.65-2.03l-1.7-6.25A2.24 2.24 0 0 1 1.2 9.53c0-1.24 1-2.25 2.23-2.25a2.24 2.24 0 0 1 2.11 2.97l2.08 1.53c.33.15.73.05.93-.26l2.06-3.5A2.26 2.26 0 0 1 12 4a2.26 2.26 0 0 1 1.38 4.02l2.08 3.54c.19.27.58.38.91.22l2.08-1.53a2.24 2.24 0 0 1 2.11-2.98 2.24 2.24 0 0 1 2.23 2.26c0 1.24-1 2.25-2.23 2.25l-1.69 6.25a2.76 2.76 0 0 1-2.65 2.03Z"/></svg>