<svg xmlns="http://www.w3.org/2000/svg" width="24" height="24" viewBox="0 0 24 24"><path fill="currentColor" stroke="#00000000" d="M12 2.35c.41 0 .75.33.75.75v1.19a7.76 7.76 0 0 1 6.96 6.96h1.2a.75.75 0 0 1 0 1.5h-1.2a7.76 7.76 0 0 1-6.96 6.96v1.2a.75.75 0 1 1-1.5 0v-1.2a7.76 7.76 0 0 1-6.96-6.96h-1.2a.75.75 0 0 1 0-1.5h1.2a7.76 7.76 0 0 1 6.96-6.96v-1.2c0-.4.34-.74.75-.74Zm.06 3.4h-.12a6.26 6.26 0 0 0-6.19 6.19v.12a6.26 6.26 0 0 0 6.19 6.19h.12a6.26 6.26 0 0 0 6.19-6.19v-.12a6.26 6.26 0 0 0-6.2-6.19ZM12 8.25a3.75 3.75 0 1 1 0 7.5 3.75 3.75 0 0 1 0-7.5Z"/></svg>