<svg xmlns="http://www.w3.org/2000/svg" width="24" height="24" viewBox="0 0 24 24"><path fill="currentColor" fill-rule="evenodd" stroke="#00000000" d="M17.36 18.67a2.88 2.88 0 0 1-1.45-5.35l.8 2.28a.75.75 0 1 0 1.42-.5l-.77-2.18a2.88 2.88 0 0 1 0 5.75m-7.85-2.88a2.88 2.88 0 1 1-2.87-2.87h.03l-.9 2.14a.75.75 0 0 0 1.39.58l.96-2.3c.83.5 1.4 1.41 1.4 2.45m7.84-4.37q-.26 0-.5.03l-2.32-6.64a1.5 1.5 0 0 0-1.4-.98H10.9a.75.75 0 0 0 0 1.5l2.23-.01 1.36 3.9H9.27l-.74-1.28a1.5 1.5 0 0 0-1.3-.74h-2a.75.75 0 1 0 0 1.5h2l.7 1.2-.66 1.57a4.33 4.33 0 0 0-5 4.32 4.38 4.38 0 1 0 6.43-3.85l.51-1.22h5.8l.4 1.16a4.38 4.38 0 1 0 1.95-.46"/></svg>