<svg xmlns="http://www.w3.org/2000/svg" width="24" height="24" viewBox="0 0 24 24"><path fill="currentColor" fill-rule="evenodd" stroke="#00000000" d="M14.87 13c3.96 0 6.13 1.81 6.13 4.63.03 1.75-1.28 3.37-3.57 3.37-2.62 0-4.43-2.2-4.43-6.13q0-.85.06-1.81.97-.05 1.8-.06Zm-5.74 0q.84 0 1.81.06.05.96.06 1.8C11.03 18.81 9.19 21 6.57 21 4.28 21 3 19.39 3 17.61 3 14.81 5.2 13 9.13 13Zm8.3-10C19.72 3 21 4.61 21 6.39c0 2.8-2.2 4.61-6.13 4.61q-.85 0-1.81-.06-.05-.96-.06-1.8C13 5.29 14.72 3.1 17.24 3zM6.57 3C9.19 3 11 5.2 11 9.13q0 .85-.06 1.81-.97.05-1.8.06C5.16 11 3 9.19 3 6.37 3 4.62 4.28 3 6.57 3Z"/></svg>