<svg xmlns="http://www.w3.org/2000/svg" width="24" height="24" viewBox="0 0 24 24"><path fill="currentColor" fill-rule="evenodd" stroke="#00000000" d="M14.25 2.94c.69 0 1.25.56 1.25 1.25v2h4.19a.75.75 0 0 1 0 1.5h-1.36l-.9 11.26a2.33 2.33 0 0 1-2.29 2.11H8.86c-1.17 0-2.2-.94-2.29-2.1l-.9-11.27H4.3a.75.75 0 1 1 0-1.5h4.2v-2c0-.7.56-1.25 1.25-1.25Zm-4.12 7.91a.75.75 0 0 0-.75.75v4.45a.75.75 0 1 0 1.5 0V11.6a.75.75 0 0 0-.75-.75Zm3.74 0a.75.75 0 0 0-.75.75v4.45a.75.75 0 1 0 1.5 0V11.6a.75.75 0 0 0-.75-.75ZM14 4.44h-4v1.75h4z"/></svg>