<svg xmlns="http://www.w3.org/2000/svg" width="24" height="24" viewBox="0 0 24 24"><path fill="currentColor" fill-rule="evenodd" stroke="#00000000" d="M11.47 17.63a1.38 1.38 0 1 1 0 2.75 1.38 1.38 0 1 1 0-2.75m0-4.6a1.38 1.38 0 1 1 0 2.74 1.38 1.38 0 1 1-.01-2.75m-4.62 0a1.38 1.38 0 1 1 0 2.75 1.37 1.37 0 1 1 0-2.75m4.63-4.8a1.38 1.38 0 1 1 0 2.76 1.38 1.38 0 1 1 0-2.75m-4.63 0a1.38 1.38 0 1 1 0 2.75 1.38 1.38 0 1 1 0-2.75m9.25 0a1.38 1.38 0 1 1 0 2.75 1.38 1.38 0 0 1 0-2.76m-4.62-4.6a1.38 1.38 0 1 1 0 2.75 1.38 1.38 0 1 1 0-2.75m-4.63 0a1.38 1.38 0 1 1 0 2.75 1.38 1.38 0 1 1 0-2.75m9.25 0a1.38 1.38 0 1 1 0 2.75 1.38 1.38 0 0 1 0-2.75"/><path fill="#00000000" fill-rule="evenodd" stroke="currentColor" stroke-linecap="round" stroke-linejoin="round" stroke-width="1.5" d="M19.95 11.8c.34-.3.62-.18.62.28v7.1c0 .46-.28.59-.62.28l-2.8-2.15h0-1.3a1 1 0 0 1-1-1v-1.35a1 1 0 0 1 1-1h1.3z"/></svg>