<svg xmlns="http://www.w3.org/2000/svg" width="24" height="24" viewBox="0 0 24 24"><path fill="currentColor" stroke="#00000000" d="M13.83 8.56c1.23 0 2.23 1.07 2.23 2.4q0 .7-.33 1.26l-.19.28c-.53.75-2.04 2.1-2.9 2.85a1 1 0 0 1-1.27 0c-.87-.75-2.38-2.1-2.91-2.85l-.19-.28q-.31-.56-.33-1.26c0-1.33 1-2.4 2.23-2.4.76 0 1.43.4 1.83 1.02a2.2 2.2 0 0 1 1.83-1.02"/><path fill="#00000000" fill-rule="evenodd" stroke="currentColor" stroke-linecap="round" stroke-linejoin="round" stroke-width="1.5" d="M19.06 15.71A8 8 0 0 1 12 20c-4.42 0-8-3.63-8-8.1A8.1 8.1 0 0 1 10.13 4m3.73 0A8.1 8.1 0 0 1 20 12.19"/></svg>