<svg xmlns="http://www.w3.org/2000/svg" width="24" height="24" viewBox="0 0 24 24"><path fill="currentColor" stroke="#00000000" d="M18.24 6.24a15 15 0 0 0-3.67-1.13q-.03 0-.05.02c-.16.28-.34.65-.46.94a14 14 0 0 0-4.12 0c-.12-.3-.3-.66-.46-.94l-.06-.02a15 15 0 0 0-3.69 1.15A15.2 15.2 0 0 0 3.1 16.55a15 15 0 0 0 4.5 2.27l.06-.02q.51-.7.92-1.5l-.04-.07a10 10 0 0 1-1.4-.67.06.06 0 0 1 0-.1l.27-.22h.06a10.6 10.6 0 0 0 9.05 0h.06l.28.22q.05.06 0 .1-.68.39-1.41.67l-.03.08q.4.78.91 1.49.03.03.07.02a15 15 0 0 0 4.52-2.31 15 15 0 0 0-2.68-10.27Zm-9.22 8.22c-.9 0-1.62-.81-1.62-1.81s.71-1.82 1.62-1.82c.9 0 1.63.83 1.61 1.82 0 1-.71 1.81-1.62 1.81Zm5.98 0c-.9 0-1.62-.81-1.62-1.81s.71-1.82 1.62-1.82c.9 0 1.63.83 1.61 1.82 0 1-.7 1.81-1.61 1.81Z"/></svg>