<svg xmlns="http://www.w3.org/2000/svg" width="24" height="24" viewBox="0 0 24 24"><path fill="currentColor" fill-rule="evenodd" stroke="#00000000" d="M3.55 16.35q1.64 1.17 3.54 1.82l.2-.33q-.4-.19-.77-.41l-.36-.2-.07-.86.35-.29.25-.2.34-.28.48.16a10 10 0 0 0 8.44.02l.42-.2.43.3.25.2.33.24-.03.86-.37.25q-.39.22-.78.4l.2.34a14 14 0 0 0 3.55-1.82c.26-3.36-.54-6.4-2.45-9.28q-1.36-.6-2.8-.9-.12.21-.2.42l-.23.53-.57-.09q-1.97-.3-3.9 0l-.57.1L9 6.57l-.2-.42q-1.45.3-2.8.9a14.5 14.5 0 0 0-2.45 9.29Zm12.3 3.57-.37-.46q-.56-.77-.98-1.59c-1.81.46-3.68.46-5.5 0q-.43.82-.99 1.6l-.31.42-.57-.13a16 16 0 0 1-4.73-2.38l-.27-.2-.05-.38c-.36-3.88.55-7.4 2.78-10.73l.13-.2.25-.1c1.18-.55 2.48-.95 3.8-1.18l.51-.09.32.47q.15.24.27.5 1.6-.17 3.22 0L13.6 5l.27-.48.6.08q1.96.34 3.8 1.18l.25.1.15.28a15.8 15.8 0 0 1 2.74 10.65l-.03.34-.3.24c-1.46 1.07-3 1.85-4.72 2.38z" clip-path="url(#a)"/><clipPath id="a"><path d="M2 4.5h19.5v15.42H2z"/></clipPath><path fill="currentColor" fill-rule="evenodd" stroke="#00000000" d="M2.15 19.68h13.23V6.06H2.15z" clip-path="url(#b)"/><clipPath id="b"><path d="M7.15 12.87c0 1 .73 1.81 1.62 1.81s1.61-.81 1.61-1.81c.02-1-.7-1.81-1.62-1.81-.9 0-1.61.81-1.61 1.81"/></clipPath><path fill="currentColor" fill-rule="evenodd" stroke="#00000000" d="M8.13 19.68h13.23V6.06H8.13z" clip-path="url(#c)"/><clipPath id="c"><path d="M13.13 12.87c0 1 .73 1.81 1.62 1.81s1.61-.81 1.61-1.81c.02-1-.7-1.81-1.61-1.81-.9 0-1.62.81-1.62 1.81"/></clipPath></svg>