<svg xmlns="http://www.w3.org/2000/svg" width="24" height="24" viewBox="0 0 24 24"><path fill="currentColor" fill-rule="evenodd" stroke="#00000000" d="M14.76 12.9c-.58 0-1.05-.47-1.05-1.06s.47-1.06 1.05-1.06 1.06.47 1.06 1.06-.48 1.07-1.06 1.07m-1.75 4.36q-.61-.01-1.01-.43-.4.42-1.01.43c-.8 0-1.44-.65-1.44-1.46 0-.23.19-.43.42-.43.24 0 .43.2.43.43 0 .33.26.6.59.6a.6.6 0 0 0 .59-.6v-.4c-.42-.28-.85-.85-.85-1.24 0-.54.78-.54 1.27-.54s1.27 0 1.27.54c0 .39-.43.96-.85 1.24v.4a.6.6 0 1 0 1.18 0c0-.23.2-.43.43-.43s.42.2.42.43c0 .8-.64 1.46-1.44 1.46m-4.83-5.43a1.06 1.06 0 1 1 2.1 0c.01.59-.46 1.07-1.04 1.07s-1.06-.48-1.06-1.07M22 11.17C22 8.77 18.19 3 12 3S2 8.76 2 11.17c0 .92 1.43 3.04 2.89 4.67v-5.26c0-.37.3-.67.66-.67s.65.3.65.67v6.09c.15 1.8 1.98 4.33 4.63 4.33h2.34c2.65 0 4.47-2.47 4.63-4.33v-6.1c0-.36.29-.66.65-.66s.66.3.66.67v5.25C20.57 14.2 22 12.1 22 11.17"/></svg>