<svg xmlns="http://www.w3.org/2000/svg" width="24" height="24" viewBox="0 0 24 24"><path fill="#00000000" fill-rule="evenodd" stroke="currentColor" stroke-linecap="round" stroke-linejoin="round" stroke-width="1.5" d="M6.3 11.23v4.19c0 2.45 1.98 5.33 4.42 5.33h2.66c2.44 0 4.43-2.88 4.43-5.33v-4.2m-.12 5.85c1.6-1.66 3.66-4.53 3.66-5.58 0-2.2-3.54-7.74-9.3-7.74s-9.3 5.53-9.3 7.74c0 1.05 2.02 3.88 3.63 5.55m5.67-.87v-.9"/><path fill="currentColor" stroke="#00000000" d="M13.49 14.23c0 .55-.89 1.44-1.44 1.44s-1.44-.89-1.44-1.44c0-.52.78-.55 1.33-.56h.1c.56 0 1.45 0 1.45.56Zm-4-3.59c.53 0 .96.44.96.98s-.43.98-.96.98a.97.97 0 0 1-.95-.98c0-.54.43-.98.95-.98Zm5.12 0a.98.98 0 1 1 0 1.96.98.98 0 0 1 0-1.96Z"/><path fill="#00000000" fill-rule="evenodd" stroke="currentColor" stroke-linecap="round" stroke-linejoin="round" stroke-width="1.5" d="M9.71 16.06a1.17 1.17 0 0 0 2.34 0 1.17 1.17 0 0 0 2.34 0"/></svg>