<svg xmlns="http://www.w3.org/2000/svg" width="24" height="24" viewBox="0 0 24 24"><path fill="currentColor" fill-rule="evenodd" stroke="#00000000" d="M5.74 9.29H5.7l.96-2.44c.26-.68.9-1.11 1.63-1.11h7.42c.73 0 1.37.43 1.63 1.1l.96 2.45zm11.86 3.26h3.16v-.76q-.01-.73-.37-1.3l-1.65-4.2a3.2 3.2 0 0 0-3.03-2.05H8.3c-1.35 0-2.54.8-3.03 2.06l-1.65 4.19q-.36.58-.37 1.3v.76H6.4a.75.75 0 0 1 0 1.5H3.24v.75c0 .72.31 1.37.8 1.83v1.88c0 .7.56 1.25 1.25 1.25h.5c.69 0 1.25-.56 1.25-1.25v-1.2h9.92v1.2c0 .7.56 1.25 1.25 1.25h.5c.7 0 1.25-.56 1.25-1.25v-1.88c.49-.46.8-1.1.8-1.83v-.75H17.6a.75.75 0 1 1 0-1.5Z"/></svg>