<svg xmlns="http://www.w3.org/2000/svg" width="24" height="24" viewBox="0 0 24 24"><path fill="currentColor" stroke="#00000000" d="M15.07 3c1.9 0 3.43 1.54 3.43 3.43v5.6a6 6 0 0 0-1.5.05V6.43c0-1.07-.86-1.93-1.93-1.93H8.93C7.86 4.5 7 5.36 7 6.43v11.14c0 1.07.86 1.93 1.93 1.93h3.26q.2.8.61 1.5H8.93a3.43 3.43 0 0 1-3.43-3.43V6.43C5.5 4.53 7.04 3 8.93 3Z"/><path fill="#00000000" fill-rule="evenodd" stroke="currentColor" stroke-linecap="round" stroke-width="1.5" d="M12.4 16.83h-2z"/><path fill="#00000000" fill-rule="evenodd" stroke="currentColor" stroke-linecap="round" stroke-linejoin="round" stroke-width="1.5" d="M11.4 16.83h-1z"/><path fill="currentColor" stroke="#00000000" d="M17.3 15.48a3.3 3.3 0 1 0 0 6.6 3.3 3.3 0 0 0 0-6.6Zm0 1.04a2.26 2.26 0 1 1 0 4.51 2.26 2.26 0 0 1 0-4.51Z"/><path fill="currentColor" fill-rule="evenodd" stroke="#00000000" d="M23.08 15.99A3.04 3.04 0 0 0 20 13a3.1 3.1 0 0 0-2.7 1.57 4 4 0 0 1 1.34.03 2 2 0 0 1 1.36-.53c1.1 0 1.98.86 1.98 1.92 0 .6-.29 1.14-.73 1.5a3 3 0 0 1-.14 1.29 3 3 0 0 0 1.97-2.79"/></svg>