<svg xmlns="http://www.w3.org/2000/svg" width="24" height="24" viewBox="0 0 24 24"><path fill="#00000000" fill-rule="evenodd" stroke="currentColor" stroke-linecap="round" stroke-linejoin="round" stroke-width="1.5" d="m15.69 14.49-.53.52c-.46.47-.84.56-1.2.56-.3 0-.7-.22-.78-.27a12 12 0 0 1-4.57-4.63 2 2 0 0 1-.18-.63c-.02-.36.1-.74.56-1.2l.52-.53c.47-.46.57-.84.56-1.2-.02-.36-.16-.75-.68-1.26l-1.3-1.3c-.5-.51-.9-.66-1.26-.67s-.73.09-1.2.55h0A5.4 5.4 0 0 0 3.88 8.8c.05.9.29 1.85.96 2.94a27 27 0 0 0 7.43 7.42c1.08.68 2.03.92 2.95.97a5.4 5.4 0 0 0 4.34-1.75h0c.47-.47.58-.84.56-1.2-.01-.37-.16-.75-.67-1.27l-1.3-1.3c-.51-.5-.9-.65-1.26-.67-.36-.01-.74.1-1.2.56"/></svg>