<svg xmlns="http://www.w3.org/2000/svg" width="24" height="24" viewBox="0 0 24 24"><path fill="currentColor" stroke="#00000000" d="m19.46 15.9-1.3-1.3c-.5-.5-.9-.7-1.3-.7s-.7.1-1.2.6l-.5.5c-.5.5-.8.6-1.2.6-.3 0-.7-.2-.8-.3-2.9-1.7-4.3-4.1-4.6-4.6 0 0-.2-.3-.2-.6 0-.4.1-.7.6-1.2l.5-.5c.5-.5.6-.8.6-1.2s-.2-.8-.7-1.3l-1.3-1.3c-.5-.5-.9-.7-1.3-.7s-.7.1-1.2.6a5.1 5.1 0 0 0-1.7 4.3c0 .9.3 1.9 1 2.9 0 0 2.4 3.9 7 7.1.1 0 .1.1.2.1a6.3 6.3 0 0 0 3.2 1.2c1.5.1 2.9-.3 4.3-1.7.5-.5.6-.8.6-1.2-.1-.4-.2-.8-.7-1.3Z"/></svg>