<svg xmlns="http://www.w3.org/2000/svg" width="24" height="24" viewBox="0 0 24 24"><path fill="currentColor" fill-rule="evenodd" d="M8.2 20.38h8.22c1.47 0 2.67-1.2 2.67-2.67V6.29c0-1.47-1.2-2.66-2.67-2.66H8.2a2.67 2.67 0 0 0-2.67 2.66v1.9a.75.75 0 0 0 1.5 0v-1.9c0-.64.53-1.16 1.17-1.16h8.22c.65 0 1.17.52 1.17 1.16v11.42c0 .64-.52 1.16-1.17 1.16H8.2c-.64 0-1.17-.52-1.17-1.16v-4.8l.8.83c.29.3.76.31 1.06.03s.31-.76.03-1.06l-1.93-2.03a1 1 0 0 0-1.45 0L3.6 12.71a.75.75 0 0 0 1.08 1.03l.84-.88v4.85c0 1.47 1.2 2.66 2.67 2.66"/></svg>