<svg xmlns="http://www.w3.org/2000/svg" width="24" height="24" viewBox="0 0 24 24"><path fill="currentColor" stroke="#00000000" d="M17.22 13.26a.75.75 0 0 1 1.06-.02l1.96 1.87.69.66a1.1 1.1 0 0 1 0 1.56l-2.65 2.53a.75.75 0 1 1-1.04-1.09l.1-.08 1.45-1.4h-5.5a.75.75 0 1 1 0-1.5h5.5l-1.55-1.47a.75.75 0 0 1-.02-1.06Zm.52-9.32a2.5 2.5 0 0 1 2.5 2.5v6.6l-.92-.89a2.24 2.24 0 0 0-3.19.08 2.2 2.2 0 0 0-.56 2.07H13.3c-1.24 0-2.25 1-2.25 2.25v2.14h-5.8a2.5 2.5 0 0 1-2.5-2.5V6.44a2.5 2.5 0 0 1 2.5-2.5Zm.22 3a.75.75 0 0 0-1.05-.17l-5.45 4-5.39-4a.75.75 0 1 0-.9 1.21l5.84 4.33a.74.74 0 0 0 .89 0l5.9-4.33c.33-.24.4-.71.16-1.05Z"/></svg>