<svg xmlns="http://www.w3.org/2000/svg" width="24" height="24" viewBox="0 0 24 24"><path fill="currentColor" stroke="#00000000" d="M9.14 9.14a1.03 1.03 0 1 1 0 2.05 1.03 1.03 0 0 1 0-2.05Zm5.93 0a1.03 1.03 0 1 1 0 2.05 1.03 1.03 0 0 1 0-2.05Z"/><path fill="#00000000" fill-rule="evenodd" stroke="currentColor" stroke-linecap="round" stroke-linejoin="round" stroke-width="1.5" d="M20.5 12.13a8.37 8.37 0 1 0-16.75 0 8.37 8.37 0 0 0 16.75 0"/><path fill="#00000000" fill-rule="evenodd" stroke="currentColor" stroke-linecap="round" stroke-linejoin="round" stroke-width="1.5" d="M8.48 13.63a3.9 3.9 0 0 0 3.65 2.48 3.9 3.9 0 0 0 3.64-2.48"/></svg>