<svg xmlns="http://www.w3.org/2000/svg" width="24" height="24" viewBox="0 0 24 24"><path fill="currentColor" fill-rule="evenodd" stroke="#00000000" d="M12 2.88a9.14 9.14 0 0 1 0 18.25 9.14 9.14 0 0 1 0-18.25Zm0 1.43a7.7 7.7 0 1 0 .02 15.4A7.7 7.7 0 0 0 12 4.3ZM9.25 9.9h.1c.37.07.62.43.55.8a2.9 2.9 0 0 0 1.32 2.98c1.01.63 2.29.58 3.25-.14a.69.69 0 0 1 .81 1.1 4.25 4.25 0 0 1-6.73-4.19.7.7 0 0 1 .8-.54Zm6.75.23A.94.94 0 1 1 16 12a.94.94 0 0 1 0-1.88Zm-4.6-2.86a.94.94 0 1 1 0 1.88.94.94 0 0 1 0-1.88Z"/></svg>