<svg xmlns="http://www.w3.org/2000/svg" width="24" height="24" viewBox="0 0 24 24"><path fill="currentColor" stroke="#00000000" d="M12 3a9.01 9.01 0 0 1 0 18 9 9 0 0 1 0-18Zm0 1.45a7.56 7.56 0 0 0 0 15.1 7.56 7.56 0 0 0 0-15.1Zm1.47 7.2V18h-5.2v-6.33zm-.9.89h-3.4v4.57h3.4zm5.8.58v.95q0 .47-.16.78-.17.3-.5.48l-.14.07-.32-.57.14-.07q.15-.07.23-.22a1 1 0 0 0 .07-.32h-.34v-1.1zm0-3.34v1.1h-1.02v-1.1zM7.66 7.15c.7 0 1.29.57 1.29 1.28a1.28 1.28 0 0 1-2.58 0c0-.71.58-1.28 1.29-1.28Zm7.15 0a1.28 1.28 0 1 1 0 2.56 1.28 1.28 0 0 1 0-2.56ZM7.67 8a.43.43 0 1 0 .43.42c0-.23-.2-.42-.43-.42Zm7.15 0a.43.43 0 0 0 0 .85.42.42 0 0 0 0-.85Z"/></svg>