<svg xmlns="http://www.w3.org/2000/svg" width="24" height="24" viewBox="0 0 24 24"><path fill="currentColor" stroke="#00000000" d="M12 3a9.01 9.01 0 0 1 0 18 9.01 9.01 0 0 1 0-18Zm0 1.45a7.56 7.56 0 0 0 0 15.1 7.56 7.56 0 0 0 0-15.1Zm1.24 10.63v1.02H8.2v-1.02zm3.66-1.58v.95q0 .47-.17.78-.16.3-.53.48l-.12.06-.34-.56.15-.07q.17-.07.24-.22a1 1 0 0 0 .08-.32h-.36v-1.1zm1.46 0v.95q0 .47-.16.78-.17.3-.53.48l-.12.06-.35-.56.16-.07a.5.5 0 0 0 .23-.22 1 1 0 0 0 .08-.32h-.36v-1.1zm-1.46-3.34v1.1h-1.05v-1.1zm1.46 0v1.1h-1.05v-1.1zm-3.38-.77v1.02h-3.2V9.4zm-5.77 0v1.02H6V9.4z"/></svg>