<svg xmlns="http://www.w3.org/2000/svg" width="24" height="24" viewBox="0 0 24 24"><path fill="currentColor" stroke="#00000000" d="m2.48 11.94 3.48 7.78-1.48.64L1 12.58zm19.1-.03 1.42.66-3.65 7.76-1.42-.67zM11.98 3a8.5 8.5 0 0 1 8.49 8.53c0 4.7-3.8 8.53-8.49 8.53a8.52 8.52 0 0 1 0-17.06Zm0 1.37a7.15 7.15 0 0 0 0 14.32 7.15 7.15 0 0 0 0-14.32Zm.13 8.5a2.17 2.17 0 0 1 0 4.34 2.17 2.17 0 0 1 0-4.35Zm0 1.1a1.07 1.07 0 0 0 0 2.14 1.07 1.07 0 0 0 0-2.14ZM8.6 8.35l1.44 3.27h-1l-.8-1.98-.8 1.98h-1l1.43-3.27zm7.76 0 1.44 3.27h-.99L16 9.64l-.79 1.98h-1l1.43-3.27z"/></svg>