<svg xmlns="http://www.w3.org/2000/svg" width="24" height="24" viewBox="0 0 24 24"><path fill="currentColor" stroke="#00000000" d="M12 3a9.01 9.01 0 0 1 0 18 9 9 0 0 1 0-18Zm0 1.45a7.56 7.56 0 1 0 .02 15.12A7.56 7.56 0 0 0 12 4.45Zm.14 8.12q.93 0 1.57.65l.23.23-.94.76-.18-.14q-.4-.3-.73-.3c-.1 0-.22.01-.28.08a.3.3 0 0 0-.08.2q0 .14.12.23.15.12.5.12h.2l.3-.01v1.2l-.3-.01h-.19c-.4 0-.53.08-.57.12q-.13.14-.13.28t.12.25q.14.11.33.11.42 0 .82-.42l.2-.2.95.8-.21.23q-.72.76-1.78.76-.85 0-1.3-.46a1.5 1.5 0 0 1-.45-1.07q0-.65.46-1.04a1.2 1.2 0 0 1-.34-.87q0-.57.41-1.03.43-.47 1.27-.47ZM6.8 10.62a2.03 2.03 0 1 1 0 4.07 2.03 2.03 0 0 1 0-4.07Zm10.38 0a2.03 2.03 0 1 1 0 4.07 2.03 2.03 0 0 1 0-4.07ZM6.8 11.78a.87.87 0 0 0 0 1.74.87.87 0 0 0 0-1.74Zm10.38 0a.87.87 0 1 0 0 1.75.87.87 0 0 0 0-1.75Zm-2.27-3.86 1.96.51-.36 1.4-1.97-.5zm-5.76 0 .36 1.4-1.97.51-.36-1.4z"/></svg>