<svg xmlns="http://www.w3.org/2000/svg" width="24" height="24" viewBox="0 0 24 24"><path fill="currentColor" stroke="#00000000" d="M11.99 3c4.98 0 9.04 4 9.04 8.9 0 1.55-.4 3.07-1.18 4.4q.35.06.65.25.4-.26.88-.26c.9 0 1.62.71 1.62 1.59v2.44h-1.46v-2.44a.15.15 0 0 0-.16-.15.15.15 0 0 0-.15.15v2.44h-1.46v-2.44a.15.15 0 0 0-.15-.15.15.15 0 0 0-.16.15v2.44H18v-1.77a9.1 9.1 0 0 1-12 .02v1.75H4.53v-2.44a.15.15 0 0 0-.16-.15.15.15 0 0 0-.15.15v2.44H2.77v-2.44a.15.15 0 0 0-.16-.15.15.15 0 0 0-.15.15v2.44H1v-2.44a1.6 1.6 0 0 1 2.5-1.33q.3-.18.63-.24a9 9 0 0 1-1.19-4.4A9 9 0 0 1 12 3Zm0 1.44a7.53 7.53 0 0 0-7.59 7.47c0 4.11 3.4 7.46 7.59 7.46a7.53 7.53 0 0 0 7.58-7.46c0-4.12-3.4-7.47-7.58-7.47ZM9.84 15.17v1.07H6.71v-1.07zm7.45 0v1.07h-3.13v-1.07z"/></svg>