<svg xmlns="http://www.w3.org/2000/svg" width="24" height="24" viewBox="0 0 24 24"><path fill="currentColor" stroke="#00000000" d="M12 3a9.01 9.01 0 0 1 0 18 9.01 9.01 0 0 1 0-18Zm0 1.45a7.56 7.56 0 0 0 0 15.1 7.56 7.56 0 0 0 0-15.1Zm.97 6.54v5.07h.52v2.32h-.98v-1.34H9v1.34h-.98v-2.32h.52q.62-1.06.62-4.08v-1zm-2.76.98v.14q0 .75-.13 2.02-.11 1.14-.44 1.93h2.27v-4.09zm6.93-4.96v.15l-.06.72q.3-.15.69-.27l.14-.05.28.85-.15.05-.7.18q.21.2.47.54l.1.12-.72.52-.09-.12-.4-.63q-.22.4-.4.63l-.1.12-.7-.52.1-.12.46-.55-.7-.17-.15-.04.28-.86.15.05q.41.15.67.27l-.05-.72v-.15zm-3.27.27.92 1.12-1.58 1.3-.92-1.12zm-6.68 0 1.57 1.3-.92 1.11L6.27 8.4z"/></svg>