<svg xmlns="http://www.w3.org/2000/svg" width="24" height="24" viewBox="0 0 24 24"><path fill="currentColor" stroke="#00000000" d="M12 3a9.01 9.01 0 0 1 0 18 9.01 9.01 0 0 1 0-18Zm0 1.45a7.56 7.56 0 0 0 0 15.1 7.56 7.56 0 0 0 0-15.1Zm-.98 8.31-.1.22a5 5 0 0 0-.46 1.86q0 .55.18.9c.18.32.44.38.68.16q.14-.14.2-.34.05-.23.05-.64v-1.23h.89v1.23q0 .4.05.63.05.2.2.35c.24.22.5.16.68-.16q.18-.33.18-.9 0-.76-.46-1.86l-.1-.22h.9l.03.09q.54 1 .53 1.95 0 .96-.38 1.48-.4.54-1.03.54-.68 0-1.04-.62-.37.63-1.05.63-.67 0-1.05-.57a2.6 2.6 0 0 1-.36-1.46q0-.95.53-1.95l.04-.09zM7.92 8.4v.71q.98.09 1.57.66.64.62.64 1.53 0 .9-.62 1.52-.58.59-1.6.68v.71h-.97v-.71a2.6 2.6 0 0 1-1.54-.62 2 2 0 0 1-.68-1.58q0-.98.68-1.57.63-.54 1.54-.62v-.7zm9.17 0v.71q.98.09 1.57.66.64.62.64 1.53 0 .9-.62 1.52-.57.59-1.6.68v.71h-.97v-.71a2.6 2.6 0 0 1-1.53-.62 2 2 0 0 1-.7-1.58q0-.98.7-1.57.6-.54 1.53-.62v-.7zm-9.17 1.64v2.53q.52-.07.82-.35.36-.33.35-.92 0-.57-.34-.9-.3-.3-.83-.36Zm9.17 0v2.53q.52-.07.82-.36.35-.32.35-.9t-.34-.91q-.3-.3-.83-.36Zm-.98 0q-.5.07-.82.35-.36.33-.36.91 0 .6.36.91.32.3.82.35Zm-9.17 0q-.5.07-.82.35-.36.33-.36.91 0 .6.36.91.3.3.82.35Z"/></svg>