<svg xmlns="http://www.w3.org/2000/svg" width="24" height="24" viewBox="0 0 24 24"><path fill="#00000000" fill-rule="evenodd" stroke="currentColor" stroke-linecap="round" stroke-linejoin="round" stroke-width="1.5" d="M20.22 9.5a7 7 0 0 0-1.73-4h0a7 7 0 0 0-4-1.72c-1.48-.2-2.49-.15-2.49-.15s-1.01-.05-2.5.15c-1.55.2-2.96.76-4 1.73a7 7 0 0 0-1.72 4c-.2 1.48-.15 2.49-.15 2.49s-.05 1.01.15 2.5c.2 1.55.76 2.96 1.73 4a7 7 0 0 0 4 1.72c1.48.2 2.49.15 2.49.15s1.01.05 2.5-.15a7 7 0 0 0 4-1.73h0a7 7 0 0 0 1.72-4c.2-1.48.15-2.49.15-2.49s.05-1.01-.15-2.5m-3.71-.09-5.04 5.04a.5.5 0 0 1-.7 0L7.5 11.2"/></svg>