<svg xmlns="http://www.w3.org/2000/svg" width="24" height="24" viewBox="0 0 24 24"><path fill="currentColor" fill-rule="evenodd" stroke="#00000000" d="m17.03 9.94-5.02 5.03q-.38.37-.9.37-.51 0-.89-.37l-3.25-3.26a.75.75 0 1 1 1.06-1.06l3.09 3.1 4.85-4.87a.75.75 0 1 1 1.06 1.06m3.2-.44a7 7 0 0 0-1.74-4 7 7 0 0 0-4-1.72c-1.48-.2-2.49-.15-2.49-.15s-1.01-.05-2.5.15c-1.55.2-2.96.76-4 1.73a7 7 0 0 0-1.72 4c-.2 1.48-.15 2.49-.15 2.49s-.05 1.01.15 2.5c.2 1.55.76 2.96 1.73 4a7 7 0 0 0 4 1.72c1.48.2 2.49.15 2.49.15s1.01.05 2.5-.15a7 7 0 0 0 4-1.73 7 7 0 0 0 1.72-4c.2-1.48.15-2.5.15-2.5s.05-1-.15-2.49"/></svg>