<svg xmlns="http://www.w3.org/2000/svg" width="24" height="24" viewBox="0 0 24 24"><path fill="currentColor" fill-rule="evenodd" stroke="#00000000" d="M7.97 18.54a1.13 1.13 0 1 1 0 2.25 1.13 1.13 0 0 1 0-2.25Zm4.03 0a1.13 1.13 0 1 1 0 2.25 1.13 1.13 0 0 1 0-2.25Zm4.03 0a1.13 1.13 0 1 1 0 2.25 1.13 1.13 0 0 1 0-2.25ZM7.97 14.7a1.13 1.13 0 1 1 0 2.25 1.13 1.13 0 0 1 0-2.25Zm4.03 0a1.13 1.13 0 1 1 0 2.25 1.13 1.13 0 0 1 0-2.25Zm4.03 0a1.13 1.13 0 1 1 0 2.25 1.13 1.13 0 0 1 0-2.25ZM12 10.87a1.13 1.13 0 1 1 0 2.26 1.13 1.13 0 0 1 0-2.26Zm4.03 0a1.13 1.13 0 1 1 0 2.26 1.13 1.13 0 0 1 0-2.26ZM12 7.05a1.13 1.13 0 1 1 0 2.26 1.13 1.13 0 0 1 0-2.26Zm0-3.83a1.13 1.13 0 1 1 0 2.26 1.13 1.13 0 0 1 0-2.26Z"/></svg>