<svg xmlns="http://www.w3.org/2000/svg" width="24" height="24" viewBox="0 0 24 24"><path fill="currentColor" fill-rule="evenodd" stroke="#00000000" d="M5 10.96h6.25v-3.5h-4.5C5.79 7.46 5 8.24 5 9.2zm7.75 0H19V9.2c0-.97-.79-1.75-1.75-1.75h-4.5zm-7.12 1.5v4.75c0 .96.78 1.75 1.75 1.75h3.87v-6.5zm7.12 6.5h3.88c.96 0 1.75-.79 1.75-1.75v-4.75h-5.63zm-.75 1.5H7.37a3.25 3.25 0 0 1-3.24-3.25v-4.92a1.3 1.3 0 0 1-.63-1.08v-2c0-1.8 1.46-3.25 3.25-3.25h3.4L8.52 4.87a.75.75 0 1 1 .84-1.24L12 5.4l2.63-1.77a.75.75 0 1 1 .84 1.24l-1.61 1.09h3.39c1.8 0 3.25 1.45 3.25 3.25v2c0 .46-.25.86-.62 1.08v4.92a3.26 3.26 0 0 1-3.25 3.25z"/></svg>