<svg xmlns="http://www.w3.org/2000/svg" width="24" height="24" viewBox="0 0 24 24"><path fill="currentColor" stroke="#00000000" d="M12 19.22c.44 0 .8.35.8.8v1.18a.8.8 0 0 1-1.6 0v-1.19c0-.44.36-.8.8-.8Zm5.1-2.12a.8.8 0 0 1 1.13 0l.84.84a.8.8 0 0 1-1.13 1.13l-.84-.84a.8.8 0 0 1 0-1.13Zm-11.33 0a.8.8 0 0 1 1.13 1.13l-.84.84a.8.8 0 0 1-1.13-1.13ZM11 13.48h2.28l.44 1.39h1.32l-1.41-4.08c.47-1.15.5-2.44.1-3.62a5.11 5.11 0 1 1-6.48 6.48q1.14.39 2.34.23l-.34.99h1.31l.44-1.38ZM4 11.2a.8.8 0 0 1 0 1.6H2.8a.8.8 0 0 1 0-1.6Zm17.21 0a.8.8 0 0 1 0 1.6h-1.19a.8.8 0 0 1 0-1.6Zm-9.04-1.24.68 2.14.12.38h-1.64l.81-2.53zM4.93 4.93a.8.8 0 0 1 1.13 0l.84.84A.8.8 0 1 1 5.77 6.9l-.84-.84a.8.8 0 0 1 0-1.13Zm13.01 0a.8.8 0 0 1 1.13 1.13l-.84.84a.8.8 0 0 1-1.13-1.13ZM12 2c.44 0 .8.36.8.8v1.19a.8.8 0 0 1-1.6 0v-1.2A.8.8 0 0 1 12 2Z"/><path fill="currentColor" stroke="#00000000" d="M11.48 8.45h1.33l.81 2.34c.48-1.15.51-2.44.1-3.62a5.1 5.1 0 0 0-6.47 6.48q1.14.38 2.34.24z"/></svg>