<svg xmlns="http://www.w3.org/2000/svg" width="24" height="24" viewBox="0 0 24 24"><path fill="#00000000" fill-rule="evenodd" stroke="currentColor" stroke-linecap="round" stroke-linejoin="round" stroke-width="1.5" d="m12.78 4.06 2.05 4.1c.1.33.42.56.78.56l4.32.82a.82.82 0 0 1 .48 1.47l-3.12 3.14c-.29.2-.4.58-.3.91l.69 4.37a.82.82 0 0 1-1.26.91l-3.94-2.32a.8.8 0 0 0-.96 0l-3.94 2.32a.82.82 0 0 1-1.26-.91L7 15.06a.8.8 0 0 0-.3-.9L3.6 11a.82.82 0 0 1 .48-1.47l4.32-.82c.36 0 .67-.23.78-.57l2.05-4.09a.82.82 0 0 1 1.56 0"/></svg>