<svg xmlns="http://www.w3.org/2000/svg" width="24" height="24" viewBox="0 0 24 24"><path fill="currentColor" stroke="#00000000" d="M12.07 3.34a5.62 5.62 0 0 1 5.57 6.41 5.62 5.62 0 1 1-5.57 9.58A5.62 5.62 0 1 1 6.5 9.75a5.62 5.62 0 0 1 5.57-6.4Zm-3.62 7.31a4.37 4.37 0 1 0 0 8.75 4.37 4.37 0 0 0 0-8.75Zm8.87.32q-.24.64-.63 1.2l-.07.1-.07.1-.3.36a5.6 5.6 0 0 1-2.23 1.51q.05.39.05.79a5.6 5.6 0 0 1-1.14 3.39l-.08-.07a4.37 4.37 0 1 0 4.47-7.38Zm-5.25-6.38a4.37 4.37 0 0 0-4.35 4.86q.36-.05.73-.05c2.4 0 4.45 1.5 5.26 3.62a4.3 4.3 0 0 0 2.5-2.63v-.02a4.37 4.37 0 0 0-4.14-5.78Z"/></svg>