<svg xmlns="http://www.w3.org/2000/svg" width="40" height="40" viewBox="0 0 40 40"><path fill="#00000000" fill-rule="evenodd" stroke="currentColor" stroke-linecap="round" stroke-width="1.2" d="M20.77 13.23c-2.6-.63-5.4.3-7.11 2.47m12.25 5.96q.28-1.16.17-2.29m-6.94.65c-.16 3 1.1 5.5 3.1 6.87.95.64 2.07.97 3.2.95m-13.18-8.96-.04.3c-.38 3.1.19 6.02 1.47 8.5q.48.91 1.23 1.64m6.2-19.47-.72-.12c-5.7-.7-10.9 3.33-11.65 9.02q-.3 2.45.05 4.9.1.6.32 1.2l.03.06m12.06 5.34a6 6 0 0 1-2.32-1.4 11 11 0 0 1-3.22-9.25 3.49 3.49 0 1 1 6.92.85c-.26 2.15.83 3.97 2.83 4.3 1.98.34 3.83-1.3 4.1-3.45q.1-.98.04-1.93"/><path fill="currentColor" stroke="#00000000" d="M27.9 16.8a4.9 4.9 0 1 1 .02-9.82 4.9 4.9 0 0 1-.02 9.82Zm0-8.6a3.7 3.7 0 1 0-.02 7.38 3.7 3.7 0 0 0 .02-7.38Z"/><path fill="currentColor" stroke="#00000000" d="M29.9 12.5h-2c-.3 0-.6-.3-.6-.6V9.8c0-.3.3-.6.6-.6s.6.3.6.6v1.5h1.4c.3 0 .6.3.6.6s-.3.6-.6.6Z"/></svg>