<svg xmlns="http://www.w3.org/2000/svg" width="40" height="40" viewBox="0 0 40 40"><path fill="#00000000" fill-rule="evenodd" stroke="currentColor" stroke-linecap="round" stroke-width="1.2" d="M27.2 21.94a6.98 6.98 0 0 0-12.27-5.96m5.48 4.32c-.16 3 1.11 5.5 3.11 6.87.95.64 2.07.97 3.2.95m-13.18-8.96-.04.29c-.38 3.1.19 6.03 1.47 8.5q.47.92 1.23 1.64m6.29.93a6 6 0 0 1-2.32-1.4 11 11 0 0 1-3.22-9.25 3.49 3.49 0 1 1 6.92.86c-.26 2.14.83 3.96 2.82 4.3s3.84-1.31 4.1-3.46a10.47 10.47 0 0 0-20.76-2.54q-.3 2.45.05 4.9.1.6.32 1.2l.02.05M33.56 12.9A8 8 0 0 0 27.65 7M12.9 7A8 8 0 0 0 7 12.9m20.65 20.65a8 8 0 0 0 5.9-5.9M7 27.65a8 8 0 0 0 5.9 5.9"/></svg>