<svg xmlns="http://www.w3.org/2000/svg" width="40" height="40" viewBox="0 0 40 40"><path fill="#00000000" fill-rule="evenodd" stroke="currentColor" stroke-linecap="round" stroke-width="1.2" d="M22.45 13.44a7 7 0 0 0-7.8 2.27m12.26 5.95q.29-1.18.17-2.32m-6.94.68c-.16 3 1.1 5.5 3.1 6.87.95.64 2.07.97 3.2.96m-13.18-8.97-.04.3c-.38 3.1.19 6.02 1.47 8.5q.48.91 1.23 1.64m7.67-19.07q-1.05-.37-2.2-.52a10.47 10.47 0 0 0-11.64 9.02q-.3 2.45.05 4.9.1.6.32 1.2l.03.06m12.06 5.34a6 6 0 0 1-2.32-1.4 11 11 0 0 1-3.22-9.25 3.49 3.49 0 1 1 6.92.85c-.26 2.15.83 3.97 2.83 4.3 1.98.34 3.83-1.3 4.1-3.45q.1-1.05.03-2.05"/><path fill="#00000000" fill-rule="evenodd" stroke="currentColor" stroke-linecap="round" stroke-linejoin="round" stroke-width="1.2" d="M31.75 13.75a3.03 3.03 0 0 1-3.02 3.04 3.04 3.04 0 0 1-3.03-3.04c0-1.69 3.03-6.35 3.03-6.35s3.02 4.66 3.02 6.34"/></svg>