<svg xmlns="http://www.w3.org/2000/svg" width="24" height="24" viewBox="0 0 24 24"><path fill="currentColor" stroke="#00000000" d="M18.1 4H5.84A3.25 3.25 0 0 0 2.6 7.25v9.67c0 1.8 1.45 3.25 3.25 3.25h12.24c1.8 0 3.25-1.46 3.25-3.25V7.25C21.34 5.45 19.9 4 18.1 4ZM5.84 5.5h12.24c.97 0 1.75.78 1.75 1.75v9.67c0 .96-.78 1.75-1.75 1.75H5.85c-.97 0-1.75-.79-1.75-1.75V7.25c0-.97.78-1.75 1.75-1.75Z"/><path fill="currentColor" stroke="#00000000" d="M16.7 6.85c.6 0 1.09.46 1.15 1.04v2.71a.75.75 0 0 1-1.48.1l-.01-.1V8.35h-2.3a.75.75 0 0 1-.74-.64v-.1c0-.39.28-.7.65-.75h2.73Zm-9.87 5.96c.38 0 .7.28.74.65l.01.1v2.25h2.3c.37 0 .69.28.74.65v.1c0 .38-.28.7-.64.75H7.24c-.6 0-1.09-.45-1.15-1.04v-2.71c0-.41.33-.75.74-.75Z"/><path fill="currentColor" stroke="#00000000" d="M16.22 7.65a.75.75 0 0 1 1.03 1.08l-.08.08-9.42 7.72a.75.75 0 0 1-1.03-1.09l.08-.07z"/></svg>