<svg xmlns="http://www.w3.org/2000/svg" width="24" height="24" viewBox="0 0 24 24"><path fill="currentColor" stroke="#00000000" d="M21.5 3.37a2.37 2.37 0 1 1-4.75 0 2.37 2.37 0 0 1 4.75 0m-11.59.25c.5 0 .9.4.9.88l-.16 1.87c0 .49-.31.89-.74.89-.4 0-.73-.4-.73-.89L9.03 4.5c0-.48.4-.88.88-.88m-5.47 2a.9.9 0 0 1 1.21.32l.66 1.44c.25.43.18.93-.19 1.14-.34.2-.84.02-1.08-.4l-.92-1.3a.9.9 0 0 1 .32-1.2m9.77.31a.9.9 0 0 1 1.2-.32c.43.24.58.79.33 1.21l-.92 1.3c-.24.42-.71.6-1.08.4-.35-.2-.44-.72-.2-1.14z"/><path fill="#00000000" fill-rule="evenodd" stroke="currentColor" stroke-linecap="round" stroke-linejoin="round" stroke-width="1.5" d="M14.58 10.13c.41 0 .75.34.75.75v.24c0 .5-.19 1-.52 1.39l-2.3 2.66v4.9c0 1.12-.7 1.93-1.68 1.93H8.92c-.98 0-1.7-.81-1.7-1.93v-4.9l-2.29-2.66a2 2 0 0 1-.51-1.4v-.23c0-.41.33-.75.75-.75zm-4.72 5.44v1.64"/></svg>