<svg xmlns="http://www.w3.org/2000/svg" width="24" height="24" viewBox="0 0 24 24"><path fill="currentColor" stroke="#00000000" d="M12.02 2.5c.38 0 .7.28.75.65v17.6a.75.75 0 0 1-1.49.1V3.25c0-.41.33-.75.74-.75Zm5.46 4 .08.08 4.53 4.34c.57.55.6 1.46.1 2.05l-.1.11-4.53 4.34a.75.75 0 0 1-1.1-1l.07-.08L21.05 12l-4.52-4.34a.75.75 0 0 1 .95-1.15Zm-9.94.1c.26.27.28.69.05.98l-.07.08L3 12l4.52 4.34a.75.75 0 0 1-.95 1.15l-.09-.07-4.52-4.34a1.5 1.5 0 0 1-.1-2.05l.1-.11 4.52-4.34a.75.75 0 0 1 1.06.02Z"/></svg>