<svg xmlns="http://www.w3.org/2000/svg" width="24" height="24" viewBox="0 0 24 24"><path fill="#00000000" fill-rule="evenodd" stroke="currentColor" stroke-width="1.7" d="M18.25 7.16h-4.62c-.42 0-1-.24-1.3-.52l-1.38-1.37a2.2 2.2 0 0 0-1.3-.52h-3.9a2.5 2.5 0 0 0-2.5 2.5v9.5a2.5 2.5 0 0 0 2.5 2.5h12.5a2.5 2.5 0 0 0 2.5-2.5V9.66a2.5 2.5 0 0 0-2.5-2.5Z"/><path fill="currentColor" stroke="currentColor" stroke-width=".67" d="m15.09 11.15-3 2.82-.08.03q-.04 0-.1-.03l-3-2.82a.56.56 0 0 0-.75 0 .5.5 0 0 0 0 .7l3 2.82q.34.32.85.33.5 0 .85-.33l2.98-2.82a.47.47 0 0 0 0-.7.56.56 0 0 0-.75 0"/></svg>