<svg xmlns="http://www.w3.org/2000/svg" width="24" height="24" viewBox="0 0 24 24"><path fill="currentColor" stroke="#00000000" d="M20.1 9c.48 0 .87.39.87.87v6.31c0 2-1.62 3.63-3.62 3.63h-9.5a.87.87 0 1 1 0-1.75h9.5c1.03 0 1.87-.84 1.87-1.88V9.87c0-.48.4-.88.88-.88ZM8.2 4.2c.3 0 .7.17.91.39l1.43 1.32c.2.22.3.28.6.28h4.3c1.15 0 2.08.93 2.08 2.07v6.65c0 .83-.68 1.5-1.5 1.5H5.1a2.1 2.1 0 0 1-2.07-2.07V6.26c0-1.14.93-2.07 2.07-2.07Zm2.07 4.88q-.44.01-.74.32L7.5 11.55a.75.75 0 0 0 1.08 1.04l1.7-1.8L12 12.6a.75.75 0 0 0 1.08-1.04L11.02 9.4q-.31-.31-.74-.32Z"/></svg>