<svg xmlns="http://www.w3.org/2000/svg" width="24" height="24" viewBox="0 0 24 24"><path fill="currentColor" stroke="#00000000" d="M14.79 12.42c.18.15.34.47.34.7v2.92c0 .6-.5 1.09-1.1 1.09H13v-2.58c0-.36-.3-.65-.65-.65h-1.3c-.37 0-.66.3-.66.65v2.58h-.93c-.6 0-1.08-.49-1.08-1.09v-2.91c0-.24.15-.56.33-.72l2.7-2.3a.6.6 0 0 1 .68 0zm-2.71-5.34-1.73-1.6A1.7 1.7 0 0 0 9.25 5H5.5A2.5 2.5 0 0 0 3 7.5v9.75a2.5 2.5 0 0 0 2.5 2.5H18a2.5 2.5 0 0 0 2.5-2.5V9.91a2.5 2.5 0 0 0-2.5-2.5h-5.2c-.36 0-.48-.07-.72-.33Z"/></svg>