<svg xmlns="http://www.w3.org/2000/svg" width="32" height="32" viewBox="0 0 32 32"><path fill="currentColor" fill-rule="evenodd" stroke="#00000000" d="M20.05 16.04c.25.2.45.63.45.95v4c0 .74-.6 1.34-1.33 1.34h-1.5v-3.31a1 1 0 0 0-1-1h-1.49a1 1 0 0 0-1 1v3.31h-1.35c-.73 0-1.33-.6-1.33-1.33v-4.01c0-.32.2-.75.44-.95l3.61-3.07c.25-.2.65-.2.9 0z"/><path fill="#00000000" fill-rule="evenodd" stroke="currentColor" stroke-linecap="round" stroke-linejoin="round" stroke-width="1.5" d="M24.33 9.55h-6.21a2.7 2.7 0 0 1-1.63-.67L14.56 7a2.7 2.7 0 0 0-1.63-.67H7.67a3.33 3.33 0 0 0-3.34 3.34v12.66c0 1.84 1.5 3.34 3.34 3.34h16.66c1.84 0 3.34-1.5 3.34-3.34v-9.45c0-1.84-1.5-3.33-3.34-3.33"/></svg>