<svg xmlns="http://www.w3.org/2000/svg" width="24" height="24" viewBox="0 0 24 24"><path fill="currentColor" stroke="currentColor" stroke-width=".7" d="M10.73 13.09 10.7 13q0-.04.03-.09l2.54-2.7a.5.5 0 0 0 0-.68.43.43 0 0 0-.64 0l-2.53 2.7q-.3.32-.3.77t.3.76l2.53 2.69c.18.19.46.19.64 0a.5.5 0 0 0 0-.68z"/><path fill="#00000000" fill-rule="evenodd" stroke="currentColor" stroke-width="1.5" d="M18.25 7.16h-4.62c-.42 0-1-.24-1.3-.52l-1.38-1.37a2.2 2.2 0 0 0-1.3-.52h-3.9a2.5 2.5 0 0 0-2.5 2.5v9.5a2.5 2.5 0 0 0 2.5 2.5h12.5a2.5 2.5 0 0 0 2.5-2.5V9.66a2.5 2.5 0 0 0-2.5-2.5Z"/></svg>