<svg xmlns="http://www.w3.org/2000/svg" width="24" height="24" viewBox="0 0 24 24"><path fill="#00000000" fill-rule="evenodd" stroke="currentColor" stroke-linecap="round" stroke-linejoin="round" stroke-width="1.5" d="M14.33 3.88c.66 0 1.3.26 1.77.73l3.3 3.3c.46.46.73 1.1.73 1.76v4.66c0 .66-.27 1.3-.74 1.77l-3.3 3.3a2.5 2.5 0 0 1-1.76.73H9.67a2.5 2.5 0 0 1-1.77-.74l-3.3-3.3a2.5 2.5 0 0 1-.72-1.76V9.67c0-.66.26-1.3.73-1.77l3.3-3.3a2.5 2.5 0 0 1 1.76-.72zm.46 10.9L9.22 9.23m6.76 2.37a4 4 0 1 1-7.96.81 4 4 0 0 1 7.96-.8"/></svg>