<svg xmlns="http://www.w3.org/2000/svg" width="24" height="24" viewBox="0 0 24 24"><path fill="currentColor" fill-rule="evenodd" stroke="#00000000" d="M14.33 3.88c.66 0 1.3.26 1.77.73l3.3 3.3c.46.46.73 1.1.73 1.76v4.66c0 .66-.27 1.3-.74 1.77l-3.3 3.3a2.5 2.5 0 0 1-1.76.73H9.67a2.5 2.5 0 0 1-1.77-.74l-3.3-3.3a2.5 2.5 0 0 1-.72-1.76V9.67c0-.66.26-1.3.73-1.77l3.3-3.3a2.5 2.5 0 0 1 1.76-.72ZM12 7a5 5 0 1 0 .01 10.01A5 5 0 0 0 12 7Zm-2.94 3.12 4.82 4.83q-.83.53-1.88.55a3.5 3.5 0 0 1-2.94-5.38ZM12 8.5a3.5 3.5 0 0 1 2.94 5.39l-4.82-4.84A3.5 3.5 0 0 1 12 8.5Z"/></svg>