<svg xmlns="http://www.w3.org/2000/svg" width="24" height="24" viewBox="0 0 24 24"><path fill="#00000000" fill-rule="evenodd" stroke="currentColor" stroke-linecap="round" stroke-linejoin="round" stroke-width="1.5" d="M13.41 3.75c.28 0 .56.22.63.48h0l.47 1.82c.06.27.6.74.78.85.17.11.53.14.8.07h0l1.8-.5c.26-.08.6.06.73.3h0l1.46 2.54c.14.24.09.59-.1.78h0l-1.34 1.32c-.2.2-.35.52-.33.72h0v.38c-.02.21.13.54.33.73h0l1.33 1.32c.2.19.25.54.11.78h0l-1.46 2.54a.7.7 0 0 1-.73.3h0l-1.8-.5c-.27-.08-.94.16-1.13.26s-.39.39-.45.66h0l-.47 1.81a.7.7 0 0 1-.63.49h0-2.91a.7.7 0 0 1-.63-.49h0L9.4 18.6c-.07-.27-.6-.74-.78-.85a1 1 0 0 0-.8-.07h0l-1.8.5a.7.7 0 0 1-.73-.3h0l-1.46-2.54a.7.7 0 0 1 .1-.78h0l1.34-1.32c.2-.2.34-.52.33-.73h0v-.38a1 1 0 0 0-.33-.72h0l-1.34-1.32a.7.7 0 0 1-.1-.78h0l1.46-2.54a.7.7 0 0 1 .73-.3h0l1.8.5c.27.07.94-.16 1.12-.26s.4-.4.46-.66h0l.47-1.82a.7.7 0 0 1 .63-.48h0Zm-1.46 5.84a2.73 2.73 0 1 0 0 5.47 2.73 2.73 0 0 0 0-5.47"/></svg>