<svg xmlns="http://www.w3.org/2000/svg" width="24" height="24" viewBox="0 0 24 24"><path fill="currentColor" d="M15.5 9.8c-.4 0-.8-.3-.8-.8V7.4C14.7 6 13.6 5 12.3 5S9.9 6.1 9.9 7.4V9c0 .4-.3.8-.8.8s-.6-.3-.6-.7V7.4c0-2.1 1.7-3.9 3.8-3.9s3.9 1.8 3.9 3.9V9c0 .5-.3.8-.7.8"/><path fill="currentColor" d="M15.5 20.6H9.1a3.7 3.7 0 0 1-3.7-3.3l-.9-7.6c0-.4.1-.7.3-1s.6-.4.9-.4h13.1c.4 0 .7.2.9.4.2.3.3.6.3 1l-.9 7.6a3.6 3.6 0 0 1-3.6 3.3M6 9.8l.8 7.3c.1 1.1 1.1 2 2.2 2h6.5c1.1 0 2.1-.9 2.2-2l.8-7.3zm12.6-.3"/></svg>