<svg xmlns="http://www.w3.org/2000/svg" width="24" height="24" viewBox="0 0 24 24"><path fill="currentColor" stroke="#00000000" d="M16.8 13.18c-.63 0-1.14-.52-1.14-1.15a1.15 1.15 0 1 1 2.3 0c0 .63-.52 1.15-1.15 1.15Zm-2.53-2.75a1.15 1.15 0 0 1 0-2.3 1.15 1.15 0 0 1 0 2.3Zm-3.67.72H9.35v1.25a.75.75 0 0 1-1.5 0v-1.25H6.6a.75.75 0 1 1 0-1.5h1.25V8.4a.75.75 0 1 1 1.5 0v1.25h1.25a.75.75 0 0 1 0 1.5Zm10.07.06A6.2 6.2 0 0 0 14.47 5H9.53a6.2 6.2 0 0 0-6.2 6.2v5.46A2.35 2.35 0 0 0 5.67 19a2.3 2.3 0 0 0 1.59-.64l2.72-2.56h4.04l2.72 2.56q.69.63 1.59.64c1.13 0 2.34-.9 2.34-2.34z"/></svg>