<svg xmlns="http://www.w3.org/2000/svg" width="24" height="24" viewBox="0 0 24 24"><path fill="currentColor" stroke="#00000000" d="M7.04 12.6a4.19 4.19 0 1 1-.01 8.37 4.19 4.19 0 0 1 .01-8.37Zm0 2.28a1.9 1.9 0 1 0 0 3.8 1.9 1.9 0 0 0 0-3.8Zm0-11.84a4.19 4.19 0 1 1-.01 8.37 4.19 4.19 0 0 1 .01-8.37Zm0 2.28a1.9 1.9 0 1 0 0 3.8 1.9 1.9 0 0 0 0-3.8Zm9.92 7.28a4.19 4.19 0 1 0 0 8.37 4.19 4.19 0 0 0 0-8.37Zm0 2.28a1.9 1.9 0 1 1 0 3.8 1.9 1.9 0 0 1 0-3.8Zm2.25-11.5a1.13 1.13 0 0 1 1.14 1.13q0 .48-.33.81l-1.9 1.9 1.9 1.9q.32.33.33.8a1.13 1.13 0 0 1-1.14 1.14c-.3 0-.6-.12-.8-.33l-1.9-1.9-1.9 1.9a1.13 1.13 0 0 1-1.61 0q-.34-.34-.34-.8 0-.48.34-.81l1.9-1.9-1.9-1.9q-.34-.33-.34-.8a1.13 1.13 0 0 1 1.14-1.14c.3 0 .6.11.81.33l1.9 1.9 1.9-1.9c.2-.22.5-.33.8-.33Z"/></svg>