<svg xmlns="http://www.w3.org/2000/svg" width="24" height="24" viewBox="0 0 24 24"><path fill="currentColor" stroke="#00000000" d="M14.6 4.25a6.53 6.53 0 0 1 6.51 6.52 5.3 5.3 0 0 0-7.07 1.42 5.3 5.3 0 0 0-.94 4.2H9.88l-2.87 2.7c-.45.42-1.05.66-1.66.66A2.47 2.47 0 0 1 2.9 17.3v-6.53c0-3.6 2.92-6.52 6.52-6.52Zm-6 3.02a.75.75 0 0 0-.75.75v1.25H6.6a.75.75 0 0 0 0 1.5h1.25v1.25a.75.75 0 0 0 1.5 0v-1.25h1.25a.75.75 0 0 0 0-1.5H9.35V8.02a.75.75 0 0 0-.75-.75Zm5.79.35a1.13 1.13 0 0 0 0 2.26c.62 0 1.12-.5 1.12-1.13s-.5-1.13-1.12-1.13Z"/><path fill="currentColor" fill-rule="evenodd" stroke="#00000000" d="M18.35 11a4.35 4.35 0 1 1-.01 8.7 4.35 4.35 0 0 1 0-8.7Zm.49 3.68h-1.05a.4.4 0 0 0-.4.48c.04.19.22.32.42.32h.5v2.45c0 .2.12.38.31.41a.4.4 0 0 0 .49-.4v-3a.3.3 0 0 0-.27-.26Zm-.32-1.95a.54.54 0 1 0 0 1.08.54.54 0 0 0 0-1.08Z"/></svg>