<svg xmlns="http://www.w3.org/2000/svg" width="85.04" height="85.04" viewBox="0 0 85.04 85.04"><path fill="currentColor" d="M37.94 23.86c0-1.7-1.33-3.08-2.95-3.08a3 3 0 0 0-2.96 3.08v3.25h5.9z"/><path fill="currentColor" d="m35.67 63.55.13-.34c.6-1.66.84-3.04 2.46-3.85l-.74-1.34-8.13-12.95a8 8 0 0 1-.85-2.37H27.1a3.5 3.5 0 0 1-3.5-3.5v-8.58a3.5 3.5 0 0 1 3.5-3.5h.55v-3.26A7.4 7.4 0 0 1 35 16.39a7.4 7.4 0 0 1 7.33 7.47v3.25h.56c1.92 0 3.5 1.58 3.5 3.5v8.59c0 .8.29 1.27-.17 1.86l1.92 3.06.02-.01c1.21-.68 2.04-.71 3.42-.6q.84-1.06 2.07-1.76l.31-.18a7 7 0 0 1 4.31-.84 6 6 0 0 1 1.7-1.47V16.43c0-4.7-3.98-8.5-8.9-8.5H18.91c-4.92 0-8.91 3.8-8.91 8.5v41.7c0 4.7 3.99 8.52 8.91 8.52h16.4q-.18-1.59.35-3.1"/><path fill="currentColor" d="m36.94 41.42-.3.17c-1.5.83-1.97 2.86-1.05 4.5l7.66 12.2 3.13 5.61.9 1.6-2.06-.74c-1.77-.64-3.68.12-4.25 1.7l-.11.31c-.57 1.57.4 3.38 2.17 4.02l7.59 2.75s8.33 3.7 15.53-.55l.03-.02.51-.29c6.18-3.45 8.13-11.8 4.35-18.57l-4.01-7.18c-.92-1.64-2.9-2.3-4.39-1.46l-.3.17c-1.5.84-1.73 3.28-.82 4.92l-.26-.47-.4-.7c-.9-1.64-2.88-2.3-4.38-1.46l-.3.17c-1.5.84-1.97 2.86-1.05 4.5l-.3-.55c-.92-1.64-2.9-2.3-4.4-1.46l-.3.17c-1.5.83-1.96 2.86-1.05 4.5l-7.76-12.38c-.9-1.64-2.88-2.3-4.38-1.46"/></svg>