<svg xmlns="http://www.w3.org/2000/svg" width="24" height="24" viewBox="0 0 24 24"><path fill="currentColor" fill-rule="evenodd" stroke="#00000000" d="M8.75 5.5a5.26 5.26 0 0 0-5.25 5.24v5.67c0 .98.83 1.58 1.6 1.58q.6 0 1.06-.43l1.87-1.75c.7-.65 1.6-1.02 2.57-1.02h1.8q.8 0 1.5.32a4.26 4.26 0 0 1 5.6-2.84v-1.53c0-2.9-2.35-5.25-5.25-5.25zm-3.65 14A3.1 3.1 0 0 1 2 16.4v-5.66A6.76 6.76 0 0 1 8.75 4h5.5A6.76 6.76 0 0 1 21 10.74v2.82a.75.75 0 0 1-1.23.58 2.75 2.75 0 0 0-4.52 2.1v.14a.75.75 0 0 1-1.27.56c-.45-.43-1-.65-1.57-.65H10.6q-.89.01-1.54.61l-1.87 1.75a3 3 0 0 1-2.1.84Z"/><path fill="currentColor" fill-rule="evenodd" stroke="#00000000" d="M8.21 13.03a.75.75 0 0 1-.75-.75V8.24a.75.75 0 0 1 1.5 0v4.04c0 .41-.33.75-.75.75"/><path fill="currentColor" fill-rule="evenodd" stroke="#00000000" d="M10.23 11.01H6.19a.75.75 0 0 1 0-1.5h4.04a.75.75 0 0 1 0 1.5"/><path fill="currentColor" fill-rule="evenodd" stroke="#00000000" d="M8.5 15.25h12.25V3H8.5z" clip-path="url(#a)"/><clipPath id="a"><path d="M13.5 9.13c0 .62.5 1.12 1.13 1.12s1.12-.5 1.12-1.12a1.13 1.13 0 1 0-2.25 0"/></clipPath><path fill="currentColor" fill-rule="evenodd" stroke="#00000000" d="M8.5 25.44h18.7V6.74H8.5z" clip-path="url(#b)"/><clipPath id="b"><path d="M14.34 13.53a4.34 4.34 0 0 0 1.25 6.27 4.35 4.35 0 0 0 6.6-3.7v-.01a4.34 4.34 0 0 0-7.85-2.56m3.14.48a.54.54 0 1 1 1.08 0 .54.54 0 1 1-1.08 0m-.58 1.89a.4.4 0 0 1 .4-.48h1.04c.15 0 .27.12.27.27v3a.4.4 0 0 1-.49.4.4.4 0 0 1-.32-.42v-2.45h-.5a.4.4 0 0 1-.4-.32"/></clipPath></svg>