<svg xmlns="http://www.w3.org/2000/svg" width="85.04" height="85.04" viewBox="0 0 85.04 85.04"><path fill="currentColor" d="M60.8 8.71H24.14c-5.61 0-10.17 4.35-10.17 9.7v47.6c0 5.36 4.56 9.7 10.17 9.7H60.8c5.62 0 10.17-4.34 10.17-9.7V18.4c0-5.35-4.55-9.7-10.17-9.7M29.47 34.6c0-2.2 1.8-4 4-4h.64v-3.72c0-4.7 3.75-8.51 8.36-8.51a8.45 8.45 0 0 1 8.37 8.51v3.72h.63c2.2 0 4 1.8 4 4v9.79c0 2.2-1.8 4-4 4h-18c-2.2 0-4-1.8-4-4zm33.5 32.83h-41V55.57h41z"/><path fill="currentColor" d="M45.84 26.9a3.45 3.45 0 0 0-3.37-3.52 3.45 3.45 0 0 0-3.37 3.51v3.72h6.74zM25.88 61.5a2.5 2.5 0 1 1 5 0 2.5 2.5 0 1 1-5 0"/></svg>