<svg xmlns="http://www.w3.org/2000/svg" width="24" height="24" viewBox="0 0 24 24"><path fill="currentColor" stroke="#00000000" d="M7.54 8.8h1.28V7.5a.75.75 0 1 1 1.5 0v1.3h1.29a.75.75 0 0 1 0 1.5h-1.29v1.28a.75.75 0 1 1-1.5 0V10.3H7.54a.75.75 0 1 1 0-1.5m5.8 5.4a1.08 1.08 0 0 1-2.16 0 1.08 1.08 0 1 1 2.15 0m.94-3.14a1.08 1.08 0 1 1 0 2.15 1.08 1.08 0 0 1 0-2.16m2 2.07a1.08 1.08 0 1 1 0 2.15 1.08 1.08 0 0 1 0-2.15m-2 4.22a1.08 1.08 0 1 1 0-2.15 1.08 1.08 0 0 1 0 2.14M12 20.39a8.38 8.38 0 1 0-.02-16.75A8.38 8.38 0 0 0 12 20.37"/></svg>