<svg xmlns="http://www.w3.org/2000/svg" width="24" height="24" viewBox="0 0 24 24"><path fill="currentColor" fill-rule="evenodd" stroke="#00000000" d="M11.71 4.11a7.64 7.64 0 1 0 5.4 13.02 7.6 7.6 0 0 0 2.22-5.4 7.6 7.6 0 0 0-7.63-7.62m0 16.75a9.14 9.14 0 1 1 6.46-15.58 9 9 0 0 1 2.67 6.46c0 2.44-.94 4.73-2.67 6.45a9 9 0 0 1-6.45 2.67"/><path fill="currentColor" fill-rule="evenodd" stroke="#00000000" d="M1.5 17.07h15.57V1.5H1.5z" clip-path="url(#a)"/><clipPath id="a"><path d="M8.53 7.25v1.28H7.25a.75.75 0 1 0 0 1.5h1.28v1.29a.75.75 0 1 0 1.5 0v-1.29h1.29a.75.75 0 0 0 0-1.5h-1.29V7.25a.75.75 0 1 0-1.5 0"/></clipPath><path fill="currentColor" fill-rule="evenodd" stroke="#00000000" d="M5.89 20h12.15V7.87H5.9z" clip-path="url(#b)"/><clipPath id="b"><path d="M10.89 13.93a1.07 1.07 0 1 0 2.15 0c0-.6-.48-1.07-1.08-1.07-.59 0-1.07.48-1.07 1.07"/></clipPath><path fill="currentColor" fill-rule="evenodd" stroke="#00000000" d="M7.9 17.95h12.15V5.79H7.9z" clip-path="url(#c)"/><clipPath id="c"><path d="M12.9 11.87a1.08 1.08 0 1 0 2.15 0 1.07 1.07 0 1 0-2.15 0"/></clipPath><path fill="currentColor" fill-rule="evenodd" stroke="#00000000" d="M9.9 20h12.16V7.87H9.91z" clip-path="url(#d)"/><clipPath id="d"><path d="M14.9 13.93c0 .6.5 1.08 1.09 1.08s1.07-.48 1.07-1.08-.48-1.07-1.07-1.07-1.08.48-1.08 1.07"/></clipPath><path fill="currentColor" fill-rule="evenodd" stroke="#00000000" d="M7.9 22.07h12.15V9.92H7.9z" clip-path="url(#e)"/><clipPath id="e"><path d="M12.9 16a1.08 1.08 0 0 0 2.15 0 1.08 1.08 0 1 0-2.15 0"/></clipPath></svg>