<svg xmlns="http://www.w3.org/2000/svg" width="24" height="24" viewBox="0 0 24 24"><path fill="currentColor" stroke="#00000000" d="M16.92 11a1.13 1.13 0 1 1 0 2.26 1.13 1.13 0 0 1 0-2.25Zm-2.54-2.74a1.13 1.13 0 1 1 0 2.25 1.13 1.13 0 0 1 0-2.25Z"/><path fill="#00000000" fill-rule="evenodd" stroke="currentColor" stroke-linecap="round" stroke-linejoin="round" stroke-width="1.5" d="M11.1 15.8a3 3 0 0 0-2.06.81l-1.86 1.75c-.44.42-1 .64-1.58.64-1.13 0-2.35-.9-2.35-2.34V11a6 6 0 0 1 6-6h5.5a6 6 0 0 1 6 6v5.66A2.35 2.35 0 0 1 18.41 19h0q-.9 0-1.59-.64l-1.86-1.75a3 3 0 0 0-2.05-.8zM8.7 8.5v4.03m2.02-2.01H6.69"/></svg>