<svg xmlns="http://www.w3.org/2000/svg" width="24" height="24" viewBox="0 0 24 24"><path fill="currentColor" stroke="#00000000" d="M8.43 8.75q.99 0 1.57.5.53.43.68 1.2l.03.2.02.18H9.48l-.01-.11q-.14-.91-1.02-.9a1 1 0 0 0-.86.4q-.27.39-.31 1.09l-.01.2v.43q0 .84.35 1.3.33.45.93.44.54 0 .82-.18l.08-.07v-.87H8.31v-1.03h2.4v2.32l-.02.03a2 2 0 0 1-.9.66q-.57.21-1.27.21-.74 0-1.31-.34a2.3 2.3 0 0 1-.89-.96 3 3 0 0 1-.3-1.21L6 12v-.44q0-1.3.64-2.06.65-.75 1.8-.76Zm9.07.08V9.9h-2.56v1.35h2.23v1.07h-2.23v2.35h-1.27V8.83zm-4.71 0v5.84h-1.26V8.83z"/><path fill="currentColor" stroke="#00000000" d="M17.25 20.5h-11A3.25 3.25 0 0 1 3 17.25v-11C3 4.45 4.46 3 6.25 3h11c1.8 0 3.25 1.46 3.25 3.25v11c0 1.8-1.45 3.25-3.25 3.25Zm0-1.5c.97 0 1.75-.78 1.75-1.75v-11c0-.97-.78-1.75-1.75-1.75h-11c-.97 0-1.75.78-1.75 1.75v11c0 .97.78 1.75 1.75 1.75z"/></svg>