<svg xmlns="http://www.w3.org/2000/svg" width="24" height="24" viewBox="0 0 24 24"><path fill="#00000000" fill-rule="evenodd" stroke="currentColor" stroke-linecap="round" stroke-linejoin="round" stroke-width="1.5" d="M17.75 18.5H6.25a2.5 2.5 0 0 1-2.5-2.5V8a2.5 2.5 0 0 1 2.5-2.5h11.5a2.5 2.5 0 0 1 2.5 2.5v8a2.5 2.5 0 0 1-2.5 2.5M12 10.29c-.07.1-.8.64-1.49 1.13-.7.5-1.63.47-2.3-.08l-.02-.02a1.4 1.4 0 0 1 0-2.12h0a1.9 1.9 0 0 1 2.32-.06l1.51 1.12h0c-.06.44-.27 2.69-1.22 3.71a4.6 4.6 0 0 1-2 1.27m3.2-4.95c.07.1.8.64 1.49 1.13.7.5 1.63.47 2.3-.08l.02-.02c.67-.54.67-1.58 0-2.12h0a1.9 1.9 0 0 0-2.32-.06l-1.51 1.12h0c.05.44.27 2.69 1.22 3.71a4.6 4.6 0 0 0 2 1.27"/></svg>