<svg xmlns="http://www.w3.org/2000/svg" width="24" height="24" viewBox="0 0 24 24"><path fill="currentColor" fill-rule="evenodd" stroke="#00000000" d="M18.43 2.21c.47 0 .86.39.86.86V5.2a3.27 3.27 0 0 1 .54 6.13l-.2 3.95A1.7 1.7 0 0 1 17.9 17l-2.82.24v2.36c0 .69-.56 1.25-1.25 1.25H4.11c-.7 0-1.25-.56-1.25-1.25v-.5c0-2.74 2.74-5.29 6.13-5.29h7.72l.17-2.55a3.27 3.27 0 0 1 .69-6.06V3.07c0-.47.38-.86.86-.86ZM9.48 4.84a3.67 3.67 0 1 1 0 7.34 3.67 3.67 0 0 1 0-7.34Zm8.97 1.96a1.58 1.58 0 0 0-1.25 2.52c.25-.41.66-.7 1.23-.7.59 0 1 .29 1.25.73q.3-.42.34-.98c0-.86-.71-1.57-1.57-1.57Z"/></svg>