<svg xmlns="http://www.w3.org/2000/svg" width="24" height="24" viewBox="0 0 24 24"><path fill="currentColor" stroke="#00000000" d="M14.63 9.37a.9.9 0 0 1 1.06 0l.34.29 3.9 3.32c.3.24.54.74.54 1.12v4.58c0 .95-.77 1.72-1.71 1.72h-1.63v-4.06c0-.56-.46-1.02-1.03-1.02h-2.05c-.56 0-1.02.46-1.02 1.02v4.06h-1.46q-.2 0-.37-.05a1.7 1.7 0 0 1-1.34-1.67V14.1c0-.38.24-.88.53-1.12ZM13.5 3.6c1.4 0 2.54 1.09 2.54 2.43v1.83a2.4 2.4 0 0 0-2.35.35l-4.26 3.63a3 3 0 0 0-1.06 2.26v4.59q.01.92.47 1.66H6.07a2.5 2.5 0 0 1-2.54-2.42V6.03A2.5 2.5 0 0 1 6.07 3.6Zm-1.7 2.82H11a.75.75 0 0 0 0 1.5h.8a.75.75 0 1 0 0-1.5Zm-3.75 0h-.8a.75.75 0 0 0 0 1.5h.8a.75.75 0 1 0 0-1.5Z"/></svg>