<svg xmlns="http://www.w3.org/2000/svg" width="24" height="24" viewBox="0 0 24 24"><path fill="currentColor" stroke="#00000000" d="m4.42 17.5.79 1.35q.25.44.67.68l2.82-4.87H3.07q0 .48.25.92zM12 8.93 9.19 4.07q-.42.24-.68.67l-5.2 9q-.24.44-.24.92H8.7zm0 0 2.81-4.86a2 2 0 0 0-.92-.25h-3.78q-.5.01-.92.25z"/><path fill="currentColor" stroke="#00000000" d="M15.3 14.66H8.7l-2.82 4.87q.43.24.92.24h10.4q.49 0 .92-.24z"/><path fill="currentColor" stroke="#00000000" d="M18.12 19.53q.41-.24.67-.68l.33-.56 1.56-2.7q.25-.45.25-.93H15.3zm-.03-10.29-2.6-4.5q-.26-.43-.68-.67L12 8.93l3.3 5.73h5.62q0-.48-.25-.92z"/></svg>