<svg xmlns="http://www.w3.org/2000/svg" width="24" height="24" viewBox="0 0 24 24"><path fill="currentColor" d="M21.8 10.04H21V10h-9v4h5.65a6 6 0 1 1-1.67-6.48l2.83-2.83a10 10 0 1 0 3 5.35"/><path fill="currentColor" d="m3.15 7.35 3.29 2.4a6 6 0 0 1 9.54-2.23l2.83-2.83A9.95 9.95 0 0 0 3.15 7.35M12 22c2.58 0 4.93-.99 6.7-2.6l-3.09-2.61a6 6 0 0 1-9.25-2.76l-3.26 2.5A10 10 0 0 0 12 22"/><path fill="currentColor" d="M21.8 10.04H21V10h-9v4h5.65a6 6 0 0 1-2.04 2.79l3.1 2.61C18.48 19.6 22 17 22 12q0-1-.2-1.96"/></svg>