<svg xmlns="http://www.w3.org/2000/svg" width="24" height="24" viewBox="0 0 24 24"><path fill="currentColor" stroke="#00000000" d="M17 13.8c0 .4-.47.6-.78.35L14.6 12.8v1.06c0 .63-.53 1.15-1.18 1.15H9.18A1.2 1.2 0 0 1 8 13.85v-3.7C8 9.52 8.53 9 9.18 9h4.23c.65 0 1.18.52 1.18 1.15v1.06l1.63-1.36c.31-.26.78-.04.78.35z"/><path fill="#00000000" fill-rule="evenodd" stroke="currentColor" stroke-linecap="round" stroke-linejoin="round" stroke-width="1.5" d="M19.2 3H12c-5.06 0-9 4.2-9 9.25C3 16.95 7.04 21 11.75 21c5.1 0 9.25-3.94 9.25-9V4.8c0-.99-.81-1.8-1.8-1.8"/></svg>