<svg xmlns="http://www.w3.org/2000/svg" width="24" height="24" viewBox="0 0 24 24"><path fill="#00000000" fill-rule="evenodd" stroke="currentColor" stroke-linecap="round" stroke-linejoin="round" stroke-width="1.5" d="M14.22 17.34c0-2.43-2.43-4.7-5.42-4.7-3 0-5.43 2.26-5.43 4.7v1.02a1 1 0 0 0 1 1h8.85a1 1 0 0 0 1-1zM11.67 7.5a2.9 2.9 0 0 1-2.87 2.88 2.88 2.88 0 1 1 2.87-2.88m6.74 1.15a2.12 2.12 0 1 1-4.23 0 2.12 2.12 0 0 1 4.23 0m-5.19 10.7h6.41a1 1 0 0 0 1-1v-1.38c0-1.94-1.94-3.74-4.33-3.74a4.6 4.6 0 0 0-3.22 1.28"/></svg>