<svg xmlns="http://www.w3.org/2000/svg" width="24" height="24" viewBox="0 0 24 24"><path fill="currentColor" d="M5.79 10.2a1.6 1.6 0 1 0-1.6-1.6 1.6 1.6 0 0 0 1.6 1.6m6.47-.58a2.75 2.75 0 1 0-2.73-2.75 2.74 2.74 0 0 0 2.73 2.75M7 11.85a4 4 0 0 0-1-.14A4.2 4.2 0 0 0 1.93 15a5.3 5.3 0 0 0 2.26 1.63v-.18A8.3 8.3 0 0 1 7 11.85m5.26-.21a6.56 6.56 0 0 0-6.39 5.14 8.15 8.15 0 0 0 12.78 0 6.56 6.56 0 0 0-6.39-5.14m8.81-.64a1.6 1.6 0 0 0-1 .36l-1.95-1 2-1.16a1.5 1.5 0 0 0 .88.2 1.5 1.5 0 1 0-1.45-1.56s0 .06 0 .09l-2 1.14a1.4 1.4 0 0 0-.84-.32 1.5 1.5 0 1 0 .81 2.69l2 1.08A1.5 1.5 0 1 0 21.07 11"/></svg>