<svg xmlns="http://www.w3.org/2000/svg" width="24" height="24" viewBox="0 0 24 24"><path fill="currentColor" fill-rule="evenodd" stroke="#00000000" d="M15.88 12.97c2.96 0 5.37 2.23 5.37 4.64v1.6c0 .6-.49 1.1-1.09 1.1h-2.9c-.6 0-1.08-.5-1.08-1.1v-1.8a6.4 6.4 0 0 0-1.7-4.26q.66-.17 1.4-.18Zm-7.37-.54c3.19 0 5.77 2.4 5.77 4.98v1.8c0 .6-.5 1.1-1.1 1.1H3.85c-.6 0-1.09-.5-1.09-1.1v-1.8c0-2.58 2.58-4.98 5.76-4.98Zm7.66-6.31a2.72 2.72 0 1 1 0 5.43 2.72 2.72 0 0 1 0-5.43ZM8.51 3.7a3.46 3.46 0 1 1 0 6.92 3.46 3.46 0 0 1 0-6.92Z"/></svg>