<svg xmlns="http://www.w3.org/2000/svg" width="24" height="24" viewBox="0 0 24 24"><path fill="currentColor" d="M11.16 5.87a2 2 0 0 1 1.32.47q.3.24.58.6a10 10 0 0 1 1.41 2.55 51 51 0 0 1 2.15 5.84q.1.45.1.68 0 .25-.1.48a1.3 1.3 0 0 1-.6.61 1 1 0 0 1-.4.1q-.54-.01-.7-.58l-.2-.6-.22-.74-.7-2.11-.06-.15-4.42.61-.25 1.63-.15.96-.15.88a.93.93 0 0 1-.94.77q-.4 0-.7-.25a1 1 0 0 1-.36-.77v-.09l.02-.16a36 36 0 0 1 .52-2.9 100 100 0 0 1 .71-3.2 42 42 0 0 1 .64-2.01q.2-.51.43-.96.24-.46.53-.82.3-.37.67-.6.4-.24.87-.24m.2 2.25h-.02q-.1-.01-.26.11-.18.16-.35.43-.18.3-.33.66a11 11 0 0 0-.5 1.6q-.1.35-.16.63l.94-.13 2.23-.33-.08-.23-.38-1.05a8 8 0 0 0-.4-.92 3 3 0 0 0-.43-.61c-.14-.16-.25-.16-.28-.16Z"/></svg>