<svg xmlns="http://www.w3.org/2000/svg" width="24" height="24" viewBox="0 0 24 24"><path fill="currentColor" stroke="#00000000" d="M19.5 19.1a.75.75 0 0 1 0 1.5h-15a.75.75 0 0 1 0-1.5ZM16.41 6.23q.47 0 .8.33l1.9 1.91a.75.75 0 0 1-1.07 1.06l-.95-.96.07 6.67.9-.91a.75.75 0 1 1 1.07 1.05l-1.92 1.94q-.11.1-.25.18a.74.74 0 0 1-1 .06 1 1 0 0 1-.36-.24l-1.88-1.91a.75.75 0 1 1 1.06-1.06l.88.89-.07-6.53-.83.84a.74.74 0 0 1-1.06.01.75.75 0 0 1 0-1.06l1.9-1.94q.34-.32.8-.33ZM6.81 8.5a4 4 0 0 1 3.24 1.63 3.3 3.3 0 0 1 .57 1.84 4 4 0 0 0 .3 1.52q.12.27.25.47l.41.53q.1.13.1.24a1 1 0 0 1-.17.51l-.19.2q-.31.2-.72-.08-.2-.15-.4-.39a3 3 0 0 1-.36-.57l-.1-.2-.12.2-.18.27a4.4 4.4 0 0 1-1.66 1.31q-.48.2-.84.2-.56 0-.98-.14t-.7-.42-.44-.62a2 2 0 0 1-.15-.76q0-.4.13-.82a4 4 0 0 1 .91-1.55 4 4 0 0 1 1.6-1.02 3 3 0 0 1 1.1-.15l.35.02-.25-.24-.1-.08a2 2 0 0 0-1.1-.48 4 4 0 0 0-1.28.06l-.36.1-.26.07-.1.04-.32.1a1 1 0 0 1-.42-.03l-.07-.03a1 1 0 0 1-.23-.19 1 1 0 0 1-.19-.54q0-.21.18-.4.15-.14.39-.24.23-.1.5-.17a6 6 0 0 1 1.16-.17zm1.67 3.51a1.6 1.6 0 0 0-.98.14 2.5 2.5 0 0 0-1.15 1.15q-.18.38-.18.81 0 .12.04.2.03.1.11.18a.6.6 0 0 0 .44.16q.24 0 .47-.1.26-.08.5-.24A3 3 0 0 0 8.82 13q.1-.24.1-.48l-.06-.25a.4.4 0 0 0-.15-.15l-.24-.09ZM19.5 3.4a.75.75 0 0 1 0 1.5h-15a.75.75 0 0 1 0-1.5Z"/></svg>