<svg xmlns="http://www.w3.org/2000/svg" width="24" height="24" viewBox="0 0 24 24"><path fill="currentColor" stroke="#00000000" d="M19.08 5h-7.62a2.4 2.4 0 0 0-2.42 2.42.75.75 0 0 0 1.5 0c0-.5.41-.92.92-.92h3.06v10.19c-.2 0-.46 0-.54-.06l-.31-.25c-.63-.52-1.67-1.37-3.13-.66a9 9 0 0 0-1.22.74c-.4.28-.58.41-1 .44.1-.54.71-1.64 1.06-2.27.79-1.43 1.26-2.29.72-2.92-.2-.23-.6-.46-1.31-.2-3.05 1.14-6.04 5.54-6.16 5.73a.75.75 0 0 0 1.24.83c.03-.03 2.19-3.21 4.46-4.65l-.26.49c-.88 1.6-1.64 2.98-1.09 3.9.14.22.48.6 1.2.6h.05a3 3 0 0 0 1.96-.72c.26-.19.56-.4 1.01-.62.54-.27.86-.07 1.52.47l.38.3c.49.35 1.06.35 1.48.35h2.66a.75.75 0 0 0 0-1.5h-1.22V6.5h3.06c.5 0 .92.41.92.92a.75.75 0 1 0 1.5 0A2.4 2.4 0 0 0 19.08 5"/></svg>