<svg xmlns="http://www.w3.org/2000/svg" width="24" height="24" viewBox="0 0 24 24"><path fill="currentColor" stroke="#00000000" d="M14.46 4a3.03 3.03 0 0 1 3.04 3.04.75.75 0 0 1-1.5 0c0-.8-.61-1.46-1.4-1.53l-.14-.01H4.03c-.8 0-1.45.61-1.52 1.4l-.01.14a.75.75 0 0 1-1.5 0A3.03 3.03 0 0 1 3.86 4h.17z"/><path fill="currentColor" stroke="#00000000" d="M9.25 4.55c.38 0 .7.29.74.65l.01.1v13.84c0 .38-.28.7-.65.74l-.1.01H6.61a.75.75 0 0 1-.1-1.5H8.5V5.3c0-.38.28-.7.65-.74zM12.6 14.8a.75.75 0 0 1 1.13.98l-.07.08-.27.35-.47 2.34 2.35-.47c-.05.01.2-.16.3-.24l.03-.03a.75.75 0 1 1 1.07 1.06c-.23.22-.68.54-1 .66l-.12.03-3.14.61a.94.94 0 0 1-1.13-1l.01-.12.62-3.14c.06-.32.44-.86.69-1.1Z"/><path fill="currentColor" stroke="#00000000" d="m17.88 9.52-4.96 4.96a1.5 1.5 0 0 0 0 2.12l1.95 1.95a1.5 1.5 0 0 0 2.12 0l4.96-4.96c.76-.77.76-2.01 0-2.78l-1.3-1.29a1.96 1.96 0 0 0-2.77 0Zm1.72 1.06 1.29 1.29c.18.18.18.47 0 .66l-4.96 4.96-1.95-1.95 4.96-4.96a.46.46 0 0 1 .66 0Z"/></svg>