<svg xmlns="http://www.w3.org/2000/svg" width="24" height="24" viewBox="0 0 24 24"><path fill="currentColor" fill-rule="evenodd" stroke="#00000000" d="m10.13 10.33 1.68 4.47.02.06a1 1 0 0 0 .88.58h.02a1 1 0 0 0 .9-.54l1.4-2.7h4.96l-.06.1-.4.59c-1.12 1.58-4.33 4.42-6.18 5.99-.78.66-1.92.66-2.7 0-1.83-1.56-5.01-4.37-6.16-5.96H8.5c.3 0 .57-.17.69-.45zm5.76-5.7a4.9 4.9 0 0 1 4.75 5.03q0 .54-.1 1.04h-5.97a.8.8 0 0 0-.67.4l-1.1 2.1-1.71-4.56-.02-.06a1 1 0 0 0-1.82.02L8 11.42H3.66q-.3-.83-.3-1.76c0-2.78 2.13-5.04 4.75-5.04 1.61 0 3.03.85 3.89 2.15a4.7 4.7 0 0 1 3.89-2.15Z"/></svg>