<svg xmlns="http://www.w3.org/2000/svg" width="24" height="24" viewBox="0 0 24 24"><path fill="#00000000" fill-rule="evenodd" stroke="currentColor" stroke-linecap="round" stroke-linejoin="round" stroke-width="1.3" d="M20.25 9.71a5 5 0 0 1-.67 2.52l-.38.56c-.77 1.08-3.52 3.74-5.68 5.72-.86.8-2.18.8-3.04 0-2.16-1.98-4.91-4.64-5.68-5.72l-.38-.56a5 5 0 0 1-.67-2.52A4.7 4.7 0 0 1 8.29 4.9c1.52 0 2.89.82 3.71 2.04a4.5 4.5 0 0 1 3.71-2.04c2.5 0 4.54 2.15 4.54 4.81M4.39 12.08h4.13l1.68-3.42 2.54 5.93 1.82-3.26H20"/></svg>