<svg xmlns="http://www.w3.org/2000/svg" width="24" height="24" viewBox="0 0 24 24"><path fill="currentColor" stroke="#00000000" d="M6.42 6.85a6.14 6.14 0 0 1 7.86-3.15l.2.09c3.52 1.66 4.89 6.38 2.73 10.22a10 10 0 0 1-2.62 2.9l-.9.7-.36.3q-.39.33-.67.63l-.2.2c-2.05 2.08-3.6 2.66-5.47 1.34a2.9 2.9 0 0 1-1.23-2.14v-5.71l.03-1.64.02-.9.03-.5.02-.26q.12-.94.41-1.72ZM13.5 5a4.64 4.64 0 0 0-5.7 2.46l-.12.29q-.21.58-.32 1.37l-.01.14-.01.19-.03.53-.03 1.35-.02 2.06v3.24l.01 1.29.02.1c.06.28.27.58.48.76l.1.07c1.12.8 2.02.42 3.71-1.35l.15-.14q.34-.35.81-.74l.43-.34.48-.38.48-.38a8 8 0 0 0 1.98-2.24c1.78-3.16.62-7-2.21-8.2Zm-1.45 1.22c1.89 0 3.42 1.5 3.42 3.37a.75.75 0 0 1-1.5 0 1.9 1.9 0 0 0-1.92-1.87c-.7 0-1.31.37-1.65.91a3.9 3.9 0 0 1 2.96 3.78c0 2.16-1.78 3.9-3.98 3.9a.75.75 0 0 1 0-1.5 2.44 2.44 0 0 0 2.48-2.4c0-1.07-.72-1.99-1.73-2.3v1.57a.75.75 0 0 1-1.49.1v-2.2a3.4 3.4 0 0 1 3.41-3.36Z"/></svg>