<svg xmlns="http://www.w3.org/2000/svg" width="24" height="24" viewBox="0 0 24 24"><path fill="currentColor" stroke="#00000000" d="m19.68 12.03-.37.55c-1.13 1.59-4.62 4.62-6.06 5.85-.5.43-1.23.43-1.73 0-1.44-1.23-4.92-4.26-6.06-5.85l-.37-.55A4.5 4.5 0 0 1 4.5 9.8c0-2.37 1.8-4.29 4-4.29 1.3 0 2.51.68 3.26 1.8l.21.32c.2.3.63.3.83 0l.21-.31a4 4 0 0 1 3.26-1.81c2.2 0 4 1.92 4 4.29q0 1.22-.59 2.24M16.28 4c-1.48 0-2.87.62-3.9 1.7A5.4 5.4 0 0 0 8.5 4C5.47 4 3 6.6 3 9.79c0 1.06.28 2.1.8 3.01l.03.04.4.6c1.2 1.68 4.47 4.56 6.32 6.13a2.8 2.8 0 0 0 3.67 0c1.85-1.57 5.12-4.45 6.32-6.12l.4-.6.03-.05c.53-.9.8-1.95.8-3.01 0-3.2-2.46-5.79-5.5-5.79"/></svg>