<svg xmlns="http://www.w3.org/2000/svg" width="24" height="24" viewBox="0 0 24 24"><path fill="currentColor" stroke="#00000000" d="M3.4 6.85a6 6 0 0 1 7.72-3.15l.2.1c3.47 1.64 4.8 6.36 2.68 10.2a9.5 9.5 0 0 1-2.57 2.9l-.88.71-.34.3q-.39.33-.66.62l-.2.2c-2 2.1-3.54 2.68-5.39 1.34a3 3 0 0 1-1.2-2.13v-5l.01-1.45.02-1.18.03-.72.02-.4.01-.18.01-.07q.13-.94.4-1.72Zm7.13-1.77a4.47 4.47 0 0 0-5.75 2.37l-.12.3a7 7 0 0 0-.32 1.43l-.02.26-.02.53-.03 1.34-.02 2.07v3.24l.01 1.3.02.1c.05.28.27.58.47.77l.09.07c1 .72 1.83.46 3.27-1l.48-.5q.27-.28.62-.57l.38-.33.5-.4.65-.54a8 8 0 0 0 1.94-2.24c1.75-3.16.6-7-2.15-8.2Zm7.08 10 .1.05.1.06 1.31 1.08a.75.75 0 0 1-.85 1.23l-.09-.07-1.32-1.07a.75.75 0 0 1 .75-1.28ZM8.93 6.22c1.85 0 3.36 1.5 3.36 3.37a.75.75 0 0 1-1.5 0 1.86 1.86 0 0 0-3.47-.96 3.9 3.9 0 0 1-1 7.68.75.75 0 0 1 0-1.5 2.4 2.4 0 0 0 .74-4.7v1.57a.75.75 0 0 1-1.5.1v-2.2c0-1.85 1.5-3.36 3.37-3.36Zm11.32 4.53a.75.75 0 0 1 .1 1.5h-1.87a.75.75 0 0 1-.1-1.5zm-1.02-5.07c.24.3.22.7-.02.98l-.08.07-1.33 1.08a.75.75 0 0 1-1.02-1.1l.08-.07 1.32-1.07a.75.75 0 0 1 1.05.1Z"/></svg>