<svg xmlns="http://www.w3.org/2000/svg" width="24" height="24" viewBox="0 0 24 24"><path fill="currentColor" fill-rule="evenodd" stroke="#00000000" d="M3.28 7.17a5.2 5.2 0 0 1 6.73-2.77c3.04 1.32 4.52 5.58 2.5 9.24-1.14 2.1-3.03 2.98-4.33 4.37-1.5 1.6-2.87 2.68-4.59 1.44-.21-.15-.85-.76-.88-1.52v-.04l-.02-1.87v-1.44c0-2.26.03-4.93.1-5.55.09-.67.24-1.2.36-1.52v-.04l.05-.13.06-.14zM17.33 5.5a.75.75 0 0 1 1.06-.04A9 9 0 0 1 21.31 12c0 2.48-1.04 4.8-2.92 6.55a.75.75 0 0 1-1.02-1.1A7.4 7.4 0 0 0 19.8 12c0-2.06-.87-4-2.44-5.45a.75.75 0 0 1-.04-1.06ZM15.2 8.36a.75.75 0 0 1 1.06-.03 5 5 0 0 1 0 7.34.75.75 0 1 1-1.03-1.09 3.53 3.53 0 0 0 0-5.16.75.75 0 0 1-.03-1.06Zm-7.06-2.1a3.35 3.35 0 0 0-3.4 3.33l-.02 2.07a.75.75 0 0 0 1.5.02l.01-1.15a1.85 1.85 0 0 1 1.67 1.88 1.85 1.85 0 0 1-1.88 1.84h-.57a.75.75 0 0 0-.02 1.5h.61a3.34 3.34 0 0 0 2.4-5.72 3.3 3.3 0 0 0-2.1-1 1.85 1.85 0 0 1 1.79-1.27c1.03 0 1.85.85 1.84 1.88a.75.75 0 0 0 1.5.02 3.37 3.37 0 0 0-3.33-3.4Z"/></svg>