<svg xmlns="http://www.w3.org/2000/svg" width="24" height="24" viewBox="0 0 24 24"><path fill="currentColor" stroke="#00000000" d="M3.52 6.63a5.97 5.97 0 0 1 7.6-2.93l.2.1c3.47 1.64 4.8 6.36 2.68 10.2a9.5 9.5 0 0 1-2.57 2.9l-1.06.86q-.5.43-.83.77l-.19.2c-2 2.1-3.54 2.68-5.39 1.34a3 3 0 0 1-1.2-2.13v-5l.01-1.45.02-1.18.03-.72.02-.4.01-.18.01-.07q.13-.95.38-1.69l-.03.1.02-.09.03-.1.15-.33.03-.05.01-.02Zm7-1.55a4.5 4.5 0 0 0-5.75 2.4l-.03.06-.06.14-.02.06q-.16.48-.27 1.07l-.04.3v.07l-.03.26-.02.53-.03 1.34-.02 2.07v3.24l.01 1.3.02.1c.05.28.27.58.47.77l.09.07c.97.7 1.77.48 3.1-.83l.34-.34.3-.33.63-.57.38-.33 1.15-.94a8 8 0 0 0 1.94-2.24c1.75-3.16.6-7-2.15-8.2Zm8.8.36A8.7 8.7 0 0 1 22.25 12a8.7 8.7 0 0 1-2.93 6.56.75.75 0 0 1-.97-1.14 7.2 7.2 0 0 0 2.4-5.42 7.2 7.2 0 0 0-2.4-5.42.75.75 0 1 1 .97-1.14Zm-10.4.78c1.86 0 3.37 1.5 3.37 3.37a.75.75 0 0 1-1.5 0 1.86 1.86 0 0 0-3.47-.96 3.9 3.9 0 0 1-1 7.68.75.75 0 0 1 0-1.5 2.4 2.4 0 0 0 .74-4.7v1.57a.75.75 0 0 1-1.5.1v-2.2c0-1.85 1.5-3.36 3.37-3.36Zm8.24 2.08q.42.33.88 1.04c.47.76.75 1.65.75 2.66a5 5 0 0 1-1.63 3.7.75.75 0 0 1-.96-1.15A3.3 3.3 0 0 0 17.3 12c0-1.23-.53-2.09-1.09-2.55a.75.75 0 0 1 .96-1.15Z"/></svg>