<svg xmlns="http://www.w3.org/2000/svg" width="24" height="24" viewBox="0 0 24 24"><path fill="currentColor" stroke="#00000000" d="M9.3 8.8c.3-1.3 1.4-2.3 2.8-2.3 1.6 0 2.8 1.3 2.8 2.8 0 .5-.3 1.7-1.5 2.5-.6.4-.7.8-.7 1.1 0 .4-.3.8-.7.8s-.7-.3-.7-.7c0-1 .4-1.8 1.3-2.4.8-.6.8-1.2.8-1.3 0-.7-.6-1.3-1.3-1.3-.6 0-1.2.5-1.3 1.1-.1.4-.5.7-.9.6s-.7-.5-.6-.9m2.7 8c-.6 0-1-.4-1-1s.4-1 1-1 1 .4 1 1-.4 1-1 1m0 3.6c4.6 0 8.4-3.7 8.4-8.4 0-4.6-3.7-8.4-8.4-8.4-4.6 0-8.4 3.7-8.4 8.4 0 4.6 3.8 8.4 8.4 8.4"/></svg>