<svg xmlns="http://www.w3.org/2000/svg" width="24" height="24" viewBox="0 0 24 24"><path fill="currentColor" stroke="#00000000" d="M12.13 3a9.12 9.12 0 1 0 0 18.25 9.12 9.12 0 0 0 0-18.25Zm0 1.5a7.62 7.62 0 1 1 0 15.25 7.62 7.62 0 0 1 0-15.25Z"/><path fill="currentColor" stroke="#00000000" d="M12.5 16.25a.75.75 0 0 1 .1 1.5H5.97a.75.75 0 0 1-.1-1.5zm0-3.25a.75.75 0 0 1 .1 1.5H4.22a.75.75 0 0 1-.1-1.5zm0-3.25a.75.75 0 0 1 .1 1.5H4.22a.75.75 0 0 1-.1-1.5zm0-3.25a.75.75 0 0 1 .1 1.5H5.97a.75.75 0 0 1-.1-1.5z"/><path fill="currentColor" stroke="#00000000" d="M12.13 3.75a8.37 8.37 0 1 1 0 16.75z"/></svg>