<svg xmlns="http://www.w3.org/2000/svg" width="72" height="72" viewBox="0 0 72 72"><path fill="currentColor" d="M44.92 20.77c3.52 0 6.3 2.77 6.3 6.3v27.68a6.23 6.23 0 0 1-6.3 6.3H17.24a6.23 6.23 0 0 1-6.3-6.3V27.07c0-3.53 2.77-6.3 6.3-6.3zM41.9 38.9c-.5-.5-1.76-1.26-3.02 0l-8.8 8.56c-.51.5-1.27.5-1.77 0l-3.27-3.02c-.76-.76-1.76-1.01-3.02 0l-7.3 6.29v4.03a2.7 2.7 0 0 0 2.51 2.51h27.7a2.7 2.7 0 0 0 2.51-2.51V44.43zm12.86-27.94a6.2 6.2 0 0 1 6.28 5.83l.02.46v27.69c0 2.78-1.73 5.1-4.2 5.94q.35-1 .36-2.13V21.07c0-3.53-2.77-6.3-6.3-6.3H23.24a6 6 0 0 0-2.1.35 6.2 6.2 0 0 1 5.42-4.14l.52-.02zM23.03 29.84c-2.02 0-3.78 1.76-3.78 3.77s1.76 3.78 3.78 3.78 3.77-1.77 3.77-3.78-1.5-3.77-3.77-3.77"/></svg>