<svg xmlns="http://www.w3.org/2000/svg" width="24" height="24" viewBox="0 0 24 24"><path fill="currentColor" stroke="#00000000" d="M13.36 4.6a.67.67 0 1 1 0 1.34h-6.2c-.86 0-1.57.71-1.57 1.58v9.42c0 .87.7 1.57 1.58 1.57h9.86c.87 0 1.58-.7 1.58-1.57v-5.28a.68.68 0 0 1 1.35 0v5.28a2.93 2.93 0 0 1-2.93 2.92H7.17a2.93 2.93 0 0 1-2.93-2.92V7.52a2.93 2.93 0 0 1 2.93-2.93Zm4.74-.26c.38 0 .68.3.68.67v1.07a7.47 7.47 0 0 1-7.43 7.41H9.52l1.6 1.6a.68.68 0 0 1-.95.96l-2.43-2.43a1.13 1.13 0 0 1 0-1.6l2.42-2.43a.68.68 0 0 1 .96.96l-1.6 1.6h1.83a6.1 6.1 0 0 0 6.08-6.13v-1c0-.38.3-.68.67-.68Z"/></svg>