<svg xmlns="http://www.w3.org/2000/svg" width="24" height="24" viewBox="0 0 24 24"><path fill="currentColor" fill-rule="evenodd" stroke="#00000000" d="M19 12.75v-6C19 5.78 18.22 5 17.25 5H6.75C5.78 5 5 5.78 5 6.75v6h4c.41 0 .75.34.75.75a2.25 2.25 0 0 0 4.5.15v-.15c0-.38.28-.7.65-.74l.1-.01zm0 1.5h-3.33v.03a3.75 3.75 0 0 1-3.47 2.96l-.2.01a3.75 3.75 0 0 1-3.67-2.97v-.03H5v3c0 .97.78 1.75 1.75 1.75h10.5c.97 0 1.75-.78 1.75-1.75zM17.25 3.5c1.8 0 3.25 1.45 3.25 3.25v10.5c0 1.8-1.45 3.25-3.25 3.25H6.75a3.25 3.25 0 0 1-3.25-3.25V6.75c0-1.8 1.45-3.25 3.25-3.25z"/></svg>