<svg xmlns="http://www.w3.org/2000/svg" width="24" height="24" viewBox="0 0 24 24"><path fill="currentColor" stroke="#00000000" d="M17.18 12.82a3.85 3.85 0 0 1 3.2 6l1.97 1.97a.75.75 0 0 1-.97 1.14l-.09-.08-1.97-1.97q-.94.63-2.14.65a3.85 3.85 0 0 1 0-7.7ZM3.77 10.58a8.24 8.24 0 0 1 16.45-.07c.04.68-.46 1.27-1.13 1.33l-.13.01h-9c.14 3.23 1.13 5.84 1.96 5.99h.07a.75.75 0 0 1 .1 1.5H12c-4.75 0-8.52-4-8.22-8.76Zm13.4 3.74a2.35 2.35 0 1 0 0 4.71 2.35 2.35 0 0 0 0-4.7Zm-8.7-2.47H5.28l.03.2a6.8 6.8 0 0 0 4.34 5.38 14 14 0 0 1-1.2-5.58Zm1.28-7.1-.07.02A6.8 6.8 0 0 0 5.3 10.2l-.02.15h3.17c.08-2.27.55-4.28 1.3-5.6ZM12 4.57c-.87 0-1.89 2.5-2.03 5.77h4.06c-.14-3.27-1.16-5.77-2.03-5.77Zm2.24.16.04.06a13 13 0 0 1 1.25 5.55h3.17l-.02-.2a6.7 6.7 0 0 0-4.44-5.41Z"/></svg>