<svg xmlns="http://www.w3.org/2000/svg" width="24" height="24" viewBox="0 0 24 24"><path fill="currentColor" fill-rule="evenodd" stroke="#00000000" d="M17.5 3.25c1.8 0 3.25 1.46 3.25 3.25v11c0 1.8-1.45 3.25-3.25 3.25h-11a3.25 3.25 0 0 1-3.25-3.25v-11c0-1.8 1.45-3.25 3.25-3.25Zm0 1.5h-11c-.97 0-1.75.78-1.75 1.75v11c0 .97.78 1.75 1.75 1.75h11c.97 0 1.75-.78 1.75-1.75v-11c0-.97-.78-1.75-1.75-1.75Zm-2.41 7.62a.79.79 0 0 1 1.46.58 4.87 4.87 0 0 1-9.1 0 .78.78 0 1 1 1.46-.58 3.3 3.3 0 0 0 3.09 2.1 3.3 3.3 0 0 0 3.09-2.1Zm0-4.41a1.08 1.08 0 1 1 0 2.15 1.08 1.08 0 0 1 0-2.15Zm-6.22 0a1.08 1.08 0 1 1 0 2.15 1.08 1.08 0 0 1 0-2.15Z"/></svg>