<svg xmlns="http://www.w3.org/2000/svg" width="150" height="130" viewBox="0 0 150 130"><path fill="currentColor" fill-rule="evenodd" stroke="#00000000" d="M43.96 31v59.03c.24 3.4-.5 6.08-2.17 7.9q-2.66 2.92-8.36 2.92h-.5c-2.38.1-5.3.15-8.63.15h-.74l-.12-.74a92 92 0 0 0-1.17-5.86L22 93.22l1.18.1c2.7.2 5.73.31 8.98.31l.6.02q1.9 0 2.76-.9.87-.92.8-2.93V31zM19.3 46l7.7 2.55-.3.86a326 326 0 0 1-15.9 36.73l-.45.86-.81-.53a49 49 0 0 0-5.68-3.21L3 82.84l.48-.83c5.7-9.9 10.93-21.74 15.54-35.19zm38.62 0 .4.72a845 845 0 0 1 8.93 17.04c3.18 6.44 6 12.35 8.4 17.6l.35.8L68.19 86l-.37-.83-7.81-17.5a504 504 0 0 0-8.6-17.6l-.41-.83zm29.03-16 .55.57c4.08 4.28 7.16 8.5 9.16 12.54l.34.67L90.94 48l-.43-1.02a37 37 0 0 0-8.73-12.02l-.78-.74zm51.86-4q3.73 0 6.46 2.69A8.4 8.4 0 0 1 148 34.8q0 3.75-2.72 6.47a9 9 0 0 1-6.47 2.73c-5.77-.06-8.81-3.23-8.81-9.2q.01-3.4 2.5-6.08a8.3 8.3 0 0 1 6.3-2.72Zm-42.85-1 .52.5a44 44 0 0 1 9.17 12.15l.35.7L99.96 42l-.43-.88a42 42 0 0 0-8.75-11.6l-.78-.74zm42.85 6.98c-1.98 0-2.83.84-2.83 2.82 0 2.2.85 3.14 2.83 3.14s2.83-.93 2.83-3.13q0-.94-.86-1.9a2.5 2.5 0 0 0-1.97-.93Z"/></svg>