<svg xmlns="http://www.w3.org/2000/svg" width="24" height="24" viewBox="0 0 24 24"><path fill="currentColor" fill-rule="evenodd" stroke="#00000000" d="M5.32 11.4a.67.67 0 0 1 0 1.34.67.67 0 0 1-.67-.67c0-.37.3-.67.67-.67Zm6.86 0a.67.67 0 0 1 0 1.34.67.67 0 0 1-.66-.67c0-.37.3-.67.66-.67Zm-2.29 0a.67.67 0 0 1 0 1.34.67.67 0 0 1-.66-.67c0-.37.3-.67.66-.67Zm-2.28 0a.67.67 0 0 1 0 1.34.67.67 0 0 1-.67-.67c0-.37.3-.67.67-.67ZM5.3 9.12c.37 0 .67.3.67.66s-.3.67-.66.67a.67.67 0 0 1-.67-.67c0-.36.3-.66.67-.66Zm6.87 0c.37 0 .67.3.67.66s-.3.67-.67.67a.67.67 0 0 1-.66-.67c0-.36.3-.66.66-.66Zm-2.29 0c.37 0 .67.3.67.66s-.3.67-.67.67a.67.67 0 0 1-.66-.67c0-.36.3-.66.66-.66Zm-2.28 0c.36 0 .66.3.66.66s-.3.67-.66.67a.67.67 0 0 1-.67-.67c0-.36.3-.66.67-.66Z"/><path fill="#00000000" fill-rule="evenodd" stroke="currentColor" stroke-linecap="round" stroke-linejoin="round" stroke-width="1.5" d="M13.25 17.5h-9a2 2 0 0 1-2-2v-7c0-1.1.9-2 2-2h9a2 2 0 0 1 2 2v7a2 2 0 0 1-2 2m-6.7-2.9h4.4m7.47-.32a3.2 3.2 0 0 0 0-4.56m1.52 6.66a6.2 6.2 0 0 0 0-8.76h0"/></svg>