<svg xmlns="http://www.w3.org/2000/svg" width="150" height="130" viewBox="0 0 150 130"><path fill="currentColor" fill-rule="evenodd" stroke="#00000000" d="M135.65 89.56q2.69 0 4.08 1.49 1.4 1.47 1.4 3.76 0 2.25-1.4 3.73-1.4 1.46-4.08 1.46-2.7-.01-4.04-1.46a5.3 5.3 0 0 1-1.35-3.73q0-2.28 1.35-3.76 1.34-1.5 4.04-1.5Zm-41.8-.06q2.7 0 4.09 1.49 1.39 1.5 1.4 3.75a5.2 5.2 0 0 1-1.4 3.73q-1.4 1.47-4.09 1.46-2.68 0-4.03-1.46a5.3 5.3 0 0 1-1.34-3.73q0-2.25 1.34-3.75 1.35-1.48 4.03-1.48ZM51.9 75q12.4 9.86 17.85 18.81l-5.1 4.5a71 71 0 0 0-17.94-19.26Zm-30.85-.35q4.83 0 8.26 3.43a11.2 11.2 0 0 1 3.43 8.22q0 4.8-3.43 8.22a11.3 11.3 0 0 1-8.26 3.43q-5.21 0-8.62-3.43A11.2 11.2 0 0 1 9 86.3q0-4.8 3.47-8.22a11.7 11.7 0 0 1 8.58-3.43Zm0 5.45q-6.52 0-6.51 6.16 0 6.51 6.5 6.59 2.37 0 4.27-1.89a6.4 6.4 0 0 0 1.89-4.7q0-6.16-6.15-6.16Zm119.23-49.15-.67 49.35h-8.4l-.62-49.35zM95.18 30q4.43 0 7.92 1.25t6 3.6q2.4 2.42 3.73 5.74 1.32 3.33 1.32 7.44 0 8.26-7.64 16.32l-5.1 5q-3.3 3.74-3.3 10.95h-9.25q.04-2.97.32-5.26.3-2.29.9-3.89.61-1.65 1.84-3.44 1.22-1.8 3.03-3.83l6.08-6.32a17 17 0 0 0 2.83-4.48q1-2.37 1-4.77-.01-4.77-2.48-7.43t-7.2-2.67q-4.68 0-7.41 2.41-2.78 2.45-2.78 6.84h-9.3q.04-4 1.42-7.18 1.36-3.15 4.05-5.51Q86.63 30 95.18 30Z"/></svg>