<svg xmlns="http://www.w3.org/2000/svg" width="35" height="35" viewBox="0 0 35 35"><path fill="currentColor" stroke="#00000000" d="M24.9 3.15H10.1a4.95 4.95 0 0 0-4.95 4.94v18.82a4.95 4.95 0 0 0 4.96 4.94h14.78a4.95 4.95 0 0 0 4.96-4.94V8.09a4.95 4.95 0 0 0-4.96-4.94Zm-14.8 1.7h14.8c1.8 0 3.25 1.45 3.25 3.24v18.82a3.25 3.25 0 0 1-3.26 3.24H10.11a3.25 3.25 0 0 1-3.26-3.24V8.09a3.25 3.25 0 0 1 3.26-3.24Z"/><path fill="currentColor" stroke="#00000000" d="M19 16a1 1 0 0 1 1 1 1 1 0 0 1-1 1 1 1 0 0 1-1-1 1 1 0 0 1 1-1Zm3 0a1 1 0 0 1 1 1 1 1 0 0 1-1 1 1 1 0 0 1-1-1 1 1 0 0 1 1-1Zm-6 0a1 1 0 0 1 1 1 1 1 0 0 1-1 1 1 1 0 0 1-1-1 1 1 0 0 1 1-1Zm-3 0a1 1 0 0 1 1 1 1 1 0 0 1-1 1 1 1 0 0 1-1-1 1 1 0 0 1 1-1Zm3-3a1 1 0 0 1 1 1 1 1 0 0 1-1 1 1 1 0 0 1-1-1 1 1 0 0 1 1-1Zm3 0a1 1 0 0 1 1 1 1 1 0 0 1-1 1 1 1 0 0 1-1-1 1 1 0 0 1 1-1Zm3 0a1 1 0 0 1 1 1 1 1 0 0 1-1 1 1 1 0 0 1-1-1 1 1 0 0 1 1-1Zm-9 0a1 1 0 0 1 1 1 1 1 0 0 1-1 1 1 1 0 0 1-1-1 1 1 0 0 1 1-1Zm7 7.25a.75.75 0 0 1 .1 1.5H15a.75.75 0 0 1-.1-1.5z"/></svg>