<svg xmlns="http://www.w3.org/2000/svg" width="24" height="24" viewBox="0 0 24 24"><path fill="currentColor" stroke="#00000000" d="M7.87 11.18c.48 0 .88.4.88.87 0 .48-.4.88-.88.88a.9.9 0 0 1-.87-.88c0-.48.4-.87.87-.87Zm9 0c.48 0 .88.4.88.87 0 .48-.4.88-.88.88a.9.9 0 0 1-.87-.88c0-.48.4-.87.87-.87Zm-3 0c.48 0 .88.4.88.87 0 .48-.4.88-.88.88a.9.9 0 0 1-.87-.88c0-.48.4-.87.87-.87Zm-3 0c.48 0 .88.4.88.87 0 .48-.4.88-.88.88a.9.9 0 0 1-.87-.88c0-.48.4-.87.87-.87Zm-3-3c.48 0 .88.4.88.87 0 .48-.4.88-.88.88A.9.9 0 0 1 7 9.05c0-.48.4-.87.87-.87Zm9 0c.48 0 .88.4.88.87 0 .48-.4.88-.88.88a.9.9 0 0 1-.87-.88c0-.48.4-.87.87-.87Zm-3 0c.48 0 .88.4.88.87 0 .48-.4.88-.88.88a.9.9 0 0 1-.87-.88c0-.48.4-.87.87-.87Zm-3 0c.48 0 .88.4.88.87 0 .48-.4.88-.88.88a.9.9 0 0 1-.87-.88c0-.48.4-.87.87-.87Z"/><path fill="#00000000" fill-rule="evenodd" stroke="currentColor" stroke-linecap="round" stroke-linejoin="round" stroke-width="1.5" d="M18.5 4.75H6.25a2.5 2.5 0 0 0-2.5 2.5v9.42a2.5 2.5 0 0 0 2.5 2.5H18.5a2.5 2.5 0 0 0 2.5-2.5V7.25a2.5 2.5 0 0 0-2.5-2.5m-9 10.6h5.75"/></svg>