<svg xmlns="http://www.w3.org/2000/svg" width="180" height="144" viewBox="0 0 180 144"><path fill="currentColor" stroke="#00000000" d="M110.22 95.55q-2.77 0-4.17 1.54a5.6 5.6 0 0 0-1.4 3.88q0 2.35 1.4 3.86 1.4 1.52 4.17 1.52 2.79 0 4.23-1.52a5.4 5.4 0 0 0 1.44-3.86q0-2.35-1.44-3.88-1.44-1.54-4.23-1.54ZM126 39.01a18 18 0 0 0-6.2-3.73 24 24 0 0 0-8.2-1.3q-8.84 0-14.51 4.93a16 16 0 0 0-4.2 5.72 19 19 0 0 0-1.47 7.42h9.63q0-4.55 2.88-7.08 2.82-2.5 7.66-2.5 4.89 0 7.45 2.76t2.56 7.7q0 2.49-1.02 4.93a17 17 0 0 1-2.93 4.63l-6.3 6.55a41 41 0 0 0-3.13 3.95 17 17 0 0 0-1.9 3.57q-.64 1.66-.93 4.03t-.34 5.44h9.57q0-7.47 3.41-11.33l5.28-5.17q7.9-8.35 7.91-16.9 0-4.25-1.37-7.69T126 39.01Zm22.67 47.04.68-51.03h-10l.63 51.03zm.12 11.1q-1.44-1.53-4.22-1.53-2.79 0-4.18 1.53a5.6 5.6 0 0 0-1.39 3.88q0 2.35 1.4 3.86 1.37 1.52 4.17 1.52 2.78 0 4.22-1.52 1.44-1.51 1.44-3.86t-1.44-3.88Zm-70.27-6.02q-5.8 0-9.76 3.9a12.7 12.7 0 0 0-3.95 9.37q0 5.44 3.9 9.36 3.9 3.9 9.8 3.9 5.52 0 9.42-3.9t3.9-9.36-3.9-9.37-9.41-3.9Zm4.86 18.57a6.7 6.7 0 0 1-4.86 2.15q-7.4-.1-7.4-7.51 0-7 7.4-7 7 0 7.01 7 0 3.2-2.15 5.36ZM38.9 90.72 33 95.33a80 80 0 0 1 20.42 21.92l5.8-5.1q-6.2-10.21-20.31-21.43Z"/></svg>