<svg xmlns="http://www.w3.org/2000/svg" width="24" height="24" viewBox="0 0 24 24"><path fill="currentColor" fill-rule="evenodd" stroke="#00000000" d="M8.76 11.44c.35 0 .63.28.63.63s-.28.63-.63.63a.63.63 0 0 1-.63-.63c0-.35.28-.63.63-.63Zm6.48 0c.35 0 .63.28.63.63s-.28.63-.63.63a.63.63 0 0 1-.63-.63c0-.35.28-.63.63-.63Zm-2.16 0c.35 0 .63.28.63.63s-.28.63-.63.63a.63.63 0 0 1-.63-.63c0-.35.28-.63.63-.63Zm-2.16 0a.63.63 0 0 1 0 1.26.63.63 0 0 1-.63-.63c0-.35.28-.63.63-.63ZM8.76 9.28c.35 0 .63.28.63.63s-.28.63-.63.63a.63.63 0 0 1-.63-.63c0-.35.28-.63.63-.63Zm6.48 0c.35 0 .63.28.63.63s-.28.63-.63.63a.63.63 0 0 1-.63-.63c0-.35.28-.63.63-.63Zm-2.16 0c.35 0 .63.28.63.63s-.28.63-.63.63a.63.63 0 0 1-.63-.63c0-.35.28-.63.63-.63Zm-2.16 0a.63.63 0 0 1 0 1.26.63.63 0 0 1-.63-.63c0-.35.28-.63.63-.63Z"/><path fill="#00000000" fill-rule="evenodd" stroke="currentColor" stroke-linecap="round" stroke-linejoin="round" stroke-width="1.5" d="M16.25 17.25h-8.5a2 2 0 0 1-2-2v-6.5c0-1.1.9-2 2-2h8.5a2 2 0 0 1 2 2v6.5a2 2 0 0 1-2 2m-6.32-2.8h4.14M1.5 16.63l1.2-1.2a.5.5 0 0 0 0-.7l-.86-.84a.5.5 0 0 1 0-.7l.86-.85a.5.5 0 0 0 0-.68l-.86-.86a.5.5 0 0 1 0-.69l.86-.85a.5.5 0 0 0 0-.69l-1.2-1.2m21 9.25-1.2-1.2a.5.5 0 0 1 0-.68l.86-.85a.5.5 0 0 0 0-.7l-.86-.85a.5.5 0 0 1 0-.68l.86-.86a.5.5 0 0 0 0-.69l-.86-.85a.5.5 0 0 1 0-.69l1.2-1.2"/></svg>