<svg xmlns="http://www.w3.org/2000/svg" width="90" height="99" viewBox="0 0 90 99"><path fill="currentColor" d="M65.12 25.56 22.5 75l3.95-.06L69 25.5zm-51.98-2.79q-.86.92-1.72 1.8l-1.73 1.8v10.08H5.51V6.59H9.7v14.4l6.47-7.2q3.19-3.53 6.46-7.2h5.11l-11.79 13.2 6.33 8.33 6.32 8.33h-5.04zm28.94-5.11q-.44-.08-.9-.11c-.46-.03-.63-.03-.97-.03q-3.74 0-5.06 3.18v15.75h-3.8v-22.2h3.7l.06 2.57a5.9 5.9 0 0 1 5.29-2.97q1.06 0 1.68.28zm23.79 59.69H53.05v10.21h14.91v3.47H48.87V61.17h18.89v3.48h-14.7v9.23h12.81zm9.99-8.51.12 2.79a8.1 8.1 0 0 1 6.65-3.2q7.02 0 7.1 7.94v14.66h-3.8V76.34q-.03-2.41-1.09-3.56-1.06-1.13-3.36-1.13-1.85 0-3.24.98a7 7 0 0 0-2.17 2.58v15.82h-3.8v-22.2z"/></svg>