<svg xmlns="http://www.w3.org/2000/svg" width="150" height="130" viewBox="0 0 150 130"><path fill="currentColor" stroke="#00000000" d="M41.3 25q5.25 0 9.83 1.21 4.57 1.22 8.32 3.57a28 28 0 0 1 6.18 5.48 32 32 0 0 1 4.56 7.28 40 40 0 0 1 2.82 8.88q.96 4.83.96 10.25v1.4q0 .7-.04 1.42a37 37 0 0 1-1.54 9.2 23 23 0 0 1-3.58 7.06 15.1 15.1 0 0 1-12.43 6.02q-7.78 0-10.2-6.7a16 16 0 0 1-5.2 5.06 12 12 0 0 1-6 1.64q-6.06 0-9.3-5.04-2.49-3.88-2.48-10.24a37 37 0 0 1 .17-3.5q.34-3.24 1.15-6.53t2.05-5.94a27 27 0 0 1 2.99-4.99 20 20 0 0 1 3.67-3.71 13.8 13.8 0 0 1 8.63-3.16q3.45 0 6.2.93 1.31.43 2.91 1.4 1.61.94 3.4 2.32l-2.22 23.48q-.08.6-.08 1.11v1.02q0 7.26 5.2 7.26 4.57 0 7.44-4.57 2.98-4.7 3.16-12.12l.06-1.67.02-1.62q0-7.34-1.73-12.94a25 25 0 0 0-5.1-9.39 21 21 0 0 0-8.4-5.74 32 32 0 0 0-11.59-1.94 27 27 0 0 0-14.9 4.14q-6.54 4.14-10.3 12a44 44 0 0 0-2.86 8.5 55 55 0 0 0-1.4 11.2v1.5q0 7.15 1.83 12.84a28 28 0 0 0 5.25 9.67 23 23 0 0 0 8.35 6.08q4.94 2.11 11.13 2.03 3.8 0 7.52-.94 1.95-.46 3.6-1.09 1.64-.61 3.02-1.43l1.79 5.38q-1.4.94-3.25 1.65a36 36 0 0 1-4.02 1.26q-2.08.46-4.37.74-2.27.28-4.46.28-10.68 0-18.28-4.78a27 27 0 0 1-6.68-5.83 32 32 0 0 1-4.77-7.96 39 39 0 0 1-2.51-8.52Q5 73.41 5 68.25v-1.37q0-.69.05-1.4.3-5.65 1.62-11.02a48 48 0 0 1 3.58-9.9 40 40 0 0 1 5.6-8.31 32 32 0 0 1 7.18-6.13A33.4 33.4 0 0 1 41.3 25Zm55.8 65.9q2.5 0 3.78 1.36t1.28 3.47q-.01 2-1.28 3.36-1.28 1.36-3.78 1.36-2.47 0-3.7-1.36a4.8 4.8 0 0 1-1.22-3.36q0-2.1 1.22-3.47 1.23-1.36 3.7-1.37Zm43.79-20.18v6.04q0 4.03-2.02 8.14a25 25 0 0 1-2.32 3.72 16 16 0 0 1-2.88 2.96l-4.55-3.14q1.98-2.7 2.96-5.36a17 17 0 0 0 1.07-5.43v-6.93zM42.54 49.63q-4.74 0-7.9 4.9a21 21 0 0 0-2.58 5.86 43 43 0 0 0-1.39 7.68 29 29 0 0 0-.17 2.86q0 4.5 1.64 6.85a5.4 5.4 0 0 0 4.77 2.37q1.14 0 2.35-.55 1.19-.56 2.28-1.62 1.09-1.07 2.07-2.56.98-1.5 1.7-3.38l.03-.17.02-.17 1.96-21a11 11 0 0 0-4.78-1.07Zm94.32-13.62q2.4 0 3.66 1.35 1.25 1.35 1.25 3.4 0 1.94-1.25 3.25-1.25 1.3-3.66 1.3-2.43 0-3.62-1.3a4.7 4.7 0 0 1-1.18-3.25q0-2.05 1.18-3.4 1.2-1.35 3.62-1.35Z"/></svg>