<svg xmlns="http://www.w3.org/2000/svg" width="22" height="22" viewBox="0 0 22 22"><path fill="currentColor" stroke="#00000000" d="M6.21 8.7a.69.69 0 0 1 0 1.38.7.7 0 0 1-.68-.69c0-.38.3-.68.68-.68Zm7.06 0c.38 0 .68.31.68.7 0 .37-.3.68-.68.68a.7.7 0 0 1-.69-.69c0-.38.31-.68.69-.68Zm-2.35 0a.69.69 0 0 1 0 1.38.7.7 0 0 1-.7-.69.7.7 0 0 1 .7-.68Zm-2.36 0a.69.69 0 0 1 0 1.38.7.7 0 0 1-.68-.69c0-.38.3-.68.68-.68ZM6.21 6.36a.69.69 0 0 1 0 1.38.7.7 0 0 1-.68-.69c0-.38.3-.69.68-.69Zm7.06 0c.38 0 .68.31.68.7 0 .37-.3.68-.68.68a.7.7 0 0 1-.69-.69.7.7 0 0 1 .69-.69Zm-2.35 0a.69.69 0 0 1 0 1.38.7.7 0 0 1-.7-.69.7.7 0 0 1 .7-.69Zm-2.36 0a.69.69 0 0 1 0 1.38.7.7 0 0 1-.68-.69c0-.38.3-.69.68-.69Z"/><path fill="#00000000" fill-rule="evenodd" stroke="currentColor" stroke-linecap="round" stroke-linejoin="round" stroke-width="1.5" d="M14.2 3.9H5.28a2.3 2.3 0 0 0-2.3 2.29v6.26a2.3 2.3 0 0 0 2.3 2.29h9.86c.75 0 1.37-.62 1.37-1.38V6.2a2.3 2.3 0 0 0-2.3-2.3M7.5 11.98H12"/><path fill="#00000000" fill-rule="evenodd" stroke="currentColor" stroke-linecap="round" stroke-linejoin="round" stroke-width="1.5" d="M8.15 17.95h8.58a3 3 0 0 0 2.98-2.98v-5.9"/></svg>