<svg xmlns="http://www.w3.org/2000/svg" width="22" height="22" viewBox="0 0 22 22"><path fill="currentColor" stroke="#00000000" d="M15 7.49a.7.7 0 0 1 0 1.41.7.7 0 0 1-.71-.7c0-.4.32-.71.7-.71Zm-2.6 0c.4 0 .72.32.72.7a.71.71 0 0 1-1.42 0c0-.38.32-.7.7-.7Zm-2.58 0a.7.7 0 1 1 .01 1.41.7.7 0 0 1-.72-.7c0-.4.32-.71.71-.71Zm-2.59 0a.7.7 0 1 1 .01 1.41.71.71 0 0 1 0-1.41Zm0-2.43c.4 0 .71.32.71.7 0 .4-.32.72-.7.72a.71.71 0 0 1 0-1.42Zm7.77 0a.7.7 0 0 1 0 1.42.7.7 0 0 1-.71-.71c0-.39.32-.7.7-.7Zm-2.6 0c.4 0 .72.32.72.7 0 .4-.32.72-.71.72a.7.7 0 0 1-.71-.71c0-.39.32-.7.7-.7Zm-2.58 0c.4 0 .71.32.71.7 0 .4-.32.72-.7.72a.7.7 0 0 1-.72-.71c0-.39.32-.7.71-.7Z"/><path fill="#00000000" fill-rule="evenodd" stroke="currentColor" stroke-linecap="round" stroke-linejoin="round" stroke-width="1.5" d="M12.63 16.63c.39 0 .6.45.36.75h0l-1.44 1.74a.46.46 0 0 1-.7 0h0L9.4 17.37a.46.46 0 0 1 .35-.74h0Zm3.41-14.1a2.3 2.3 0 0 1 2.3 2.28h0v6.54a2.4 2.4 0 0 1-2.37 2.37h0-9.7a2.37 2.37 0 0 1-2.37-2.37h0V4.81a2.3 2.3 0 0 1 2.29-2.29h0Zm-6.99 8.35h4.13"/></svg>