<svg xmlns="http://www.w3.org/2000/svg" width="22" height="22" viewBox="0 0 22 22"><path fill="currentColor" stroke="#00000000" d="M12.11 12.58c.4 0 .71.32.71.71a.7.7 0 0 1-.71.71.7.7 0 0 1-.71-.7c0-.4.32-.72.71-.72Zm2.22 0c.4 0 .71.32.71.71a.7.7 0 0 1-.7.71.7.7 0 0 1-.72-.7c0-.4.32-.72.71-.72Zm-4.44 0c.39 0 .71.32.71.71a.7.7 0 0 1-.71.71.7.7 0 0 1-.71-.7c0-.4.32-.72.71-.72Zm-2.22 0c.39 0 .71.32.71.71a.7.7 0 0 1-.71.71.7.7 0 0 1-.71-.7c0-.4.32-.72.7-.72Zm2.22-2.2a.71.71 0 0 1 0 1.42.7.7 0 0 1-.71-.71c0-.4.32-.71.71-.71Zm2.22 0c.4 0 .71.32.71.7 0 .4-.32.72-.71.72a.7.7 0 0 1-.71-.71c0-.4.32-.71.71-.71Zm2.22 0c.4 0 .71.32.71.7 0 .4-.32.72-.7.72a.7.7 0 0 1-.72-.71c0-.4.32-.71.71-.71Zm-6.66 0a.71.71 0 0 1 0 1.42.7.7 0 0 1-.71-.71c0-.4.32-.71.7-.71Z"/><path fill="#00000000" fill-rule="evenodd" stroke="currentColor" stroke-linecap="round" stroke-linejoin="round" stroke-width="1.5" d="M15.13 3.44H6.87a2.3 2.3 0 0 0-2.29 2.29v10.54a2.3 2.3 0 0 0 2.3 2.3h8.25a2.3 2.3 0 0 0 2.29-2.3V5.73a2.3 2.3 0 0 0-2.3-2.3M9.16 15.5h3.66"/></svg>