<svg xmlns="http://www.w3.org/2000/svg" width="22" height="22" viewBox="0 0 22 22"><path fill="currentColor" stroke="#00000000" d="M7.35 8.4c.39 0 .7.32.7.71a.7.7 0 0 1-.7.71.71.71 0 0 1 0-1.41Zm7.76 0a.71.71 0 0 1 0 1.42.7.7 0 0 1-.7-.7c0-.4.31-.71.7-.71Zm-2.59 0a.71.71 0 0 1 0 1.42.7.7 0 0 1-.7-.7c0-.4.31-.71.7-.71Zm-2.58 0a.71.71 0 0 1 0 1.42.7.7 0 0 1-.71-.7c0-.4.32-.71.7-.71Zm-2.6-2.42c.4 0 .72.32.72.7a.7.7 0 0 1-.71.71.71.71 0 0 1 0-1.42Zm7.77 0c.39 0 .7.32.7.7a.7.7 0 0 1-.7.71.7.7 0 0 1-.7-.7c0-.4.31-.71.7-.71Zm-2.59 0a.7.7 0 1 1 .01 1.41.7.7 0 0 1-.72-.7c0-.4.32-.71.71-.71Zm-2.58 0c.39 0 .7.32.7.7a.7.7 0 0 1-.7.71.7.7 0 0 1-.71-.7c0-.4.32-.71.7-.71Z"/><path fill="#00000000" fill-rule="evenodd" stroke="currentColor" stroke-linecap="round" stroke-linejoin="round" stroke-width="1.5" d="M16.16 3.44H6.3a2.3 2.3 0 0 0-2.29 2.29v6.54c0 1.3 1.06 2.37 2.37 2.37h9.7c1.3 0 2.37-1.06 2.37-2.37V5.73a2.3 2.3 0 0 0-2.3-2.3m-7 8.35h4.13m-10.3 6.58h16.5"/></svg>