<svg xmlns="http://www.w3.org/2000/svg" width="150" height="130" viewBox="0 0 150 130"><path fill="currentColor" fill-rule="evenodd" stroke="#00000000" d="M10.5 46.67q1.22 0 2.16-.94t.94-2.17q0-1.29-.94-2.22a3 3 0 0 0-4.34 0 3 3 0 0 0-.93 2.22q0 1.23.9 2.17.91.94 2.2.94Zm35.38-9.96q-2.16 9.84-9 15.17-6.82 5.34-17.01 5.34-8.26 0-13.57-3.9Q1 49.42 1 43.68q0-3.98 2.78-6.8a9 9 0 0 1 6.71-2.81q3.87 0 6.68 2.81a9 9 0 0 1 2.81 6.68 8.7 8.7 0 0 1-3.04 6.92q.81.4 2.93.4 16.11 0 19.5-14.17zm38.77 10.96q-4.87-6.85-15.7-6.85-4.99 0-8.12 1.9-3.14 1.9-3.78 4.95zm10.83 6.39h-46.1v-1.23q0-7.67 4.68-13.01 4.7-5.33 14.88-5.33 8.73 0 15.68 5.04t10.86 14.53Zm42.17-5.89q-4.87-6.85-15.7-6.85-4.99 0-8.12 1.9-3.14 1.9-3.78 4.95zm10.83 6.39h-46.1v-1.23q0-7.67 4.68-13.01 4.69-5.33 14.88-5.33a26.2 26.2 0 0 1 19.57 8.38V32h6.97z"/></svg>