<svg xmlns="http://www.w3.org/2000/svg" width="100" height="100" viewBox="0 0 100 100"><path fill="#00000000" fill-rule="evenodd" stroke="currentColor" stroke-linecap="round" stroke-linejoin="round" stroke-width="6" d="M50.27 72.96V86m0-72v13.04m0 16.94v12.04"/><path fill="currentColor" fill-rule="evenodd" stroke="#00000000" d="M66.53 36.83a3.99 3.99 0 0 1 6.53-3.08l16.02 13.17a4 4 0 0 1 0 6.16L73.06 66.25a3.99 3.99 0 0 1-6.53-3.08Zm-32.53 0v26.34a3.99 3.99 0 0 1-6.52 3.08L11.46 53.08a4 4 0 0 1 0-6.16l16.02-13.17A3.99 3.99 0 0 1 34 36.83Z"/></svg>