<svg xmlns="http://www.w3.org/2000/svg" width="150" height="130" viewBox="0 0 150 130"><path fill="currentColor" stroke="#00000000" d="m91.04 30-27 70h-7.22l27-70zM25.69 86.9q2.36 0 3.59 1.29a4.6 4.6 0 0 1 1.22 3.3q0 1.88-1.22 3.17-1.22 1.3-3.59 1.3-2.36 0-3.53-1.3A4.6 4.6 0 0 1 21 91.48q.01-2 1.16-3.29 1.16-1.3 3.53-1.3Zm97.83-.9q2.42 0 3.68 1.33a4.7 4.7 0 0 1 1.26 3.38q0 1.93-1.26 3.26-1.25 1.33-3.68 1.33t-3.62-1.33a4.7 4.7 0 0 1-1.2-3.26q0-2.06 1.2-3.38 1.2-1.34 3.62-1.34Zm.04-35.12q2.43 0 3.68 1.35 1.26 1.36 1.26 3.4a4.5 4.5 0 0 1-1.26 3.24q-1.25 1.32-3.68 1.31-2.42 0-3.62-1.3a4.6 4.6 0 0 1-1.19-3.25q0-2.05 1.2-3.4 1.19-1.35 3.61-1.35Z"/></svg>