<svg xmlns="http://www.w3.org/2000/svg" width="35" height="35" viewBox="0 0 35 35"><path fill="currentColor" stroke="#00000000" d="M24.9 3.15H10.1a4.95 4.95 0 0 0-4.95 4.94v18.82a4.95 4.95 0 0 0 4.96 4.94h14.78a4.95 4.95 0 0 0 4.96-4.94V8.09a4.95 4.95 0 0 0-4.96-4.94Zm-14.8 1.7h14.8c1.8 0 3.25 1.45 3.25 3.24v18.82a3.25 3.25 0 0 1-3.26 3.24H10.11a3.25 3.25 0 0 1-3.26-3.24V8.09a3.25 3.25 0 0 1 3.26-3.24Z"/><path fill="currentColor" stroke="#00000000" d="M20.79 24.68a.85.85 0 0 1 .1 1.69h-6.68a.85.85 0 0 1-.1-1.69zm-7.47-4.03c.72 0 1.32.53 1.32 1.17 0 .65-.6 1.18-1.32 1.18S12 22.47 12 21.82s.6-1.17 1.32-1.17Zm8 0c.72 0 1.32.53 1.32 1.18S22.04 23 21.32 23 20 22.47 20 21.82s.6-1.17 1.32-1.17Zm-12 0c.72 0 1.32.53 1.32 1.17 0 .65-.6 1.18-1.32 1.18S8 22.47 8 21.82s.6-1.17 1.32-1.17Zm16 0c.72 0 1.32.53 1.32 1.18S26.04 23 25.32 23 24 22.47 24 21.82s.6-1.17 1.32-1.17Zm-12-3.65c.72 0 1.32.53 1.32 1.18s-.6 1.17-1.32 1.17S12 18.82 12 18.18c0-.65.6-1.18 1.32-1.18Zm8 0c.72 0 1.32.53 1.32 1.18s-.6 1.17-1.32 1.17S20 18.82 20 18.18c0-.65.6-1.18 1.32-1.18Zm-12 0c.72 0 1.32.53 1.32 1.17 0 .65-.6 1.18-1.32 1.18S8 18.82 8 18.17 8.6 17 9.32 17Zm16 0c.72 0 1.32.53 1.32 1.18s-.6 1.17-1.32 1.17S24 18.82 24 18.18c0-.65.6-1.18 1.32-1.18Z"/></svg>