<svg xmlns="http://www.w3.org/2000/svg" width="22" height="22" viewBox="0 0 22 22"><path fill="currentColor" stroke="#00000000" d="M12.79 12.58c.4 0 .71.32.71.71 0 .4-.32.72-.71.72a.7.7 0 0 1-.71-.72c0-.39.32-.7.71-.7Zm2 0a.71.71 0 0 1 0 1.42.7.7 0 0 1-.72-.7c0-.4.32-.72.71-.72Zm-5.58 0a.71.71 0 0 1 0 1.43.7.7 0 0 1-.71-.72c0-.39.32-.7.71-.7Zm-2 0a.71.71 0 0 1 0 1.43.7.7 0 0 1-.7-.72c0-.39.32-.7.7-.7Zm5.58-2.2c.4 0 .71.32.71.7 0 .4-.32.72-.71.72a.7.7 0 0 1-.71-.71c0-.4.32-.71.71-.71Zm-3.58 0a.71.71 0 0 1 0 1.42.7.7 0 0 1-.71-.71c0-.4.32-.71.71-.71Zm-2 0a.71.71 0 0 1 0 1.42.7.7 0 0 1-.7-.71c0-.4.32-.71.7-.71Zm7.57 0c.4 0 .71.32.71.7 0 .4-.32.72-.7.72a.7.7 0 0 1-.72-.71c0-.4.32-.71.71-.71Z"/><path fill="#00000000" fill-rule="evenodd" stroke="currentColor" stroke-linecap="round" stroke-linejoin="round" stroke-width="1.5" d="M15.13 3.44H6.87a2.3 2.3 0 0 0-2.29 2.29v10.54a2.3 2.3 0 0 0 2.3 2.3h8.25a2.3 2.3 0 0 0 2.29-2.3V5.73a2.3 2.3 0 0 0-2.3-2.3m-8.06 12.1h2.29m3.28 0h2.3"/></svg>