<svg xmlns="http://www.w3.org/2000/svg" width="24" height="24" viewBox="0 0 24 24"><path fill="currentColor" fill-rule="evenodd" stroke="#00000000" d="M15.53 12.51a1 1 0 1 1 0-2 1 1 0 0 1 0 2m.06 2.94A4.5 4.5 0 0 1 12 17.19a4.5 4.5 0 0 1-3.59-1.74.63.63 0 0 1 .98-.77A3.3 3.3 0 0 0 12 15.94c1.03 0 1.98-.46 2.6-1.26a.63.63 0 0 1 .99.77M7.47 11.5a1 1 0 1 1 2 0 1 1 0 0 1-2 0m14.1.35c0-1.18-.92-2.13-2.05-2.13h-.07a7.8 7.8 0 0 0-6.14-5.51c.27.36.49.79.58 1.3.27 1.49-.33 2.23-.71 2.53a2 2 0 0 1-2.09.28c-.88-.37-1.32-1.2-1.17-2.22a.62.62 0 1 1 1.24.19c-.1.66.29.83.42.88.22.1.56.1.81-.1q.44-.36.27-1.34c-.14-.78-.82-1.29-1.4-1.6a7.8 7.8 0 0 0-6.71 5.6h-.07c-1.13 0-2.05.94-2.05 2.12 0 1.16.9 2.1 2.02 2.12.78 4.03 3.87 5.88 7.55 5.88s6.76-1.85 7.55-5.88a2.1 2.1 0 0 0 2.02-2.12"/></svg>