<svg xmlns="http://www.w3.org/2000/svg" width="24" height="24" viewBox="0 0 24 24"><path fill="currentColor" fill-rule="evenodd" stroke="#00000000" d="M16.02 3.5h.1c.36.06.64.37.64.75v.1A.75.75 0 0 1 16 5h-.75v4.89l4.2 7.34.06.17c.24.61.18 1.3-.18 1.86l-.1.14c-.39.54-1 .85-1.68.85H6.44a2.1 2.1 0 0 1-1.62-.99l-.09-.15a2.1 2.1 0 0 1-.02-1.88l.03-.05 4.16-7.3V5h-.85a.75.75 0 0 1-.65-.75v-.1a.75.75 0 0 1 .75-.65zm.06 10.84v.04h-8v-.03L6.05 17.9a.6.6 0 0 0 .05.56c.1.18.3.28.5.28h10.96q.33 0 .5-.28a.6.6 0 0 0 .04-.59zM13.77 5H10.4v5.29l-1.48 2.59h6.32l-1.47-2.6z"/></svg>