<svg xmlns="http://www.w3.org/2000/svg" width="24" height="24" viewBox="0 0 24 24"><path fill="currentColor" stroke="#00000000" d="M18.99 14.33a3.7 3.7 0 0 1 3.66 3.76c0 2-1.54 3.65-3.47 3.75h-3.46a.4.4 0 0 1-.37-.3l-.01-.07v-1.84c0-.19.13-.34.3-.37l.08-.01h3.18c.61 0 1.12-.52 1.12-1.16 0-.6-.44-1.1-1-1.16h-3.3a.4.4 0 0 1-.37-.3l-.01-.08V14.7c0-.19.13-.34.3-.38H19Zm-.99.76v1.07h.9a1.9 1.9 0 0 1 1.88 1.93c0 1-.76 1.84-1.73 1.91H18v1.09h1a2.95 2.95 0 0 0 2.88-2.66l.02-.17v-.17c0-1.6-1.22-2.9-2.73-3zM17.24 20H16.1v1.08h1.14zm-9.52-2.25a.7.7 0 0 1 .96-.25l.56.29-.06-.03.35.08.4.1.38.08a.7.7 0 1 1-.3 1.37l-1.23-.29-.13-.04q-.34-.15-.67-.35a.7.7 0 0 1-.26-.96Zm-2.98-4.04a.7.7 0 0 1 .92.37l.16.35q.3.66.76 1.23a.7.7 0 0 1-1.11.85q-.66-.86-1.1-1.87l-.03-.1a.7.7 0 0 1 .4-.83Zm12.5 1.37H16.1v1.07h1.14zm-4.69-6.73c.3 0 .55.21.6.5v2h1.9a.6.6 0 0 1 .1 1.19h-2v1.9a.6.6 0 0 1-1.2.1v-2h-1.9a.6.6 0 0 1-.1-1.19h2v-1.9c0-.33.27-.6.6-.6Zm-8.62.93a.7.7 0 0 1 1.36.33q-.2.9-.2 1.81a.7.7 0 1 1-1.4.03q0-1.1.24-2.17ZM18.37 6.3a.7.7 0 0 1 .97.19 9 9 0 0 1 .98 1.94.7.7 0 1 1-1.32.47 7 7 0 0 0-.82-1.63.7.7 0 0 1 .19-.97ZM6.8 4.7a.7.7 0 0 1 .9 1.08q-.72.58-1.25 1.33a.7.7 0 1 1-1.14-.82q.65-.89 1.5-1.6Zm7.33-1.06a.7.7 0 0 1 .9-.44 9 9 0 0 1 1.95.96.7.7 0 1 1-.77 1.17 7 7 0 0 0-1.64-.8.7.7 0 0 1-.44-.9Zm-2.41-.89a.7.7 0 0 1 .09 1.4q-.9.06-1.8.35a.7.7 0 1 1-.43-1.33q1.05-.35 2.14-.42Z"/></svg>