<svg xmlns="http://www.w3.org/2000/svg" width="24" height="24" viewBox="0 0 24 24"><path fill="currentColor" stroke="#00000000" d="M13.79 3.18a.63.63 0 0 1-.25 1.22A8 8 0 0 0 12 4.25.62.62 0 1 1 12 3q.9 0 1.79.18Zm4.53 2.42a.63.63 0 0 1-.87.89 8 8 0 0 0-1.2-.98.63.63 0 0 1 .68-1.04q.75.49 1.4 1.13Zm2.48 4.5a.63.63 0 0 1-1.22.26q-.17-.76-.48-1.47a.63.63 0 0 1 1.15-.5q.36.83.55 1.71Zm-.35 5a.63.63 0 0 1-1.17-.42q.26-.73.38-1.5a.62.62 0 1 1 1.24.19q-.14.9-.45 1.74Zm-3.05 4.1a.62.62 0 1 1-.75-1q.62-.46 1.14-1.05a.63.63 0 0 1 .93.83q-.6.68-1.32 1.22ZM12.47 21a.62.62 0 1 1-.06-1.25q.78-.04 1.53-.23a.62.62 0 1 1 .31 1.2q-.87.24-1.78.28Zm-4.83-1.12a.63.63 0 0 1 .6-1.09q.69.38 1.43.61a.62.62 0 1 1-.38 1.2 9 9 0 0 1-1.65-.72Zm-3.6-3.65a.62.62 0 0 1 1.11-.59q.37.7.86 1.3a.62.62 0 1 1-.96.79 9 9 0 0 1-1-1.5Zm-1-5a.62.62 0 1 1 1.24.12 8 8 0 0 0 .02 1.56.62.62 0 1 1-1.24.14 9 9 0 0 1-.03-1.81ZM4.9 6.48a.63.63 0 0 1 .98.77q-.49.62-.82 1.31A.63.63 0 0 1 3.94 8a9 9 0 0 1 .96-1.53ZM9.07 3.5a.62.62 0 1 1 .41 1.18q-.74.25-1.4.65a.63.63 0 0 1-.64-1.08q.78-.46 1.63-.75Z"/></svg>