<svg xmlns="http://www.w3.org/2000/svg" width="24" height="24" viewBox="0 0 24 24"><path fill="currentColor" stroke="#00000000" d="M13.32 2.18c2.62 0 5.1 1.02 6.94 2.87a.8.8 0 0 1-1.14 1.15 8.2 8.2 0 0 0-5.8-2.4 8.15 8.15 0 0 0-8.2 8.2 8.16 8.16 0 0 0 8.2 8.2c2.2 0 4.25-.85 5.8-2.4a.8.8 0 1 1 1.14 1.15 9.8 9.8 0 0 1-6.94 2.87 9.8 9.8 0 0 1-6.95-2.87A9.8 9.8 0 0 1 3.5 12a9.76 9.76 0 0 1 9.82-9.82Zm.6 5.88a.8.8 0 0 1 1.15-.02l3.1 2.97a1.4 1.4 0 0 1 0 1.98l-3.1 2.97a.8.8 0 0 1-1.14-.02.8.8 0 0 1 .02-1.14l2.08-2H8.91a.8.8 0 0 1 0-1.61h7.11L13.95 9.2a.8.8 0 0 1-.02-1.14Z"/></svg>