<svg xmlns="http://www.w3.org/2000/svg" width="24" height="24" viewBox="0 0 24 24"><path fill="currentColor" stroke="#00000000" d="M7.64 4.47a6.14 6.14 0 0 0-.2 8.47l.37.38q.5.55.72 1.05l.03.07v2.66c0 .84.68 1.52 1.52 1.52h3.88a1.5 1.5 0 0 0 1.38-1.52v-2.54l-.03.08q.19-.6.8-1.3l.2-.2a6.14 6.14 0 0 0 .18-8.46l-.19-.2a6.13 6.13 0 0 0-8.66 0Zm7.65.65.18.18a4.97 4.97 0 0 1 .18 6.83l-.18.19a5 5 0 0 0-1.27 1.95l-.03.18v2.65c0 .2-.16.35-.35.35h-3.74a.35.35 0 0 1-.35-.35v-2.77l-.04-.21a5 5 0 0 0-1-1.58l-.22-.22a4.97 4.97 0 0 1 6.82-7.2Zm-.97 15.01a.69.69 0 0 1 .1 1.36l-.1.01h-4.6a.69.69 0 0 1-.1-1.37z"/><path fill="currentColor" fill-rule="evenodd" stroke="#00000000" d="M5.85 2.33h5.86v15.9H5.85z" clip-path="url(#a)"/><clipPath id="a"><path d="M15.89 4.89a5.55 5.55 0 0 1 0 7.84c-.7.7-1 1.33-1.14 1.72v2.65c0 .52-.42.94-.93.94h-3.74a.93.93 0 0 1-.94-.94v-2.77c-.15-.4-.46-.97-1.09-1.6a5.55 5.55 0 0 1 7.84-7.84"/></clipPath></svg>