<svg xmlns="http://www.w3.org/2000/svg" width="24" height="24" viewBox="0 0 24 24"><path fill="currentColor" fill-rule="evenodd" stroke="#00000000" d="M19.53 10.31c0-.9-.81-1.53-1.62-1.54h-4.07l.24-1.71c.38-2.73-.77-4.25-2.07-4.18-.16 0-.45.05-.58.23-.21.32-.22 2.81-.22 2.81s-.64 2.39-3.17 3.84c-.6.34-1.88.59-2.29.77a2.1 2.1 0 0 0-1.28 1.96v3.82a4.8 4.8 0 0 0 4.8 4.82h4.74c2.64 0 3.72-.37 4.29-1.07.67-.83.02-2.01-.78-2.02h.26c.8 0 1.3-.55 1.3-1.45.01-.9-.47-1.45-1.27-1.46h-.05c.8 0 1.59-.69 1.6-1.59 0-.9-.5-1.58-1.3-1.59.94 0 1.47-.74 1.47-1.64"/></svg>