<svg xmlns="http://www.w3.org/2000/svg" width="24" height="24" viewBox="0 0 24 24"><path fill="currentColor" fill-rule="evenodd" stroke="#00000000" d="M19.55 16.62a.75.75 0 0 1 0 1.5H9.8a.75.75 0 1 1 0-1.5Zm-13.75 0a.75.75 0 0 1 0 1.5h-2a.75.75 0 1 1 0-1.5Zm13.75-6.45a.75.75 0 0 1 0 1.5H9.8a.75.75 0 1 1 0-1.5Zm-13.75 0a.75.75 0 0 1 0 1.5h-2a.75.75 0 1 1 0-1.5Zm13.75-6.44a.75.75 0 0 1 0 1.5H9.8a.75.75 0 0 1 0-1.5Zm-13.75 0a.75.75 0 0 1 0 1.5h-2a.75.75 0 0 1 0-1.5Z"/><path fill="currentColor" stroke="#00000000" d="M21.56 12.32a1.6 1.6 0 0 0-.98-.42h-5.62c-.95 0-1.71.75-1.71 1.68v8.74c0 .93.76 1.68 1.7 1.68h7.34c.94 0 1.7-.75 1.7-1.68v-7.06c0-.25-.13-.57-.3-.75z"/><path fill="currentColor" stroke="#00000000" d="M21.2 12.95c-.2-.2-.59-.37-.87-.37h-4.91c-.83 0-1.5.67-1.5 1.5v7.75c0 .82.67 1.49 1.5 1.49h6.4a1.5 1.5 0 0 0 1.5-1.5v-6.25c0-.22-.12-.51-.27-.67z"/><path fill="currentColor" fill-rule="evenodd" stroke="#00000000" d="M18.58 21.39q-.93 0-1.57-.5a1.6 1.6 0 0 1-.6-1.38v-.01l.01-.06h1.14v.04q0 .41.28.68.29.26.75.26.5 0 .78-.27.28-.26.28-.75 0-.53-.25-.79-.26-.24-.81-.25h-.81v-.95h.81q.51 0 .74-.25.22-.26.22-.72t-.24-.71-.72-.25q-.43 0-.7.25a.8.8 0 0 0-.27.64v.04H16.5l-.03-.07q-.02-.77.58-1.3t1.54-.53q.98 0 1.57.5t.6 1.43q0 .43-.27.84a2 2 0 0 1-.66.58 1.6 1.6 0 0 1 1.02 1.54q0 .93-.64 1.46-.63.53-1.62.53Z"/></svg>