<svg xmlns="http://www.w3.org/2000/svg" width="24" height="24" viewBox="0 0 24 24"><path fill="currentColor" fill-rule="evenodd" stroke="#00000000" d="M14.43 14.59a2.6 2.6 0 0 0-2.62 2.58 2.6 2.6 0 0 0 2.62 2.6 2.6 2.6 0 0 0 2.62-2.6 2.6 2.6 0 0 0-2.62-2.58Zm0 1.5c.62 0 1.12.49 1.12 1.08s-.5 1.1-1.12 1.1a1.1 1.1 0 0 1-1.12-1.1c0-.6.5-1.08 1.12-1.08ZM9.22 10.7a.75.75 0 0 1 .1 1.49H4.25a.75.75 0 0 1-.1-1.49zm0 6.69a.75.75 0 0 1 .1 1.5H4.25a.75.75 0 0 1-.1-1.5zM20 4a.75.75 0 0 1 .1 1.5H4.25a.75.75 0 0 1-.1-1.5z"/><path fill="currentColor" fill-rule="evenodd" stroke="#00000000" d="M17.04 17.3a.75.75 0 0 1-1.49.1v-6.83c0-.54.4-.99.94-1.05h.57c2.33 0 3.9 1.94 4 4.02v1.04a.75.75 0 0 1-1.49.1v-.94c0-1.35-.95-2.62-2.34-2.72h-.19z"/></svg>