<svg xmlns="http://www.w3.org/2000/svg" width="24" height="24" viewBox="0 0 24 24"><path fill="currentColor" fill-rule="evenodd" stroke="#00000000" d="M17.25 3c1.8 0 3.25 1.46 3.25 3.25v11c0 1.8-1.46 3.25-3.25 3.25h-11A3.25 3.25 0 0 1 3 17.25v-11C3 4.45 4.46 3 6.25 3ZM19 15.17h-3.83V19h2.08c.97 0 1.75-.79 1.75-1.75zm-5.33 0H9.83V19h3.84zm-5.34 0H4.5v2.08c0 .96.79 1.75 1.75 1.75h2.08zM19 9.83h-3.83v3.84H19zm-5.33 0H9.83v3.84h3.84zm-5.34 0H4.5v3.84h3.83zm8.92-5.33h-2.08v3.83H19V6.25c0-.96-.78-1.75-1.75-1.75Zm-3.58 0H9.83v3.83h3.84zm-5.34 0H6.25c-.96 0-1.75.79-1.75 1.75v2.08h3.83z"/></svg>