<svg xmlns="http://www.w3.org/2000/svg" width="24" height="24" viewBox="0 0 24 24"><path fill="currentColor" fill-rule="evenodd" stroke="#00000000" d="M19.55 16.62a.75.75 0 0 1 0 1.5H9.8a.75.75 0 1 1 0-1.5Zm-13.75 0a.75.75 0 0 1 0 1.5h-2a.75.75 0 1 1 0-1.5Zm13.75-6.45a.75.75 0 0 1 0 1.5H9.8a.75.75 0 1 1 0-1.5Zm-13.75 0a.75.75 0 0 1 0 1.5h-2a.75.75 0 1 1 0-1.5Zm13.75-6.44a.75.75 0 0 1 0 1.5H9.8a.75.75 0 0 1 0-1.5Zm-13.75 0a.75.75 0 0 1 0 1.5h-2a.75.75 0 0 1 0-1.5Z"/><path fill="currentColor" stroke="#00000000" d="M21.56 12.32a1.6 1.6 0 0 0-.98-.42h-5.62c-.95 0-1.71.75-1.71 1.68v8.74c0 .93.76 1.68 1.7 1.68h7.34c.94 0 1.7-.75 1.7-1.68v-7.06c0-.25-.13-.57-.3-.75z"/><path fill="currentColor" stroke="#00000000" d="M20.33 12.58c.28 0 .67.17.86.37l1.86 1.95c.15.16.27.45.27.67v6.26a1.5 1.5 0 0 1-1.5 1.49h-6.4a1.5 1.5 0 0 1-1.5-1.5v-7.75c0-.82.67-1.49 1.5-1.49Zm-1.7 2.09a3.54 3.54 0 1 0 0 7.09 3.54 3.54 0 0 0 0-7.1Zm.74 3.94c-.07 1.45-.54 2.24-.75 2.24s-.67-.79-.75-2.24Zm-2.31 0c.04.78.19 1.53.44 2.09a2.7 2.7 0 0 1-1.57-2.09Zm4.26 0a2.7 2.7 0 0 1-1.58 2.09c.26-.56.4-1.31.44-2.09Zm-3.82-2.9a6 6 0 0 0-.44 2.1h-1.13c.14-.94.74-1.72 1.57-2.1Zm1.12-.14c.2 0 .68.78.75 2.24h-1.5c.08-1.46.55-2.24.75-2.24Zm1.12.15a2.7 2.7 0 0 1 1.58 2.09h-1.14a6 6 0 0 0-.44-2.1Z"/></svg>