<svg xmlns="http://www.w3.org/2000/svg" width="24" height="24" viewBox="0 0 24 24"><path fill="currentColor" fill-rule="evenodd" stroke="#00000000" d="M20.11 10.84c.4 0 .55.23.6.33s.12.36-.14.67l-2.3 2.63v4.46a.75.75 0 0 1-1.5 0v-4.47l-2.31-2.62c-.26-.3-.18-.57-.14-.67.05-.1.2-.33.6-.33Zm-8.62 6.87a.75.75 0 0 1 0 1.5H10a.75.75 0 1 1 0-1.5Zm-5.5 0a.75.75 0 0 1 0 1.5H4a.75.75 0 1 1 0-1.5Zm5.5-6.7a.75.75 0 0 1 0 1.5H10a.75.75 0 1 1 0-1.5Zm-5.5 0a.75.75 0 0 1 0 1.5H4a.75.75 0 1 1 0-1.5Zm13.75-6.69a.75.75 0 0 1 0 1.5H10a.75.75 0 1 1 0-1.5ZM6 4.32a.75.75 0 0 1 0 1.5H4a.75.75 0 1 1 0-1.5Z"/></svg>