<svg xmlns="http://www.w3.org/2000/svg" width="24" height="24" viewBox="0 0 24 24"><path fill="currentColor" fill-rule="evenodd" stroke="#00000000" d="M19.55 16.62a.75.75 0 0 1 0 1.5H9.8a.75.75 0 1 1 0-1.5Zm-13.75 0a.75.75 0 0 1 0 1.5h-2a.75.75 0 1 1 0-1.5Zm13.75-6.45a.75.75 0 0 1 0 1.5H9.8a.75.75 0 1 1 0-1.5Zm-13.75 0a.75.75 0 0 1 0 1.5h-2a.75.75 0 1 1 0-1.5Zm13.75-6.44a.75.75 0 0 1 0 1.5H9.8a.75.75 0 0 1 0-1.5Zm-13.75 0a.75.75 0 0 1 0 1.5h-2a.75.75 0 0 1 0-1.5Z"/><path fill="currentColor" stroke="#00000000" d="M21.56 12.32a1.6 1.6 0 0 0-.98-.42h-5.62c-.95 0-1.71.75-1.71 1.68v8.74c0 .93.76 1.68 1.7 1.68h7.34c.94 0 1.7-.75 1.7-1.68v-7.06c0-.25-.13-.57-.3-.75z"/><path fill="currentColor" stroke="#00000000" d="M20.33 12.58c.28 0 .67.17.86.37l1.86 1.95c.15.16.27.45.27.67v6.26a1.5 1.5 0 0 1-1.5 1.49h-6.4a1.5 1.5 0 0 1-1.5-1.5v-7.75c0-.82.67-1.49 1.5-1.49Zm-1.2 1.55h-1.01a.9.9 0 0 0-.91.91v.22H17c-.56 0-1.02.45-1.02 1.01v3.94c0 .56.46 1.01 1.01 1.01h.02v.4a.35.35 0 1 0 .7 0v-.4h1.8v.4a.35.35 0 1 0 .7 0v-.4h.02a1 1 0 0 0 1-1v-3.95a1 1 0 0 0-1-1.01h-.2v-.22a.9.9 0 0 0-.91-.9Zm.6 2.43c.23 0 .43.2.43.43v2.58a.43.43 0 0 1-.87 0v-2.58c0-.24.2-.43.43-.43Zm-2.12 0c.24 0 .43.2.43.43v2.58a.43.43 0 0 1-.87 0v-2.58c0-.24.2-.43.44-.43Zm1.52-1.82c.16 0 .3.13.3.3v.22h-1.62v-.22c0-.17.14-.3.3-.3Z"/></svg>