<svg xmlns="http://www.w3.org/2000/svg" width="24" height="24" viewBox="0 0 24 24"><path fill="currentColor" fill-rule="evenodd" stroke="#00000000" d="M19.55 16.62a.75.75 0 0 1 0 1.5H9.8a.75.75 0 1 1 0-1.5Zm-13.75 0a.75.75 0 0 1 0 1.5h-2a.75.75 0 1 1 0-1.5Zm13.75-6.45a.75.75 0 0 1 0 1.5H9.8a.75.75 0 1 1 0-1.5Zm-13.75 0a.75.75 0 0 1 0 1.5h-2a.75.75 0 1 1 0-1.5Zm13.75-6.44a.75.75 0 0 1 0 1.5H9.8a.75.75 0 0 1 0-1.5Zm-13.75 0a.75.75 0 0 1 0 1.5h-2a.75.75 0 0 1 0-1.5Z"/><path fill="currentColor" stroke="#00000000" d="M21.56 12.32a1.6 1.6 0 0 0-.98-.42h-5.62c-.95 0-1.71.75-1.71 1.68v8.74c0 .93.76 1.68 1.7 1.68h7.34c.94 0 1.7-.75 1.7-1.68v-7.06c0-.25-.13-.57-.3-.75z"/><path fill="currentColor" stroke="#00000000" d="M21.4 20.25c-.55.55-1.06.67-1.6.64a2 2 0 0 1-1.18-.41l-.05-.04C16.87 19.24 16 17.8 16 17.8c-.25-.4-.34-.74-.36-1.07-.02-.54.1-1.06.64-1.6q.26-.23.44-.2c.14 0 .28.05.47.24l.47.48c.2.19.25.33.25.46s-.03.27-.2.44l-.2.2q-.22.24-.2.44c0 .1.06.21.07.23.1.19.6 1.08 1.67 1.7.04.02.18.1.29.1.13 0 .27-.04.44-.21l.2-.2q.24-.22.43-.2.2-.02.47.25l.47.48c.2.19.25.33.25.46s-.03.27-.2.44m1.65-5.35-1.86-1.95a1.4 1.4 0 0 0-.86-.37h-4.91c-.83 0-1.5.67-1.5 1.5v7.75c0 .82.67 1.49 1.5 1.49h6.4c.83 0 1.5-.67 1.5-1.5v-6.25c0-.22-.12-.51-.27-.67"/></svg>