<svg xmlns="http://www.w3.org/2000/svg" width="24" height="24" viewBox="0 0 24 24"><path fill="currentColor" fill-rule="evenodd" stroke="#00000000" d="M19.55 16.62a.75.75 0 0 1 0 1.5H9.8a.75.75 0 1 1 0-1.5Zm-13.75 0a.75.75 0 0 1 0 1.5h-2a.75.75 0 1 1 0-1.5Zm13.75-6.44a.75.75 0 0 1 0 1.5H9.8a.75.75 0 1 1 0-1.5Zm-13.75 0a.75.75 0 0 1 0 1.5h-2a.75.75 0 1 1 0-1.5Zm13.75-6.45a.75.75 0 0 1 0 1.5H9.8a.75.75 0 0 1 0-1.5Zm-13.75 0a.75.75 0 0 1 0 1.5h-2a.75.75 0 0 1 0-1.5Z"/><path fill="currentColor" stroke="#00000000" d="M21.56 12.32a1.6 1.6 0 0 0-.98-.42h-5.62c-.95 0-1.71.75-1.71 1.68v8.74c0 .93.76 1.68 1.7 1.68h7.34c.94 0 1.7-.75 1.7-1.68v-7.06c0-.25-.13-.57-.3-.75z"/><path fill="currentColor" stroke="#00000000" d="M21.2 12.95c-.2-.2-.59-.37-.87-.37h-4.91c-.83 0-1.5.67-1.5 1.5v7.75c0 .82.67 1.49 1.5 1.49h6.4a1.5 1.5 0 0 0 1.5-1.5v-6.25c0-.22-.12-.51-.27-.67z"/><path fill="currentColor" stroke="#00000000" d="M21 21.39h-4.63v-.89l2.23-2.42q.46-.53.66-.87t.19-.67q0-.44-.24-.7a.8.8 0 0 0-.65-.26q-.49 0-.75.3-.27.3-.28.83v.1h-1.28v-.1q0-.63.28-1.13a2 2 0 0 1 .82-.79 2.6 2.6 0 0 1 1.22-.28q1 0 1.58.5.6.53.59 1.41 0 .52-.3 1.08a6 6 0 0 1-.92 1.25l-1.46 1.57H21z"/></svg>