<svg xmlns="http://www.w3.org/2000/svg" width="36" height="36" viewBox="0 0 36 36"><path fill="currentColor" stroke="#00000000" d="M24.73 15.47c.58 0 1.06.44 1.12 1v5h4.88a1.12 1.12 0 0 1 .12 2.24h-4.99v4.88a1.13 1.13 0 0 1-2.25.13v-5h-4.88a1.12 1.12 0 0 1-.12-2.24l.12-.01h4.88v-4.88c0-.62.5-1.12 1.12-1.12ZM13.46 26.83a1.12 1.12 0 0 1 .12 2.24l-.12.01H6.38a1.13 1.13 0 0 1-.13-2.24h7.21Zm0-10.04a1.12 1.12 0 0 1 .12 2.24l-.12.01H6.38a1.13 1.13 0 0 1-.13-2.24h7.21ZM30 6.75a1.13 1.13 0 0 1 .12 2.24L30 9H6.38a1.13 1.13 0 0 1-.13-2.24l.13-.01z"/></svg>