<svg xmlns="http://www.w3.org/2000/svg" width="24" height="24" viewBox="0 0 24 24"><path fill="currentColor" fill-rule="evenodd" stroke="#00000000" d="M19.55 16.62a.75.75 0 0 1 0 1.5H9.8a.75.75 0 1 1 0-1.5Zm-13.75 0a.75.75 0 0 1 0 1.5h-2a.75.75 0 1 1 0-1.5Zm13.75-6.45a.75.75 0 0 1 0 1.5H9.8a.75.75 0 1 1 0-1.5Zm-13.75 0a.75.75 0 0 1 0 1.5h-2a.75.75 0 1 1 0-1.5Zm13.75-6.44a.75.75 0 0 1 0 1.5H9.8a.75.75 0 0 1 0-1.5Zm-13.75 0a.75.75 0 0 1 0 1.5h-2a.75.75 0 0 1 0-1.5Z"/><path fill="currentColor" stroke="#00000000" d="M21.56 12.32a1.6 1.6 0 0 0-.98-.42h-5.62c-.95 0-1.71.75-1.71 1.68v8.74c0 .93.76 1.68 1.7 1.68h7.34c.94 0 1.7-.75 1.7-1.68v-7.06c0-.25-.13-.57-.3-.75z"/><path fill="currentColor" stroke="#00000000" d="m21.47 18.31-.14.21c-.38.53-1.4 1.44-2.07 2.02a1 1 0 0 1-1.28 0 16 16 0 0 1-2.07-2.02l-.14-.2q-.25-.42-.25-.95c0-1 .76-1.8 1.7-1.8.58 0 1.1.3 1.4.76a1.7 1.7 0 0 1 1.4-.77c.94 0 1.7.81 1.7 1.8q0 .54-.25.95m1.58-3.41-1.86-1.95a1.4 1.4 0 0 0-.86-.37h-4.91c-.83 0-1.5.67-1.5 1.5v7.75c0 .82.67 1.49 1.5 1.49h6.4a1.5 1.5 0 0 0 1.5-1.5v-6.25c0-.23-.12-.51-.27-.67"/></svg>