<svg xmlns="http://www.w3.org/2000/svg" width="24" height="24" viewBox="0 0 24 24"><path fill="currentColor" fill-rule="evenodd" stroke="#00000000" d="M19.55 16.62a.75.75 0 0 1 0 1.5H9.8a.75.75 0 1 1 0-1.5Zm-13.75 0a.75.75 0 0 1 0 1.5h-2a.75.75 0 1 1 0-1.5Zm13.75-6.45a.75.75 0 0 1 0 1.5H9.8a.75.75 0 1 1 0-1.5Zm-13.75 0a.75.75 0 0 1 0 1.5h-2a.75.75 0 1 1 0-1.5Zm13.75-6.44a.75.75 0 0 1 0 1.5H9.8a.75.75 0 0 1 0-1.5Zm-13.75 0a.75.75 0 0 1 0 1.5h-2a.75.75 0 0 1 0-1.5Z"/><path fill="currentColor" stroke="#00000000" d="M21.56 12.32a1.6 1.6 0 0 0-.98-.42h-5.62c-.95 0-1.71.75-1.71 1.68v8.74c0 .93.76 1.68 1.7 1.68h7.34c.94 0 1.7-.75 1.7-1.68v-7.06c0-.25-.13-.57-.3-.75z"/><path fill="currentColor" stroke="#00000000" d="M22.2 18.8c0 .1-.12.17-.26.15l-2.25-.49q-.23-.03-.26.15l-.15 1.2s-.04.14.15.32l.6.59c.09.08.2.2.2.31v.03c0 .1-.15.2-.26.15L19 20.8a.7.7 0 0 0-.51 0l-1.1.43c-.16.05-.26-.05-.26-.16v-.02q.01-.15.2-.32l.6-.6c.18-.16.15-.31.15-.3l-.16-1.21c0-.1-.12-.18-.26-.15l-2.35.49c-.14.02-.26-.04-.26-.15v-.53c0-.1.1-.24.23-.3l2.42-1.19c.12-.08.23-.2.23-.3v-.94l.03-.39q-.02 0 .1-.27c.13-.3.36-.51.62-.51.27 0 .5.23.63.52l.1.26c.02.1.03.29.03.4v.93c0 .11.11.22.22.3l2.33 1.2c.12.05.22.19.22.3zm.85-3.9-1.86-1.95a1.4 1.4 0 0 0-.86-.37h-4.91c-.83 0-1.5.67-1.5 1.5v7.75c0 .82.67 1.49 1.5 1.49h6.4c.83 0 1.5-.67 1.5-1.5v-6.25c0-.22-.12-.51-.27-.67Z"/></svg>