<svg xmlns="http://www.w3.org/2000/svg" width="24" height="24" viewBox="0 0 24 24"><path fill="currentColor" fill-rule="evenodd" stroke="#00000000" d="M19.55 16.62a.75.75 0 0 1 0 1.5H9.8a.75.75 0 1 1 0-1.5Zm-13.75 0a.75.75 0 0 1 0 1.5h-2a.75.75 0 1 1 0-1.5Zm13.75-6.45a.75.75 0 0 1 0 1.5H9.8a.75.75 0 1 1 0-1.5Zm-13.75 0a.75.75 0 0 1 0 1.5h-2a.75.75 0 1 1 0-1.5Zm13.75-6.44a.75.75 0 0 1 0 1.5H9.8a.75.75 0 0 1 0-1.5Zm-13.75 0a.75.75 0 0 1 0 1.5h-2a.75.75 0 0 1 0-1.5Z"/><path fill="currentColor" stroke="#00000000" d="M21.56 12.32a1.6 1.6 0 0 0-.98-.42h-5.62c-.95 0-1.71.75-1.71 1.68v8.74c0 .93.76 1.68 1.7 1.68h7.34c.94 0 1.7-.75 1.7-1.68v-7.06c0-.25-.13-.57-.3-.75z"/><path fill="currentColor" stroke="#00000000" d="M20.33 12.58c.28 0 .67.17.86.37l1.86 1.95c.15.16.27.45.27.67v6.26a1.5 1.5 0 0 1-1.5 1.49h-6.4a1.5 1.5 0 0 1-1.5-1.5v-7.75c0-.82.67-1.49 1.5-1.49Zm-1.48 2.15H16.6c-.55 0-1 .43-1 .96v4.43c0 .53.45.96 1 .96h.65v-1.76c0-.22.17-.4.4-.4h.69c.22 0 .4.18.4.4v1.76h1.9c.56 0 1-.43 1-.96v-2.25a1 1 0 0 0-1-.96h-.78v-1.22a1 1 0 0 0-1-.96Zm-.32 2.34a.4.4 0 1 1 0 .79h-.13a.4.4 0 1 1 0-.8Zm-1.39 0a.4.4 0 1 1 0 .79h-.13a.4.4 0 1 1 0-.8Zm0-1.3a.4.4 0 1 1 0 .8h-.13a.4.4 0 1 1 0-.8Zm1.4 0a.4.4 0 1 1 0 .8h-.14a.4.4 0 1 1 0-.8Z"/></svg>