<svg xmlns="http://www.w3.org/2000/svg" width="24" height="24" viewBox="0 0 24 24"><path fill="currentColor" stroke="#00000000" d="M15.49 9.23a4.65 4.65 0 1 0 0 9.3 4.65 4.65 0 0 0 0-9.3Zm0 1.5a3.15 3.15 0 1 1 0 6.3 3.15 3.15 0 0 1 0-6.3Z"/><path fill="currentColor" stroke="#00000000" d="M17.78 16.17a.75.75 0 0 1 .98-.07l.08.07 3.13 3.13a.75.75 0 0 1-.98 1.13l-.08-.07-3.13-3.13a.75.75 0 0 1 0-1.06Zm1.03-12.25a.75.75 0 0 1 .1 1.5H2.56a.75.75 0 0 1-.1-1.49zM7.92 10.91a.75.75 0 0 1 .1 1.5H2.56a.75.75 0 0 1-.1-1.49zm0 7.01a.75.75 0 0 1 .1 1.5H2.56a.75.75 0 0 1-.1-1.49h5.46Z"/></svg>