<svg xmlns="http://www.w3.org/2000/svg" width="24" height="24" viewBox="0 0 24 24"><path fill="currentColor" fill-rule="evenodd" stroke="#00000000" d="M19.55 16.62a.75.75 0 0 1 0 1.5H9.8a.75.75 0 1 1 0-1.5Zm-13.75 0a.75.75 0 0 1 0 1.5h-2a.75.75 0 1 1 0-1.5Zm13.75-6.45a.75.75 0 0 1 0 1.5H9.8a.75.75 0 1 1 0-1.5Zm-13.75 0a.75.75 0 0 1 0 1.5h-2a.75.75 0 1 1 0-1.5Zm13.75-6.44a.75.75 0 0 1 0 1.5H9.8a.75.75 0 0 1 0-1.5Zm-13.75 0a.75.75 0 0 1 0 1.5h-2a.75.75 0 0 1 0-1.5Z"/><path fill="currentColor" stroke="#00000000" d="M21.56 12.32a1.6 1.6 0 0 0-.98-.42h-5.62c-.95 0-1.71.75-1.71 1.68v8.74c0 .93.76 1.68 1.7 1.68h7.34c.94 0 1.7-.75 1.7-1.68v-7.06c0-.25-.13-.57-.3-.75z"/><path fill="currentColor" stroke="#00000000" d="M21.2 12.95c-.2-.2-.59-.37-.87-.37h-4.91c-.83 0-1.5.67-1.5 1.5v7.75c0 .82.67 1.49 1.5 1.49h6.4a1.5 1.5 0 0 0 1.5-1.5v-6.25c0-.22-.12-.51-.27-.67z"/><path fill="currentColor" fill-rule="evenodd" stroke="#00000000" d="M20.83 21.39h-1V18.9a.63.63 0 0 0-.63-.63h-1.26a.63.63 0 0 0-.63.63v2.49h-.9c-.57 0-1.05-.47-1.05-1.05v-2.82a1 1 0 0 1 .33-.68l2.6-2.22a.54.54 0 0 1 .66 0l2.6 2.22a1 1 0 0 1 .33.68v2.82c0 .58-.47 1.05-1.05 1.05"/></svg>