<svg xmlns="http://www.w3.org/2000/svg" width="24" height="24" viewBox="0 0 24 24"><path fill="currentColor" d="M17.33 2H6.67C5.75 2 5 2.75 5 3.67v16.66c0 .92.75 1.67 1.67 1.67h10.66c.92 0 1.67-.75 1.67-1.67V3.67C19 2.75 18.25 2 17.33 2M12 5.47a1.76 1.76 0 0 1 .88 3.28v3.4h-1.76v-3.4A1.76 1.76 0 0 1 12 5.47m5 13.79c0 .2-.17.37-.37.37H7.37a.37.37 0 0 1-.37-.37v-1.75c0-.35.23-.57.23-.58l2.18-2.04a.37.37 0 0 1 .52 0l1.06 1.03c.14.14.37.14.51 0l2.67-2.61a.36.36 0 0 1 .5 0l2.13 2.17s.2.2.2.46zM2.53 5.01C1.67 5.1 1 5.8 1 6.68v10.66c0 .88.67 1.59 1.53 1.66v.04h1.16V5zm18.94 0h-1.16v14.03h1.16V19A1.66 1.66 0 0 0 23 17.33V6.67c0-.87-.68-1.58-1.53-1.66"/></svg>