<svg xmlns="http://www.w3.org/2000/svg" width="24" height="24" viewBox="0 0 24 24"><path fill="#00000000" fill-rule="evenodd" stroke="currentColor" stroke-linecap="round" stroke-linejoin="round" stroke-width="1.5" d="M16.75 20.5h-9.5a2.5 2.5 0 0 1-2.5-2.5V6a2.5 2.5 0 0 1 2.5-2.5h9.5a2.5 2.5 0 0 1 2.5 2.5v12a2.5 2.5 0 0 1-2.5 2.5m-2-4.62h-5.5a.75.75 0 0 1-.75-.75v-3.75c0-.42.34-.75.75-.75h5.5c.41 0 .75.33.75.75v3.75c0 .41-.34.75-.75.75m-4.66-5.25V8.95C10.1 7.87 10.95 7 12 7s1.9.87 1.9 1.95v1.68"/></svg>