<svg xmlns="http://www.w3.org/2000/svg" width="24" height="24" viewBox="0 0 24 24"><path fill="currentColor" stroke="#00000000" d="M13.54 14.18c0 .7-.58 1.27-1.29 1.27s-1.29-.57-1.29-1.27.58-1.26 1.29-1.26 1.29.56 1.29 1.26"/><path fill="#00000000" fill-rule="evenodd" stroke="currentColor" stroke-linecap="round" stroke-linejoin="round" stroke-width="1.5" d="M16.75 20.69h-9a2 2 0 0 1-2-2v-6.73c0-1.1.9-2 2-2h9a2 2 0 0 1 2 2v6.73a2 2 0 0 1-2 2m-4.5-5.74v2.38M8.58 9.25V7.01a3.7 3.7 0 0 1 3.67-3.76 3.7 3.7 0 0 1 3.67 3.76v2.24"/></svg>