<svg xmlns="http://www.w3.org/2000/svg" width="24" height="24" viewBox="0 0 24 24"><path fill="#00000000" fill-rule="evenodd" stroke="currentColor" stroke-linecap="round" stroke-linejoin="round" stroke-width="1.51" d="m19.27 1.49-2.54.1a23 23 0 0 0-6.7 1.5c-1.32.58-1.24 1.34-1.25 1.49v.03c.25 2.13 2.08 5.64 2.17 5.78l.25.14c-1.68 3.87-2.5 7-2.86 7.52-.2.3-3.4 4.34-3.57 4.7l-.01.03c-.04.05-.34.53-.32.62.04.23 5.66-2.2 5.93-2.35l.06-.03.04-.04c.09-.05.37-.23.5-.5l.19-.35-.25-.32-.1-.11-.06-.79-.06-.12c-.03-.12-.04-.5.48-1.24 1.07-1.48 1.6-2.45 2.2-3.4q.43.86.5 1.18c.03.1 1.35 3.66 1.66 4.59.43 1.31 1.95 2.1 1.95 2.1-.1-1.32 1-5.95.96-6.26l-.03-.32-.27-.15a1 1 0 0 0-.36-.17l-.2-.04-.16.06h-.76c-.15 0-1.69-4.9-1.69-4.9q.13-.15.27-.2l.05-.03c1.21-.68 3.28-1.6 3.71-1.8l.39-.16V1.88l-2.04 1.18c-1.94 1.7-4.63 1.2-6.15 7.47"/><path fill="#00000000" fill-rule="evenodd" stroke="currentColor" stroke-linecap="round" stroke-linejoin="round" stroke-width="1.51" d="M14.97 10.25s-.7 2.63-2.08 4.64"/></svg>