<svg xmlns="http://www.w3.org/2000/svg" width="24" height="24" viewBox="0 0 24 24"><path fill="currentColor" stroke="#00000000" d="M12.12 3a9.13 9.13 0 1 1 0 18.25 9.13 9.13 0 0 1 0-18.25Zm0 1.5a7.63 7.63 0 1 0 0 15.25 7.63 7.63 0 0 0 0-15.25Zm2.63 3.63q1.08 0 1.7.52.6.5.61 1.4 0 .48-.28.86-.3.39-.75.6.57.2.86.61.28.41.28.97 0 .9-.66 1.44t-1.76.54q-1.01 0-1.67-.53a1.7 1.7 0 0 1-.65-1.41h1.36q0 .38.29.62t.7.24q.5 0 .76-.25.28-.26.28-.67 0-1.01-1.13-1.01h-.71V11h.72q.52 0 .76-.26.25-.26.25-.67a.8.8 0 0 0-.25-.64 1 1 0 0 0-.67-.23 1 1 0 0 0-.66.22.7.7 0 0 0-.26.54h-1.35q0-.52.29-.94t.8-.66a3 3 0 0 1 1.14-.24ZM8.87 9.96l.83 1.5.85-1.5H12l-1.44 2.46 1.5 2.56h-1.45l-.9-1.58-.9 1.58H7.35l1.5-2.56-1.43-2.46z"/></svg>