<svg xmlns="http://www.w3.org/2000/svg" width="24" height="24" viewBox="0 0 24 24"><path fill="currentColor" stroke="#00000000" d="M12.12 3a9.13 9.13 0 1 1 0 18.25 9.13 9.13 0 0 1 0-18.25Zm0 1.5a7.63 7.63 0 1 0 0 15.25 7.63 7.63 0 0 0 0-15.25Zm2.71 3.63q1.05 0 1.64.5t.58 1.42q0 .5-.26 1.02t-.9 1.21l-1.55 1.62h2.93v1.08H12.6v-.92l2.2-2.33q.45-.49.68-.86.21-.36.21-.7 0-.45-.22-.7-.24-.26-.66-.26a1 1 0 0 0-.72.32q-.27.3-.27.82h-1.36q0-.62.3-1.13t.84-.8 1.23-.29ZM8.87 9.96l.83 1.5.85-1.5H12l-1.44 2.46 1.5 2.56h-1.45l-.9-1.58-.9 1.58H7.35l1.5-2.56-1.44-2.46z"/></svg>