<svg xmlns="http://www.w3.org/2000/svg" width="24" height="24" viewBox="0 0 24 24"><path fill="currentColor" fill-rule="evenodd" stroke="#00000000" d="M8.05 4c.76-.89 2.2-.36 2.2.8v4.75a2.3 2.3 0 0 1 1.26 2.01v7.38c0 .83-.68 1.5-1.5 1.5H6.26a1.5 1.5 0 0 1-1.5-1.5v-7.38c0-.88.5-1.64 1.25-2.01v-2.4a2 2 0 0 1 .47-1.3Zm8.12 6.4a3.2 3.2 0 0 1 3.07 3.24v5.3c0 .83-.67 1.5-1.5 1.5H14.5a1.5 1.5 0 0 1-1.5-1.5v-5.26c0-1.9 1.43-3.3 3.18-3.28Zm-6.91.41H7a.75.75 0 0 0-.75.75v1.63H10v-1.63a.75.75 0 0 0-.75-.75Z"/></svg>