<svg xmlns="http://www.w3.org/2000/svg" width="24" height="24" viewBox="0 0 24 24"><path fill="currentColor" stroke="#00000000" d="M8.91 6h.12c2.09.17 4.05 2.01 4.54 4.4a4.7 4.7 0 0 1-.15 2.55 4.5 4.5 0 0 1-1.11 1.88.64.64 0 0 1-.9-.04.64.64 0 0 1 .04-.9l.03-.03c.1-.12.48-.55.72-1.3.23-.7.26-1.23.12-1.9a4.5 4.5 0 0 0-2.39-3.12 3 3 0 0 0-.85-.25v8.16a2.8 2.8 0 0 1-2.82 2.66 2.8 2.8 0 0 1-2.82-2.79A2.83 2.83 0 0 1 7.8 13V7.08c0-.6.5-1.08 1.1-1.09Zm9.54-1.02c.82 1.09 2.2 3.36 2.18 6.31a10.4 10.4 0 0 1-2.15 6.35.65.65 0 0 1-.9.16.64.64 0 0 1-.15-.89c.71-1.01 1.9-2.7 1.92-5.63a9.3 9.3 0 0 0-1.92-5.53.64.64 0 0 1 1.02-.77Zm-2.33 2.44c.55.8 1.2 2.04 1.27 3.56l.01.3a6.6 6.6 0 0 1-1.26 3.9.64.64 0 0 1-1.05-.73 5.3 5.3 0 0 0-.02-6.3.64.64 0 1 1 1.05-.73Z"/></svg>