<svg xmlns="http://www.w3.org/2000/svg" width="24" height="24" viewBox="0 0 24 24"><path fill="currentColor" d="M15 5.6a2 2 0 0 1 2 2v8a2 2 0 0 1-2 2H9a2 2 0 0 1-2-2v-8c0-1.1.9-2 2-2zm-1.25 6.7h-3.5a.75.75 0 0 0 0 1.5h3.5a.75.75 0 0 0 0-1.5m0-3h-3.5a.75.75 0 0 0 0 1.5h3.5a.75.75 0 0 0 0-1.5m-10-1.46c.41 0 .75-.34.75-.75V5.75c0-.69.56-1.25 1.25-1.25h1.3a.75.75 0 0 0 0-1.5h-1.3A2.75 2.75 0 0 0 3 5.75v1.34c0 .41.34.75.75.75M18.25 3h-1.3a.75.75 0 1 0 0 1.5h1.3c.69 0 1.25.56 1.25 1.25v1.34a.75.75 0 0 0 1.5 0V5.75A2.75 2.75 0 0 0 18.25 3M7.05 18.95h-1.3c-.69 0-1.25-.56-1.25-1.25v-1.58a.75.75 0 0 0-1.5 0v1.58a2.75 2.75 0 0 0 2.75 2.75h1.3a.75.75 0 1 0 0-1.5m13.2-3.33a.75.75 0 0 0-.75.75v1.33c0 .7-.56 1.25-1.25 1.25h-1.3a.75.75 0 0 0 0 1.5h1.3A2.75 2.75 0 0 0 21 17.7v-1.33a.75.75 0 0 0-.75-.75"/></svg>