<svg xmlns="http://www.w3.org/2000/svg" width="24" height="24" viewBox="0 0 24 24"><path fill="#00000000" fill-rule="evenodd" stroke="currentColor" stroke-linecap="round" stroke-linejoin="round" stroke-width="1.5" d="M3.75 7.49V6.25a2.5 2.5 0 0 1 2.5-2.5h1.24m0 16.5H6.25a2.5 2.5 0 0 1-2.5-2.5v-1.24m16.5 0v1.24a2.5 2.5 0 0 1-2.5 2.5h-1.24m0-16.5h1.24a2.5 2.5 0 0 1 2.5 2.5v1.24m-5.52 9.7H9.27c-.84 0-1.52-.68-1.52-1.52V8.33c0-.84.68-1.52 1.52-1.52h5.46c.83 0 1.52.68 1.52 1.52v7.34c0 .84-.69 1.52-1.52 1.52M10.1 10.5h3.78m-3.78 3h3.78"/></svg>