<svg xmlns="http://www.w3.org/2000/svg" width="16" height="16" viewBox="0 0 16 16"><path fill="currentColor" fill-rule="evenodd" stroke="#00000000" d="M10.17 9.67a.52.52 0 1 1 0 1.05H5.83a.52.52 0 1 1 0-1.05zm.17-2.82a.75.75 0 1 1 0 1.5.75.75 0 0 1 0-1.5Zm-4.68 0a.75.75 0 1 1 0 1.5.75.75 0 0 1 0-1.5Zm2.9-2.2v-.89c.39-.22.64-.6.64-1.07a1.2 1.2 0 0 0-2.4 0c0 .47.26.86.65 1.07v.89H4.5c-.99 0-1.8.8-1.8 1.78v4.44c0 .99.81 1.8 1.8 1.8h1.2v1.42c0 .22.27.39.64.18l2.44-1.6h2.72c.99 0 1.8-.81 1.8-1.8V6.43a1.8 1.8 0 0 0-1.8-1.78z"/></svg>