<svg xmlns="http://www.w3.org/2000/svg" width="24" height="24" viewBox="0 0 24 24"><path fill="none" stroke="currentColor" stroke-linecap="round" stroke-linejoin="round" stroke-width="1.5" d="M8.01 16.5q.23.02.25.25v3.24c0 .53.33.67.72.3l4.27-3.67a.5.5 0 0 1 .33-.12h4.17a3 3 0 0 0 3-3v-7a3 3 0 0 0-3-3H6.25a3 3 0 0 0-3 3v7a3 3 0 0 0 3 3zm8.07-9.4-2.77 6.6c-.15.37-.4.59-.66.59-.12 0-.42-.05-.59-.55l-.92-2.75-2.75-.92c-.47-.16-.55-.43-.55-.58 0-.26.21-.52.6-.67l6.59-2.77c.4-.17.8-.07 1 .23q.23.35.05.82m-4.94 3.89 1.87-1.87"/></svg>