<svg xmlns="http://www.w3.org/2000/svg" width="24" height="24" viewBox="0 0 24 24"><path fill="none" stroke="currentColor" stroke-linecap="round" stroke-linejoin="round" stroke-width="1.5" d="M13.79 8.19H5a2.26 2.26 0 0 0-2.25 2.25V16a2.25 2.25 0 0 0 2.24 2.24h1.29c.13 0 .25.12.25.26v2.34c0 .42.24.52.54.24l3.17-2.72a.5.5 0 0 1 .32-.12h3.22A2.26 2.26 0 0 0 16.05 16v-5.56a2.26 2.26 0 0 0-2.25-2.25m-6.46 0V5.06a2.5 2.5 0 0 1 2.5-2.31h8.92a2.5 2.5 0 0 1 2.5 2.5v5.93a2.5 2.5 0 0 1-2.35 2.5h-2.85m-3.45-2.3-3.48 3.48a.5.5 0 0 1-.71 0L6.2 12.64"/></svg>