<svg xmlns="http://www.w3.org/2000/svg" width="24" height="24" viewBox="0 0 24 24"><path fill="#00000000" fill-rule="evenodd" stroke="currentColor" stroke-linecap="round" stroke-linejoin="round" stroke-width="1.5" d="M21.24 5.48v8.7c0 1.5-1.22 2.71-2.72 2.71h-4.77a.4.4 0 0 0-.26.1l-4.9 4.15a.4.4 0 0 1-.68-.31V17.3a.4.4 0 0 0-.4-.41H5.48a2.7 2.7 0 0 1-2.72-2.72v-8.7a2.7 2.7 0 0 1 2.72-2.7h13.04a2.7 2.7 0 0 1 2.72 2.7"/><path fill="#00000000" fill-rule="evenodd" stroke="currentColor" stroke-linecap="round" stroke-linejoin="round" stroke-width="1.5" d="m16.23 7.4-4.72 4.73a.5.5 0 0 1-.68 0L7.77 9.07"/></svg>