<svg xmlns="http://www.w3.org/2000/svg" width="24" height="24" viewBox="0 0 24 24"><path fill="#00000000" fill-rule="evenodd" stroke="currentColor" stroke-linecap="round" stroke-linejoin="round" stroke-width="1.5" d="M21 14.74V6.22a2.75 2.75 0 0 0-2.76-2.75H7.17"/><path fill="#00000000" fill-rule="evenodd" stroke="currentColor" stroke-linecap="round" stroke-linejoin="round" stroke-width="1.5" d="M17.73 8.95v6.93a2.17 2.17 0 0 1-2.17 2.16h-3.8a.3.3 0 0 0-.2.08l-3.91 3.31a.33.33 0 0 1-.54-.25v-2.81a.3.3 0 0 0-.32-.32H5.17a2.17 2.17 0 0 1-2.16-2.17V8.95c0-1.2.97-2.16 2.16-2.16h10.39c1.2 0 2.16.97 2.16 2.16"/></svg>