<svg xmlns="http://www.w3.org/2000/svg" width="24" height="24" viewBox="0 0 24 24"><path fill="none" stroke="currentColor" stroke-linecap="round" stroke-linejoin="round" stroke-width="1.5" d="M18.25 20h-.47c-.69 0-1.25-.56-1.25-1.25v-4.31c0-.7.56-1.25 1.25-1.25h.47c.69 0 1.25.56 1.25 1.25v4.31c0 .69-.56 1.25-1.25 1.25m1.25-5.61v-2.88A7.46 7.46 0 0 0 12.09 4a7.46 7.46 0 0 0-7.41 7.5m4.9 5.48h3.48M4.5 13.96h1.02c.67 0 1.3.26 1.77.73l2.3 2.29M4.5 20h1.02c.67 0 1.3-.26 1.77-.73l2.3-2.3m2.22 2.18 1.82-1.82a.5.5 0 0 0 0-.7l-1.82-1.83"/></svg>