<svg xmlns="http://www.w3.org/2000/svg" width="24" height="24" viewBox="0 0 24 24"><path fill="currentColor" fill-rule="evenodd" stroke="#00000000" d="M11.91 18.42h.11a.9.9 0 0 1 .77.87v.84c0 .48-.4.87-.88.87h-.1a.9.9 0 0 1-.77-.87v-.84c0-.48.39-.87.87-.87Zm3.22-.82a.9.9 0 0 1 1.2.32l.42.72a.88.88 0 0 1-1.52.88l-.42-.72a.87.87 0 0 1 .32-1.2Zm-7.61.24a.87.87 0 1 1 1.52.87l-.42.72a.87.87 0 0 1-1.51-.87Zm10-2.55a.9.9 0 0 1 1.19-.33l.72.42a.88.88 0 0 1-.87 1.52l-.72-.42a.87.87 0 0 1-.32-1.2ZM12 7a5 5 0 1 1 0 10 5 5 0 0 1 0-10Zm-6.8 7.81a.88.88 0 0 1 .88 1.52l-.72.42a.9.9 0 0 1-1.2-.32.9.9 0 0 1 .32-1.2Zm14.93-3.6a.88.88 0 0 1 0 1.75h-.94a.88.88 0 0 1 .1-1.75ZM4.7 11.04a.88.88 0 0 1 0 1.75h-.84a.88.88 0 0 1 0-1.75Zm13.93-3.78a.87.87 0 1 1 .88 1.51l-.72.42a.87.87 0 1 1-.88-1.51Zm-14.39.16a.9.9 0 0 1 1.2-.32l.71.42a.88.88 0 1 1-.87 1.52l-.72-.42a.9.9 0 0 1-.32-1.2Zm11.13-2.85a.88.88 0 0 1 1.52.88l-.42.72a.88.88 0 0 1-1.52-.88Zm-7.8-.4a.9.9 0 0 1 1.2.31l.4.72a.87.87 0 1 1-1.5.88l-.42-.72a.9.9 0 0 1 .32-1.2ZM12.08 3c.5 0 .88.4.88.88v.83a.88.88 0 0 1-1.75 0v-.83c0-.49.4-.88.88-.88Z"/></svg>