<svg xmlns="http://www.w3.org/2000/svg" width="24" height="24" viewBox="0 0 24 24"><path fill="currentColor" stroke="#00000000" d="M11.44 12.68h2.6c.88.02 1.95-.05 3-.32a5.4 5.4 0 0 0 2.4-1.2c1.3-1.21 1.19-2.84 0-3.96a5 5 0 0 0-2.84-1.26.75.75 0 0 0 0 1.5c.32 0 1.28.36 1.8.85.6.56.64 1.19 0 1.78a4 4 0 0 1-1.73.83 9 9 0 0 1-2.6.28h-2.63a.75.75 0 0 0 0 1.5Z"/><path fill="currentColor" stroke="#00000000" d="m13.48 13.68-1.75-1.75 1.75-1.76a.75.75 0 1 0-1.07-1.06l-1.75 1.76a1.5 1.5 0 0 0 0 2.12l1.76 1.75a.75.75 0 1 0 1.06-1.06Z"/><path fill="currentColor" stroke="#00000000" d="M17.26 11.5V5.65a3.15 3.15 0 0 0-3.15-3.15l-7.04.72A3.13 3.13 0 0 0 4 6.37v11.76a3.15 3.15 0 0 0 3.15 3.15l6.88.72a3.17 3.17 0 0 0 3.23-3.15v-3.68a.75.75 0 0 0-1.5 0v3.68c0 .91-.74 1.65-1.65 1.65l-6.88-.72c-1 0-1.73-.74-1.73-1.65V6.37c0-.91.74-1.65 1.65-1.65L14.2 4c.83 0 1.57.74 1.57 1.65v5.85a.75.75 0 0 0 1.5 0Z"/><path fill="currentColor" stroke="#00000000" d="m8.59 18.53 3.25.24a.75.75 0 0 0 .11-1.5l-3.25-.23a.75.75 0 0 0-.11 1.5Z"/></svg>