<svg xmlns="http://www.w3.org/2000/svg" width="24" height="24" viewBox="0 0 24 24"><path fill="currentColor" stroke="#00000000" d="M7.66 8.28a1 1 0 1 1-2 0 1 1 0 0 1 2 0m0 3.72a1 1 0 1 1-2 0 1 1 0 0 1 2 0m0 3.72a1 1 0 1 1-2 0 1 1 0 0 1 2 0m10.68-7.44a1 1 0 1 1-2 0 1 1 0 0 1 2 0m0 3.72a1 1 0 1 1-2 0 1 1 0 0 1 2 0m0 3.72a1 1 0 1 1-2 0 1 1 0 0 1 2 0"/><path fill="#00000000" fill-rule="evenodd" stroke="currentColor" stroke-linecap="round" stroke-linejoin="round" stroke-width="1.3" d="M18.13 19H5.88a2.5 2.5 0 0 1-2.5-2.5v-9A2.5 2.5 0 0 1 5.88 5h12.25a2.5 2.5 0 0 1 2.5 2.5v9a2.5 2.5 0 0 1-2.5 2.5"/></svg>