<svg xmlns="http://www.w3.org/2000/svg" width="72" height="72" viewBox="0 0 72 72"><path fill="currentColor" stroke="#00000000" d="M48 33.8a3.6 3.6 0 0 1 3.77.3l5.77 4.24a3.43 3.43 0 0 1 .34 5.35l-.15.12-5.58 4.22 5.37 4.05a3.4 3.4 0 0 1 1.61 2.58 3.3 3.3 0 0 1-1.36 2.88l-6 4.4a3.6 3.6 0 0 1-5.74-2.9v-6.39l-5.35 4.04a2.25 2.25 0 0 1-2.71-3.6l6.72-5.06-6.72-5.08a2.25 2.25 0 0 1 2.71-3.6l5.35 4.05v-6.38c0-1.37.76-2.6 1.97-3.22ZM40.6 9.35a7.5 7.5 0 0 1 7.5 7.5v12.22a8 8 0 0 0-6.29 5.8 6.8 6.8 0 0 0-9.19 5.56v.02q-.07.69 0 1.38v6.94h-6.84a2.25 2.25 0 0 0 0 4.5h6.84v7.84H20.36a7.5 7.5 0 0 1-7.5-7.5V16.85a7.5 7.5 0 0 1 7.5-7.5Zm9.93 43.09v4.84l3.25-2.39zm0-13.66v4.83l3.25-2.45z"/></svg>