<svg xmlns="http://www.w3.org/2000/svg" width="24" height="24" viewBox="0 0 24 24"><path fill="currentColor" fill-rule="evenodd" stroke="#00000000" d="M17.9 12.7c.11 0 .23.1.26.2l.08.3.13.51c.03.11.27.32.34.37q.1.05.23.04l.12-.01.8-.22a.3.3 0 0 1 .3.12l.65 1.12a.3.3 0 0 1-.05.34l-.59.58a.5.5 0 0 0-.14.32v.16q.01.17.14.32l.6.58c.08.08.1.23.04.33l-.64 1.12a.3.3 0 0 1-.32.13l-.8-.22c-.1-.03-.4.07-.48.11a.5.5 0 0 0-.2.29l-.2.8a.3.3 0 0 1-.27.2h-1.3a.3.3 0 0 1-.27-.2l-.16-.63-.04-.17c-.03-.12-.27-.32-.35-.37a.5.5 0 0 0-.34-.03l-.8.22a.3.3 0 0 1-.31-.13l-.64-1.12a.3.3 0 0 1 .04-.33l.6-.58a.5.5 0 0 0 .13-.32v-.16a.5.5 0 0 0-.14-.32l-.59-.58a.3.3 0 0 1-.04-.34l.64-1.12a.3.3 0 0 1 .31-.12l.8.22c.11.03.4-.07.49-.12a.5.5 0 0 0 .2-.28l.2-.8a.3.3 0 0 1 .27-.21Zm-4.43-.07a5.36 5.36 0 0 0-.73 6.73H5.66a2.5 2.5 0 0 1-2.5-2.5v-1.73a2.5 2.5 0 0 1 2.5-2.5Zm3.78 2.53a1.29 1.29 0 1 0 0 2.58 1.29 1.29 0 0 0 0-2.58Zm-10.35-.4a1.3 1.3 0 1 0 0 2.62 1.3 1.3 0 0 0 0-2.62ZM16.66 3.8a2.5 2.5 0 0 1 2.5 2.5v1.73a2.5 2.5 0 0 1-2.5 2.5h-11a2.5 2.5 0 0 1-2.5-2.5V6.3a2.5 2.5 0 0 1 2.5-2.5ZM8.17 7.47a1.31 1.31 0 0 0-2.55-.6 1.31 1.31 0 0 0 2.55.6Z"/></svg>