<svg xmlns="http://www.w3.org/2000/svg" width="24" height="24" viewBox="0 0 24 24"><path fill="currentColor" stroke="#00000000" d="M7.74 15.24a1.25 1.25 0 1 1 0 2.5 1.25 1.25 0 0 1 0-2.5Zm0-8.9a1.25 1.25 0 1 1 0 2.5 1.25 1.25 0 0 1 0-2.5Z"/><path fill="#00000000" fill-rule="evenodd" stroke="currentColor" stroke-linecap="round" stroke-linejoin="round" stroke-width="1.5" d="M17.5 13.05a2.5 2.5 0 0 1 2.5 2.5v1.73a2.5 2.5 0 0 1-2.5 2.5h-11a2.5 2.5 0 0 1-2.5-2.5v-1.73a2.5 2.5 0 0 1 2.5-2.5zm0-8.83a2.5 2.5 0 0 1 2.5 2.5v1.73a2.5 2.5 0 0 1-2.5 2.5h-11A2.5 2.5 0 0 1 4 8.45V6.72a2.5 2.5 0 0 1 2.5-2.5z"/></svg>