<svg xmlns="http://www.w3.org/2000/svg" width="24" height="24" viewBox="0 0 24 24"><path fill="currentColor" stroke="#00000000" d="M18.72 17.54a1.27 1.27 0 1 1-1.26-2.2c.62-.36 1.4-.16 1.74.45.35.6.14 1.39-.48 1.75Zm2.3-.5a.4.4 0 0 1-.14-.33v-.53a.4.4 0 0 1 .14-.33l.5-.57a.25.25 0 0 0 .06-.31l-.42-.73c-.06-.1-.24-.23-.35-.19l-.74.15a.4.4 0 0 1-.36-.04l-.44-.25a.4.4 0 0 1-.22-.29l-.24-.72a.25.25 0 0 0-.24-.2h-.94a.3.3 0 0 0-.24.2l-.24.72a.4.4 0 0 1-.22.29l-.44.26a.4.4 0 0 1-.36.04l-.75-.15a.25.25 0 0 0-.3.1l-.46.82c-.06.1-.03.24.06.3l.5.58c.08.07.15.22.14.33l-.01.5a.4.4 0 0 1-.14.34l-.5.57a.25.25 0 0 0-.06.3l.47.82c.06.1.19.14.3.1l.74-.15c.1-.04.27-.02.36.05l.45.27c.1.05.2.18.22.29l.24.72c.02.1.13.2.24.2h.84c.1 0 .32-.1.34-.2l.24-.72a.4.4 0 0 1 .22-.3l.45-.25a.4.4 0 0 1 .35-.04l.75.15c.1.04.24-.01.3-.1l.41-.73c.06-.1.08-.33 0-.4zM8.96 7.87a1.25 1.25 0 1 0-2.44-.57 1.25 1.25 0 0 0 2.44.57m0 8.9a1.25 1.25 0 0 0-2.44-.57 1.25 1.25 0 0 0 2.44.57"/><path fill="#00000000" fill-rule="evenodd" stroke="currentColor" stroke-linecap="round" stroke-linejoin="round" stroke-width="1.5" d="M17.5 4.22a2.5 2.5 0 0 1 2.5 2.5v1.73a2.5 2.5 0 0 1-2.5 2.5h-11A2.5 2.5 0 0 1 4 8.45V6.72a2.5 2.5 0 0 1 2.5-2.5zm-4.52 15.56H6.5a2.5 2.5 0 0 1-2.5-2.5v-1.73a2.5 2.5 0 0 1 2.5-2.5h6.52"/></svg>