<svg xmlns="http://www.w3.org/2000/svg" width="24" height="24" viewBox="0 0 24 24"><path fill="currentColor" stroke="#00000000" d="M14.44 12.51h-3.02a.75.75 0 1 1 0-1.5h3.02a.75.75 0 1 1 0 1.5Zm-5.45 1.42a.5.5 0 0 1-.5.5H6a.5.5 0 0 1-.5-.5v-2.5c0-.27.23-.5.5-.5h2.5c.28 0 .5.23.5.5zM6.18 7.35h8.25a.75.75 0 1 1 0 1.5H6.18a.75.75 0 0 1 0-1.5Zm13.76.41a.9.9 0 0 0-.7.88v6.9c-.08.93-1.49.84-1.49-.1V7.5a2.5 2.5 0 0 0-2.5-2.5H5.5A2.5 2.5 0 0 0 3 7.5v9A2.5 2.5 0 0 0 5.5 19h11.87c2 0 3.63-1.62 3.63-3.62V8.62c0-.54-.5-.97-1.06-.86Z"/></svg>