<svg xmlns="http://www.w3.org/2000/svg" width="24" height="24" viewBox="0 0 24 24"><path fill="currentColor" stroke="#00000000" d="M8.5 14.1H5.89a.4.4 0 0 1-.37-.38v-2.75c0-.2.16-.38.37-.38h2.75c.2 0 .38.17.38.38v2.62a.5.5 0 0 1-.5.5"/><path fill="#00000000" fill-rule="evenodd" stroke="currentColor" stroke-linecap="round" stroke-linejoin="round" stroke-width="1.5" d="M20.75 16v.18a2.5 2.5 0 0 1-2.5 2.5H5.75a2.5 2.5 0 0 1-2.5-2.5V7.82a2.5 2.5 0 0 1 2.5-2.5h9.14a2.5 2.5 0 0 1 2.5 2.5v8.36m0-7.63h2.98c.2 0 .38.17.38.38v7.25l-.01.2c-.16 1.98-3.18 1.98-3.34 0v-.2M6.24 8.3h8.16m-3.1 3.03h3.1"/></svg>