<svg xmlns="http://www.w3.org/2000/svg" width="24" height="24" viewBox="0 0 24 24"><path fill="currentColor" stroke="#00000000" d="M18.23 7.55c.42 0 .77.34.77.77v8.47A3.2 3.2 0 0 1 15.8 20H8.54a.77.77 0 0 1 0-1.55h7.28c.9 0 1.65-.74 1.65-1.66V8.32c0-.43.34-.77.77-.77ZM13.98 4a2 2 0 0 1 1.99 2v9.67c0 .73-.6 1.33-1.32 1.33H5.98A2 2 0 0 1 4 15v-.04h1.28c.54 0 .97-.46.92-1.01a.95.95 0 0 0-.96-.84H4v-1.7h1.28c.54 0 .97-.46.92-1.01a.95.95 0 0 0-.96-.83H4V7.89h1.28c.54 0 .97-.47.92-1.02a.95.95 0 0 0-.96-.83H4v-.05A2 2 0 0 1 5.98 4Z"/></svg>