<svg xmlns="http://www.w3.org/2000/svg" width="24" height="24" viewBox="0 0 24 24"><path fill="currentColor" fill-rule="evenodd" stroke="#00000000" d="M8.94 13.56c.97 0 1.75.78 1.75 1.75v3c0 .97-.78 1.75-1.75 1.75h-3c-.97 0-1.75-.78-1.75-1.75v-3c0-.97.78-1.75 1.75-1.75Zm8.5 0c.97 0 1.75.78 1.75 1.75v3c0 .97-.78 1.75-1.75 1.75h-3c-.97 0-1.75-.78-1.75-1.75v-3c0-.97.78-1.75 1.75-1.75Zm-2.74-9.1c.69-.7 1.8-.7 2.48 0l2.12 2.11c.68.69.68 1.8 0 2.48l-2.12 2.12c-.69.68-1.8.68-2.48 0l-2.12-2.12a1.75 1.75 0 0 1 0-2.48Zm-5.76.1c.97 0 1.75.78 1.75 1.75v3c0 .97-.78 1.75-1.75 1.75h-3c-.97 0-1.75-.78-1.75-1.75v-3c0-.97.78-1.75 1.75-1.75Z"/></svg>