<svg xmlns="http://www.w3.org/2000/svg" width="24" height="24" viewBox="0 0 24 24"><path fill="currentColor" fill-rule="evenodd" stroke="#00000000" d="M18.33 13.66a.75.75 0 0 1-.6-1.19c.3-.43.48-.99.48-1.57a2.7 2.7 0 0 0-.48-1.57.75.75 0 0 1 1.21-.88c.5.7.77 1.56.77 2.45s-.27 1.76-.77 2.45a.8.8 0 0 1-.6.3ZM5.5 9.23v3.5h1.4c.41 0 .75.33.75.75v4.07a.75.75 0 0 0 1.5 0v-3.51a.75.75 0 0 1 1.14-.64L15 16.3V5.5L9.16 9.12a1 1 0 0 1-.4.1zM8.4 19.8a2.25 2.25 0 0 1-2.25-2.25v-3.32H5.5a1.5 1.5 0 0 1-1.5-1.5v-3.5c0-.83.67-1.5 1.5-1.5h3.05l5.66-3.5A1.5 1.5 0 0 1 16.5 5.5v10.8a1.5 1.5 0 0 1-2.29 1.28l-3.56-2.2v2.17A2.25 2.25 0 0 1 8.4 19.8Z" clip-path="url(#a)"/><clipPath id="a"><path d="M4 4h15.7v15.8H4z"/></clipPath></svg>