<svg xmlns="http://www.w3.org/2000/svg" width="24" height="24" viewBox="0 0 24 24"><path fill="currentColor" stroke="#00000000" d="m19.2 8.54.12.12 3.02 3.02c.84.83.88 2.15.12 3.03l-.12.13-5.77 5.78a4.5 4.5 0 0 1-6.33.14 4.47 4.47 0 0 1-.02-6.16l.16-.17 5.78-5.77a2.24 2.24 0 0 1 3.04-.12Zm-7.35 6.16-.6.6a3.26 3.26 0 0 0-.15 4.6 3.25 3.25 0 0 0 4.46 0l.15-.15.6-.6zm-6.06 1.83c.44.38.56.55 1.08.82a.72.72 0 1 1-.68 1.27c-.61-.33-.83-.56-1.35-1.02a.72.72 0 1 1 .95-1.07Zm11.33-7.1-.1.09-4.31 4.31 4.46 4.46 4.31-4.31c.37-.37.4-.95.09-1.35l-.09-.1-3.02-3.01c-.37-.37-.94-.4-1.34-.09ZM3.39 12.2q.15.86.49 1.67a.72.72 0 1 1-1.32.56 9 9 0 0 1-.58-2 .72.72 0 1 1 1.41-.23Zm.53-5.75c.35.2.48.63.29.98q-.42.76-.66 1.61a.72.72 0 0 1-1.38-.38q.28-1.01.78-1.92c.2-.35.63-.48.97-.29Zm12.62-2.1c.52.46.54.5.95 1.07a.72.72 0 1 1-1.17.82c-.34-.47-.3-.43-.73-.81a.72.72 0 1 1 .95-1.08ZM8.27 3.21a.7.7 0 0 1-.39.94 7 7 0 0 0-1.52.84.72.72 0 0 1-.84-1.16q.85-.6 1.81-1a.7.7 0 0 1 .94.38Zm2.84-1.04q1.06.04 2.06.34a.72.72 0 1 1-.4 1.37 7 7 0 0 0-1.72-.28.72.72 0 1 1 .06-1.43Z"/></svg>