<svg xmlns="http://www.w3.org/2000/svg" width="24" height="24" viewBox="0 0 24 24"><path fill="currentColor" stroke="#00000000" d="m9.79 9.15 3.99 2.38 2.37-1a4 4 0 0 1 1.8-.3 5.94 5.94 0 0 0-10.72-1.8h.06c.89 0 1.75.25 2.5.72Z"/><path fill="currentColor" stroke="#00000000" d="M9.79 9.15a4.7 4.7 0 0 0-2.5-.71h-.06A4.75 4.75 0 0 0 3.4 15.9l3.51-1.48 1.57-.66 3.48-1.46 1.82-.77zm8.15 1.08a4 4 0 0 0-1.79.3l-2.37 1 .69.42 2.26 1.35.98.6 3.37 2a3.86 3.86 0 0 0-3.14-5.67Z"/><path fill="currentColor" stroke="#00000000" d="m17.71 13.9-.98-.6-2.26-1.35-.7-.42-1.81.77-3.48 1.46-1.57.66L3.4 15.9a4.7 4.7 0 0 0 3.9 2.04h10.38c1.42 0 2.73-.78 3.4-2.03z"/></svg>