<svg xmlns="http://www.w3.org/2000/svg" width="24" height="24" viewBox="0 0 24 24"><path fill="#00000000" fill-rule="evenodd" stroke="currentColor" stroke-linecap="round" stroke-linejoin="round" stroke-width="1.5" d="M3.81 15.15a7.5 7.5 0 0 0 1.83 4.22h0a7.5 7.5 0 0 0 4.23 1.82c1.57.21 2.64.16 2.64.16s1.07.05 2.64-.16a7.5 7.5 0 0 0 4.22-1.83 7.5 7.5 0 0 0 1.83-4.23c.2-1.57.15-2.64.15-2.64s.05-1.07-.16-2.64a7.5 7.5 0 0 0-1.83-4.22 7.5 7.5 0 0 0-4.23-1.82c-1.57-.21-2.64-.16-2.64-.16s-1.07-.05-2.64.16a7.5 7.5 0 0 0-4.22 1.83h0A7.5 7.5 0 0 0 3.8 9.87c-.21 1.57-.16 2.64-.16 2.64s-.05 1.07.16 2.64m8.62-5.92.73-.73a2.37 2.37 0 0 1 3.34 0c.92.91.92 2.41 0 3.33l-1.46 1.46c-.91.92-2.41.92-3.33 0m.86 2.48-.73.73a2.36 2.36 0 0 1-3.34-3.33l1.46-1.46a2.37 2.37 0 0 1 3.33 0"/></svg>