<svg xmlns="http://www.w3.org/2000/svg" width="24" height="24" viewBox="0 0 24 24"><path fill="currentColor" stroke="#00000000" d="M9.63 3.63a.75.75 0 1 1 0 1.5H6.87c-.96 0-1.74.78-1.74 1.75v10.25c0 .96.78 1.75 1.75 1.75h10.25c.96 0 1.75-.79 1.75-1.75v-2.75a.75.75 0 0 1 1.5 0v2.74c0 1.8-1.46 3.25-3.25 3.25H6.88a3.25 3.25 0 0 1-3.25-3.25V6.89c0-1.8 1.45-3.25 3.25-3.25Zm8.4.06c.97 0 1.76.78 1.76 1.75V9.4a.75.75 0 0 1-1.5 0V6.12l-5.9 6.02a.75.75 0 0 1-1.06.01.75.75 0 0 1 0-1.06l5.77-5.9h-3.2a.75.75 0 1 1 0-1.5Z"/></svg>