<svg xmlns="http://www.w3.org/2000/svg" width="24" height="24" viewBox="0 0 24 24"><path fill="currentColor" stroke="#00000000" d="M8.4 14.47a3.68 3.68 0 0 0 7.2 0H20v3.03a2.5 2.5 0 0 1-2.5 2.5h-11A2.5 2.5 0 0 1 4 17.5v-3.03ZM17.5 4A2.5 2.5 0 0 1 20 6.5v6.48h-5.08a.75.75 0 0 0-.75.74 2.18 2.18 0 0 1-4.34 0 .75.75 0 0 0-.75-.75H4V6.5A2.5 2.5 0 0 1 6.5 4ZM12 6.25q-.16 0-.3.06-.26.08-.44.26L9.21 8.73a.75.75 0 0 0 1.08 1.03l.96-1v3.38a.75.75 0 1 0 1.5 0V8.76l.96 1a.75.75 0 0 0 1.08-1.03l-2.05-2.16a1 1 0 0 0-.44-.26 1 1 0 0 0-.3-.06Z"/></svg>