<svg xmlns="http://www.w3.org/2000/svg" width="24" height="24" viewBox="0 0 24 24"><path fill="currentColor" fill-rule="evenodd" stroke="#00000000" d="M15.98 19.28H8.2c-.81 0-1.47-.74-1.47-1.64v-.79h10.73v.79c0 .9-.67 1.64-1.48 1.64ZM8.2 5.17H13c.13 0 .38.12.48.23l1.76 2.04h-8.5v-.62c0-.91.66-1.65 1.47-1.65ZM6.73 15.44h10.73v-2.59H6.73zm10.73-5.1v1.1H6.73V8.85h9.72l.8.93c.1.12.2.4.2.57Zm.7-1.54-3.78-4.37a2 2 0 0 0-1.4-.67H8.2c-1.5 0-2.73 1.37-2.73 3.06v10.82c0 1.68 1.22 3.05 2.73 3.05h7.78c1.51 0 2.74-1.37 2.74-3.05v-7.3a2.6 2.6 0 0 0-.56-1.54Z"/></svg>