<svg xmlns="http://www.w3.org/2000/svg" width="24" height="24" viewBox="0 0 24 24"><path fill="currentColor" stroke="#00000000" d="M15.63 8.27q.96.01 1.75.56a.73.73 0 0 1-.85 1.19 1.5 1.5 0 0 0-.9-.29c-.87 0-1.58.74-1.58 1.64v1.38h4.42c.97 0 1.75.78 1.75 1.75v4.24c0 .96-.78 1.75-1.75 1.75H12.8c-.97 0-1.75-.79-1.75-1.75V14.5c0-.9.67-1.63 1.54-1.73v-1.4c0-1.7 1.37-3.1 3.04-3.1Zm-.22-5.24a3.17 3.17 0 0 1 3.16 3.16v.25a.73.73 0 0 1-1.46 0V6.2c0-.94-.76-1.7-1.7-1.7H7.38c-.94 0-1.7.76-1.7 1.7v11.13c0 .94.76 1.7 1.7 1.7H9a.73.73 0 0 1 0 1.47H7.4a3.17 3.17 0 0 1-3.17-3.17V6.2a3.17 3.17 0 0 1 3.16-3.16Zm.22 11.79c-.56 0-1.02.45-1.02 1 0 .36.2.66.48.84l-.02.07v1.17a.56.56 0 1 0 1.12 0v-1.17l-.01-.07a1 1 0 0 0 .48-.83c0-.56-.46-1.01-1.03-1.01Z"/></svg>