<svg xmlns="http://www.w3.org/2000/svg" width="24" height="24" viewBox="0 0 24 24"><path fill="#00000000" fill-rule="evenodd" stroke="currentColor" stroke-linecap="round" stroke-linejoin="round" stroke-width="1.3" d="M13.82 19.58H8.36A2.36 2.36 0 0 1 6 17.22V6.36C6 5.06 7.06 4 8.36 4h6.14c1.3 0 2.36 1.06 2.36 2.36v3.73m-5.72 3.46h8.08m.03-2.42v4.13c0 .3-.2.55-.48.62l-1.46.36c-.64.16-1.05.78-.96 1.43l.25 1.67a1.44 1.44 0 1 1-2.85 0l.26-1.67c.1-.65-.32-1.27-.96-1.43l-1.46-.36a.64.64 0 0 1-.48-.62v-4.55h0c.47.18 1.15.36 2 .36q1.1 0 2.24-.41a8 8 0 0 1 2.6-.56q.22 0 .4.02c.52.06.9.5.9 1"/></svg>