<svg xmlns="http://www.w3.org/2000/svg" width="24" height="24" viewBox="0 0 24 24"><path fill="currentColor" fill-rule="evenodd" stroke="#00000000" d="M16.63 2.88a3.25 3.25 0 0 1 3.25 3.25v11.75a3.26 3.26 0 0 1-3.25 3.25H7.38a3.25 3.25 0 0 1-3.25-3.25V6.13c0-1.8 1.45-3.25 3.25-3.25Zm0 1.5H7.38c-.97 0-1.75.78-1.75 1.75v11.75c0 .96.78 1.75 1.75 1.75h9.25c.96 0 1.75-.79 1.75-1.75V6.13c0-.97-.79-1.75-1.75-1.75ZM12.77 7.5q.2.02.3.18l.02.07.25.96c.03.12.24.32.36.4l.05.04q.12.07.33.06l.09-.02.95-.26a.3.3 0 0 1 .33.1l.04.05.78 1.34c.06.1.05.25-.01.35l-.05.06-.7.7a1 1 0 0 0-.17.3v.27q0 .15.1.31l.06.07.71.7c.09.08.12.22.09.33l-.03.07-.78 1.34a.4.4 0 0 1-.3.17l-.07-.02-.95-.26c-.12-.03-.4.05-.53.11l-.06.03a1 1 0 0 0-.21.25l-.03.09-.25.96a.4.4 0 0 1-.25.24l-.07.01h-1.54a.4.4 0 0 1-.3-.18l-.02-.07-.25-.96c-.03-.12-.24-.32-.36-.4l-.05-.04a1 1 0 0 0-.33-.06l-.08.02-.96.26a.4.4 0 0 1-.33-.1l-.04-.05-.78-1.34a.4.4 0 0 1 .01-.35l.05-.05.7-.7q.14-.13.17-.3v-.28a.5.5 0 0 0-.1-.31l-.06-.07-.71-.7a.4.4 0 0 1-.08-.33l.02-.07.78-1.34c.05-.1.18-.17.3-.16h.07l.96.27h.06c.16 0 .44-.09.52-.13a1 1 0 0 0 .21-.26l.03-.09.25-.96a.4.4 0 0 1 .25-.24l.07-.01zM12 10.46a1.54 1.54 0 0 0-.14 3.08H12c.8 0 1.47-.61 1.54-1.4V12c0-.8-.61-1.47-1.4-1.54z"/></svg>