<svg xmlns="http://www.w3.org/2000/svg" width="24" height="24" viewBox="0 0 24 24"><path fill="currentColor" fill-rule="evenodd" stroke="#00000000" d="M16.52 15.91a1.1 1.1 0 1 1-2.19 0 1.1 1.1 0 0 1 2.2 0"/><path fill="#00000000" fill-rule="evenodd" stroke="currentColor" stroke-linecap="round" stroke-linejoin="round" stroke-width="1.5" d="M8.71 18.72h-.93a2.2 2.2 0 0 1-2.19-2.19V6.47a2.2 2.2 0 0 1 2.2-2.19h7.43c1.2 0 2.19.98 2.19 2.19v.27m.97 13.44h-5.9c-.73 0-1.32-.59-1.32-1.31v-4.42c0-.72.59-1.31 1.31-1.31h5.91c.72 0 1.31.59 1.31 1.31v4.42c0 .72-.59 1.3-1.31 1.3m-5.36-7.5V11.2a2.44 2.44 0 0 1 2.4-2.47c1.34 0 2.41 1.1 2.41 2.47v1.47m-2.4 3.74v1.56"/></svg>