<svg xmlns="http://www.w3.org/2000/svg" width="24" height="24" viewBox="0 0 24 24"><path fill="currentColor" d="M10 20C4.49 20 0 15.51 0 10S4.49 0 10 0s10 4.04 10 9a6 6 0 0 1-6 6h-1.77a.5.5 0 0 0-.5.5q0 .18.13.33A2.5 2.5 0 0 1 10 20m0-18a8.01 8.01 0 0 0 0 16 .5.5 0 0 0 .5-.5.5.5 0 0 0-.14-.35A2.5 2.5 0 0 1 12.23 13H14a4 4 0 0 0 4-4c0-3.86-3.59-7-8-7m-5.5 9a1.5 1.5 0 1 0 0-3 1.5 1.5 0 0 0 0 3m3-4a1.5 1.5 0 1 0 0-3 1.5 1.5 0 0 0 0 3m5 0a1.5 1.5 0 1 0 0-3 1.5 1.5 0 0 0 0 3m3 4a1.5 1.5 0 1 0 0-3 1.5 1.5 0 0 0 0 3"/></svg>