<svg xmlns="http://www.w3.org/2000/svg" width="24" height="24" viewBox="0 0 24 24"><path fill="currentColor" stroke="#00000000" d="M12 2.75a3.6 3.6 0 0 1 2.81 5.82l-.14.17-.11.12.09.03a8.2 8.2 0 0 1 5.46 6.92l.02.28v.23a4.9 4.9 0 0 1-3.7 4.78.75.75 0 0 1-.93-.63v-1.3c0-1.69-1.68-3.24-3.66-3.24-1.01 0-1.95.4-2.63 1.04l-.15.15-.06.06h3c1.05 0 1.9.79 2.02 1.8l.01.15v.15a2.06 2.06 0 0 1-1.93 1.96l-.15.01H8.8a4.9 4.9 0 0 1-4.93-4.93 8.1 8.1 0 0 1 5.24-7.34l.25-.1.08-.02-.11-.12a3.6 3.6 0 0 1-.9-1.98l-.01-.22v-.2A3.6 3.6 0 0 1 12 2.75Zm.23 7.19h-.45c-3.49.11-6.41 3.1-6.41 6.38a3.4 3.4 0 0 0 3.24 3.42l.19.01h3.15c.32 0 .58-.24.59-.52 0-.27-.2-.5-.45-.54H7.67a.75.75 0 0 1-.7-1.03 5 5 0 0 1 2.9-2.85q-.3-.43-.4-.96a2.58 2.58 0 0 1 2.87-3.05l.16.03a2.57 2.57 0 0 1 1.55 4.08 4.9 4.9 0 0 1 2.94 4.05v.29l.1-.06a3.4 3.4 0 0 0 1.52-2.45l.02-.22v-.2c0-3.22-2.79-6.13-6.17-6.37zm-1.28 3.63c.08.42.42.76.83.84a1.08 1.08 0 0 0 .56-2.08l-.12-.03c-.77-.14-1.42.5-1.27 1.27ZM12 4.25a2.1 2.1 0 0 0-.3 4.16l.15.02h.28c1-.06 1.8-.81 1.94-1.77l.02-.16v-.16A2.1 2.1 0 0 0 12 4.25Z"/></svg>