<svg xmlns="http://www.w3.org/2000/svg" width="24" height="24" viewBox="0 0 24 24"><path fill="currentColor" stroke="#00000000" d="M12 4.13c3.52 0 6.86 1.7 9.17 4.66a5.4 5.4 0 0 1 0 6.42A11.7 11.7 0 0 1 12 19.87c-3.52 0-6.86-1.7-9.17-4.66a5.4 5.4 0 0 1 0-6.42A11.7 11.7 0 0 1 12 4.13Zm0 1.5c-3.05 0-5.97 1.48-7.99 4.08a3.8 3.8 0 0 0 0 4.58A10.2 10.2 0 0 0 12 18.38c3.05 0 5.97-1.5 7.99-4.09a3.8 3.8 0 0 0 0-4.58A10.2 10.2 0 0 0 12 5.62Zm0 1.62a4.75 4.75 0 1 1 0 9.5 4.75 4.75 0 0 1 0-9.5Zm.94 1.83a1.25 1.25 0 1 0 0 2.5 1.25 1.25 0 0 0 0-2.5Z"/></svg>