<svg xmlns="http://www.w3.org/2000/svg" width="24" height="24" viewBox="0 0 24 24"><path fill="currentColor" fill-rule="evenodd" stroke="#00000000" d="M2.53 3.63a.8.8 0 0 1 .82-.16q.04.06.09.1l16 16a.75.75 0 0 1-1.24.8l-1.85-1.86q-2.08.9-4.35.9c-3.52 0-6.86-1.7-9.17-4.66a5.35 5.35 0 0 1 0-6.43q.74-.95 1.61-1.71L2.53 4.69a.75.75 0 0 1 0-1.06ZM5.5 7.67q-.8.7-1.49 1.58a3.8 3.8 0 0 0 0 4.58A10.2 10.2 0 0 0 12 17.9q1.65-.01 3.19-.56l-1.42-1.4A4.75 4.75 0 0 1 7.6 9.75Zm6.5-4c3.52 0 6.86 1.7 9.17 4.65a5.35 5.35 0 0 1 0 6.43q-.99 1.27-2.22 2.22l-1.07-1.07A11 11 0 0 0 20 13.83a3.8 3.8 0 0 0 0-4.58 10.2 10.2 0 0 0-8-4.09q-2.09 0-3.98.88L6.9 4.92A11 11 0 0 1 12 3.66Zm0 3.12a4.75 4.75 0 0 1 4.03 7.26L9.49 7.5A4.7 4.7 0 0 1 12 6.79Z"/></svg>