<svg xmlns="http://www.w3.org/2000/svg" width="24" height="24" viewBox="0 0 24 24"><path fill="currentColor" stroke="#00000000" d="M5.74 15.86c.36-1.07.9-2.04 1.24-2.5l3.68 3.68c-.46.34-1.44.88-2.5 1.24-1.5.51-2.32.4-2.57.15s-.37-1.08.15-2.57Zm9.53-10.83c.5-.5 1.35-.41 1.65-.11l2.18 2.17c.3.3.39 1.15-.12 1.66l-6.27 6.27-.93.93-.05.04-3.7-3.7zM3.41 20.57a.87.87 0 0 0 1.24 0l.61-.61q.5.18 1.12.18.97 0 2.26-.44c1.18-.4 2.43-1.06 3.08-1.6l.01.02.19-.19 1.85-1.85 6.27-6.27c.5-.5.8-1.2.8-1.94a2.5 2.5 0 0 0-.68-1.84l-2.18-2.17c-.95-.96-2.75-.9-3.77.11L8.1 10.08l-1.14 1.14-1.06 1.06.01.01c-.54.65-1.2 1.9-1.6 3.08q-.7 2.1-.27 3.33l-.63.63a.87.87 0 0 0 0 1.24Z"/></svg>