<svg xmlns="http://www.w3.org/2000/svg" width="24" height="24" viewBox="0 0 24 24"><path fill="currentColor" stroke="#00000000" d="M5.91 17.42c.2-.51.27-1 .34-1.49.12-.93.23-1.73 1.32-2.66a3.5 3.5 0 0 1 1.8-.82l2.68 2.69c.04.31.03 1.17-.94 2.33-1.43 1.7-4.53 1.82-6.24 1.67.35-.39.73-.94 1.04-1.72ZM16.57 5.16c.22-.22.55-.36.9-.36.3-.01.6.09.75.25l1.47 1.46c.15.16.25.45.24.76 0 .34-.14.67-.36.9l-6.2 6.19v-.02l-2.99-3zM2.9 20.2c.31.24 1.55.49 3.06.49 2.13 0 4.82-.5 6.29-2.27.6-.72.93-1.37 1.11-1.94l7.26-7.26c1.02-1.02 1.07-2.82.12-3.78l-1.47-1.47c-.96-.95-2.76-.9-3.77.12L8.6 11l-.09.1q-1.06.3-1.92 1.02a5 5 0 0 0-1.84 3.61c-.06.43-.1.8-.24 1.13a4 4 0 0 1-1.4 1.85c-.24.17-.55.4-.55.84q0 .4.34.66Z"/></svg>