<svg xmlns="http://www.w3.org/2000/svg" width="24" height="24" viewBox="0 0 24 24"><path fill="currentColor" stroke="#00000000" d="m5.38 17.3 1.69 1.68-.4.4a.2.2 0 0 1-.25.04l-2.05-.75-.2-.17zm2.1-2.1q.35-.37.37-.85l.31-2.2 4.07 4.05-2.2.32q-.5.01-.85.35l-1.05 1.05-1.69-1.68zm6.93-10.28a1.25 1.25 0 0 1 1.76 0l3.3 3.29q.37.37.37.88 0 .52-.37.89l-5.68 5.66-5.06-5.06zM5.79 20.79a1.7 1.7 0 0 0 1.94-.35l2.44-2.43 2.84-.4a2.2 2.2 0 0 0 1.58-.65l5.94-5.92a2.73 2.73 0 0 0 0-3.9l-3.3-3.28a2.75 2.75 0 0 0-3.88 0L7.4 9.78c-.42.42-.65 1-.64 1.59l-.4 2.82-3.25 3.25q-.53.54-.43 1.28c.09.53.48 1.02 1.06 1.3z"/></svg>