<svg xmlns="http://www.w3.org/2000/svg" width="24" height="24" viewBox="0 0 24 24"><path fill="currentColor" stroke="#00000000" d="m5.08 14.72.13-.21 4.25-2.68 2.72 2.71L9.5 18.8l-.21.13-3.7.38 1.69-1.69a1 1 0 1 0-.88-.88l-1.7 1.69zm6.49-5.29 3 3-1.2 1.2-.06-.08-2.86-2.85-.08-.07zm4.5-4.5c.5-.51 1.35-.42 1.66-.12l1.46 1.47c.16.15.26.44.25.75 0 .35-.14.68-.36.9l-3.45 3.45-3-3.01zM3.4 20.6a1.2 1.2 0 0 0 .95.33l5.1-.51c.5-.05 1.05-.4 1.32-.82l2.11-3.35.02-.01 3.27-3.27 3.98-3.98c1.02-1.02 1.07-2.82.11-3.77L18.8 3.75c-.96-.96-2.76-.9-3.78.11l-7.24 7.25-.02.02-3.34 2.1a2 2 0 0 0-.82 1.33l-.52 5.1q-.05.56.32.94Z"/></svg>