<svg xmlns="http://www.w3.org/2000/svg" width="24" height="24" viewBox="0 0 24 24"><path fill="currentColor" fill-rule="evenodd" stroke="currentColor" stroke-width=".3" d="M4.5 17.76a1 1 0 0 1-.62-.22c-.43-.35-.5-1-.16-1.44.23-.3 5.71-7.35 11.05-10.34.75-.42 1.6-.32 2.17.25.6.61.7 1.58.27 2.41-.1.19-.28.41-.78 1.04-.73.92-1.97 2.48-2.81 3.88l.58-.46c2.03-1.64 2.8-2.2 3.59-2.1.4.06.74.28.93.62.39.66.13 1.3-.48 2.87l-.07.2.35-.36a1 1 0 0 1 1.42-.02c.4.39.4 1.04.02 1.44-.84.9-2.44 2.28-3.63 1.5-.38-.25-.95-.9-.4-2.37l.32-.82-.8.64c-2.15 1.74-3.34 2.7-4.3 1.9-.92-.76-.24-2.17.2-3.1a31 31 0 0 1 3.68-5.3C10.25 11 5.34 17.3 5.29 17.37a1 1 0 0 1-.79.39"/></svg>