<svg xmlns="http://www.w3.org/2000/svg" width="24" height="24" viewBox="0 0 24 24"><path fill="currentColor" fill-rule="evenodd" stroke="#00000000" d="m8.65 8.56 5.02-5.01c.9-.9 2.45-.93 3.28-.1l1.79 1.79c.83.83.8 2.38-.1 3.28l-5.15 5.15-1 1-.76.76h-.01c-1.28 1.04-3.87 1.95-5.36 1.43l-.42.42a.75.75 0 0 1-1.13-.98l.07-.08.44-.44c-.5-1.49.4-4.05 1.45-5.31l-.02-.01.25-.24zm-.81 2.98c-.76 1.04-1.51 3.41-1.06 3.86.46.46 2.83-.3 3.87-1.05zm1.04-1.08 2.85 2.85 5.85-5.85c.3-.3.33-.83.15-1.1l-.05-.06-1.79-1.79c-.24-.23-.84-.22-1.16.1l-5.02 5zm10.37 8.7a.75.75 0 0 1 .1 1.48H4.75a.75.75 0 0 1-.1-1.48z"/></svg>