<svg xmlns="http://www.w3.org/2000/svg" width="24" height="24" viewBox="0 0 24 24"><path fill="currentColor" stroke="#00000000" d="m4.58 17.73.55-.55 1.69 1.69-.55.55c-.3.3-.96.17-1.41-.28-.25-.24-.4-.55-.44-.84-.01-.14-.01-.4.16-.57Zm2.7-2.7c.19-.18.31-.44.35-.7l.29-2.3 4.06 4.05-2.3.3q-.41.05-.72.35L7.88 17.8l-1.69-1.69zm6.87-10.25a1.25 1.25 0 0 1 1.77 0l3.3 3.3q.35.37.36.89 0 .5-.36.88l-5.68 5.67-5.07-5.06zM3.8 20.21a3 3 0 0 0 2.01.87c.55 0 1.07-.18 1.47-.55l2.68-2.68 2.8-.36c.59 0 1.16-.22 1.58-.64l5.94-5.94a2.73 2.73 0 0 0 0-3.89l-3.3-3.3a2.75 2.75 0 0 0-3.9 0L7.16 9.66c-.42.42-.65 1-.64 1.59l-.36 2.8-2.67 2.66a2.2 2.2 0 0 0-.55 1.75c.07.64.38 1.26.87 1.75Z"/></svg>