<svg xmlns="http://www.w3.org/2000/svg" width="24" height="24" viewBox="0 0 24 24"><path fill="currentColor" stroke="#00000000" d="m5.08 14.72.13-.21 4.25-2.69 2.72 2.72L9.5 18.8l-.21.13-3.7.37 1.69-1.68a1 1 0 0 0 .81-1.7 1 1 0 0 0-1.41 0 1 1 0 0 0-.29.82L4.7 18.42zm11-9.8c.5-.5 1.34-.41 1.65-.11l1.46 1.47c.3.3.4 1.15-.11 1.65l-5.7 5.7-.07-.08-2.86-2.86-.08-.06zM3.38 20.6a1.2 1.2 0 0 0 .95.33l5.1-.51c.5-.06 1.05-.4 1.32-.82l2.11-3.35.02-.01 7.25-7.25c1.02-1.02 1.07-2.82.11-3.77L18.8 3.75c-.96-.96-2.76-.9-3.78.11l-7.24 7.25-.02.02-3.34 2.1a2 2 0 0 0-.82 1.33l-.52 5.1c-.04.35.08.7.32.94Z"/></svg>