<svg xmlns="http://www.w3.org/2000/svg" width="24" height="24" viewBox="0 0 24 24"><path fill="currentColor" stroke="#00000000" d="M14.42 4.13c1-1 2.63-1 3.63 0l1.72 1.72c1 1 1 2.63 0 3.64l-9.93 9.93a3.79 3.79 0 1 1-5.36-5.36Zm2.75.88a1.3 1.3 0 0 0-1.87 0l-6.44 6.44 1.12 1.12-1.33 1.33L10 15.26l-1.37 1.37-1.36-1.36-1.32 1.31 1.36 1.36-1.13 1.14c.68.29 1.46.26 2.12-.07L7.3 18l1.36-1.37 1.1 1.1 1.31-1.32-1.1-1.1 1.37-1.36 1.1 1.1 6.44-6.45c.48-.48.51-1.24.1-1.76l-.1-.1ZM4.9 15.6a2.6 2.6 0 0 0-.08 2.13l1.1-1.1Zm2.6-2.77-1.33 1.32 1.12 1.1 1.31-1.31z"/></svg>