<svg xmlns="http://www.w3.org/2000/svg" width="24" height="24" viewBox="0 0 24 24"><path fill="currentColor" fill-rule="evenodd" d="m18.35 10.34-5.33 5.33-5.48-5.48 5.33-5.33a1.25 1.25 0 0 1 1.77 0l3.71 3.72a1.24 1.24 0 0 1 0 1.76m-7.11 7.12c-1.61 1.6-4.15 1.69-5.66.18a4 4 0 0 1 .18-5.66l.05-.06.67-.67 5.48 5.48-.67.68zm8.98-8c0-.73-.29-1.43-.8-1.94L15.7 3.8a2.75 2.75 0 0 0-3.89 0l-7.06 7.07-.05.05a5.5 5.5 0 0 0-.18 7.78 5.2 5.2 0 0 0 3.73 1.52c1.45 0 2.92-.57 4.05-1.7l.05-.06 1.2-1.2 5.86-5.86c.52-.51.8-1.2.8-1.94" clip-path="url(#a)"/><clipPath id="a"><path d="M3 3h17.22v17.22H3z"/></clipPath></svg>