<svg xmlns="http://www.w3.org/2000/svg" width="24" height="24" viewBox="0 0 24 24"><path fill="currentColor" stroke="#00000000" d="M6.33 14.44c.13-.38.49-.94.87-1.34l3.7 3.7c-.4.38-.96.74-1.34.87l-2.92.97-1.28-1.28zM15.5 4.8c.5-.5 1.35-.42 1.66-.12l2.17 2.17c.3.3.39 1.15-.12 1.66l-7.24 7.25-3.72-3.72zM3.93 21.07a1 1 0 0 0 .31-.05l5.8-1.93a6 6 0 0 0 1.92-1.23l.1-.09 8.22-8.21c1.01-1.02 1.07-2.82.1-3.78l-2.16-2.17c-.96-.96-2.76-.9-3.78.12l-8.2 8.2-.1.1c-.47.5-1 1.25-1.23 1.94l-1.93 5.79a1 1 0 0 0 .24 1.02q.3.3.7.3Z"/></svg>