<svg xmlns="http://www.w3.org/2000/svg" width="24" height="24" viewBox="0 0 24 24"><path fill="currentColor" stroke="#00000000" d="M16.77 3.95a2.7 2.7 0 0 1 3.15 2.67v4.75h1.81a.62.62 0 0 1 .1 1.25h-1.9v4.76a2.7 2.7 0 0 1-3.14 2.68l-.16-.04L6.36 18a2.94 2.94 0 0 1-2.28-2.87v-2.5H2.27a.63.63 0 0 1-.1-1.25h1.9V8.86c0-1.32.88-2.46 2.14-2.83l.17-.05Zm1.9 8.67H5.33v2.51c0 .74.48 1.39 1.16 1.61l.13.04L16.9 18.8c.91.21 1.78-.48 1.78-1.42zm0-6c0-.94-.87-1.63-1.8-1.42L6.64 7.22a1.7 1.7 0 0 0-1.31 1.65v2.5h13.34Z"/></svg>