<svg xmlns="http://www.w3.org/2000/svg" width="24" height="24" viewBox="0 0 24 24"><path fill="currentColor" stroke="#00000000" d="M12.02 2.37c.31 0 .57.24.62.54v1.72h2.88c1.29 0 2.4.85 2.77 2.08l.04.17 2 9.68a2.66 2.66 0 0 1-2.62 3.08h-5.07v1.63a.62.62 0 0 1-1.24.1v-1.73H6.32a2.65 2.65 0 0 1-2.62-3.07l.03-.16L5.7 6.87a2.9 2.9 0 0 1 2.8-2.24h2.88V3c0-.35.28-.63.63-.63Zm-.63 3.51H8.52c-.76 0-1.42.53-1.59 1.26l-1.97 9.53a1.4 1.4 0 0 0 1.37 1.72h5.06zm4.13 0h-2.88v12.51h5.07c.86 0 1.5-.76 1.39-1.6l-.03-.13-1.96-9.51a1.6 1.6 0 0 0-1.59-1.27Z"/></svg>