<svg xmlns="http://www.w3.org/2000/svg" width="24" height="24" viewBox="0 0 24 24"><path fill="currentColor" stroke="#00000000" d="M12 10.37c1.1-.01 2 1.26 2.48 1.86.82 1.06 2.24 2.1 3.01 3.04.62.75.56 2.11-.05 2.92a2.8 2.8 0 0 1-2.62 1.02 20 20 0 0 0-5.65 0 2.8 2.8 0 0 1-2.62-1.02c-.6-.8-.66-2.16-.05-2.92.81-1.03 2.41-2.2 3.02-3.04.44-.61 1.38-1.87 2.48-1.86ZM5.02 8.96c1.15-.19 1.77.67 1.96 1.82s-.14 2.15-1.28 2.34a2.1 2.1 0 1 1-.68-4.16Zm12 1.82c.19-1.15.8-2 1.96-1.82a2.1 2.1 0 1 1-.67 4.16c-1.15-.19-1.47-1.2-1.29-2.34ZM7.32 6.7c.23-1.29 1.21-2.13 2.5-1.9 1.28.24 1.61 1.37 1.38 2.66-.24 1.28-.96 1.97-2.24 1.74-1.28-.24-1.88-1.22-1.64-2.5Zm6.86-1.9c1.29-.23 2.27.62 2.5 1.9.24 1.28-.36 2.26-1.64 2.5-1.28.23-2-.46-2.24-1.74-.23-1.28.1-2.42 1.38-2.66Z"/></svg>