<svg xmlns="http://www.w3.org/2000/svg" width="24" height="24" viewBox="0 0 24 24"><path fill="#00000000" fill-rule="evenodd" stroke="currentColor" stroke-linecap="round" stroke-linejoin="round" stroke-width="1.5" d="M15.52 6.58a3.58 3.58 0 1 1-7.16 0 3.58 3.58 0 0 1 7.16 0m1 7.34a8.6 8.6 0 0 0-4.58-1.3c-4.1 0-7.44 2.8-7.44 5.8v.81c0 .61.55 1.1 1.22 1.1h12.44q.26 0 .47-.08m1.82-3.21H20c-.42 0-.63-.13-.79-.3-.13-.13-.21-.4-.23-.46a7.6 7.6 0 0 1 .03-4.1c0-.02.07-.22.2-.36.15-.17.37-.3.79-.29h.46c.42 0 .63-.12.79-.29.15-.17.26-.4.26-.86V9.22c0-.46-.1-.7-.26-.86s-.37-.3-.79-.3h0c-1.32 0-2.1.49-2.72 1.17-.38.42-.7.95-.88 1.74 0 0-.68 2.8-.06 6.31a4.5 4.5 0 0 0 .94 2.06c.62.68 1.4 1.16 2.72 1.16h0c.42 0 .63-.12.79-.29.15-.17.26-.4.26-.86v-1.16c0-.46-.1-.7-.26-.86s-.37-.3-.79-.3"/></svg>