<svg xmlns="http://www.w3.org/2000/svg" width="24" height="24" viewBox="0 0 24 24"><path fill="#00000000" fill-rule="evenodd" stroke="currentColor" stroke-linecap="round" stroke-linejoin="round" stroke-width="1.5" d="m15.61 14.86-.52.52c-.47.47-.84.57-1.2.56-.3 0-.7-.21-.79-.27a12 12 0 0 1-4.56-4.62 2 2 0 0 1-.18-.63c-.02-.37.09-.74.56-1.21l.52-.52c.46-.47.57-.84.55-1.2-.01-.37-.16-.75-.67-1.27l-1.3-1.3c-.51-.5-.9-.65-1.26-.67s-.74.1-1.2.56h0-.01a5.4 5.4 0 0 0-1.74 4.35c.04.9.28 1.86.96 2.94 0 0 2.39 3.9 7 7.15l.17.1c.08.07.25.18.25.18 1.09.68 2.04.92 2.95.96a5.4 5.4 0 0 0 4.35-1.74h0c.47-.47.58-.84.56-1.2-.02-.37-.16-.76-.68-1.27l-1.3-1.3c-.5-.51-.9-.66-1.26-.67s-.73.09-1.2.55"/></svg>