<svg xmlns="http://www.w3.org/2000/svg" width="24" height="24" viewBox="0 0 24 24"><path fill="currentColor" stroke="#00000000" d="M7.47 10.63c.7-.16 1.74-.38 2.42-.46l.22-.03 5.02-4.22.01-.01 2.94 2.93-.1.1-4.14 4.94-.03.2a49 49 0 0 1-.47 2.46zM4.25 20.5q.3 0 .53-.22l5.1-5.1 2.88 2.9.03.04q.35.3.8.3c.28 0 .57-.12.79-.33.15-.16.31-.32.87-3.56l3.87-4.62v-.02l.1.1a.75.75 0 0 0 1.06 0c.3-.3.3-.77 0-1.07l-5.2-5.2A.75.75 0 0 0 14 4.78l.07.06-4.6 3.88c-.78.12-3.2.53-3.55.89a1.16 1.16 0 0 0-.02 1.58l2.91 2.93-5.1 5.1a.75.75 0 0 0 .53 1.28Z"/></svg>