<svg xmlns="http://www.w3.org/2000/svg" width="24" height="24" viewBox="0 0 24 24"><path fill="currentColor" fill-rule="evenodd" stroke="#00000000" d="M6.04 16.27v.03c-.02.24-.04.64-.04.88v1.57c0 .41.34.75.75.75h10.1c.42 0 .75-.34.75-.75V9.97a.75.75 0 0 0-.75-.75h-2.03c-.32.01-.8.02-1.35-.29a1.5 1.5 0 0 1-.73-.96c-.08-.32-.08-.83.34-1.45q.16-.24.33-.43c.23-.29.3-.37.3-.6q0-.67-.48-1.08a2.2 2.2 0 0 0-1.79-.36 1.5 1.5 0 0 0-1.24 1.39c-.01.3.07.4.32.72l.2.25c.45.6.43 1.12.34 1.45-.22.76-.99 1.08-1.14 1.14a4 4 0 0 1-1.23.22H6.75a.75.75 0 0 0-.75.75v1.46l.06.88q.12-.02.5-.29l.19-.15c.34-.28.77-.62 1.54-.62.81 0 1.54.32 2.06.91.6.69.86 1.67.72 2.7a2.85 2.85 0 0 1-2.74 2.53 2.4 2.4 0 0 1-1.61-.66l-.24-.19q-.3-.22-.44-.27M16.85 21H6.75a2.25 2.25 0 0 1-2.25-2.25v-1.57c0-.27.02-.73.04-1.02.04-.44.29-1.05.86-1.3q.84-.4 1.99.49l.3.24c.29.25.32.3.62.3.63 0 1.17-.54 1.27-1.23a2 2 0 0 0-.36-1.5q-.36-.41-.93-.41c-.23 0-.3.05-.6.29l-.23.18q-1.18.89-2.04.5c-.79-.36-.87-1.3-.88-1.41l-.04-.88V9.97a2.25 2.25 0 0 1 2.25-2.25h1.94c.18 0 .53-.06.7-.12q.14-.07.22-.15l-.09-.14-.17-.21c-.32-.4-.68-.84-.65-1.7a3 3 0 0 1 2.47-2.83c1.15-.2 2.25.04 3.02.69a2.8 2.8 0 0 1 1.02 2.22c0 .78-.36 1.21-.64 1.56q-.13.14-.25.32c-.12.19-.12.28-.12.28.2.1.34.1.55.09h2.1c1.24 0 2.25 1 2.25 2.24v8.78A2.25 2.25 0 0 1 16.85 21" clip-path="url(#a)"/><clipPath id="a"><path d="M4.5 2.5h14.6V21H4.5z"/></clipPath></svg>