<svg xmlns="http://www.w3.org/2000/svg" width="24" height="24" viewBox="0 0 24 24"><path fill="currentColor" stroke="#00000000" d="M15.53 14.32v-.84a2.48 2.48 0 0 1 3.05-2.4v-.8a2.2 2.2 0 0 0-2.2-2.2h-2.26c-.28.01-.64.04-1.07-.2-.42-.25-.64-.76-.15-1.48.38-.57.83-.83.83-1.6 0-1.75-1.64-2.72-3.47-2.39A2.5 2.5 0 0 0 8.2 4.73c-.03.77.33 1.05.74 1.58.82 1.08-.51 1.58-.51 1.58-.29.1-.77.2-1.07.2H5.23a2.2 2.2 0 0 0-2.2 2.2v1.04c0 .2.01.61.03.91 0 0 .13 1.74 1.9.4.48-.36.74-.68 1.41-.68 1.58 0 2.47 1.41 2.25 3.03a2.3 2.3 0 0 1-2.21 2.07c-.75.01-1.01-.37-1.53-.77-1.68-1.27-1.8.31-1.8.31-.03.3-.06.77-.06 1.05v1.73c0 1.2 1 2.2 2.21 2.2h7.67a2.45 2.45 0 0 1 .98-3.05l-.02-.03a2.47 2.47 0 0 1 1.67-4.18Z"/><path fill="currentColor" stroke="#00000000" d="M20.82 19.8h-2.36l.08-.04q.2-.09.35-.24l2.08-2.16a.8.8 0 0 0-.03-1.17.83.83 0 0 0-1.17.03l-.93.96v-3.7q-.01-.35-.26-.6a.83.83 0 0 0-1.4.6v3.71l-.93-.97a.83.83 0 0 0-1.17-.03.8.8 0 0 0-.03 1.17l2.08 2.15q.19.2.43.29h-2.37a.83.83 0 1 0 0 1.65h5.63a.83.83 0 1 0 0-1.65Z"/></svg>