<svg xmlns="http://www.w3.org/2000/svg" width="24" height="24" viewBox="0 0 24 24"><path fill="#00000000" fill-rule="evenodd" stroke="currentColor" stroke-linecap="round" stroke-linejoin="round" stroke-width="1.5" d="m7.95 3.84.34 17.11M2.89 8.91h10.14M4.38 12.5l7.17-7.18m0 7.18L4.38 5.32"/><path fill="currentColor" stroke="#00000000" d="M14.76 6.23a.75.75 0 1 0 1.47.3.75.75 0 0 0-1.47-.3m3.91-2.28a.75.75 0 1 0-1.48-.3.75.75 0 0 0 1.48.3m0 5.1a.75.75 0 1 0-1.48-.29.75.75 0 0 0 1.48.3m-3.91 2.28a.75.75 0 1 0 1.47.3.75.75 0 0 0-1.47-.3m6.34-4.81a.75.75 0 1 0-1.47-.3.75.75 0 0 0 1.47.3m-2.43 7.9a.75.75 0 1 0-1.48-.29.75.75 0 0 0 1.48.3"/><path fill="currentColor" fill-rule="evenodd" stroke="#00000000" d="M21.1 11.64a.75.75 0 1 0-1.47-.3.75.75 0 0 0 1.47.3" clip-path="url(#a)"/><clipPath id="a"><path d="M19.62 10.74h1.5v1.5h-1.5z"/></clipPath></svg>