<svg xmlns="http://www.w3.org/2000/svg" width="24" height="24" viewBox="0 0 24 24"><path fill="currentColor" stroke="#00000000" d="M13.2 14.7H7.7a1 1 0 0 1-1-1V8.88a1 1 0 0 1 1-1h5.5a1 1 0 0 1 1 1v4.84a1 1 0 0 1-1 1"/><path fill="currentColor" stroke="#00000000" d="M17.75 21h-11a3.25 3.25 0 0 1-3.25-3.25v-11c0-1.8 1.46-3.25 3.25-3.25h11c1.8 0 3.25 1.45 3.25 3.25v11c0 1.8-1.46 3.25-3.25 3.25Zm0-1.5c.97 0 1.75-.78 1.75-1.75v-11c0-.97-.78-1.75-1.75-1.75h-11C5.78 5 5 5.78 5 6.75v11c0 .97.78 1.75 1.75 1.75z"/></svg>