<svg xmlns="http://www.w3.org/2000/svg" width="32" height="32" viewBox="0 0 32 32"><path fill="currentColor" fill-rule="evenodd" stroke="#00000000" d="M16 3c1.9 0 3.43 1.49 3.43 3.33A3.4 3.4 0 0 1 16 9.66a3.4 3.4 0 0 1-3.43-3.33A3.4 3.4 0 0 1 16 3m0 7.92c-5.52 0-10 4.26-10 9.53 0 3.47 1.94 6.5 4.85 8.17l.04.03q.61.34 1.37.35c1.54 0 2.78-1.2 2.78-2.7 0-.83-.38-1.56-.98-2.06l-2.84-2.5a1.4 1.4 0 0 1-.1-2l.04-.04a1.5 1.5 0 0 1 2.05-.1l2.76 2.44 4-4.25a1.5 1.5 0 0 1 2.08-.1c.61.54.65 1.45.1 2.03l-4.38 4.67c-.5.5-.8 1.17-.8 1.91 0 1.5 1.24 2.7 2.77 2.7q.76-.01 1.36-.35h.02l.11-.07A9.4 9.4 0 0 0 26 20.45c0-5.27-4.48-9.53-10-9.53"/></svg>