<svg xmlns="http://www.w3.org/2000/svg" width="24" height="24" viewBox="0 0 24 24"><path fill="#00000000" fill-rule="evenodd" stroke="currentColor" stroke-linecap="round" stroke-linejoin="round" stroke-width="1.5" d="M8.2 20H6.5A2.5 2.5 0 0 1 4 17.5v-11A2.5 2.5 0 0 1 6.5 4h11A2.5 2.5 0 0 1 20 6.5v3.01m-.6 2.3h-.13c-.6 0-1.1.7-1.1 1.36v-.47c0-.66-.48-1.2-1.08-1.2h-.12c-.6 0-1.1.54-1.1 1.2v-.22c0-.66-.49-1.2-1.09-1.2h-.12c-.6 0-1.09.54-1.09 1.2V8.27c0-.66-.5-1.2-1.1-1.2h-.11c-.6 0-1.1.54-1.1 1.2v7.03l-.5-.58c-.43-.5-1.14-.59-1.59-.2l-.09.07c-.44.39-.45 1.1-.02 1.6l1.85 2.14s1.92 2.56 4.85 2.5h.22c2.47 0 4.5-2.23 4.5-4.95V13c0-.66-.49-1.2-1.09-1.2"/></svg>