<svg xmlns="http://www.w3.org/2000/svg" width="24" height="24" viewBox="0 0 24 24"><path fill="currentColor" fill-rule="evenodd" stroke="#00000000" d="M6.95 20.75h10.1a2 2 0 0 0 2-2v-8.28a2 2 0 0 0-2-2H15c-.24 0-.57.03-.96-.2-.38-.21-.58-.67-.14-1.33.35-.52.75-.76.75-1.46 0-1.6-1.48-2.47-3.14-2.17a2.24 2.24 0 0 0-1.86 2.1c-.03.71.3.96.67 1.45.74.98-.47 1.44-.47 1.44-.25.1-.69.17-.96.17H6.95a2 2 0 0 0-2 2v.96l.03.83s.12 1.58 1.73.36c.43-.33.66-.62 1.27-.62 1.43 0 2.24 1.29 2.04 2.76a2.1 2.1 0 0 1-2 1.88c-.68.01-.92-.34-1.39-.7-1.52-1.16-1.64.28-1.64.28-.02.28-.04.7-.04.96v1.57c0 1.1.9 2 2 2"/></svg>