<svg xmlns="http://www.w3.org/2000/svg" width="24" height="24" viewBox="0 0 24 24"><path fill="currentColor" d="M2.72 16.1c.46 0 .84.37.84.84v1.78c0 .78.63 1.4 1.4 1.4h1.48a.84.84 0 1 1 0 1.7H4.97a3.1 3.1 0 0 1-3.1-3.1v-1.78c0-.47.38-.85.85-.85m18.56.27c.47 0 .84.38.84.85v1.5a3.1 3.1 0 0 1-3.09 3.1h-1.47a.84.84 0 1 1 0-1.7h1.47c.78 0 1.4-.62 1.4-1.4v-1.5c0-.47.39-.84.85-.84M9.16 13.9c.7 0 1.26.56 1.26 1.26v1.92c0 .7-.57 1.26-1.26 1.26H7.24c-.7 0-1.26-.57-1.26-1.26v-1.91c0-.7.56-1.27 1.26-1.27zm5.25-2.43v1.5h3.07v1.52h-3.07V16h3.07v1.51H14.4V16h-1.5v1.5h-1.54V16h1.5v-1.52h-1.52v-1.51h1.53v-1.51zM9 15.29H7.4v1.64h1.63zm5.39-2.32h-1.52v1.51h1.52zm-6.53-1.51v1.5H6.33v-1.5zm3.46-.04v1.51H8.91v-1.5zm1.55-2.41v2.41h-1.5V9.01zm4.14-2.98c.7 0 1.26.56 1.26 1.26v1.92c0 .7-.57 1.26-1.26 1.26H15.1c-.7 0-1.27-.57-1.27-1.27V7.3c0-.7.57-1.27 1.27-1.27zm-7.86 0c.7 0 1.26.56 1.26 1.26v1.92c0 .7-.57 1.26-1.26 1.26H7.24c-.7 0-1.26-.57-1.26-1.27V7.3c0-.7.56-1.27 1.26-1.27zm7.72 1.4h-1.63v1.63h1.63zm-7.86 0H7.39v1.63h1.63zm3.86-1.15v1.5h-1.55v-1.5zm-6.44-4.1a.84.84 0 1 1 0 1.7H4.97c-.78 0-1.4.62-1.4 1.4v1.5a.84.84 0 0 1-1.7 0v-1.5a3.1 3.1 0 0 1 3.1-3.1zm12.6 0a3.1 3.1 0 0 1 3.08 3.1v1.5a.84.84 0 0 1-1.68 0v-1.5c0-.78-.63-1.4-1.4-1.4h-1.48a.84.84 0 1 1 0-1.7z"/></svg>