<svg xmlns="http://www.w3.org/2000/svg" width="24" height="24" viewBox="0 0 24 24"><path fill="currentColor" fill-rule="evenodd" stroke="#00000000" d="M8.23 14.52c.68 0 1.25.57 1.25 1.25v3.13c0 .69-.57 1.25-1.25 1.25H5.1c-.69 0-1.25-.56-1.25-1.25v-3.13c0-.68.56-1.25 1.25-1.25Zm11.57 3.75v1.76h-3.45v-1.76zm-5.22 0v1.76h-1.76v-1.76zm-6.6-2.25H5.35v2.63h2.63zm4.84-3.04v1.76h1.76v1.76h-1.76v1.77h-1.77v-5.3zm3.53 3.52v1.77h-1.77V16.5zm-1.77-5.28v1.76h1.77V11.2h1.76v1.77h-1.76v1.76h3.45v1.76h-3.45v-1.76h-1.77v-1.76h-1.76V11.2zm-8.75 0v1.76H4.06V11.2zm5.22 0v1.76H7.61V11.2zm0-3.77h1.77v3.77h-1.77zm7.85-3.6c.69 0 1.25.56 1.25 1.25v3.13c0 .68-.56 1.24-1.25 1.24h-3.12c-.7 0-1.25-.56-1.25-1.25V5.1c0-.69.56-1.25 1.25-1.25Zm-10.67 0c.68 0 1.25.56 1.25 1.25v3.13c0 .68-.57 1.24-1.25 1.24H5.1c-.69 0-1.25-.56-1.25-1.25V5.1c0-.69.56-1.25 1.25-1.25Zm10.42 1.5h-2.62v2.63h2.62zm-10.68 0H5.35v2.63h2.62zm3.08-1.32h1.77V5.8h-1.77z"/></svg>