<svg xmlns="http://www.w3.org/2000/svg" width="24" height="24" viewBox="0 0 24 24"><path fill="currentColor" stroke="#00000000" d="M17.08 2.38c2.3 0 4.35 1.86 4.35 4.1a.62.62 0 1 1-1.25 0c0-1.47-1.36-2.76-2.92-2.85H6.92c-1.63 0-3.1 1.33-3.1 2.84a.62.62 0 1 1-1.25 0c0-2.16 1.93-3.98 4.14-4.09zM20.8 16.8c.35 0 .63.29.63.63 0 2.17-1.93 3.98-4.14 4.1H6.92c-2.3 0-4.35-1.87-4.35-4.1a.63.63 0 0 1 1.25 0c0 1.46 1.36 2.75 2.92 2.84h10.34c1.63 0 3.1-1.32 3.1-2.84 0-.34.28-.62.62-.62Zm-7.1-6.47q.97 0 1.54.62.56.63.56 1.73v.6h-2.87c.05.21.2.46.36.6.18.16.35.17.63.17q.65 0 1-.46l.08-.08.73.8-.05.06q-.29.4-.77.63a2.5 2.5 0 0 1-1.07.23q-1.04 0-1.7-.64-.65-.65-.65-1.7v-.12q0-.7.27-1.26.28-.57.79-.87.5-.3 1.15-.3Zm4.78 0q.97 0 1.54.62.56.63.56 1.73v.6H17.7a1 1 0 0 0 .3.53q.26.24.69.24.65 0 1-.46l.08-.09.73.8-.05.07q-.29.4-.77.63a2.5 2.5 0 0 1-1.07.23q-1.05 0-1.7-.64-.65-.65-.65-1.7v-.12q0-.7.27-1.26.28-.57.79-.87.5-.3 1.15-.3ZM7.88 8.85v1.22h-2.7v1.37h2.4v1.22h-2.4v2.48H3.72V8.85zm2.74 1.48q.21 0 .4.06l.08.04-.02 1.34-.12-.02-.42-.03q-.62 0-.8.36v3.06h-1.4v-4.72h1.34v.1l.01.25q.37-.44.93-.44Zm3.08 1.18a.7.7 0 0 0-.51.21q-.18.19-.24.53h1.46q0-.36-.19-.55-.19-.18-.52-.19Zm4.78 0a.7.7 0 0 0-.51.21q-.18.19-.24.53h1.46a.8.8 0 0 0-.19-.55q-.18-.18-.52-.19Z"/></svg>