<svg xmlns="http://www.w3.org/2000/svg" width="24" height="24" viewBox="0 0 24 24"><path fill="currentColor" stroke="#00000000" d="M6.95 8.86v6.4H5.72v-4.92l-1.4.48-.12.06V9.79l.06-.03 2.45-.9zm10.85-.09q.97 0 1.56.74a3 3 0 0 1 .57 1.93v.29q0 1.69-.79 2.6-.79.93-2.34.94h-.23v-1.05h.25q.87 0 1.33-.41.44-.38.55-.98-.48.39-1.1.39-.85 0-1.38-.6-.5-.58-.5-1.57 0-.63.25-1.15a2 2 0 0 1 1.83-1.13ZM14 13.2q.36 0 .5.2.2.18.19.48 0 .31-.18.47a.7.7 0 0 1-.51.18.7.7 0 0 1-.5-.18.6.6 0 0 1-.19-.49q0-.3.2-.49a1 1 0 0 1 .49-.17Zm3.86-3.4a.8.8 0 0 0-.64.33q-.24.32-.25.88 0 .54.25.88.24.32.64.32a1 1 0 0 0 .54-.16q.24-.14.36-.41v-.42q0-.67-.27-1.05-.26-.37-.63-.37ZM14 9.6q.36 0 .5.2.2.18.19.49 0 .31-.18.46a.7.7 0 0 1-.51.18.7.7 0 0 1-.5-.18.6.6 0 0 1-.19-.48q0-.3.2-.5A1 1 0 0 1 14 9.6Z"/><path fill="currentColor" stroke="#00000000" d="M22 17c0 2.3-1.86 4.35-4.1 4.35a.62.62 0 1 1 0-1.25c1.47 0 2.76-1.36 2.85-2.92V6.84c0-1.63-1.33-3.09-2.84-3.09a.62.62 0 1 1 0-1.25c2.16 0 3.98 1.92 4.09 4.14zM6.92 20.73c0 .34-.28.62-.62.62-2.17 0-3.98-1.92-4.1-4.13V6.84c0-2.3 1.87-4.34 4.1-4.34a.62.62 0 1 1 0 1.25c-1.46 0-2.75 1.36-2.84 2.92v10.34c0 1.63 1.32 3.1 2.84 3.1.34 0 .62.27.62.62Zm4.6-11.85v1h-.23q-.82 0-1.33.46a1.7 1.7 0 0 0-.53.97q.46-.36 1.12-.36.88 0 1.36.63.5.64.5 1.56a2.2 2.2 0 0 1-.57 1.6 2 2 0 0 1-1.53.62q-.97 0-1.58-.71a2.7 2.7 0 0 1-.6-1.86v-.34q0-1.68.82-2.62t2.36-.95zM10.3 12q-.3 0-.58.18-.26.18-.37.42v.3q0 .68.27 1.03.27.38.66.38.41 0 .64-.31.24-.33.24-.86t-.24-.85q-.2-.3-.62-.29Z"/></svg>