<svg xmlns="http://www.w3.org/2000/svg" width="24" height="24" viewBox="0 0 24 24"><path fill="currentColor" stroke="#00000000" d="M5.58 7Q7 7 7.81 7.7q.8.73.8 1.99 0 .66-.4 1.23-.3.42-.75.69.52.24.9.72.44.52.42 1.39 0 1.27-.88 2.05-.86.75-2.28.76-1.38 0-2.23-.73a2.5 2.5 0 0 1-.87-1.95v-.15H4.3v.15q0 .55.37.85.34.33.98.34.63 0 1.01-.35.37-.32.37-.97t-.37-.97q-.37-.34-1.14-.34H4.36v-1.5h1.07q.62 0 1.02-.32.35-.28.35-.9 0-.59-.3-.88-.31-.3-.92-.31-.54 0-.88.31-.33.3-.34.82v.14H2.58v-.14q0-.75.4-1.36.39-.57 1.08-.93Q4.73 7 5.58 7Zm14.98.11v5.81h1.1v1.5h-1.1v2h-1.79v-2h-3.9v-.14l-.01-1 4-6.17zm-8.8 6.15q.53 0 .72.3.28.26.27.7c0 .28-.1.53-.27.67a1 1 0 0 1-.73.26 1 1 0 0 1-.73-.26 1 1 0 0 1-.26-.7q0-.44.27-.71.31-.25.72-.26Zm6.98-3.44-1.94 3.1h1.94zm-6.99-1.75q.54 0 .73.3.28.26.27.7 0 .44-.27.66a1 1 0 0 1-.73.26 1 1 0 0 1-.73-.26 1 1 0 0 1-.26-.7q0-.44.27-.7.31-.26.72-.26Z"/></svg>