<svg xmlns="http://www.w3.org/2000/svg" width="24" height="24" viewBox="0 0 24 24"><path fill="currentColor" stroke="#00000000" d="M17.08 2.38c2.3 0 4.35 1.86 4.35 4.1a.62.62 0 1 1-1.25 0c0-1.47-1.36-2.76-2.92-2.85H6.92c-1.63 0-3.1 1.33-3.1 2.84a.62.62 0 1 1-1.25 0c0-2.16 1.93-3.98 4.14-4.09zM20.8 16.8c.35 0 .63.29.63.63 0 2.17-1.93 3.98-4.14 4.1H6.92c-2.3 0-4.35-1.87-4.35-4.1a.63.63 0 0 1 1.25 0c0 1.46 1.36 2.75 2.92 2.84h10.34c1.63 0 3.1-1.32 3.1-2.84 0-.34.28-.62.62-.62Z"/><path fill="currentColor" stroke="#00000000" d="M10.15 7.51c.6 0 1.1.46 1.17 1.06v2.62a.63.63 0 0 1-1.24.1V9.4a3.29 3.29 0 0 0 2.08 5.84 3.3 3.3 0 0 0 .8-6.48.63.63 0 0 1 .31-1.21 4.55 4.55 0 1 1-4.34 1.2h-1.3a.6.6 0 0 1-.61-.53v-.1c0-.3.22-.57.52-.61z"/></svg>