<svg xmlns="http://www.w3.org/2000/svg" width="24" height="24" viewBox="0 0 24 24"><path fill="currentColor" stroke="#00000000" d="M22 17c0 2.3-1.86 4.35-4.1 4.35a.62.62 0 1 1 0-1.25c1.46 0 2.75-1.36 2.85-2.92V6.84c0-1.63-1.33-3.09-2.85-3.09a.62.62 0 1 1 0-1.25c2.17 0 3.99 1.92 4.1 4.14zM6.92 20.73c0 .34-.28.62-.62.62-2.17 0-3.99-1.92-4.1-4.13V6.84c0-2.3 1.86-4.34 4.1-4.34a.62.62 0 1 1 0 1.25c-1.46 0-2.75 1.36-2.84 2.92l-.01.17v10.17c0 1.63 1.33 3.1 2.85 3.1.34 0 .62.27.62.62Z"/><path fill="currentColor" stroke="#00000000" d="M16.66 8.83q.97 0 1.52.48.56.48.56 1.36 0 .46-.28.84-.22.3-.51.48.36.16.62.49.29.35.28.96 0 .87-.6 1.4t-1.57.53q-.95 0-1.53-.5-.6-.53-.6-1.35v-.1h1.23v.1q0 .38.25.59.24.23.67.23t.7-.24q.25-.22.25-.66t-.25-.67q-.27-.24-.79-.24h-.79v-1.02h.73q.43 0 .7-.22.24-.19.24-.62 0-.4-.2-.6-.22-.21-.63-.22a1 1 0 0 0-.61.22.7.7 0 0 0-.23.56v.1H14.6v-.1q0-.52.28-.93.26-.4.73-.65.46-.22 1.05-.22Zm-7.73.07v3.99h.77v1.03h-.77v1.37H7.71v-1.37H5.03v-.79L7.76 8.9zm3.25 4.22q.36 0 .5.2.19.19.18.48 0 .31-.18.46a.7.7 0 0 1-.5.18.7.7 0 0 1-.5-.18.6.6 0 0 1-.18-.48q-.01-.3.19-.48a1 1 0 0 1 .5-.18Zm-4.5-2.36-1.33 2.13H7.7zm4.5-1.2q.36 0 .5.2.19.18.18.48 0 .3-.18.46a.7.7 0 0 1-.5.18.7.7 0 0 1-.5-.18.6.6 0 0 1-.18-.48q-.01-.3.19-.49a1 1 0 0 1 .5-.17Z"/></svg>