<svg xmlns="http://www.w3.org/2000/svg" width="24" height="24" viewBox="0 0 24 24"><path fill="currentColor" stroke="#00000000" d="M17.08 2.38c2.3 0 4.35 1.86 4.35 4.1a.62.62 0 1 1-1.25 0c0-1.47-1.36-2.76-2.92-2.85H6.92c-1.63 0-3.1 1.33-3.1 2.84a.62.62 0 1 1-1.25 0c0-2.16 1.93-3.98 4.14-4.09zM20.8 16.8c.35 0 .63.29.63.63 0 2.17-1.93 3.98-4.14 4.1H6.92c-2.3 0-4.35-1.87-4.35-4.1a.63.63 0 0 1 1.25 0c0 1.46 1.36 2.75 2.92 2.84h10.34c1.63 0 3.1-1.32 3.1-2.84 0-.34.28-.62.62-.62Zm-6.98-6.34v4.66h-1.2v-.24q-.46.35-1.1.35-.76 0-1.2-.47-.4-.46-.4-1.3v-2.98h1.27v2.96q-.01.7.53.68.64-.01.82-.37v-3.3zM9.2 8.95v1.12H6.49v1.46h2.36v1.11H6.49v2.48H5.17V8.95zm9.62 0v6.17h-1.27V8.95zm-2.52 0v6.17h-1.27V8.95z"/></svg>