<svg xmlns="http://www.w3.org/2000/svg" width="24" height="24" viewBox="0 0 24 24"><path fill="currentColor" stroke="#00000000" d="M21.82 8.15v1.37h-.3q-1.08 0-1.75.63-.54.46-.7 1.32.6-.5 1.47-.5 1.15 0 1.8.87t.66 2.13q0 1.35-.76 2.18-.77.85-2.01.85-1.28 0-2.09-.97a3.8 3.8 0 0 1-.77-2.53v-.48q0-2.28 1.06-3.57 1.08-1.3 3.12-1.3zm-6.02-.03v8.76h-1.62v-6.74l-1.84.66-.17.08V9.4l.09-.05 3.23-1.23zM3.74 8Q5.03 8 5.8 9q.75.97.75 2.65v.39A5.5 5.5 0 0 1 5.5 15.6q-1.06 1.27-3.09 1.27h-.3v-1.43h.33q1.14 0 1.75-.57.58-.5.73-1.33-.63.53-1.44.53-1.12 0-1.83-.82A3.3 3.3 0 0 1 1 11.11q0-.85.33-1.57.3-.7.96-1.13Q2.92 8 3.74 8Zm5.52 6.05q.49 0 .67.27a1 1 0 0 1 .24.67q0 .42-.24.63a1 1 0 0 1-.67.25 1 1 0 0 1-.66-.25 1 1 0 0 1-.24-.66 1 1 0 0 1 .25-.68q.27-.22.65-.23Zm10.97-1.64q-.41 0-.76.25a1.5 1.5 0 0 0-.5.57v.42q0 .92.36 1.4.36.52.87.52.55 0 .84-.42c.22-.32.32-.68.32-1.18s-.1-.86-.32-1.17c-.2-.27-.43-.39-.81-.39Zm-16.43-3c-.33 0-.64.16-.84.44q-.32.45-.32 1.2 0 .76.32 1.2.3.46.84.46c.24 0 .44-.07.71-.23q.33-.2.48-.56v-.57q0-.91-.35-1.44-.34-.5-.84-.5Zm5.46-.28q.49 0 .67.28a1 1 0 0 1 .24.66q0 .42-.24.63a1 1 0 0 1-.67.25 1 1 0 0 1-.66-.25 1 1 0 0 1-.24-.66 1 1 0 0 1 .25-.67q.27-.23.65-.24Z"/></svg>