<svg xmlns="http://www.w3.org/2000/svg" width="24" height="24" viewBox="0 0 24 24"><path fill="currentColor" stroke="#00000000" d="M14.03 9.86q1.26 0 2 .77.73.78.73 2.17v.75h-3.74c.07.27.26.58.46.76.24.2.46.22.82.22q.85 0 1.33-.6l.09-.09.95 1.01-.06.07q-.38.51-1.01.8-.63.28-1.4.28a3 3 0 0 1-2.2-.8 2.8 2.8 0 0 1-.86-2.13v-.15q0-.88.36-1.59a2.6 2.6 0 0 1 1.02-1.09q.67-.38 1.5-.38Zm6.24 0q1.26 0 2 .77.73.78.73 2.17v.75h-3.74q.1.41.4.67.34.3.88.3.85 0 1.33-.58l.1-.1.95 1-.07.08q-.38.5-1.01.8-.63.28-1.4.28a3 3 0 0 1-2.2-.8 2.8 2.8 0 0 1-.86-2.13v-.15q0-.9.36-1.59t1.02-1.09q.66-.38 1.5-.38ZM6.44 8v1.52H2.9v1.73h3.14v1.52H2.9v3.13H1V8zM10 9.86q.3 0 .53.07l.1.05-.03 1.68-.15-.02q-.3-.05-.55-.05-.82.02-1.04.46v3.85H7.02V9.96h1.75v.12l.02.32q.48-.54 1.21-.54Zm4.02 1.48q-.42 0-.67.26-.22.24-.31.66h1.91q-.01-.45-.25-.69t-.68-.23Zm6.24 0q-.42 0-.67.26-.22.24-.31.66h1.91q-.01-.45-.25-.69t-.68-.23Z"/></svg>