<svg xmlns="http://www.w3.org/2000/svg" width="24" height="24" viewBox="0 0 24 24"><path fill="currentColor" stroke="#00000000" d="M10.53 8.15v1.37h-.3q-1.05 0-1.73.63-.52.46-.69 1.32.61-.5 1.46-.5 1.13 0 1.77.87t.66 2.13q0 1.35-.75 2.18-.75.85-2 .85t-2.05-.97a4 4 0 0 1-.77-2.53v-.48a5.5 5.5 0 0 1 1.05-3.57q1.07-1.3 3.08-1.3zm-5.95-.03v8.76h-1.6v-6.74l-1.8.66-.18.08V9.4l.08-.05 3.2-1.23zM19.23 8q1.27 0 2.03 1 .74.97.74 2.65v.39q0 2.31-1.02 3.57-1.04 1.27-3.05 1.27h-.3v-1.43h.33q1.12 0 1.73-.57.57-.5.71-1.33-.61.53-1.42.53-1.12 0-1.8-.82a3.3 3.3 0 0 1-.66-2.15q0-.85.33-1.57.31-.7.95-1.13.62-.41 1.43-.41Zm-4.8 6.05q.47 0 .65.27a1 1 0 0 1 .24.67q0 .42-.24.63a1 1 0 0 1-.66.25 1 1 0 0 1-.66-.25 1 1 0 0 1-.23-.66 1 1 0 0 1 .24-.68q.28-.22.65-.23ZM8.95 12.4q-.4 0-.76.25a1.5 1.5 0 0 0-.48.57v.42q0 .92.35 1.4.36.52.86.52.54 0 .83-.42c.21-.32.31-.68.31-1.18s-.1-.86-.31-1.17a.9.9 0 0 0-.8-.39Zm10.33-3a1 1 0 0 0-.83.44q-.32.45-.32 1.2 0 .76.32 1.2.3.46.83.46c.24 0 .44-.07.7-.23q.33-.2.47-.56v-.57q.01-.91-.34-1.44-.34-.5-.83-.5Zm-4.87-.28q.48 0 .66.28a1 1 0 0 1 .24.66q0 .42-.24.63a1 1 0 0 1-.66.25 1 1 0 0 1-.66-.25 1 1 0 0 1-.23-.66 1 1 0 0 1 .24-.67q.28-.23.65-.24Z"/></svg>