<svg xmlns="http://www.w3.org/2000/svg" width="24" height="24" viewBox="0 0 24 24"><path fill="currentColor" stroke="#00000000" d="M17.08 2.38c2.3 0 4.35 1.86 4.35 4.1a.62.62 0 1 1-1.25 0c0-1.47-1.36-2.76-2.92-2.85H6.92c-1.63 0-3.1 1.33-3.1 2.84a.62.62 0 1 1-1.25 0c0-2.16 1.93-3.98 4.14-4.09zM20.8 16.8c.35 0 .63.29.63.63 0 2.17-1.93 3.98-4.14 4.1H6.92c-2.3 0-4.35-1.87-4.35-4.1a.63.63 0 0 1 1.25 0c0 1.46 1.36 2.75 2.92 2.84h10.34c1.63 0 3.1-1.32 3.1-2.84 0-.34.28-.62.62-.62ZM7.66 8.83q.97 0 1.52.48.56.48.56 1.36 0 .46-.28.84-.22.3-.51.48.36.16.62.49.29.35.28.96 0 .87-.6 1.4t-1.57.53q-.95 0-1.53-.5-.6-.53-.6-1.35v-.1h1.23v.1q0 .38.25.59.24.23.67.23t.7-.24q.25-.22.25-.66t-.25-.67q-.27-.24-.79-.24h-.79v-1.02h.73q.42 0 .7-.22.24-.19.24-.62 0-.4-.2-.6-.22-.21-.63-.22a1 1 0 0 0-.61.22.7.7 0 0 0-.23.56v.1H5.6v-.1q0-.52.28-.93.26-.4.73-.65.46-.22 1.05-.22Zm10.27.07v3.99h.77v1.03h-.77v1.37h-1.22v-1.37h-2.68v-.79l2.74-4.23zm-6.04 4.22q.36 0 .5.2.19.19.18.48 0 .31-.18.46a.7.7 0 0 1-.5.18.7.7 0 0 1-.5-.18.6.6 0 0 1-.18-.48q-.01-.3.19-.48a1 1 0 0 1 .5-.18Zm4.8-2.36-1.34 2.13h1.34zm-4.8-1.2q.36 0 .5.2.19.18.18.48 0 .3-.18.46a.7.7 0 0 1-.5.18.7.7 0 0 1-.5-.18.6.6 0 0 1-.18-.48q-.01-.3.19-.49a1 1 0 0 1 .5-.17Z"/></svg>