<svg xmlns="http://www.w3.org/2000/svg" width="24" height="24" viewBox="0 0 24 24"><path fill="currentColor" stroke="#00000000" d="M8.71 8.77v6.46H7.4v-4.87l-1.51.52V9.7l.1-.04 2.44-.9zm8.75 0v6.46h-1.3v-4.87l-1.52.52V9.7l.1-.04 2.45-.9zm-5.57 4.35q.36 0 .5.2.19.19.18.48 0 .31-.18.46a.7.7 0 0 1-.5.18.7.7 0 0 1-.5-.18.6.6 0 0 1-.18-.48q-.01-.3.19-.48a1 1 0 0 1 .5-.18Zm0-3.56q.36 0 .5.2.19.18.18.48 0 .3-.18.46a.7.7 0 0 1-.5.18.7.7 0 0 1-.5-.18.6.6 0 0 1-.18-.48q-.01-.3.19-.49a1 1 0 0 1 .5-.17Zm5.19-7.18c2.3 0 4.35 1.86 4.35 4.1a.62.62 0 1 1-1.25 0c0-1.47-1.36-2.76-2.92-2.85H6.92c-1.63 0-3.1 1.33-3.1 2.84a.62.62 0 1 1-1.25 0c0-2.16 1.93-3.98 4.14-4.09zM20.8 16.8c.35 0 .63.29.63.63 0 2.17-1.93 3.98-4.14 4.1H6.92c-2.3 0-4.35-1.87-4.35-4.1a.63.63 0 0 1 1.25 0c0 1.46 1.36 2.75 2.92 2.84h10.34c1.63 0 3.1-1.32 3.1-2.84 0-.34.28-.62.62-.62Z"/></svg>