<svg xmlns="http://www.w3.org/2000/svg" width="24" height="24" viewBox="0 0 24 24"><path fill="currentColor" stroke="#00000000" d="M19.66 17.55c0 .41-.34.75-.75.75h-3.66c-1.41 0-2.05.32-2.53.75V6.98l.03-.18c0-.37.77-1.44 2.25-1.44h3.9c.42 0 .76.34.76.75zm-10.9.75H5.08a.75.75 0 0 1-.75-.75V6.11c0-.41.34-.75.75-.75H9c1.33 0 2.09.86 2.22 1.3v12.35c-.47-.41-1.1-.7-2.47-.7ZM18.9 3.86H15c-1.31 0-2.35.57-3 1.28l-.32-.3A4 4 0 0 0 9 3.85H5.1A2.26 2.26 0 0 0 2.84 6.1v11.44A2.25 2.25 0 0 0 5.1 19.8h3.66c1.18 0 1.4.23 1.7.55.16.15.35.35.62.52a1.8 1.8 0 0 0 1.86 0q.4-.28.61-.52c.3-.32.52-.55 1.7-.55h3.67a2.25 2.25 0 0 0 2.25-2.25V6.11a2.25 2.25 0 0 0-2.25-2.25Z"/></svg>