<svg xmlns="http://www.w3.org/2000/svg" width="24" height="24" viewBox="0 0 24 24"><path fill="currentColor" stroke="#00000000" d="M6.6 10.9q-.42-.01-.73-.26t-.43-.65c-.03-.11-.04-.5-.03-.6.04-.89.47-2 1.83-2.67.2-.1.43-.01.52.18s0 .4-.18.51c-.62.38-.76.71-.7 1 .54.12.94.62.94 1.22 0 .7-.55 1.27-1.22 1.27m3.15 0q-.42-.01-.73-.26t-.43-.65c-.03-.11-.04-.5-.03-.6.04-.89.47-2 1.84-2.67.19-.1.42-.01.51.18s0 .4-.18.51c-.62.38-.76.71-.7 1 .54.12.94.62.94 1.22 0 .7-.54 1.27-1.22 1.27m5.7-.31a3.1 3.1 0 0 1-1.85 2.68.4.4 0 0 1-.51-.18c-.1-.2 0-.4.18-.52.61-.37.76-.7.7-.99a1.26 1.26 0 0 1-.94-1.23c0-.7.54-1.27 1.22-1.27q.42.01.73.26.3.27.43.65c.03.12.04.5.03.6m3.15 0c-.04.9-.47 2.01-1.84 2.68a.4.4 0 0 1-.51-.18c-.1-.2 0-.4.18-.52.62-.37.76-.7.7-.99a1.26 1.26 0 0 1-.94-1.23c0-.7.54-1.27 1.22-1.27q.42.01.73.26.31.27.43.65c.03.12.04.5.03.6"/><path fill="#00000000" fill-rule="evenodd" stroke="currentColor" stroke-linecap="round" stroke-linejoin="round" stroke-width="1.5" d="M8.01 16.5q.23.02.25.25v3.23c0 .54.33.68.72.32l4.27-3.68a.5.5 0 0 1 .33-.12h4.17a3 3 0 0 0 3-3v-7a3 3 0 0 0-3-3H6.25a3 3 0 0 0-3 3v7a3 3 0 0 0 3 3z"/></svg>