<svg xmlns="http://www.w3.org/2000/svg" width="24" height="24" viewBox="0 0 24 24"><path fill="currentColor" stroke="#00000000" d="M18.7 10.59c-.05.9-.47 2.01-1.84 2.68-.19.09-.42 0-.52-.18-.09-.2 0-.4.18-.52.62-.37.77-.7.7-.99a1.26 1.26 0 0 1-.93-1.23c0-.7.54-1.27 1.21-1.27q.42 0 .74.27.3.25.43.64c.03.12.04.5.03.6m-3.15 0a3.1 3.1 0 0 1-1.84 2.68.4.4 0 0 1-.52-.18c-.09-.2 0-.4.18-.52.62-.37.77-.7.7-.99a1.26 1.26 0 0 1-.93-1.23c0-.7.54-1.27 1.21-1.27q.42 0 .74.27.3.25.43.64c.03.12.03.5.03.6m-5.69.31q-.42-.01-.73-.26t-.43-.65a3.1 3.1 0 0 1 1.8-3.27c.2-.1.43-.01.52.18s0 .4-.18.51c-.62.38-.76.71-.7 1 .54.12.94.62.94 1.22 0 .7-.55 1.27-1.22 1.27m-3.15 0q-.42-.01-.74-.26-.3-.25-.42-.65c-.04-.11-.04-.5-.04-.6.05-.89.48-2 1.84-2.67.2-.1.43-.01.52.18s0 .4-.18.51c-.62.38-.76.71-.7 1 .53.12.94.62.94 1.22 0 .7-.55 1.27-1.22 1.27m10.92-7.5H6.13a2.76 2.76 0 0 0-2.75 2.75v7.45a3 3 0 0 0 3 3h2.04v3.47c0 .55.33.7.73.32l4.42-3.8h4.06a3 3 0 0 0 3-3V6.4a3 3 0 0 0-3-3"/></svg>