<svg xmlns="http://www.w3.org/2000/svg" width="24" height="24" viewBox="0 0 24 24"><path fill="currentColor" stroke="#00000000" d="M13.96 6.54a.75.75 0 0 1 0-1.5h4.86a.75.75 0 0 1 0 1.5Zm0 4.3a.75.75 0 0 1 0-1.5h4.86a.75.75 0 0 1 0 1.5Zm-9.31 4.3a.75.75 0 1 1 0-1.5h14.5a.75.75 0 0 1 0 1.5Zm0 4.3a.75.75 0 1 1 0-1.5h14.5a.75.75 0 0 1 0 1.5Z"/><path fill="currentColor" fill-rule="evenodd" stroke="#00000000" d="M5.96 11.1h3c.97 0 1.75-.78 1.75-1.75v-3c0-.97-.78-1.75-1.75-1.75h-3c-.97 0-1.75.78-1.75 1.75v3c0 .97.78 1.75 1.75 1.75"/></svg>