<svg xmlns="http://www.w3.org/2000/svg" width="24" height="24" viewBox="0 0 24 24"><path fill="#00000000" fill-rule="evenodd" stroke="currentColor" stroke-linecap="round" stroke-linejoin="round" stroke-width="1.5" d="M8.01 16.5q.23.02.25.25v3.23c0 .54.33.68.72.32l4.27-3.68a.5.5 0 0 1 .33-.12h4.17a3 3 0 0 0 3-3v-7a3 3 0 0 0-3-3H6.25a3 3 0 0 0-3 3v7a3 3 0 0 0 3 3zm5.42-9.08a1.43 1.43 0 1 1-2.86 0 1.43 1.43 0 0 1 2.86 0m1.54 5.52c0-1.2-1.33-2.32-2.97-2.32s-2.97 1.12-2.97 2.32v.32c0 .25.22.45.49.45h4.96c.27 0 .5-.2.5-.45z"/></svg>