<svg xmlns="http://www.w3.org/2000/svg" width="85.04" height="85.04" viewBox="0 0 85.04 85.04"><path fill="currentColor" d="M18.72 35.99q-.84-.88-2.66-.9h-3.42v6.35H16q1.76 0 2.65-.89.89-.9.89-2.24 0-1.45-.83-2.32"/><path fill="currentColor" d="M79.53 22.66a3 3 0 0 0-1.54.46l-15.02 8.72V26.7c0-5.5-4.5-10-10-10h-39c-5.5 0-10 4.5-10 10v31c0 5.5 4.5 10 10 10h39c5.5 0 10-4.5 10-10v-5.18l15 8.68q.81.53 1.64.53c1.17 0 2.36-.92 2.36-2.68V25.4c0-1.8-1.22-2.73-2.44-2.73M23.6 51.34h-3.5l-3.78-7.27h-3.67v7.27H9.37V32.47H16q3.25 0 5.03 1.45 1.77 1.45 1.77 4.24 0 1.89-.92 3.18a6 6 0 0 1-2.54 1.95l4.24 7.89zm14.7 0H25.95V32.47H38.2v2.63h-8.98v5.23h7.75v2.58h-7.75v5.82h9.07zm6.38-4.11q1 1.73 3.3 1.73 2.1 0 3-.97a5 5 0 0 0 1.12-2.8h3.27q-.25 2.76-2.08 4.59c-1.83 1.82-3 1.82-5.31 1.82a6.9 6.9 0 0 1-5.55-2.42q-2.06-2.43-2.06-6.51v-1.53q0-4.07 2.1-6.5a7.1 7.1 0 0 1 5.66-2.43q3.38 0 5.18 1.83a7.5 7.5 0 0 1 2.07 4.66H52.1a5 5 0 0 0-1.08-2.82q-.88-1.03-2.9-1.03-2.23 0-3.34 1.63t-1.12 4.57v1.62q0 2.82 1 4.56"/></svg>