<svg xmlns="http://www.w3.org/2000/svg" width="24" height="24" viewBox="0 0 24 24"><path fill="currentColor" fill-rule="evenodd" d="M12.35 8.25v7.19h-1.48v-3.08H7.98v3.08H6.5l-.01-7.19h1.49v2.92h2.89V8.24zm5.38 1.84v.84l-2.53 3.36h2.61v1.14h-4.44v-.86l2.53-3.33h-2.45V10.1z"/><path fill="none" stroke="currentColor" stroke-linecap="round" stroke-linejoin="round" stroke-width="1.5" d="m17.51 20-11 .01a2.5 2.5 0 0 1-2.5-2.5L4 6.51a2.5 2.5 0 0 1 2.5-2.5l11-.01A2.5 2.5 0 0 1 20 6.5l.01 11a2.5 2.5 0 0 1-2.5 2.5"/></svg>