<svg xmlns="http://www.w3.org/2000/svg" width="24" height="24" viewBox="0 0 24 24"><path fill="currentColor" fill-rule="evenodd" stroke="#00000000" d="M13.73 18.43a.92.92 0 0 1 1.3 1.3 3.9 3.9 0 0 1-5.52 0 .92.92 0 0 1 1.31-1.3 2.05 2.05 0 0 0 2.91 0ZM3.5 3.35c.3-.3.76-.3 1.07-.04l15.55 15.55a.79.79 0 0 1-1.16 1.06l-3.11-3.1h-9.8c-1 0-1.75-.4-1.54-1.38l1.98-4.16V8.76q.03-.6.16-1.14L3.5 4.47a.8.8 0 0 1 0-1.12Zm8.79-.15a5.8 5.8 0 0 1 5.8 5.56v2.51l1.98 4.17q.11.6-.2.93L8.28 4.8a5.8 5.8 0 0 1 4-1.6Z"/></svg>