<svg xmlns="http://www.w3.org/2000/svg" width="32" height="32" viewBox="0 0 32 32"><path fill="currentColor" stroke="#00000000" d="M25.3 14.39c.48 0 .87.36.93.81v3.22c0 3-2.36 5.45-5.33 5.58l-.25.01H9l1.2 1.2c.34.34.37.85.1 1.22l-.1.1a.9.9 0 0 1-1.2.1l-.11-.1-2.47-2.47c-.5-.5-.53-1.29-.1-1.83l.1-.12 2.49-2.48a.93.93 0 0 1 1.4 1.2l-.08.11-1.2 1.2h11.63a3.7 3.7 0 0 0 3.72-3.5v-3.32c0-.51.42-.93.94-.93Zm-8.53-2.5 2.95 7.8h-1.68l-.61-1.75h-2.7l-.61 1.74h-1.67l2.94-7.8zM23 5.38l.1.09 2.48 2.47c.5.5.53 1.29.1 1.83l-.1.12-2.49 2.48a.93.93 0 0 1-1.4-1.2l.08-.11 1.2-1.2H11.36a3.7 3.7 0 0 0-3.72 3.5v3.32a.93.93 0 0 1-1.86.12v-3.22c0-3 2.36-5.45 5.33-5.58l.25-.01H23l-1.2-1.2a.93.93 0 0 1-.1-1.22l.1-.1a.9.9 0 0 1 1.2-.1Zm-6.93 8.7-.88 2.51h1.76z"/></svg>