<svg xmlns="http://www.w3.org/2000/svg" width="24" height="24" viewBox="0 0 24 24"><path fill="currentColor" stroke="#00000000" d="M8.1 4a.63.63 0 0 1 .1 1.23l-.1.01H6.24l-.15.01.2.12c1.67.92 3.45 1.34 5.57 1.34a11 11 0 0 0 5.98-1.59l-.2.12h-1.92A.62.62 0 0 1 15.63 4h1.96c1.19 0 2.16.91 2.24 2.08V8.1a.62.62 0 0 1-1.24.1V6.23l-.01-.05c-1 1.72-1.47 3.57-1.47 5.78 0 2.12.43 3.9 1.34 5.55l.08.14.04.02v.01l.01-.1v-1.87a.62.62 0 0 1 1.25-.09v1.96c0 1.19-.92 2.16-2.09 2.24h-2.02a.62.62 0 0 1-.09-1.24h1.96l.04-.01-.1-.07a11 11 0 0 0-4.88-1.38l-.4-.01h-.4c-2.11 0-3.9.42-5.55 1.33l-.18.1-.03.02h.03l.12.01H8.1a.63.63 0 0 1 .1 1.25H6.23A2.25 2.25 0 0 1 4 17.74v-2.02a.62.62 0 0 1 1.23-.09l.01.1v1.86l.01.14.01-.03.1-.17a11 11 0 0 0 1.35-5.56 11 11 0 0 0-1.4-5.66l-.07-.12V8.1A.62.62 0 0 1 4 8.2V6.23C4 5.04 4.9 4.08 6.07 4zm8.66 3.07-.07.02q-2.19.89-4.83.87c-1.75 0-3.3-.27-4.75-.83l-.02-.01.16.42q.66 1.84.7 3.99l.01.44c0 1.6-.22 3.03-.7 4.38l-.12.33.33-.12q1.83-.64 3.96-.7h.43q2.64 0 4.84.87l-.15-.42q-.63-1.8-.68-3.91v-.43c0-1.78.27-3.36.86-4.84z"/></svg>