<svg xmlns="http://www.w3.org/2000/svg" width="24" height="24" viewBox="0 0 24 24"><path fill="currentColor" stroke="#00000000" d="M15.05 4.84a.75.75 0 0 1 1-.34A8.76 8.76 0 1 1 4.77 16.94v1.03a.73.73 0 0 1-.74.75.75.75 0 0 1-.75-.74l-.02-2.52a.97.97 0 0 1 .99-.99l2.52.02a.75.75 0 0 1 0 1.5h-.81a7.23 7.23 0 0 0 13.53-3.62 7.3 7.3 0 0 0-4.1-6.52.75.75 0 0 1-.34-1ZM4.37 10.3l.1.01c.41.07.69.46.62.87q-.07.45-.1.9a.75.75 0 0 1-.74.72H4.2a.75.75 0 0 1-.7-.8q.02-.55.1-1.09c.08-.4.47-.68.87-.62Zm7.87-7.41c.41 0 .75.33.75.75v6.23a.75.75 0 0 1-1.5 0V3.63c0-.42.33-.75.75-.75ZM5.2 7.18a.75.75 0 1 1 1.2.89q-.27.37-.49.76a.75.75 0 1 1-1.3-.73q.26-.48.59-.92Zm3.1-2.62a.75.75 0 0 1 .68 1.34q-.4.2-.78.46a.75.75 0 0 1-.84-1.25q.46-.3.94-.55Z"/></svg>