<svg xmlns="http://www.w3.org/2000/svg" width="24" height="24" viewBox="0 0 24 24"><path fill="currentColor" fill-rule="evenodd" stroke="#00000000" d="M16.42 2.65c1.7 0 3.02 2.75 3.02 5.12a3.5 3.5 0 0 1-1.8 3l-.48.26v9.57a.75.75 0 0 1-1.5 0v-9.59l-.2-.1-.27-.14a3.5 3.5 0 0 1-1.8-3c0-2.37 1.32-5.12 3.03-5.12Zm-5.52.2.1.02c.35.07.6.4.6.76v5.05a2 2 0 0 1-.53 1.3q-.1.1-.22.17L8.83 11.5v9.1a.75.75 0 1 1-1.5 0v-9.12l-2.02-1.33-.22-.18a2 2 0 0 1-.53-1.3V3.6c0-.46.42-.82.9-.73.36.07.6.4.6.76v2.73a.64.64 0 0 0 1.27 0V3.6c0-.46.42-.82.9-.73.36.07.6.4.6.76v2.73a.63.63 0 0 0 1.27 0V3.6c0-.46.42-.82.9-.73Z"/></svg>