<svg xmlns="http://www.w3.org/2000/svg" width="24" height="24" viewBox="0 0 24 24"><path fill="currentColor" fill-rule="evenodd" stroke="#00000000" d="M12.03 2a1.75 1.75 0 0 1 .6 3.38v2.48h3.85c1.24 0 2.25 1 2.25 2.25v6.5a2.25 2.25 0 0 1-2.25 2.25H7.52c-1.24 0-2.25-1-2.25-2.25v-6.5a2.25 2.25 0 0 1 2.25-2.25h3.85V5.38A1.75 1.75 0 0 1 12.03 2Zm2.82 12.98h-5.7a.75.75 0 0 0 0 1.5h5.7a.75.75 0 0 0 0-1.5Zm5.12-4.74a2.87 2.87 0 1 1 0 5.75Zm-15.94 0v5.75a2.87 2.87 0 1 1 0-5.75Zm10.84.5a1.05 1.05 0 1 0 0 2.1 1.05 1.05 0 0 0 0-2.1Zm-5.74 0a1.05 1.05 0 1 0 0 2.1 1.05 1.05 0 0 0 0-2.1Z"/></svg>