<svg xmlns="http://www.w3.org/2000/svg" width="24" height="24" viewBox="0 0 24 24"><path fill="#00000000" fill-rule="evenodd" stroke="currentColor" stroke-linecap="round" stroke-linejoin="round" stroke-width="1.5" d="M15.55 10.23c.45.44.45 1.17 0 1.62l-3.38 3.38c-.45.45-1.18.45-1.62 0l-1.72-1.72a1.15 1.15 0 0 1 0-1.61l3.39-3.4a1.15 1.15 0 0 1 1.62 0z"/><path fill="#00000000" fill-rule="evenodd" stroke="currentColor" stroke-linecap="round" stroke-linejoin="round" stroke-width="1.5" d="M8.88 4.38a8.2 8.2 0 0 0-4.81 7.5 8.2 8.2 0 0 0 5.39 7.71"/><path fill="#00000000" fill-rule="evenodd" stroke="currentColor" stroke-linecap="round" stroke-linejoin="round" stroke-width="1.5" d="M9.17 4.28c0-.28-.22-.42-.5-.42H5.6a.03.03 0 0 0-.02.05l1.34 1.34m8.58 14.11a8.2 8.2 0 0 0 4.82-7.49 8.2 8.2 0 0 0-5.4-7.72"/><path fill="#00000000" fill-rule="evenodd" stroke="currentColor" stroke-linecap="round" stroke-linejoin="round" stroke-width="1.5" d="M15.22 19.47c0 .27.22.41.5.41h3.06q.03-.01.02-.04l-1.54-1.54"/></svg>