<svg xmlns="http://www.w3.org/2000/svg" width="24" height="24" viewBox="0 0 24 24"><path fill="currentColor" d="M7.7 12.6c-.2-.2-.4-.3-.7-.4s-.6-.1-1-.1h-.3V16h.4c.3 0 .6 0 .9-.1s.5-.2.7-.4c.1-.3.2-.5.3-.7s.1-.5.1-.8 0-.6-.1-.8c0-.2-.2-.4-.3-.6m5.4.8a1.9 1.9 0 0 0-1.7 0c-.2.1-.4.3-.5.5h2.6c0-.2-.2-.3-.4-.5"/><path fill="currentColor" d="M20.6 8.6 13 2.5c-.5-.4-1.4-.4-1.9 0L3.4 8.6c-.5.4-.9 1.3-.9 2v8.2c0 1.7 1.4 3.1 3.1 3.1h12.9c1.7 0 3.1-1.4 3.1-3.1v-8.2c-.1-.7-.5-1.6-1-2M9.2 15.3A3.6 3.6 0 0 1 7.5 17c-.4.2-.8.2-1.3.2H4.4V11h1.7c.5 0 1 .1 1.4.2.4.2.8.4 1 .7.3.3.5.6.6 1s.2.8.2 1.2c.2.4.1.8-.1 1.2m4.6 1.5c-.4.2-.9.4-1.4.4-.4 0-.8-.1-1.1-.2s-.6-.3-.8-.5-.4-.5-.5-.8-.2-.6-.2-1 .1-.7.2-1 .3-.6.6-.8c.2-.2.5-.4.8-.5s.7-.2 1-.2c.4 0 .7.1 1 .2s.6.3.8.5.4.5.5.8.2.6.2 1v.3h-4c.1.3.2.5.5.7.2.2.6.3 1 .3.3 0 .6-.1.8-.2s.4-.4.5-.6v-.1l1 .6v.1c-.2.4-.6.7-.9 1m4.6.4-1.2-2-1.2 2h-1.4l1.9-3.2-1.9-3.1H16l1.2 2 1.2-2h1.4L17.9 14l1.9 3.2z"/></svg>