<svg xmlns="http://www.w3.org/2000/svg" width="24" height="24" viewBox="0 0 24 24"><path fill="currentColor" stroke="#00000000" d="M11.81 4.88a4.66 4.66 0 0 1 4.64 4.9l-.02.33-.18-.18a2.4 2.4 0 0 0-1.61-.67h-2.16a2.84 2.84 0 0 0-2.83 2.83v5.6q.01.78.4 1.43h-2.5a4.66 4.66 0 0 1-4.63-4.68 4.66 4.66 0 0 1 4.25-4.67v-.2a4.66 4.66 0 0 1 4.64-4.69Zm2.83 5.78c.2 0 .49.12.63.28l.99.91.1.1q.1.1.31.1h2.98c.79 0 1.43.64 1.43 1.43v4.2c0 .8-.64 1.44-1.43 1.44h-7.17c-.78 0-1.43-.65-1.43-1.44V12.1c0-.79.65-1.43 1.43-1.43Zm1.43 2.59q-.36.01-.6.25L14 15.02a.58.58 0 0 0 .85.8l.62-.65v2.56c0 .32.27.58.59.58h.03c.3-.02.55-.27.55-.58v-2.56l.63.65a.6.6 0 0 0 .83.02c.23-.22.24-.6.01-.82l-1.45-1.52a1 1 0 0 0-.37-.21z"/></svg>