<svg xmlns="http://www.w3.org/2000/svg" width="24" height="24" viewBox="0 0 24 24"><path fill="currentColor" fill-rule="evenodd" stroke="#00000000" d="m6.1 16.5 2.13-1.57.85 4.5zm9.3-7.75c.74 0 .86-1.7.88-2.26q0-.16-.13-.27c-.22-.16-.2-.36-.2-.69v-.1l.02-.42.01-.34q0-.7-.4-1.27a3.3 3.3 0 0 0-1.34-1.07l-.58-.23A3.2 3.2 0 0 0 9.71 6q.16.5.4.92h-.9A4 4 0 0 0 6.42 8.1l-.96.96c-.14.13-.54.54-.99.02l.45.52a2.14 2.14 0 0 0 3.2.1l2.19-2.45.32.54.04.08.12.23c.24.5.28 1.28.07 1.97a2.7 2.7 0 0 0-1.54.06q-.62.24-1.02.68l-4.63 4.91c-.66.64-.54 1.73.22 2.23l3.9 2.83c.81.5 1.77.98 2.66 1.15a15 15 0 0 0 4.73-.23q.25-.09.72-.32l.07-.04.08-.04q.43-.25.92-.67l3.1-3.2q.26-.26.4-.44a1 1 0 0 0 .27-.64v-1.62l-.01-.17-.01-.04-.02-.05c-.15-.49-.73-.53-.73-.53h-.03l-.25.04c-.43.12-.87.49-.89.5a1 1 0 0 0-.33.69l.22 1.18q0 .14.04.25l-2.68 2.02v-.61l-.1-3.96h-.01c-.12-1.46-1.79-2.78-1.9-2.87l.48-2.44z"/></svg>