<svg xmlns="http://www.w3.org/2000/svg" width="24" height="24" viewBox="0 0 24 24"><path fill="currentColor" fill-rule="evenodd" stroke="#00000000" d="M11.7 0h.9c.62 0 1.67.05 2.98.22 2.23.3 4.25 1.08 5.72 2.48l.23.25a10.4 10.4 0 0 1 2.25 5.47c.28 2.13.21 3.58.21 3.58s.07 1.45-.21 3.58a10.2 10.2 0 0 1-2.48 5.72l-.25.23a10.4 10.4 0 0 1-5.47 2.25c-1.31.17-2.36.21-2.98.22h-1.2c-.62 0-1.67-.05-2.98-.22a10.2 10.2 0 0 1-5.72-2.47l-.23-.26a10.4 10.4 0 0 1-2.25-5.47A25 25 0 0 1 0 12.6v-1.2c0-.62.05-1.67.22-2.98A10.2 10.2 0 0 1 2.69 2.7l.26-.23A10.4 10.4 0 0 1 8.42.22C9.73.05 10.78.01 11.4 0Zm4.35 13.8h-3.46v1.03h3.46zm4.07 0h-3.46v1.03h3.46zM7.3 9H4v5.83h1.09v-2.41H7.3v-1.04H5.09v-1.34H7.3zm2.5 0H7.91v5.83H9v-4.82h.69q.62 0 .9.27.3.26.29.71 0 .21-.06.4a.9.9 0 0 1-.57.58q-.23.08-.56.08h-.21l1.43 2.78h1.24l-1.17-2.1q.48-.25.73-.71t.25-.99q0-.45-.14-.83a1.8 1.8 0 0 0-1.11-1.05Q10.32 9 9.79 9Zm6.25 2.38h-3.46v1.04h3.46zm4.07 0h-3.46v1.04h3.46zM16.05 9h-3.46v1.04h3.46zm4.07 0h-3.46v1.04h3.46z"/></svg>