<svg xmlns="http://www.w3.org/2000/svg" width="24" height="24" viewBox="0 0 24 24"><path fill="currentColor" stroke="#00000000" d="M13.9 7.77H7.32a2.5 2.5 0 0 0-2.5 2.5v7.78a2.5 2.5 0 0 0 2.5 2.51h6.13a2.5 2.5 0 0 0 2.5-2.5V9.8c0-1.13-.91-2.04-2.03-2.04ZM7.32 9.02h6.6a.8.8 0 0 1 .78.79v8.24c0 .7-.56 1.26-1.25 1.26H7.3c-.69 0-1.26-.57-1.26-1.26v-7.77c0-.7.57-1.26 1.26-1.26Z"/><path fill="currentColor" stroke="#00000000" d="M15.81 4.64a3.2 3.2 0 0 1 3.21 3.04v8.9a.63.63 0 0 1-1.24.09V7.86c0-1.04-.8-1.89-1.82-1.96H9.15a.63.63 0 0 1-.09-1.25zm-2.91 9.39a.62.62 0 0 1 .97.78l-.07.08-2.86 3a.63.63 0 0 1-.83.07l-.08-.07-2.86-3a.63.63 0 0 1 .83-.93l.07.07 2.42 2.52z"/><path fill="currentColor" stroke="#00000000" d="M10.49 10.32c.31 0 .57.23.61.53l.01.1v6.37a.62.62 0 0 1-1.24.1v-6.47c0-.35.27-.63.62-.63Z"/></svg>