<svg xmlns="http://www.w3.org/2000/svg" width="24" height="24" viewBox="0 0 24 24"><path fill="#00000000" fill-rule="evenodd" stroke="currentColor" stroke-linecap="round" stroke-linejoin="round" stroke-width="1.5" d="M15.75 20.25h-7.5a1.5 1.5 0 0 1-1.5-1.5V7.25c0-.83.67-1.5 1.5-1.5h7.5c.83 0 1.5.67 1.5 1.5v11.5c0 .83-.67 1.5-1.5 1.5"/><path fill="currentColor" stroke="#00000000" d="M14.5 6h-5V3.75c0-.41.34-.75.75-.75h3.5c.41 0 .75.34.75.75z"/><path fill="#00000000" fill-rule="evenodd" stroke="currentColor" stroke-linecap="round" stroke-linejoin="round" stroke-width="1.5" d="m13.45 11.6-.46-.8a1.14 1.14 0 0 0-1.98 0l-.46.8m2.48 4.29h.92c.88 0 1.43-.95.99-1.72l-.46-.8m-4.96 0-.46.8c-.44.77.11 1.72.99 1.72h.92"/></svg>