<svg xmlns="http://www.w3.org/2000/svg" width="85.04" height="85.04" viewBox="0 0 85.04 85.04"><path fill="currentColor" d="M9.98 26.19a3 3 0 0 0 3-3v-5.35a5 5 0 0 1 5-5h5.22a3 3 0 0 0 0-6h-5.22c-6.06 0-11 4.93-11 11v5.35a3 3 0 0 0 3 3m58-19.35h-5.21a3 3 0 0 0 0 6h5.21a5 5 0 0 1 5 5v5.35a3 3 0 1 0 6 0v-5.35c0-6.07-4.94-11-11-11m-50 70.81h5.22a3 3 0 0 0 0-6h-5.22a5 5 0 0 1-5-5V60.3a3 3 0 1 0-6 0v6.35c0 6.06 4.93 11 11 11m41.79-3a3 3 0 0 0 3 3h5.21c6.06 0 11-4.94 11-11V61.3a3 3 0 1 0-6 0v5.35a5 5 0 0 1-5 5h-5.21a3 3 0 0 0-3 3M20.64 28.5V56a8.6 8.6 0 0 0 8.6 8.58h27.49c4.72 0 8.6-3.86 8.6-8.59V25.06a5.17 5.17 0 0 0-5.16-5.16H29.23a8.6 8.6 0 0 0-8.59 8.6m21.2 20.72 9.84-9.62c1.44-1.43 2.89-.45 3.43.1l5.06 5.19v11.1a3.5 3.5 0 0 1-3.44 3.44h-27.5a3.5 3.5 0 0 1-3.44-3.44v-3.84l7.08-6.25c1.37-1.23 2.61-.9 3.43-.1l3.53 3.42c.56.54 1.47.54 2.02 0m-7.79-19.03a4.2 4.2 0 1 1 0 8.39 4.2 4.2 0 0 1 0-8.4"/></svg>