<svg xmlns="http://www.w3.org/2000/svg" width="24" height="24" viewBox="0 0 24 24"><path fill="currentColor" stroke="#00000000" d="M7.05 3.5a.75.75 0 0 1 .1 1.5h-1.4c-.65 0-1.18.5-1.24 1.12l-.01.13v1.34a.75.75 0 0 1-1.5.1V6.25a2.75 2.75 0 0 1 2.58-2.74l.17-.01zm11.2 0a2.75 2.75 0 0 1 2.74 2.58l.01.17v1.34a.75.75 0 0 1-1.5.1V6.25c0-.65-.5-1.18-1.12-1.24L18.25 5h-1.3a.75.75 0 0 1-.1-1.5zM3.75 16.12c.38 0 .7.28.74.64l.01.1v1.6c0 .64.5 1.17 1.12 1.24h1.43a.75.75 0 0 1 .1 1.5h-1.4A2.75 2.75 0 0 1 3 18.62v-1.75c0-.42.34-.75.75-.75Zm16.5.25c.38 0 .7.28.74.64l.01.1v1.34a2.75 2.75 0 0 1-2.58 2.75h-1.47a.75.75 0 0 1-.1-1.5h1.4c.65 0 1.18-.49 1.24-1.12l.01-.13v-1.33c0-.42.34-.75.75-.75Zm-4.88-1.93c0 .42-.34.76-.76.76H9.38a.76.76 0 0 1-.76-.76v-.3c0-.24.16-.4.16-.4l1.3-1.22a.5.5 0 0 1 .7 0l.53.54c.1.1.26.1.35 0l1.62-1.6c.2-.2.51-.2.7 0l1.26 1.3s.13.13.13.3zm-.12-6.34h-6.5c-.83 0-1.5.67-1.5 1.5v5.5c0 .83.67 1.5 1.5 1.5h6.5c.83 0 1.5-.67 1.5-1.5V9.6c0-.83-.67-1.5-1.5-1.5Z"/></svg>