<svg xmlns="http://www.w3.org/2000/svg" width="24" height="24" viewBox="0 0 24 24"><path fill="currentColor" d="M8.78 15.67q.4.06.66.29.24.27.28.65l.03.33v.17l-.03.32q-.04.4-.28.66-.26.24-.66.28c-.2.03-.36.03-.4.03 0 0-.17 0-.42-.03a1 1 0 0 1-.65-.28q-.24-.26-.28-.66L7 17.11v-.17l.03-.33q.04-.38.28-.65.27-.23.65-.29l.33-.02h.17zm7.25 0q.4.06.66.29.24.27.28.65l.03.33v.17l-.03.32q-.04.4-.28.66-.26.24-.66.28c-.2.03-.36.03-.4.03 0 0-.17 0-.42-.03a1 1 0 0 1-.65-.28q-.24-.26-.28-.66l-.03-.4s0-.17.03-.42q.04-.38.28-.65.27-.23.65-.29l.33-.02h.17z"/><path fill="none" stroke="currentColor" stroke-linecap="round" stroke-linejoin="round" stroke-width="1.5" d="M16.75 20.5h-9.5a2.5 2.5 0 0 1-2.5-2.5V6a2.5 2.5 0 0 1 2.5-2.5h9.5a2.5 2.5 0 0 1 2.5 2.5v12a2.5 2.5 0 0 1-2.5 2.5"/></svg>