<svg xmlns="http://www.w3.org/2000/svg" width="24" height="24" viewBox="0 0 24 24"><path fill="currentColor" fill-rule="evenodd" stroke="#00000000" d="M22 6.87a2.37 2.37 0 1 1-4.75 0 2.37 2.37 0 0 1 4.75 0M4.27 6.26a1 1 0 0 1 1.38-.37l1.47 1.04c.48.28.68.84.46 1.23-.25.42-.82.5-1.3.22l-1.64-.75a1 1 0 0 1-.37-1.37m-1.26 5.21 2.12.17c.56 0 1.01.39 1.01.84 0 .48-.45.84-1 .84L3 13.49a1.01 1.01 0 0 1 0-2.02m3.27 5.14c.48-.28 1.06-.17 1.29.22.24.42.02.95-.46 1.23L5.64 19.1c-.48.28-1.1.11-1.38-.37s-.1-1.1.37-1.38z"/><path fill="#00000000" fill-rule="evenodd" stroke="currentColor" stroke-linecap="round" stroke-linejoin="round" stroke-width="1.5" d="M19.65 7.5v10a2 2 0 0 1-2 2H11.1a2 2 0 0 1-2-2v-10a2 2 0 0 1 2-2h6.55a2 2 0 0 1 2 2"/></svg>