<svg xmlns="http://www.w3.org/2000/svg" width="24" height="24" viewBox="0 0 24 24"><path fill="none" stroke="currentColor" stroke-linecap="round" stroke-linejoin="round" stroke-width="1.5" d="M11 3.72c-1.47.66-2.9 1.14-4.56 1.42C5.6 5.28 5 6 5 6.86v5.07c0 2.53 1.1 4.76 3.25 6.6.86.74 1.77 1.3 2.5 1.67.79.4 1.71.4 2.5 0 .73-.38 1.64-.93 2.5-1.67 2.15-1.84 3.25-4.07 3.25-6.6V6.86c0-.85-.6-1.58-1.44-1.72-1.66-.28-3.1-.76-4.55-1.42a2.4 2.4 0 0 0-2.01 0"/><path fill="currentColor" d="M12 11.64c1.59 0 2.88 1.2 2.88 2.48v.6a5.2 5.2 0 0 1-5.76 0v-.6c0-1.29 1.3-2.48 2.88-2.48m1.62-2.31a1.66 1.66 0 1 1-3.24-.66 1.66 1.66 0 0 1 3.24.66"/></svg>