<svg xmlns="http://www.w3.org/2000/svg" width="24" height="24" viewBox="0 0 24 24"><path fill="currentColor" stroke="#00000000" d="M17.65 18.65a.75.75 0 1 1 .39 1.45q-.72.19-1.47.19h-.46a.75.75 0 1 1 0-1.5h.46q.55 0 1.08-.14Zm-4.8.14a.75.75 0 0 1 0 1.5h-1.74a.75.75 0 1 1 0-1.5Zm-7.45.36c.1-.4.52-.63.92-.52q.55.16 1.13.16h.4a.75.75 0 0 1 0 1.5h-.4q-.79 0-1.53-.21a.75.75 0 0 1-.52-.93Zm15.19-3.33a.75.75 0 0 1 1.43.46q-.3.97-.93 1.77a.75.75 0 1 1-1.19-.91q.46-.6.69-1.32Zm-18.11-.54c.4-.12.81.1.93.5q.22.72.67 1.32a.75.75 0 0 1-1.2.9 6 6 0 0 1-.9-1.78c-.12-.4.1-.82.5-.94Zm17.45-4.52a.75.75 0 0 1 1.06.1q.64.8.98 1.75a.75.75 0 0 1-1.42.5q-.24-.7-.72-1.3a.75.75 0 0 1 .1-1.05Zm-16.86.06a.75.75 0 0 1 1.15.96q-.48.57-.74 1.28a.75.75 0 1 1-1.41-.5q.34-.97 1-1.74Zm4.08-3.18h.1c.41.08.68.47.6.88a4 4 0 0 0-.06.97c.02.42-.3.77-.71.79h-.04a.75.75 0 0 1-.75-.72 6 6 0 0 1 .09-1.3.74.74 0 0 1 .87-.61Zm9.38-.55c.4-.13.82.1.94.49a6 6 0 0 1 .26 1.98.75.75 0 0 1-.75.72h-.04a.75.75 0 0 1-.71-.78v-.2q0-.65-.2-1.28c-.11-.4.1-.81.5-.93ZM9.85 3.96a.75.75 0 0 1 .57 1.4q-.7.28-1.25.78a.75.75 0 1 1-1.01-1.1 6 6 0 0 1 1.69-1.08Zm2.74.3c.11-.4.52-.63.92-.52q.98.27 1.81.86a.75.75 0 0 1-.87 1.22q-.6-.44-1.33-.63a.75.75 0 0 1-.53-.93Z"/></svg>