<svg xmlns="http://www.w3.org/2000/svg" width="24" height="24" viewBox="0 0 24 24"><path fill="currentColor" stroke="#00000000" d="M4 16.75c.41 0 .75.34.75.75 0 .96.79 1.75 1.75 1.75a.75.75 0 0 1 0 1.5 3.25 3.25 0 0 1-3.25-3.25c0-.41.34-.75.75-.75Zm16 0c.41 0 .75.34.75.75 0 1.8-1.46 3.25-3.25 3.25a.75.75 0 0 1 0-1.5c.96 0 1.75-.79 1.75-1.75 0-.41.34-.75.75-.75Zm-9.37 2.5a.75.75 0 0 1 0 1.5H9.37a.75.75 0 0 1 0-1.5Zm4 0a.75.75 0 0 1 0 1.5h-1.26a.75.75 0 0 1 0-1.5ZM20 12.62c.41 0 .75.34.75.75v1.26a.75.75 0 1 1-1.5 0v-1.26c0-.41.34-.75.75-.75Zm-16 0c.41 0 .75.34.75.75v1.26a.75.75 0 1 1-1.5 0v-1.26c0-.41.34-.75.75-.75Zm16-4c.41 0 .75.34.75.75v1.26a.75.75 0 1 1-1.5 0V9.37c0-.41.34-.75.75-.75Zm-16 0c.41 0 .75.34.75.75v1.26a.75.75 0 1 1-1.5 0V9.37c0-.41.34-.75.75-.75Zm13.5-5.37c1.8 0 3.25 1.46 3.25 3.25a.75.75 0 0 1-1.5 0c0-.96-.79-1.75-1.75-1.75a.75.75 0 0 1 0-1.5Zm-11 0a.75.75 0 0 1 0 1.5c-.96 0-1.75.79-1.75 1.75a.75.75 0 0 1-1.5 0c0-1.8 1.46-3.25 3.25-3.25Zm4.13 0a.75.75 0 0 1 0 1.5H9.37a.75.75 0 0 1 0-1.5Zm4 0a.75.75 0 0 1 0 1.5h-1.26a.75.75 0 0 1 0-1.5Z"/></svg>