<svg xmlns="http://www.w3.org/2000/svg" width="24" height="24" viewBox="0 0 24 24"><path fill="currentColor" fill-rule="evenodd" stroke="#00000000" d="M20.8 3.15a1 1 0 0 0-.48-.15l-.22.01c-.5.03-1.96.57-2.14.63L3.46 8.97a.7.7 0 0 0-.43.47.7.7 0 0 0 .11.62 10 10 0 0 0 2.1 1.34l1.9.98c.04.39.08 1.11.07 1.97l-.03 1.3 7.52-7.62a.8.8 0 0 1 1.11 0 .8.8 0 0 1 0 1.13l-7.52 7.6c.73.12 1.63.13 1.68.13a22 22 0 0 1 1.63.07c.2.26.66.9 1.08 1.63l1.22 2.07a.7.7 0 0 0 .6.34q.28 0 .49-.2c.34-.36.87-1.86 1.02-2.31l4.95-14.56q.13-.56-.17-.78"/></svg>