<svg xmlns="http://www.w3.org/2000/svg" width="24" height="24" viewBox="0 0 24 24"><path fill="currentColor" fill-rule="evenodd" stroke="#00000000" d="M13.39 3.14c.47 0 .92.28 1.17.73l.06.12.05.14.44 1.73.04.03c.1.09.31.3.4.35h.12l.06-.02 1.71-.47c.46-.13.97.02 1.33.38l.1.11.08.12 1.39 2.42c.22.4.21.9-.03 1.35l-.08.13-.11.12-1.27 1.25-.1.12v.48q0-.02.01 0l.04.08.05.05 1.27 1.25c.33.33.45.83.33 1.32l-.04.14-.08.15-1.38 2.4c-.24.42-.7.67-1.22.66h-.14l-.15-.04-1.7-.47c.01 0-.43.12-.55.18q.01.01-.04.08l-.01.03-.03.07-.44 1.73c-.12.45-.5.82-1 .95l-.14.03-.14.01H10.6c-.47 0-.92-.28-1.17-.73L9.38 20l-.05-.14-.44-1.73c0 .01-.33-.31-.44-.38h-.12l-.06.02-1.71.47c-.46.13-.97-.02-1.33-.38l-.1-.1-.08-.13-1.38-2.41c-.23-.4-.23-.92.02-1.36l.08-.13.11-.12 1.27-1.25.1-.12v-.47c0 .02-.02-.03-.04-.06l-.01-.03-.05-.05-1.27-1.25a1.4 1.4 0 0 1-.33-1.32l.04-.13.08-.16 1.38-2.4c.24-.42.7-.67 1.22-.66h.14l.15.04 1.7.47c-.01 0 .43-.12.55-.19v-.02l.05-.08.03-.07.44-1.72c.12-.46.5-.83 1-.96l.14-.03.14-.01zm-2.7 1.42-.44 1.7-.05.15a1.7 1.7 0 0 1-.73.89c-.38.2-1 .38-1.45.32l-.14-.02-1.63-.46-1.32 2.28 1.25 1.23.1.12c.22.27.38.63.4.92v.51l-.01.16c-.04.3-.2.65-.42.9l-.1.11-1.21 1.2 1.3 2.28 1.69-.47.15-.03c.4-.06.83 0 1.14.2.36.23.84.7 1 1.1l.05.12.42 1.65h2.62l.44-1.69.04-.15c.15-.37.42-.72.74-.89.38-.2 1-.38 1.45-.32l.14.02 1.63.46 1.31-2.28-1.24-1.23-.1-.12a2 2 0 0 1-.4-.92v-.51l.01-.15c.04-.32.2-.66.42-.92l.1-.1 1.21-1.2-1.3-2.28-1.69.47-.15.03c-.4.06-.83 0-1.14-.2a3 3 0 0 1-1-1.1l-.05-.12-.42-1.66zM12 8.7a3.3 3.3 0 1 1 0 6.6 3.3 3.3 0 0 1 0-6.61Zm0 1.42a1.88 1.88 0 1 0 .01 3.77 1.88 1.88 0 0 0 0-3.77Z"/></svg>