<svg xmlns="http://www.w3.org/2000/svg" width="24" height="24" viewBox="0 0 24 24"><path fill="currentColor" stroke="#00000000" d="m20.18 14.3-1.4-1.4c-.2-.2-.3-.5-.3-.7v-.4c0-.2.1-.5.3-.7l1.4-1.4c.2-.2.2-.5.1-.8l-1.5-2.6c-.1-.2-.5-.4-.7-.3l-1.9.5c-.3.1-.6 0-.8-.1s-.7-.6-.8-.9l-.5-1.9c-.1-.3-.3-.5-.6-.5h-3c-.3 0-.6.2-.6.5l-.5 1.9c-.1.3-.3.6-.5.7s-.9.3-1.1.3L5.88 6c-.3-.1-.6.1-.7.3l-1.5 2.6c-.1.2-.1.6.1.8l1.4 1.4c.2.2.3.5.3.7v.4c0 .2-.1.5-.3.7l-1.4 1.4c-.2.2-.2.5-.1.8l1.5 2.6c.1.2.5.4.7.3l1.9-.5c.3-.1.6 0 .8.1s.7.6.8.9l.5 1.9c.1.3.3.5.6.5h3c.3 0 .6-.2.6-.5l.5-1.9c.1-.3.3-.6.5-.7s.9-.3 1.1-.3l1.9.5c.3.1.6-.1.7-.3l1.5-2.6c.2-.2.1-.6-.1-.8Zm-8.1.7c-1.7 0-3-1.3-3-3s1.3-3 3-3 3 1.3 3 3a3 3 0 0 1-3 3Z"/></svg>