<svg xmlns="http://www.w3.org/2000/svg" width="24" height="24" viewBox="0 0 24 24"><path fill="#00000000" fill-rule="evenodd" stroke="currentColor" stroke-linecap="round" stroke-linejoin="round" stroke-width="1.5" d="M15.21 13.27a1.25 1.25 0 0 1 1.77 0h0l2 2c.5.5.5 1.29 0 1.78h0l-2 2c-.49.5-1.28.5-1.77 0h0l-2-2a1.25 1.25 0 0 1 0-1.77h0Zm-7.73.1a.5.5 0 0 1 .86 0h0l2.77 4.79a.5.5 0 0 1-.44.75h0-5.52a.5.5 0 0 1-.44-.75h0Zm.43-8.79a3.16 3.16 0 1 1 0 6.32 3.16 3.16 0 0 1 0-6.32m9.86.23c.7 0 1.25.56 1.25 1.25h0v3.35c0 .7-.56 1.25-1.25 1.25h0-3.35c-.69 0-1.25-.56-1.25-1.25h0V6.06c0-.69.56-1.25 1.25-1.25h0Z"/></svg>