<svg xmlns="http://www.w3.org/2000/svg" width="24" height="24" viewBox="0 0 24 24"><path fill="currentColor" fill-rule="evenodd" stroke="#00000000" d="M16.32 3.13a3.05 3.05 0 1 1-2.12 5.23L9.59 11.1a3 3 0 0 1 0 1.82l4.6 2.73a3.04 3.04 0 0 1 5.18 2.18 3.05 3.05 0 1 1-5.96-.9l-4.6-2.73A3.04 3.04 0 0 1 3.62 12 3.05 3.05 0 0 1 8.8 9.81l4.61-2.72a3.05 3.05 0 0 1 2.91-3.96Zm0 13.15a1.55 1.55 0 1 0 0 3.1 1.55 1.55 0 0 0 0-3.1Zm-9.64-5.83a1.55 1.55 0 1 0 0 3.1 1.55 1.55 0 0 0 0-3.1Zm9.64-5.82a1.55 1.55 0 1 0 0 3.1 1.55 1.55 0 0 0 0-3.1Z"/></svg>