<svg xmlns="http://www.w3.org/2000/svg" width="24" height="24" viewBox="0 0 24 24"><path fill="currentColor" fill-rule="evenodd" stroke="#00000000" d="M7.74 15.18a1.25 1.25 0 1 1 0 2.5 1.25 1.25 0 0 1 0-2.5Zm0-8.84a1.25 1.25 0 1 1 0 2.5 1.25 1.25 0 0 1 0-2.5Z"/><path fill="#00000000" fill-rule="evenodd" stroke="currentColor" stroke-linecap="round" stroke-linejoin="round" stroke-width="1.5" d="M6.5 10.95A2.5 2.5 0 0 1 4 8.45V6.72a2.5 2.5 0 0 1 2.5-2.5h11a2.5 2.5 0 0 1 2.5 2.5v1.73a2.5 2.5 0 0 1-2.5 2.5zm6.89 8.84H6.5A2.5 2.5 0 0 1 4 17.3v-1.73a2.5 2.5 0 0 1 2.5-2.5l6.89.03m8.92 1.62-4.16 4.17a.35.35 0 0 1-.5 0l-2.71-2.72"/></svg>