<svg xmlns="http://www.w3.org/2000/svg" width="24" height="24" viewBox="0 0 24 24"><path fill="currentColor" fill-rule="evenodd" stroke="#00000000" d="m18.2 4.4.08.07 2 2c.55.54.58 1.42.1 2l-.1.12-1.82 1.81a.75.75 0 0 1-1.13-.97l.07-.09 1.38-1.38h-3.43c-.81 0-1.55.43-1.95 1.13l-.08.15L11.99 12l1.33 2.75a2.2 2.2 0 0 0 1.85 1.27h3.61l-1.38-1.37a.75.75 0 0 1-.07-.98l.07-.08c.27-.27.68-.3.98-.08l.08.07 1.82 1.82c.55.55.58 1.42.1 2l-.1.12-2 2a.75.75 0 0 1-1.14-.98l.08-.08.93-.93h-2.8a3.8 3.8 0 0 1-3.29-1.94l-.1-.19-.8-1.68-.81 1.68a3.8 3.8 0 0 1-3.17 2.12H4.03a.75.75 0 0 1-.1-1.49h3.04c.8 0 1.55-.43 1.95-1.13l.08-.15L10.32 12 8.99 9.23a2.3 2.3 0 0 0-1.85-1.27l-.18-.01H4.03a.75.75 0 0 1-.1-1.5h3.03c1.38 0 2.64.75 3.3 1.95l.09.18.8 1.7.81-1.7a3.8 3.8 0 0 1 3.18-2.12l.2-.01h2.8l-.92-.93a.75.75 0 0 1 .97-1.13Z"/></svg>