<svg xmlns="http://www.w3.org/2000/svg" width="32" height="32" viewBox="0 0 32 32"><path fill="currentColor" stroke="#00000000" d="m6.98 5.58.1.1 7.98 8.02.84-1.77a4.5 4.5 0 0 1 3.83-2.56h3.43l-1-1a.95.95 0 0 1-.1-1.25l.09-.1a.95.95 0 0 1 1.24-.1l.1.1 2.38 2.37c.68.67.72 1.74.13 2.46l-.13.14-2.16 2.16a.95.95 0 0 1-1.43-1.24l.1-.1 1.53-1.55h-3.93c-.94 0-1.8.5-2.27 1.31l-.1.18-1.13 2.38 7.07 7.12.94-.94-2.12-2.11a.95.95 0 0 1-.1-1.24l.1-.1a.95.95 0 0 1 1.24-.1l.1.1L25.87 20c.68.67.72 1.74.13 2.46l-.13.14-.99.99 1.39 1.39a.95.95 0 0 1-1.25 1.43l-.1-.1-9.32-9.38-1.5 3.14a4.5 4.5 0 0 1-3.83 2.55H6.53a.95.95 0 0 1-.11-1.89h3.61c.93 0 1.8-.5 2.26-1.3l.09-.18 1.65-3.45.01-.06q.04-.14.11-.26l-4.2-4.23h-3.4a.95.95 0 0 1-.12-1.89h1.65L5.73 7a.95.95 0 0 1 1.25-1.43Z"/></svg>