<svg xmlns="http://www.w3.org/2000/svg" width="24" height="24" viewBox="0 0 24 24"><path fill="currentColor" fill-rule="evenodd" stroke="#00000000" d="M4.85 1.9h10.6c.35 0 .78.15 1.08.4l.12.1 3.6 3.8c.26.26.45.68.56 1.11l.04.19v12.9c0 .85-.72 1.62-1.56 1.7H4.85c-.85 0-1.62-.72-1.7-1.56V3.6c0-.85.72-1.62 1.56-1.7h10.74Zm11.3 6.8h-8.3c-.9 0-1.7.7-1.7 1.7v7.7c0 .9.7 1.7 1.7 1.7h8.3c.9 0 1.7-.7 1.7-1.7v-7.7c0-.9-.7-1.7-1.7-1.7Zm-6.8 1.6v2.8h1.7v-2.8h1.7v2.8h1.7v-2.8h1.6l.1 7.8c0 .1-.1.1-.1.1h-1.6v-2.8h-1.7v2.8h-1.7v-2.8h-1.7v2.8h-1.6c-.1 0-.1-.1-.1-.1v-7.7c0-.1.1-.1.1-.1z"/></svg>