<svg xmlns="http://www.w3.org/2000/svg" width="24" height="24" viewBox="0 0 24 24"><path fill="currentColor" fill-rule="evenodd" stroke="#00000000" d="M10.21 12.59c0-1.01.8-1.83 1.79-1.83s1.79.82 1.79 1.83c0 1-.8 1.83-1.79 1.83s-1.79-.82-1.79-1.83m-.08-7.55A1.9 1.9 0 0 1 12 3.12a1.9 1.9 0 0 1 1.87 1.92A1.9 1.9 0 0 1 12 6.96a1.9 1.9 0 0 1-1.87-1.92m7.81 13.92a1.9 1.9 0 0 1-1.87 1.92 1.9 1.9 0 0 1-1.87-1.92 1.9 1.9 0 0 1 1.87-1.92 1.9 1.9 0 0 1 1.87 1.92M7.91 20.88a1.9 1.9 0 0 1-1.87-1.92 1.9 1.9 0 0 1 1.87-1.92 1.9 1.9 0 0 1 1.88 1.92 1.9 1.9 0 0 1-1.88 1.92M5 12.23a1.9 1.9 0 0 1-1.88-1.91A1.9 1.9 0 0 1 5 8.4a1.9 1.9 0 0 1 1.87 1.92A1.9 1.9 0 0 1 5 12.23M19 8.4a1.9 1.9 0 0 1 1.88 1.92A1.9 1.9 0 0 1 19 12.23a1.9 1.9 0 0 1-1.88-1.91A1.9 1.9 0 0 1 19 8.4m0 4.96a3 3 0 0 0 2.99-3.04 3 3 0 0 0-3-3.04 3.02 3.02 0 0 0-2.96 3.44l-1.47.5a3 3 0 0 0-2-1.53V8.02a3 3 0 0 0 2.42-2.98A3 3 0 0 0 12 2c-1.65 0-3 1.36-3 3.04a3 3 0 0 0 2.44 2.98V9.7c-.88.17-1.62.75-2.02 1.54l-1.47-.43.04-.48a3 3 0 0 0-3-3.04A3 3 0 0 0 2 10.32a3 3 0 0 0 3 3.04c1.1 0 2.05-.6 2.57-1.5l1.53.45-.01.28c0 .84.35 1.6.9 2.13l-.93 1.43a3 3 0 0 0-1.15-.23c-1.65 0-3 1.36-3 3.04a3 3 0 0 0 3 3.04A3.05 3.05 0 0 0 10 16.78l.95-1.45a3 3 0 0 0 2.11 0l.94 1.45A3.05 3.05 0 0 0 16.07 22c1.65 0 3-1.36 3-3.04a3 3 0 0 0-3-3.04q-.61 0-1.15.23L14 14.73a3 3 0 0 0 .9-2.44l1.49-.5c.5.93 1.49 1.57 2.62 1.57"/></svg>