<svg xmlns="http://www.w3.org/2000/svg" width="24" height="24" viewBox="0 0 24 24"><path fill="currentColor" stroke="#00000000" d="M20.37 11.22c.42 0 .75.34.76.75a9.13 9.13 0 0 1-13.92 7.8q-.43.28-.96.34a2.3 2.3 0 1 1 1.9-1.53 7.63 7.63 0 0 0 11.48-6.6c0-.42.33-.75.74-.76Zm-14.5 5.8a.8.8 0 1 0 .2 1.6.8.8 0 0 0-.2-1.6Zm5.64-8.94 3.99 2.6c.99.58.99 2.01.03 2.56l-4.05 2.65a1.5 1.5 0 0 1-2.24-1.29V9.35a1.5 1.5 0 0 1 2.27-1.27Zm-.77 1.29v5.21l4-2.6-.03-.02zM8.9 3.42a9.1 9.1 0 0 1 7.9.82q.42-.27.96-.34a2.3 2.3 0 1 1-1.9 1.53 7.6 7.6 0 0 0-11.49 6.6.75.75 0 0 1-1.5 0A9.1 9.1 0 0 1 8.9 3.42Zm9.04 1.97a.8.8 0 1 0 .2 1.6.8.8 0 0 0-.2-1.6Z"/></svg>