<svg xmlns="http://www.w3.org/2000/svg" width="24" height="24" viewBox="0 0 24 24"><path fill="currentColor" stroke="#00000000" d="M18.6 4.56a.75.75 0 0 1 1.06 1.06l-1.6 1.6 1.4 1.4a1.5 1.5 0 0 1 0 2.12l-1.4 1.4 1.4 1.4a1.5 1.5 0 0 1 0 2.12l-1.4 1.4 1.6 1.6a.75.75 0 0 1-1.05 1.06L17 18.12a1.5 1.5 0 0 1 0-2.13l1.4-1.4L17 13.2a1.5 1.5 0 0 1 0-2.12l1.4-1.4-1.4-1.4a1.5 1.5 0 0 1 0-2.12Zm-14.28.31a.8.8 0 0 1 .83-.15l.08.1 9.15 9.15v4.37c0 .93-.56 1.18-1.26.56l-4.95-4.47q-.15.02-.32.02l-1.81-.09a1.86 1.86 0 0 1-1.75-1.83v-2.02c0-.96.79-1.75 1.75-1.75h1.11L4.32 5.93a.75.75 0 0 1 0-1.06Zm8.8-.47c.7-.62 1.26-.37 1.26.56v6.89L9.54 7Z"/></svg>