<svg xmlns="http://www.w3.org/2000/svg" width="24" height="24" viewBox="0 0 24 24"><path fill="currentColor" stroke="#00000000" d="M11.66 5.13c.62-.55 1.12-.33 1.12.5v12.74c0 .83-.5 1.05-1.12.5l-4.58-3.86v-.04l-.3.03H4.7c-.96 0-1.75-.79-1.75-1.75v-2.5A1.74 1.74 0 0 1 4.7 9h2.1l.3.02V9Zm5.42.36a.75.75 0 0 1 1.06-.04A9 9 0 0 1 21.06 12c0 2.48-1.04 4.8-2.92 6.55a.75.75 0 0 1-1.06-.04.75.75 0 0 1 .04-1.06A7.4 7.4 0 0 0 19.56 12a7.4 7.4 0 0 0-2.44-5.45.75.75 0 0 1-.04-1.06Zm-2.13 2.87A.75.75 0 0 1 16 8.33a5 5 0 0 1 0 7.34.75.75 0 0 1-1.06-.03.75.75 0 0 1 .03-1.06 3.53 3.53 0 0 0 0-5.16.75.75 0 0 1-.03-1.06Z"/></svg>