<svg xmlns="http://www.w3.org/2000/svg" width="24" height="24" viewBox="0 0 24 24"><path fill="currentColor" fill-rule="evenodd" stroke="#00000000" d="M12 4.5c.41 0 .75.34.75.75v13.5a.75.75 0 0 1-1.5 0V5.25c0-.41.34-.75.75-.75Zm2.83 3.2c.42 0 .75.33.75.75v7.1a.75.75 0 1 1-1.5 0v-7.1c0-.42.34-.75.75-.75Zm-5.66 0c.41 0 .75.33.75.75v7.1a.75.75 0 1 1-1.5 0v-7.1c0-.42.33-.75.75-.75Zm8.5 1.77c.41 0 .75.34.75.75v3.56a.75.75 0 1 1-1.5 0v-3.56c0-.41.33-.75.75-.75Zm-11.34 0c.42 0 .75.34.75.75v3.56a.75.75 0 0 1-1.5 0v-3.56c0-.41.34-.75.75-.75Zm14.17.9c.41 0 .75.33.75.74v1.78a.75.75 0 1 1-1.5 0V11.1c0-.41.34-.75.75-.75Zm-17 0c.41 0 .75.33.75.74v1.78a.75.75 0 1 1-1.5 0V11.1c0-.41.34-.75.75-.75Z"/></svg>