<svg xmlns="http://www.w3.org/2000/svg" width="24" height="24" viewBox="0 0 24 24"><path fill="#00000000" fill-rule="evenodd" stroke="currentColor" stroke-linecap="round" stroke-linejoin="round" stroke-width="1.5" d="M21.75 12c0 3.73-3 6.75-6.72 6.75A6.73 6.73 0 0 1 8.31 12c0-3.73 3-6.75 6.72-6.75A6.73 6.73 0 0 1 21.75 12"/><path fill="#00000000" fill-rule="evenodd" stroke="currentColor" stroke-linecap="round" stroke-linejoin="round" stroke-width="1.5" d="M10.35 17.31A5.3 5.3 0 0 1 5.06 12a5.3 5.3 0 0 1 5.3-5.31"/><path fill="#00000000" fill-rule="evenodd" stroke="currentColor" stroke-linecap="round" stroke-linejoin="round" stroke-width="1.5" d="M6.12 15.88a3.88 3.88 0 0 1 0-7.76"/><path fill="currentColor" stroke="#00000000" d="m17.68 12.43-3.64 2.35q-.15.1-.3.1c-.21 0-.43-.17-.43-.5V9.61c0-.32.22-.49.44-.49q.15 0 .29.1l3.64 2.35q.25.16.25.43-.01.26-.25.43"/></svg>