<svg xmlns="http://www.w3.org/2000/svg" width="24" height="24" viewBox="0 0 24 24"><path fill="#00000000" fill-rule="evenodd" stroke="currentColor" stroke-width="1.53" d="m9.45 8.52 5.85 5.87m-8.08 4.5c-.94.81-.47.82-2.97 1.78m9-7.8-6.1 6.09"/><path fill="#00000000" fill-rule="evenodd" stroke="currentColor" stroke-linecap="round" stroke-linejoin="round" stroke-width="1.53" d="m3.2 19.62 1.01 1.02"/><path fill="#00000000" fill-rule="evenodd" stroke="currentColor" stroke-width="1.53" d="M4.9 16.58c-.82.94-.82.5-1.71 3.04m7.74-9.06-6.1 6.08m5.81-7.1s1.95.06 2.68-1.82c0 0 .4-2.15 1.61-3.42l.1-.1c1.27-1.22 3.22-1.46 4.66-.03"/><path fill="#00000000" fill-rule="evenodd" stroke="currentColor" stroke-width="1.53" d="M14.3 13.18s-.07-1.94 1.81-2.68c0 0 2.15-.4 3.42-1.61l.1-.1c1.22-1.26 1.46-3.22.03-4.65"/></svg>