<svg xmlns="http://www.w3.org/2000/svg" width="24" height="24" viewBox="0 0 24 24"><path fill="currentColor" fill-rule="evenodd" stroke="#00000000" d="m6.2 15.94.48-.51L11.1 11l1.58 1.6-4.44 4.43q-.34.3-.52.5c-.3.3-1.52 1.17-2.9 1.71l-.32-.32a10 10 0 0 1 1.7-3m-.82 4.72a12 12 0 0 0 3.4-2.06l.45-.42.04-.04.03-.03 4.44-4.44.18.18.54.54a.75.75 0 1 0 1.06-1.06l-.84-.84c.16-.54.55-1.31 1.54-1.74a8 8 0 0 0 3.5-1.79 3.55 3.55 0 0 0 .01-4.93L19.71 4a3.55 3.55 0 0 0-4.94 0l-.1.1a8 8 0 0 0-1.69 3.4 2.6 2.6 0 0 1-1.73 1.54l-.15-.15-.68-.68a.75.75 0 0 0-1.06 1.06l.5.5.18.18-4.42 4.42-.04.03-.03.04q-.24.27-.42.44a11 11 0 0 0-2.04 3.54A1.5 1.5 0 0 0 3.44 20l.32.32a1.5 1.5 0 0 0 1.62.34"/></svg>