<svg xmlns="http://www.w3.org/2000/svg" width="24" height="24" viewBox="0 0 24 24"><path fill="currentColor" fill-rule="evenodd" stroke="#00000000" d="M15.14 12.75c.21 2.33 1.4 4.29 3.04 5.18a8 8 0 0 1-5.07 2.54v-7.72Zm-3.45 0v7.72a8 8 0 0 1-5.07-2.54c1.63-.89 2.83-2.85 3.04-5.18zm8.75 0a9 9 0 0 1-1.33 3.97c-1.32-.53-2.32-2.08-2.53-3.97Zm-12.22 0c-.21 1.9-1.21 3.44-2.53 3.97a9 9 0 0 1-1.33-3.97Zm4.9-9.22a8 8 0 0 1 5.06 2.54c-1.63.89-2.83 2.85-3.04 5.18h-2.03Zm5.99 3.75a9 9 0 0 1 1.33 3.97h-3.86c.21-1.9 1.21-3.44 2.53-3.97Zm-7.42-3.75v7.72H9.66c-.21-2.33-1.4-4.29-3.04-5.18a8 8 0 0 1 5.07-2.54Zm-6 3.75c1.32.53 2.32 2.08 2.53 3.97H4.36c.12-1.46.6-2.82 1.33-3.97Z"/></svg>