<svg xmlns="http://www.w3.org/2000/svg" width="24" height="24" viewBox="0 0 24 24"><path fill="currentColor" fill-rule="evenodd" stroke="#00000000" d="M6.77 8.58c2.96-.9 7.88-.72 10.98 1.12a.78.78 0 1 1-.8 1.35c-2.7-1.6-7.15-1.75-9.72-.97a.78.78 0 1 1-.46-1.5m10.1 4.84c-.2.31-.6.4-.9.22a11 11 0 0 0-8.35-.98.65.65 0 0 1-.38-1.25c3.05-.92 6.83-.47 9.41 1.12.3.19.4.59.22.9m-1.03 2.27a.5.5 0 0 1-.72.18c-1.96-1.2-4.44-1.47-7.35-.8a.52.52 0 0 1-.24-1.03q4.81-1.09 8.14.94c.24.15.32.47.17.71M12 20.38a8.37 8.37 0 1 0 0-16.75 8.37 8.37 0 0 0 0 16.75"/></svg>