<svg xmlns="http://www.w3.org/2000/svg" width="24" height="24" viewBox="0 0 24 24"><path fill="currentColor" stroke="#00000000" d="M11.8 3.25c4.19 0 7.56 3.58 7.56 7.97 0 4.75-3.57 10.03-7.55 10.03-3.99 0-7.56-5.28-7.56-10.03 0-4.4 3.37-7.97 7.56-7.97Zm0 1.5c-3.33 0-6.05 2.89-6.05 6.47 0 4.01 3.05 8.53 6.06 8.53s6.05-4.52 6.05-8.53c0-3.58-2.72-6.47-6.05-6.47Zm2.15 9.12a.82.82 0 1 1-1.16 1.15.82.82 0 0 1 1.16-1.15Zm-3.13 0a.82.82 0 1 1-1.15 1.15.82.82 0 0 1 1.15-1.15Zm-1.31-2.5a.82.82 0 1 1-1.16 1.15.82.82 0 0 1 1.16-1.15Zm5.75 0a.82.82 0 1 1-1.16 1.15.82.82 0 0 1 1.16-1.15Zm-2.88 0a.82.82 0 1 1-1.15 1.15.82.82 0 0 1 1.15-1.15Z"/></svg>