<svg xmlns="http://www.w3.org/2000/svg" width="24" height="24" viewBox="0 0 24 24"><path fill="currentColor" fill-rule="evenodd" stroke="#00000000" d="M4 10.33q.03-.06.07-.05h.07l4.34-.81a1.6 1.6 0 0 0 1.38-1.02L11.9 4.4l.05-.1q0-.05.06-.05.07 0 .06.05l2.08 4.15c.21.58.76.98 1.38 1.02l4.34.81h.07q.04-.01.07.05.02.06-.03.08l-3.18 3.17c-.49.4-.7 1.04-.53 1.65l.68 4.31.03.12q.02.03-.03.07t-.08 0L12.9 17.4a1.6 1.6 0 0 0-1.78 0l-3.91 2.3-.06.04q-.03.04-.08 0-.04-.04-.03-.07l.71-4.43c.17-.6-.04-1.25-.53-1.65l-3.1-3.1-.08-.07q-.04-.02-.03-.08m-.9 1.25 3.08 3.1.1.08q.02.02.01.07l-.7 4.43c-.18.64.04 1.3.59 1.69q.43.3.92.3.46 0 .88-.28l3.92-2.3.06-.04h.08l3.98 2.34c.55.38 1.25.37 1.8-.02.54-.4.77-1.05.6-1.7l-.69-4.3-.03-.12q0-.05.03-.07l3.18-3.18c.52-.41.72-1.08.51-1.71a1.5 1.5 0 0 0-1.4-1.08l-4.34-.82h-.07l-.07-.05-2.07-4.15A1.5 1.5 0 0 0 12 2.75c-.67 0-1.24.4-1.47 1.02L8.5 7.82l-.04.1-.07.05h-.07L4 8.79c-.66.03-1.2.45-1.41 1.08s0 1.3.51 1.7"/></svg>