<svg xmlns="http://www.w3.org/2000/svg" width="24" height="24" viewBox="0 0 24 24"><path fill="currentColor" fill-rule="evenodd" stroke="#00000000" d="M16.32 3.5a4.2 4.2 0 0 1 4.18 4.18v4.41l-.05.01H19a14 14 0 0 0-1.3 0l-.28.02c-1.48.1-2.7.44-3.79 1.52q-.62.63-.95 1.32c-1.8.46-3.8-.43-4.5-2.06a.78.78 0 0 0-1.15-.35.8.8 0 0 0-.27 1 5.35 5.35 0 0 0 5.43 3.09 12 12 0 0 0-.1 2.1v1.76H7.67a4.2 4.2 0 0 1-4.18-4.18V7.68A4.2 4.2 0 0 1 7.68 3.5ZM18 13.92c.44-.01.84.04 1.2 0l-5.28 5.27c.04-.35-.01-.75 0-1.19.05-1.57.32-2.37 1.02-3.07.69-.69 1.5-.95 3.06-1ZM15.09 8.4a1.18 1.18 0 1 0 0 2.35 1.18 1.18 0 0 0 0-2.35Zm-6.05 0c-.65 0-1.17.53-1.17 1.18A1.18 1.18 0 1 0 9.04 8.4Z"/></svg>