<svg xmlns="http://www.w3.org/2000/svg" width="24" height="24" viewBox="0 0 24 24"><path fill="currentColor" stroke="#00000000" d="M14.97 8.55a1 1 0 1 1 0 2 1 1 0 0 1 0-2Zm-5.56 0a1 1 0 1 1 0 2 1 1 0 0 1 0-2Z"/><path fill="#00000000" fill-rule="evenodd" stroke="currentColor" stroke-linecap="round" stroke-linejoin="round" stroke-width="1.5" d="M7.86 13.26c.8 1.89 3 2.83 4.97 2.4"/><path fill="#00000000" fill-rule="evenodd" stroke="currentColor" stroke-linecap="round" stroke-linejoin="round" stroke-width="1.5" d="m13.52 19.56 6.04-6.04q.43-.45.44-1.06V8a4 4 0 0 0-4-4H8a4 4 0 0 0-4 4v8a4 4 0 0 0 4 4h4.45q.62-.01 1.07-.44"/><path fill="#00000000" fill-rule="evenodd" stroke="currentColor" stroke-linecap="round" stroke-linejoin="round" stroke-width="1.5" d="M19.76 13.08h-3.19a3.5 3.5 0 0 0-3.5 3.5v3.14"/></svg>