<svg xmlns="http://www.w3.org/2000/svg" width="24" height="24" viewBox="0 0 24 24"><path fill="currentColor" stroke="#00000000" d="M16.63 10.27a.75.75 0 0 0 1.5 0V8.23c0-.69-.56-1.24-1.24-1.24h-2.1a.75.75 0 0 0 0 1.5h1.84zM7.38 13.9a.75.75 0 0 0-1.5 0v2.04c0 .68.55 1.24 1.23 1.24h2.1a.75.75 0 0 0 0-1.5H7.38zM9.2 8.49a.75.75 0 0 0 0-1.5H7.12c-.68 0-1.23.55-1.23 1.24v2.04a.75.75 0 0 0 1.5 0V8.49zm5.6 7.19a.75.75 0 0 0 0 1.5h2.09c.68 0 1.24-.56 1.24-1.24V13.9a.75.75 0 0 0-1.5 0v1.78z"/><path fill="currentColor" stroke="#00000000" d="M18.12 4H5.88a3.25 3.25 0 0 0-3.25 3.25v9.67c0 1.8 1.45 3.25 3.25 3.25h12.24c1.8 0 3.25-1.46 3.25-3.25V7.25c0-1.8-1.45-3.25-3.25-3.25Zm0 1.5c.97 0 1.75.78 1.75 1.75v9.67c0 .96-.78 1.75-1.75 1.75H5.88c-.97 0-1.75-.79-1.75-1.75V7.25c0-.97.78-1.75 1.75-1.75z"/><path fill="currentColor" stroke="#00000000" d="m16.47 7.8-2.72 2.33a.75.75 0 1 0 .97 1.14l2.73-2.34a.75.75 0 0 0-.98-1.14Zm-7.1 4.92-2.94 2.52a.75.75 0 1 0 .98 1.14l2.94-2.52a.75.75 0 1 0-.98-1.14ZM6.56 8.93l2.72 2.34a.75.75 0 0 0 .98-1.14L7.53 7.79a.75.75 0 0 0-.97 1.14Zm7.1 4.93 2.93 2.52a.75.75 0 1 0 .98-1.14l-2.94-2.52a.75.75 0 1 0-.97 1.14Z"/></svg>