<svg xmlns="http://www.w3.org/2000/svg" width="24" height="24" viewBox="0 0 24 24"><path fill="currentColor" stroke="#00000000" d="M18.26 9a3.9 3.9 0 0 0-3.9 3.87 3.89 3.89 0 0 0 7.8 0A3.9 3.9 0 0 0 18.26 9M6.12 12.87c0-1.38.74-2.6 1.84-3.28A3.89 3.89 0 0 0 2 12.87a3.89 3.89 0 0 0 5.96 3.29 3.9 3.9 0 0 1-1.84-3.29"/><path fill="currentColor" stroke="#00000000" d="M10.25 12.87c0-1.38.73-2.6 1.83-3.28a3.89 3.89 0 0 0-5.96 3.28 3.87 3.87 0 0 0 3.9 3.88q1.14-.01 2.06-.6a3.9 3.9 0 0 1-1.83-3.28"/><path fill="currentColor" stroke="#00000000" d="M14.14 9a3.9 3.9 0 0 0-3.9 3.87 3.89 3.89 0 0 0 7.8 0A3.9 3.9 0 0 0 14.14 9"/></svg>