<svg xmlns="http://www.w3.org/2000/svg" width="24" height="24" viewBox="0 0 24 24"><path fill="currentColor" stroke="#00000000" d="M16.7 20.8c1 0 1.8-.8 1.8-1.8v-.2c.8-.3 1.4-1.1 1.4-2V11c0-4.3-3.5-7.9-7.9-7.9-4.3 0-7.9 3.5-7.9 7.9v5.8c0 1.2.9 2.1 2.1 2.1h.1c1.2 0 2.1-.9 2.1-2.1v-3.4c0-1.2-.9-2.1-2.1-2.1h-.1c-.2 0-.4 0-.6.1V11c0-3.5 2.8-6.4 6.4-6.4 3.5 0 6.4 2.8 6.4 6.4v.4c-.2-.1-.4-.1-.6-.1h-.1c-1.2 0-2.1.9-2.1 2.1v3.4c0 .9.6 1.7 1.4 2v.2c0 .1-.1.2-.2.2H13c-.1 0-.1 0-.2-.1l-.7-.7c-.3-.3-.8-.3-1.1 0s-.3.8 0 1.1l.7.7c.3.3.8.5 1.2.5h3.8z"/></svg>