<svg xmlns="http://www.w3.org/2000/svg" width="24" height="24" viewBox="0 0 24 24"><path fill="currentColor" fill-rule="evenodd" stroke="#00000000" d="M17.5 3.25c1.8 0 3.25 1.45 3.25 3.25v11c0 1.8-1.45 3.25-3.25 3.25h-11a3.25 3.25 0 0 1-3.25-3.25v-11c0-1.8 1.46-3.25 3.25-3.25Zm0 1.5h-11c-.97 0-1.75.78-1.75 1.75v11c0 .97.78 1.75 1.75 1.75h11c.97 0 1.75-.78 1.75-1.75v-11c0-.97-.78-1.75-1.75-1.75ZM6.8 14.77q.34 0 .52.2.2.18.2.48 0 .28-.2.47-.18.2-.52.19-.33 0-.52-.2a.7.7 0 0 1-.19-.46q0-.3.2-.49a.7.7 0 0 1 .51-.19Zm3.48-.01q.32 0 .52.2.18.18.18.48 0 .28-.18.47-.18.2-.52.19-.34 0-.52-.2a.7.7 0 0 1-.19-.46q0-.3.2-.5a.7.7 0 0 1 .5-.18Zm5.74-6.2-.4 2.14h1.15l.4-2.14h.86l-.4 2.14h1.07v.81h-1.23l-.3 1.61h1.14v.81h-1.29l-.39 2.1h-.85l.39-2.1H15l-.39 2.1h-.86l.4-2.1h-1.2v-.81h1.35l.3-1.6h-1.25v-.82h1.4l.4-2.14zm-5.62-.1q1.03 0 1.6.52.6.53.59 1.47 0 .83-.78 1.65l-.64.62q-.33.38-.35 1.12H9.66q0-.69.17-1.09t.67-.89.63-.69q.2-.3.2-.68 0-.48-.23-.73-.25-.26-.7-.26a1 1 0 0 0-.71.25 1 1 0 0 0-.27.68H8.17q0-.9.62-1.44.6-.53 1.6-.53Zm-2.95.1-.13 5.28H6.25l-.12-5.28zm9.17 2.96h-1.16l-.3 1.6h1.16z"/></svg>