<svg xmlns="http://www.w3.org/2000/svg" width="24" height="24" viewBox="0 0 24 24"><path fill="#00000000" fill-rule="evenodd" stroke="currentColor" stroke-linecap="round" stroke-linejoin="round" stroke-width="1.5" d="M7.39 15.14q.04.84.4 1.5t1 1.11 1.46.7q.84.23 1.84.23a7 7 0 0 0 1.7-.2 5 5 0 0 0 1.44-.6q.63-.4 1-1 .38-.6.38-1.4 0-.78-.34-1.32a3 3 0 0 0-.91-.92 6 6 0 0 0-1.32-.62c-.5-.17-3.59-1.07-4.08-1.24q-.75-.24-1.32-.62a3 3 0 0 1-.91-.92q-.34-.54-.34-1.33 0-.8.37-1.39.4-.6 1.01-1 .63-.39 1.45-.6a7 7 0 0 1 3.53.04q.84.24 1.46.69a3.4 3.4 0 0 1 1.4 2.61M12 3.5v17"/></svg>