<svg xmlns="http://www.w3.org/2000/svg" width="66" height="66" viewBox="0 0 66 66"><path fill="currentColor" d="M55 40.6c-.8-1.5-1.9-2.6-3.4-3.4S48.4 36 46.1 36H19.9c-2.3 0-4.1.4-5.5 1.2-1.5.8-2.6 1.9-3.4 3.4s-1.2 3.2-1.2 5.5.4 4.1 1.2 5.5c.8 1.5 1.9 2.6 3.4 3.4s3.2 1.2 5.5 1.2h26.2c2.3 0 4.1-.4 5.5-1.2 1.5-.8 2.6-1.9 3.4-3.4s1.2-3.2 1.2-5.5-.4-4-1.2-5.5m-4.6 8.6q-.45.9-1.2 1.2c-.5.2-1.3.6-3.1.6H19.9c-1.8 0-2.6-.3-3.1-.6q-.9-.45-1.2-1.2c-.2-.5-.6-1.3-.6-3 0-1.8.3-2.6.6-3.1q.45-.9 1.2-1.2c.5-.3 1.3-.6 3.1-.6h26.2c1.8 0 2.6.3 3.1.6q.9.45 1.2 1.2c.2.5.6 1.3.6 3 0 1.8-.3 2.6-.6 3.1M55 14.4c-.8-1.5-1.9-2.6-3.4-3.4s-3.2-1.2-5.5-1.2H19.9c-2.3 0-4.1.4-5.5 1.2-1.5.8-2.6 1.9-3.4 3.4s-1.2 3.2-1.2 5.5.4 4.1 1.2 5.5c.8 1.5 1.9 2.6 3.4 3.4s3.2 1.2 5.5 1.2h26.2c2.3 0 4.1-.4 5.5-1.2 1.5-.8 2.6-1.9 3.4-3.4s1.2-3.2 1.2-5.5-.4-4.1-1.2-5.5m-4.6 8.5q-.45.9-1.2 1.2c-.5.2-1.3.6-3.1.6H19.9c-1.8 0-2.6-.3-3.1-.6q-.9-.45-1.2-1.2c-.2-.5-.6-1.3-.6-3 0-1.8.3-2.6.6-3.1q.45-.9 1.2-1.2c.5-.3 1.3-.6 3.1-.6h26.2c1.8 0 2.6.3 3.1.6q.9.45 1.2 1.2c.2.5.6 1.3.6 3 0 1.8-.3 2.7-.6 3.1"/></svg>