<svg xmlns="http://www.w3.org/2000/svg" width="24" height="24" viewBox="0 0 24 24"><path fill="currentColor" fill-rule="evenodd" stroke="#00000000" d="m20 14.5-.02 3.07a18 18 0 0 1-8.07 1.93c-3-.02-5.16-.63-7.91-1.93l.02-3.07a19 19 0 0 0 7.91 1.63c2.97.01 5.22-.55 8.07-1.63Zm-3.82-9.95c3.32.02 4.8 2.36 4.79 4.98-.02 2.62-1.53 4.96-4.84 4.94-2.07-.01-3.43-.94-4.15-2.27-.73 1.35-2.1 2.29-4.2 2.27-3.31-.02-4.8-2.38-4.78-5s1.52-4.94 4.84-4.92c2.07.02 3.42.93 4.14 2.26.73-1.34 2.1-2.27 4.2-2.26ZM7.82 7.17c-1.27 0-1.45 1.32-1.46 2.32 0 1 .16 2.35 1.44 2.36 1.27 0 1.45-1.34 1.45-2.34S9.1 7.18 7.82 7.17Zm8.35 0c-1.27 0-1.45 1.32-1.46 2.32 0 1 .16 2.35 1.43 2.36 1.28.01 1.46-1.34 1.46-2.34s-.16-2.33-1.43-2.34Z"/></svg>