<svg xmlns="http://www.w3.org/2000/svg" width="24" height="24" viewBox="0 0 24 24"><path fill="currentColor" fill-rule="evenodd" stroke="#00000000" d="M5.74 7.68H19.2a.8.8 0 0 1 .8.8.8.8 0 0 1-.8.8H5.74a.8.8 0 0 1-.8-.8.8.8 0 0 1 .8-.8z"/><path fill="currentColor" fill-rule="evenodd" stroke="#00000000" d="M12.29 4.08 8.56 19.6a.8.8 0 0 1-.96.58.8.8 0 0 1-.6-.98l3.73-15.54a.8.8 0 0 1 .95-.58h.02c.43.12.69.55.59.99Zm4.71 0L13.26 19.6a.8.8 0 0 1-.97.58.8.8 0 0 1-.59-.98l3.73-15.54a.8.8 0 0 1 .95-.58h.01c.43.12.7.55.6.99Z"/><path fill="currentColor" fill-rule="evenodd" stroke="#00000000" d="M4.8 13.33h13.46a.8.8 0 0 1 .8.8.8.8 0 0 1-.8.8H4.8a.8.8 0 0 1-.8-.8.8.8 0 0 1 .8-.8z"/></svg>