<svg xmlns="http://www.w3.org/2000/svg" width="24" height="24" viewBox="0 0 24 24"><path fill="currentColor" stroke="#00000000" d="M11.98 1.3a2.6 2.6 0 0 1 2.6 2.45l.01.16V14.4l.08.06a4.4 4.4 0 0 1 1.71 3.02l.02.25v.22a4.42 4.42 0 1 1-7.1-3.47l.07-.06V3.9c0-1.33 1-2.43 2.3-2.59l.15-.01zm0 1.03c-.87 0-1.58.7-1.58 1.58v10.83q0 .22-.19.33a3.4 3.4 0 1 0 5.17 2.87c0-1.18-.6-2.25-1.62-2.88a.4.4 0 0 1-.19-.33V3.9c0-.87-.71-1.58-1.59-1.58Zm.64 6.76v6.51l.11.03a2.4 2.4 0 0 1 1.67 1.98l.02.17v.16a2.43 2.43 0 1 1-3.18-2.3l.13-.04V9.09z"/></svg>