<svg xmlns="http://www.w3.org/2000/svg" width="24" height="24" viewBox="0 0 24 24"><path fill="currentColor" stroke="#00000000" d="M4.89 17.92a.5.5 0 0 0 .36-.13q.14-.14.13-.32a.5.5 0 0 0-.13-.32.5.5 0 0 0-.35-.14H3.34l1.1-3.25h4.71l1.05 3.25H8.38a.5.5 0 0 0-.35.13.4.4 0 0 0-.13.32q0 .18.14.32.12.15.36.14h3.58q.23 0 .35-.14.14-.14.13-.32a.5.5 0 0 0-.12-.32q-.12-.13-.34-.13h-.78L7.7 6.19q-.22-.69-.8-.69H3.95a.45.45 0 0 0-.48.46q0 .18.13.32.12.13.36.13h2.12L2.3 17.01h-.83a.45.45 0 0 0-.48.46q0 .18.13.32.12.13.36.13zm3.97-5.04h-4.1l2.16-6.33zm8.65 5.21q1.02 0 1.88-.4a4 4 0 0 0 1.35-.97q.11.75.46 1.02.33.26.84.26.43 0 .84-.21t.72-.57q.1-.1.1-.26a.5.5 0 0 0-.11-.31q-.1-.15-.26-.14-.12 0-.23.13-.16.19-.45.35-.29.17-.54.17a.5.5 0 0 1-.37-.13q-.13-.15-.13-.5V13.2q0-1.3-.26-2.15t-.9-1.3a3 3 0 0 0-1.75-.46q-1 0-1.77.28-.78.3-1.2.8-.43.5-.43 1.15 0 .33.15.55.15.2.43.2.33 0 .47-.4.14-.42.18-1.24a4.5 4.5 0 0 1 2.16-.47q1.09 0 1.53.66.45.65.45 1.9v.2l-.71.06q-1.6.12-2.54.3a3.3 3.3 0 0 0-1.59.74q-.64.56-.64 1.66t.61 1.75 1.71.65Zm.11-.86q-.67 0-1.08-.36-.4-.37-.4-1.18 0-.75.47-1.12t1.26-.54q.8-.14 2.4-.32l.4-.04v2.25q-.52.6-1.35.96-.83.35-1.7.35Z"/></svg>