<svg xmlns="http://www.w3.org/2000/svg" width="24" height="24" viewBox="0 0 24 24"><path fill="currentColor" stroke="#00000000" d="M7.58 10.76c.3-.3.77-.3 1.06 0l2.6 2.6 4.12-4.13a.75.75 0 1 1 1.06 1.06l-4.34 4.35a1.2 1.2 0 0 1-1.69 0l-2.81-2.82a.75.75 0 0 1 0-1.06Z"/><path fill="currentColor" stroke="#00000000" d="M5.5 15.75V8.5a3 3 0 0 1 3-3h7.25a3 3 0 0 1 3 3v7.25a3 3 0 0 1-3 3H8.5a3 3 0 0 1-3-3m14.75 0V8.5a4.5 4.5 0 0 0-4.5-4.5H8.5A4.5 4.5 0 0 0 4 8.5v7.25a4.5 4.5 0 0 0 4.5 4.5h7.25a4.5 4.5 0 0 0 4.5-4.5"/></svg>