<svg xmlns="http://www.w3.org/2000/svg" width="24" height="24" viewBox="0 0 24 24"><path fill="currentColor" stroke="#00000000" d="m3.32 18.3 1.42-3.83h6.28l1.42 3.83h.52L8.17 5.5h-.58L2.8 18.3zm7.52-4.3H4.92l2.96-7.93zM17 18.47q1.42 0 2.35-.57a4 4 0 0 0 1.4-1.34q0 1.05.17 1.74h.55v-.08a6 6 0 0 1-.25-2.05v-4.55q0-1.5-.94-2.26a3.8 3.8 0 0 0-2.43-.75 3.8 3.8 0 0 0-2.53.83q-.99.83-.99 1.95l.48.02a2 2 0 0 1 .87-1.66q.87-.66 2.17-.66 1.39 0 2.14.66t.76 1.85v1.39h-2.28q-2.06 0-3.23.81a2.5 2.5 0 0 0-1.16 2.09q0 1.13.8 1.86.8.72 2.12.72Zm0-.46q-1.07 0-1.76-.61a1.9 1.9 0 0 1-.69-1.48q0-1.07 1.04-1.75a5 5 0 0 1 2.86-.7h2.3v2.26A3.8 3.8 0 0 1 17 18.01Z"/></svg>