<svg xmlns="http://www.w3.org/2000/svg" width="24" height="24" viewBox="0 0 24 24"><path fill="currentColor" stroke="currentColor" stroke-width=".1" d="M16.09 3.5a2.4 2.4 0 0 1 2.41 2.41v8.18a2.4 2.4 0 0 1-2.41 2.41H7.9a2.4 2.4 0 0 1-2.41-2.41V5.9a2.4 2.4 0 0 1 2.42-2.4Zm0 1.11H7.9c-.71 0-1.3.59-1.3 1.3v8.18c0 .71.59 1.3 1.3 1.3h8.18c.71 0 1.3-.59 1.3-1.3V5.9c0-.71-.59-1.3-1.3-1.3Zm-1.77 1.7c.87 0 1.58.7 1.58 1.58a.56.56 0 1 1-1.11 0 .47.47 0 0 0-.47-.47h-1.76v5.15h.64a.56.56 0 0 1 0 1.12h-2.4a.56.56 0 1 1 0-1.12h.64V7.42H9.68a.47.47 0 0 0-.47.47.56.56 0 1 1-1.11 0c0-.87.7-1.58 1.58-1.58Z"/></svg>