<svg xmlns="http://www.w3.org/2000/svg" width="24" height="24" viewBox="0 0 24 24"><path fill="currentColor" stroke="#00000000" d="m4.3 18.3.87-2.64h4.64l.87 2.64h2.82L8.7 5.5H6.27L1.5 18.3zm4.8-4.78H5.88l1.6-4.8zm8.28 4.95q1.48 0 2.4-1.03.1.52.26.86h2.56v-.15a4.5 4.5 0 0 1-.38-1.96v-4.24q0-1.67-1.08-2.5a4.3 4.3 0 0 0-2.73-.84q-1.85 0-2.94.9-1.1.89-1.1 2.12h2.54q0-1.14 1.36-1.14.73 0 1.07.4.33.38.34 1.04v.56h-1.14q-2.17 0-3.28.82a2.7 2.7 0 0 0-1.1 2.31q0 1.24.93 2.05t2.3.8Zm.56-1.94q-.6 0-.91-.3-.33-.31-.33-.79 0-.63.46-1.05t1.48-.43h1.04v1.66q-.2.33-.65.62a2 2 0 0 1-1.1.29Z"/><path fill="currentColor" stroke="#00000000" d="M18.41 8.16q1.8 0 3 .93 1.18.91 1.26 2.62v4.46l.01.27q.05.86.26 1.36l.06.14.05.2v.6h-3.31l-.18-.42-.02-.05-.08.05q-.7.47-1.59.58l-.25.02h-.24q-1.52 0-2.59-.91a3 3 0 0 1-1.08-2.39q0-1.71 1.29-2.67a5.6 5.6 0 0 1 3.22-.9l.32-.01h.69v-.09l-.01-.16q-.04-.4-.22-.61-.18-.23-.73-.24c-.63 0-.88.17-.9.6l-.01.1v.44H13.9l.02-.67q.11-1.31 1.26-2.26 1.23-.99 3.23-.99ZM5.95 5.05h3.07l5.13 13.7h-3.79l-.88-2.64H5.5l-.88 2.64H.85zm12.46 4.01a4 4 0 0 0-2.66.8q-.6.49-.82 1.08l-.05.17-.02.07h1.65q.24-.98 1.42-1.12l.16-.01h.18q.92 0 1.4.54.34.38.43.95l.02.2v1.2h-1.58q-2.04 0-3 .73-.94.68-.93 1.96 0 1.04.77 1.7.8.7 2 .7 1.18 0 1.93-.75l.14-.14.6-.68.17.9.05.24.03.1.04.15H22l-.03-.1q-.09-.32-.14-.72l-.03-.27-.02-.29v-4.52q0-1.46-.91-2.15a4 4 0 0 0-2.46-.74ZM8.4 5.95H6.57l-4.43 11.9h1.82l.88-2.64h5.28l.88 2.64h1.84zm11.73 7.56v2.22l-.06.1q-.26.45-.8.8-.57.35-1.33.35-.75 0-1.22-.43-.47-.44-.47-1.11 0-.82.6-1.38.5-.45 1.34-.52l.22-.02h1.72Zm-.9.9h-.78q-.7.05-.98.31a1 1 0 0 0-.32.72q0 .3.18.45.2.2.6.19a1.6 1.6 0 0 0 1.21-.5l.09-.1zm-13.97-.44L7.5 7.3l2.22 6.68zm2.23-3.83-.98 2.93h1.96z"/></svg>