<svg xmlns="http://www.w3.org/2000/svg" width="24" height="24" viewBox="0 0 24 24"><path fill="currentColor" stroke="#00000000" d="M4.86 15.94c.33-.11.75-.11 1.1-.01q.27.08.47.24t.31.4a1.3 1.3 0 0 1 .06.83 1 1 0 0 1-.33.49 1 1 0 0 1 .44.89q0 .3-.12.55-.13.24-.33.4t-.48.25a2 2 0 0 1-1.1.01 1 1 0 0 1-.46-.23q-.22-.15-.34-.4a1 1 0 0 1-.14-.56v-.19h1.12v.2l.02.1.07.1.11.06q.16.05.33 0L5.7 19l.07-.1.02-.13-.03-.19-.06-.1-.13-.06-.2-.02h-.58v-.96h.58q.2 0 .28-.08t.09-.25q0-.07-.03-.12l-.04-.08-.1-.06a.5.5 0 0 0-.29 0l-.1.05a.2.2 0 0 0-.07.16v.19H3.99v-.2a1.1 1.1 0 0 1 .43-.88q.2-.15.44-.23Zm14.45 1.5a.75.75 0 1 1 0 1.5H9.8a.75.75 0 0 1 0-1.5ZM4.83 9.84a2 2 0 0 1 1.2-.02q.26.09.44.25.18.15.28.4a1.4 1.4 0 0 1 .03.93q-.06.2-.19.4-.11.18-.28.37l-.34.38-.36.37h1.36v.97H4.03v-.76l1.26-1.35a4 4 0 0 0 .36-.46l.06-.15.02-.12q0-.17-.08-.26t-.22-.08q-.08 0-.15.03l-.1.08-.07.13-.03.2v.19H3.96v-.2q0-.28.1-.54a1.3 1.3 0 0 1 .77-.75Zm14.48 1.41a.75.75 0 1 1 0 1.5H9.8a.75.75 0 0 1 0-1.5ZM6.2 3.94v4.1H5.09V5.27l-.88.27v-.98l1.73-.61zm13.1 1.12a.75.75 0 1 1 0 1.5H9.8a.75.75 0 0 1 0-1.5Z"/></svg>