<svg xmlns="http://www.w3.org/2000/svg" width="24" height="24" viewBox="0 0 24 24"><path fill="currentColor" stroke="#00000000" d="m3.73 18.3 1.21-3.35h5.36l1.22 3.35h1.74L8.36 5.5H6.88L2 18.3zm6.07-4.74H5.45l2.17-5.97zm7.86 4.91q.88 0 1.57-.34.67-.35 1.14-.84.07.67.23 1h1.7v-.13a5 5 0 0 1-.34-2.1V11.8q0-1.6-1-2.39-.99-.8-2.53-.79-1.73 0-2.75.9-1.03.9-1.03 1.91h1.62q0-.6.57-1.05t1.49-.45q.99 0 1.5.5.5.52.5 1.36v.75h-1.6q-1.96 0-3.12.8a2.6 2.6 0 0 0-1.16 2.32q0 1.2.87 2a3.3 3.3 0 0 0 2.34.82Zm.24-1.42q-.9 0-1.36-.47t-.46-1.15q0-1.7 2.74-1.76h1.51v1.96a2.6 2.6 0 0 1-.9.98q-.65.45-1.53.44Z"/></svg>