<svg xmlns="http://www.w3.org/2000/svg" width="24" height="24" viewBox="0 0 24 24"><path fill="currentColor" stroke="#00000000" d="M16.78 18.9a.75.75 0 0 1 0 1.5H8.61a.75.75 0 1 1 0-1.5Zm-2.95-3.98a.75.75 0 1 1 0 1.5H8.61a.75.75 0 1 1 0-1.5ZM11.3 3.82a.77.77 0 0 1 1.06 0L14 5.47a1 1 0 0 1 0 1.41l-1.63 1.64a.75.75 0 0 1-1.06 0 .75.75 0 0 1 0-1.06l.53-.53h-1.2a5.37 5.37 0 0 0-5.35 5.36v.45a.75.75 0 0 1-1.5 0v-.45a6.87 6.87 0 0 1 6.86-6.86h1.18l-.53-.53a.75.75 0 0 1 0-1.06Zm8.16 7.13a.75.75 0 0 1 0 1.5H8.61a.75.75 0 1 1 0-1.5Z"/></svg>