<svg xmlns="http://www.w3.org/2000/svg" width="24" height="24" viewBox="0 0 24 24"><path fill="currentColor" stroke="#00000000" d="M21.45 18.67v.81H3v-.81zM8.3 5q.13 0 .22.05.2.1.23.35.21.46.47 1.18a89 89 0 0 1 1.03 2.9l.34 1.1q.08.3.27.83l1.37 3.7.48 1.26q.03.06.03.15 0 .3-.28.4-.04.03-.16.03l-.24-.06a.4.4 0 0 1-.16-.21q0-.06-.18-.47l-.95-2.4-.57-1.4-.7-.1q-.34-.04-.83-.07a14 14 0 0 0-1.9-.02l-.83.05a179 179 0 0 1-1.93 4.44.4.4 0 0 1-.4.24l-.17-.03q-.27-.12-.26-.4 0-.07.04-.17l.17-.4.07-.15a163 163 0 0 0 1.5-3.43l-1.03.12a.4.4 0 0 1-.28-.1.5.5 0 0 1-.15-.33q0-.17.1-.29a.5.5 0 0 1 .27-.14l.44-.06 1.03-.11a8 8 0 0 0 .35-.92l.41-1.1a94 94 0 0 1 1.2-2.89l.56-1.16q.03-.25.24-.36.06-.03.2-.03Zm10.21 2.63q.47 0 .8.17a2.3 2.3 0 0 1 .9.82l.11.21q.05.07.05.17 0 .15-.14.32a11 11 0 0 1 .06 2.92 18 18 0 0 0 1.09 4.2v.08q0 .28-.24.4l-.19.03q-.3 0-.38-.24l-.29-.74q-.26-.67-.53-1.87a7 7 0 0 1-1.3 1.99q-.36.37-.78.58-.4.2-.81.2-1.58 0-2.33-1.07-.76-1.08-.76-3.32a4.5 4.5 0 0 1 1.99-3.82 7 7 0 0 1 2.04-.93q.45-.1.71-.1Zm0 .86q-.2 0-.57.09a5 5 0 0 0-1.68.78 4 4 0 0 0-1.4 1.79q-.22.58-.22 1.33 0 1.17.19 1.86.2.7.5 1.07.33.37.72.49.39.1.81.11.32 0 .71-.3t.75-.81a6.4 6.4 0 0 0 1.09-2.66 23 23 0 0 1-.25-3.3.4.4 0 0 1-.17-.34l-.22-.08zm-10.24-2a36 36 0 0 0-.98 2.29 83 83 0 0 0-.98 2.6 17 17 0 0 1 3.68.1l-.23-.67q-.1-.37-.27-.9a42 42 0 0 0-.8-2.32q-.21-.6-.42-1.1Z"/></svg>