<svg xmlns="http://www.w3.org/2000/svg" width="24" height="24" viewBox="0 0 24 24"><path fill="currentColor" stroke="#00000000" d="m4.67 17.82.18-.95h-.32q-.46 0-.68-.16-.22-.15-.22-.48 0-.2.07-.44t.23-.57l.79-1.61h3.9l.24 1.93.04.57q0 .4-.31.58-.3.18-.82.18H7.4l-.17.95h5.3l.17-.95h-.3a1 1 0 0 1-.41-.1 1 1 0 0 1-.28-.27 2 2 0 0 1-.18-.4l-.1-.52L10.08 5h-2.2L2.44 15.47q-.22.42-.4.7-.15.27-.32.43-.15.15-.32.21t-.39.06H.67l-.17.95zm3.84-5.31H5.27l1.59-3.19.66-1.34a18 18 0 0 0 .49-1.16 16 16 0 0 0 .07 1.26l.14 1.41zM20.97 18a3 3 0 0 0 1.5-.36 4 4 0 0 0 1.03-.71l-.35-.72q-.25.16-.46.27a1 1 0 0 1-.44.1.5.5 0 0 1-.4-.21q-.16-.22-.16-.67l.03-.43a16 16 0 0 1 .24-1.45l1.06-5.61h-.85l-.85.43a5.5 5.5 0 0 0-2.27-.62q-.81 0-1.5.3-.7.3-1.25.81t-.99 1.19a8.2 8.2 0 0 0-1.15 5.7q.15.6.43 1.04.3.44.72.69.43.25 1 .25.6 0 1.03-.17.45-.18.8-.5.37-.34.66-.82.3-.49.6-1.1h.1a7 7 0 0 0-.1 1.16q0 .7.42 1.07.44.36 1.15.36Zm-3.65-1.43a1 1 0 0 1-.35-.1 1 1 0 0 1-.27-.3 2 2 0 0 1-.18-.56 5 5 0 0 1-.07-.87 9 9 0 0 1 .32-2.34q.16-.62.4-1.2t.55-1.03.7-.73a1.5 1.5 0 0 1 1.45-.15q.28.11.44.38l-.56 2.98a8 8 0 0 1-1 2.68q-.32.55-.7.9t-.73.34Z"/></svg>