<svg xmlns="http://www.w3.org/2000/svg" width="24" height="24" viewBox="0 0 24 24"><path fill="currentColor" stroke="#00000000" d="m12.54 7.85 3.12-3.11c.47-.47 1.3-.47 1.76 0l1.42 1.41c.48.5.48 1.28 0 1.77l-3.11 3.11zm-3.53 9.9q-.38.36-.89.37l-2.4-.02a.25.25 0 0 1-.24-.25l-.02-2.39q0-.51.36-.89l5.66-5.66 3.18 3.18zM19.9 8.98a2.75 2.75 0 0 0 0-3.89l-1.42-1.41a2.8 2.8 0 0 0-3.88 0l-4.18 4.17-5.65 5.66a2.8 2.8 0 0 0-.81 1.97l.02 2.38q0 .3.1.57l-.59.6a.75.75 0 1 0 1.06 1.06l.6-.6q.27.1.56.1l2.39.03h.02c.73 0 1.43-.3 1.95-.8l5.66-5.66z"/><path fill="currentColor" fill-rule="evenodd" stroke="#00000000" d="M19.68 15.23h-2.8c-.87 0-1.57.7-1.57 1.57 0 .41.37.71.78.71s.79-.37.79-.78h.65v2.91h-.22a.75.75 0 0 0 0 1.5h1.94a.75.75 0 0 0 0-1.5h-.22v-2.91h.65q.07 0 .07.07a.75.75 0 0 0 1.5 0c0-.87-.7-1.57-1.57-1.57"/></svg>