<svg xmlns="http://www.w3.org/2000/svg" width="24" height="24" viewBox="0 0 24 24"><path fill="currentColor" stroke="#00000000" d="M12 14.05c.38 0 .7.3.7.66v2.97h1.8c.38 0 .7.3.7.66s-.32.66-.7.66h-5c-.38 0-.7-.3-.7-.66s.32-.66.7-.66h1.8V14.7c0-.36.32-.66.7-.66ZM16.84 5c1.55 0 2.81 1.2 2.81 2.67 0 .37-.3.66-.7.66a.7.7 0 0 1-.69-.66 1.4 1.4 0 0 0-1.42-1.35H12.7v5.09h6.6c.39 0 .7.3.7.66s-.31.66-.7.66H4.7c-.39 0-.7-.3-.7-.66s.31-.66.7-.66h6.6V6.32H7.16c-.78 0-1.42.6-1.42 1.35 0 .37-.31.66-.7.66s-.7-.3-.7-.66A2.75 2.75 0 0 1 7.17 5Z"/></svg>