<svg xmlns="http://www.w3.org/2000/svg" width="24" height="24" viewBox="0 0 24 24"><path fill="currentColor" stroke="#00000000" d="M18.26 10.56c1.06 0 1.93.87 1.93 1.93a.75.75 0 0 1-1.5 0c0-.23-.2-.43-.43-.43H16.3v5.77h.64a.75.75 0 1 1 0 1.5h-2.78a.75.75 0 1 1 0-1.5h.64v-5.77h-1.94c-.24 0-.43.2-.43.43a.75.75 0 0 1-1.5 0c0-1.06.86-1.93 1.93-1.93ZM8.3 17.67a.75.75 0 1 1 0 1.5H4.56a.75.75 0 0 1 0-1.5Zm.25-6.5a.75.75 0 1 1 0 1.5h-4a.75.75 0 0 1 0-1.5Zm10.25-6.5a.75.75 0 1 1 0 1.5H4.56a.75.75 0 0 1 0-1.5Z"/></svg>