<svg xmlns="http://www.w3.org/2000/svg" width="24" height="24" viewBox="0 0 24 24"><path fill="currentColor" stroke="#00000000" d="m4.3 18.3.87-2.64h4.64l.87 2.64h2.82L8.7 5.5H6.27L1.5 18.3zm4.8-4.78H5.88l1.6-4.8zm8.28 4.95q1.48 0 2.4-1.03.1.52.26.86h2.56v-.15a4.5 4.5 0 0 1-.38-1.96v-4.24q0-1.67-1.08-2.5a4.3 4.3 0 0 0-2.73-.84q-1.85 0-2.94.9-1.1.89-1.1 2.12h2.54q0-1.14 1.36-1.14.73 0 1.07.4.33.38.34 1.04v.56h-1.14q-2.17 0-3.28.82a2.7 2.7 0 0 0-1.1 2.31q0 1.24.93 2.05t2.3.8Zm.56-1.94q-.6 0-.91-.3-.33-.31-.33-.79 0-.63.46-1.05t1.48-.43h1.04v1.66q-.2.33-.65.62a2 2 0 0 1-1.1.29Z"/></svg>