<svg xmlns="http://www.w3.org/2000/svg" width="24" height="24" viewBox="0 0 24 24"><path fill="currentColor" stroke="#00000000" d="M2.65 19.27h.05q.41-.06.64-.3.25-.24.38-.77a27 27 0 0 1 .49-1.52l.85-2.52 4-.62q.1.39.15.76a35 35 0 0 1 .2 1.71q.07.67.26.96.18.3.4.3.15 0 .3-.13.16-.12.27-.34a2 2 0 0 0 .2-1.13l-.43-2.43 1.13-.22q.53-.15.74-.33t.21-.33-.2-.28a1 1 0 0 0-.55-.12l-.32.03-1.13.17-.22-1.46a43 43 0 0 0-.44-2.26A22 22 0 0 0 9 6.35l.65-1.03.2-.33q.08-.17.08-.32a1 1 0 0 0-.15-.47.5.5 0 0 0-.39-.2 1 1 0 0 0-.4.14q-.2.13-.43.4-.48.6-.94 1.3a33 33 0 0 0-1.75 3 47 47 0 0 0-1.35 2.84q-.25.64-.42 1.14l-.79.09-.44.1q-.21.04-.36.13a1 1 0 0 0-.25.19.4.4 0 0 0-.09.25 1 1 0 0 0 .14.43q.07.17.28.26a1 1 0 0 0 .6.07l.3-.06a24 24 0 0 0-1.16 2.98l-.21.63q-.12.33-.12.67 0 .26.09.41t.2.22.23.08h.18zm3.01-6.52.25-.6.29-.65.8-1.8q.43-.93.94-1.93a26 26 0 0 1 .64 2.74l.27 1.46.05.38zm9.28 4.53q.44 0 .91-.17a4 4 0 0 0 1.27-.78 7 7 0 0 0 .74-.88l.4-.55a5 5 0 0 0 .3 1.57q.16.34.4.55.23.2.54.17.3-.05.54-.12a3 3 0 0 0 1.04-.54q.27-.21.57-.56.37-.41.52-.67t.16-.43-.25-.17q-.16 0-.42.1a3 3 0 0 0-.5.27q-.45.37-.76.53-.3.16-.5.16t-.33-.12a1 1 0 0 1-.17-.3 2 2 0 0 1-.06-.43v-.48l.25-1.53a.5.5 0 0 0-.11-.49l-.22-.14-.27-.05a1 1 0 0 0-.43.13 1 1 0 0 0-.34.42q-.32.63-.65 1.17-.34.54-.7.93t-.73.61-.74.23q-.3 0-.54-.14a1 1 0 0 1-.22-.39 2 2 0 0 1-.07-.54q0-.3.05-.66a7 7 0 0 1 1.07-2.72q.18-.22.37-.33a1.3 1.3 0 0 1 .7-.22q.2 0 .33.03l.36.09q.54.13.92.13.7 0 .7-.3 0-.16-.26-.42a3 3 0 0 0-.8-.53 3 3 0 0 0-.63-.3A2 2 0 0 0 16 9.4q-.35.12-.68.36t-.67.66-.63 1.03a7 7 0 0 0-.63 4.57q.16.58.51.9.43.37 1.05.37Z"/></svg>