<svg xmlns="http://www.w3.org/2000/svg" width="24" height="24" viewBox="0 0 24 24"><path fill="#00000000" fill-rule="evenodd" stroke="currentColor" stroke-linecap="round" stroke-linejoin="round" stroke-width="1.5" d="M17.48 2.86c.88.1 1.55.85 1.55 1.74v7.5c0 .47-.7.78-1.1.91l-.03.01-.03.01h-.03q-.98.21-1.88.47l-.14.04-.19.06c-.93.32-1.66.76-1.89 1.46a2.6 2.6 0 0 0 .03 1.86l.13.47v.02c.06.18.37 1.29.37 1.77 0 .93-.85 1.7-1.73 1.92a2 2 0 0 1-1.1 0c-.87-.23-1.71-1-1.71-1.93 0-.47.3-1.58.35-1.76l.02-.04.12-.44c.18-.62.3-1.02.03-1.87-.24-.76-1.07-1.2-2.1-1.53L8 13.5q-.89-.26-1.85-.46H6.1L6.06 13c-.4-.13-1.1-.44-1.1-.9V3.87a10 10 0 0 0 3.45.63q1.91 0 3.89-.72 2.64-.95 4.49-.96.36 0 .7.04M5.04 8.74H19"/></svg>