<svg xmlns="http://www.w3.org/2000/svg" width="24" height="24" viewBox="0 0 24 24"><path fill="currentColor" stroke="#00000000" d="M20.49 5a2.25 2.25 0 0 1 2.25 2.25v2.36c0 .47-.38.85-.85.85-1.07 0-1.94.88-1.94 1.97 0 1.1.87 1.97 1.94 1.97.47 0 .85.38.85.85v2.36a2.25 2.25 0 0 1-2.25 2.25H4.25A2.25 2.25 0 0 1 2 17.61V7.25A2.25 2.25 0 0 1 4.25 5zm0 1.7H9.17l.03.23c0 .54-.43.98-.97.98a.97.97 0 0 1-.94-1.2L4.25 6.7c-.3 0-.55.25-.55.55v10.36c0 .3.25.55.55.55h3.04l-.03-.23c0-.54.43-.98.97-.98a.97.97 0 0 1 .94 1.21H20.5c.3 0 .55-.25.55-.55V16a3.66 3.66 0 0 1-2.79-3.57 3.66 3.66 0 0 1 2.79-3.57V7.25c0-.3-.25-.55-.55-.55ZM8.23 13.28c.54 0 .97.44.97.98s-.43.98-.97.98a.97.97 0 0 1-.97-.98c0-.54.43-.98.97-.98Zm0-3.66c.54 0 .97.44.97.98s-.43.98-.97.98a.97.97 0 0 1-.97-.98c0-.54.43-.98.97-.98Z"/></svg>