<svg xmlns="http://www.w3.org/2000/svg" width="24" height="24" viewBox="0 0 24 24"><path fill="currentColor" stroke="#00000000" d="M7.31 7.31a6.63 6.63 0 1 0 9.38 9.37A6.63 6.63 0 0 0 7.3 7.31Zm8.5.89a5.38 5.38 0 1 1-7.61 7.6 5.38 5.38 0 0 1 7.6-7.6Zm2.11-3a.62.62 0 0 1 .96.8l-.07.08-.36.35a.62.62 0 0 1-.95-.8l.07-.08zM5.4 17.72a.62.62 0 0 1 .96.8l-.07.08-.36.35a.62.62 0 0 1-.95-.8l.07-.08zM12 2.38c.31 0 .57.23.62.53v.59a.62.62 0 0 1-1.24.1V3c0-.35.27-.62.62-.62ZM5.2 5.2a.6.6 0 0 1 .8-.08l.08.07.35.36a.62.62 0 0 1-.8.95l-.08-.07-.36-.35a.6.6 0 0 1 0-.89Zm12.51 12.52a.6.6 0 0 1 .8-.08l.09.07.35.36a.62.62 0 0 1-.8.95l-.08-.07-.36-.35a.6.6 0 0 1 0-.89ZM3.5 11.38a.62.62 0 0 1 .1 1.24H3a.62.62 0 0 1-.1-1.24zm8.5 8.5c.31 0 .57.23.62.53V21a.62.62 0 0 1-1.24.1v-.6c0-.35.27-.62.62-.62Zm8.92-8.5a.62.62 0 0 1 .09 1.24h-.6a.62.62 0 0 1-.09-1.24z"/></svg>