<svg xmlns="http://www.w3.org/2000/svg" width="24" height="24" viewBox="0 0 24 24"><path fill="#00000000" fill-rule="evenodd" stroke="currentColor" stroke-linecap="round" stroke-linejoin="round" stroke-width="1.5" d="M14.93 8.83V5.75a2 2 0 0 0-2-2H6.25a2.5 2.5 0 0 0-2.5 2.5v6.68c0 1.1.9 2 2 2h.52"/><path fill="#00000000" fill-rule="evenodd" stroke="currentColor" stroke-linecap="round" stroke-linejoin="round" stroke-width="1.5" d="M9.07 8.3v9.45a2.5 2.5 0 0 0 2.5 2.5h6.18a2.5 2.5 0 0 0 2.5-2.5V12.1a2 2 0 0 0-2-2h-.43"/><path fill="#00000000" fill-rule="evenodd" stroke="currentColor" stroke-linecap="round" stroke-linejoin="round" stroke-width="1.5" d="m6.75 9.73 1.97-1.97c.2-.2.51-.2.7 0l1.97 1.97m5.86-3.14-1.97 1.96a.5.5 0 0 1-.7 0L12.6 6.6m-.48 10.77 2.38-5.18c.09-.2.37-.2.45 0l2.39 5.18m-3.99-2.13h2.75"/></svg>