<svg xmlns="http://www.w3.org/2000/svg" width="22" height="22" viewBox="0 0 22 22"><path fill="#00000000" fill-rule="evenodd" stroke="currentColor" stroke-linecap="round" stroke-linejoin="round" stroke-width="1.5" d="M17.24 9.96V6.9a2.3 2.3 0 0 0-2.3-2.3H9.97"/><path fill="#00000000" fill-rule="evenodd" stroke="currentColor" stroke-linecap="round" stroke-linejoin="round" stroke-width="1.5" d="m19.36 8.36-1.8 1.8a.46.46 0 0 1-.65 0l-1.8-1.8M4.65 12.2v3.74a2.3 2.3 0 0 0 2.29 2.3h4.97"/><path fill="#00000000" fill-rule="evenodd" stroke="currentColor" stroke-linecap="round" stroke-linejoin="round" stroke-width="1.5" d="m2.52 13.8 1.8-1.8a.46.46 0 0 1 .65 0l1.8 1.8M2.95 9.5l2.51-5.45c.1-.2.39-.2.48 0L8.45 9.5M4.26 7.26h2.9m12.13 8.5a2.64 2.64 0 1 0-5.27 0 2.64 2.64 0 0 0 5.27 0"/></svg>