<svg xmlns="http://www.w3.org/2000/svg" width="24" height="24" viewBox="0 0 24 24"><path fill="currentColor" stroke="#00000000" d="M17.23 6c.38 0 .7.27.74.64l.01.1v2.5h2.5a.75.75 0 0 1 .1 1.5h-2.6v5A3.25 3.25 0 0 1 14.92 19H9.73v2.5a.75.75 0 0 1-1.5.1V19h-2.5a.75.75 0 0 1-.1-1.5h2.6v-5a3.25 3.25 0 0 1 3.07-3.24h5.18v-2.5c0-.42.34-.76.75-.76Zm-.75 4.74h-5c-.92 0-1.67.7-1.74 1.6v5.15h5c.91 0 1.66-.7 1.74-1.6zm-4.5-8.1.1.08 1.63 1.64a1 1 0 0 1 .08 1.3l-.08.1-1.63 1.64a.75.75 0 0 1-1.14-.97l.08-.09.53-.53h-1.19A5.36 5.36 0 0 0 5 10.95v.67a.75.75 0 0 1-1.5.1v-.55a6.86 6.86 0 0 1 6.63-6.86h1.41L11 3.78a.75.75 0 0 1-.07-.98l.07-.08c.27-.27.69-.3.98-.07Z"/></svg>