<svg xmlns="http://www.w3.org/2000/svg" width="24" height="24" viewBox="0 0 24 24"><path fill="currentColor" fill-rule="evenodd" stroke="#00000000" d="M13.84 15.71v-6.5a.75.75 0 0 1 1.5 0v6.5a.75.75 0 1 1-1.5 0Zm-3.68 0a.75.75 0 1 1-1.5 0v-6.5a.75.75 0 0 1 1.5 0zM10 4.54c0-.41.34-.75.75-.75h2.5c.41 0 .75.34.75.75v.54h-4zm5.09 17.17c.48 0 .87-.4.87-.88v-1H16a2.5 2.5 0 0 0 2.5-2.5V7.58a2.5 2.5 0 0 0-2.5-2.5h-.5v-.54c0-1.24-1-2.25-2.25-2.25h-2.5A2.26 2.26 0 0 0 8.5 4.54v.54H8a2.5 2.5 0 0 0-2.5 2.5v9.75a2.5 2.5 0 0 0 2.5 2.5h.04v1a.88.88 0 0 0 1.75 0v-1h4.42v1c0 .49.4.88.88.88Z"/></svg>