<svg xmlns="http://www.w3.org/2000/svg" width="24" height="24" viewBox="0 0 24 24"><path fill="currentColor" fill-rule="evenodd" stroke="#00000000" d="M7.24 14.98c1.02 0 1.85.82 1.85 1.82q0 .45-.2.83l-.07.12c-.33.52-.91.87-1.58.87a1.84 1.84 0 0 1-1.87-1.82c0-1 .84-1.82 1.87-1.82m7.66 1.82c0-1 .84-1.82 1.87-1.82 1.02 0 1.86.82 1.86 1.82s-.84 1.82-1.86 1.82c-.68 0-1.27-.35-1.6-.88l-.06-.1q-.2-.39-.2-.84m-7.67 3.32c1.17 0 2.21-.6 2.81-1.51L12 15.24l1.95 3.37a3.37 3.37 0 0 0 6.18-1.8 3.36 3.36 0 0 0-6.35-1.5l-.91-1.58L17.9 5a.75.75 0 1 0-1.3-.75L12 12.23 7.4 4.25A.75.75 0 1 0 6.1 5l5.03 8.73-.9 1.57a3.37 3.37 0 0 0-6.35 1.5c0 1.83 1.5 3.32 3.36 3.32"/></svg>