<svg xmlns="http://www.w3.org/2000/svg" width="36" height="36" viewBox="0 0 36 36"><path fill="currentColor" fill-rule="evenodd" stroke="#00000000" d="m7.8 25.8 2.6-2.3s7.1-.2 7.5 0c.6.3.9 1.6 0 2-.5.2-.8.2-.8.2l-4.3.8-3.1 2z"/><path fill="currentColor" fill-rule="evenodd" stroke="#00000000" d="m9.3 29.3-2.5-3.7 3.3-3.1h.3c7.5-.2 7.5 0 7.8 0 .6.3 1.1.9 1.1 1.7s-.5 1.4-1.1 1.6c-.5.2-.9.3-1.1.3l-4 .8zm-.4-3.5.9 1.2 2.6-1.7 4.5-.9h.2s.2 0 .5-.2c.2 0 .2-.2.2-.2 0-.2 0-.2-.2-.3h-6.8z"/><path fill="currentColor" fill-rule="evenodd" stroke="#00000000" d="M5.2 27.9v5.7l7.6-2.6 8.4 1.6 9.6-6.4s.6-2.2-1.9-1.4c-1.4.5-4.5 1.9-4.5 1.9L21 27.9s-2.8.5-5.6-2c0 0-3.1-1.1-10.1-.8v2.8z"/><path fill="currentColor" fill-rule="evenodd" stroke="#00000000" d="M5.2 34.5c-.2 0-.3 0-.5-.2s-.3-.3-.3-.6v-8.5c0-.5.3-.8.8-.8 7.1-.3 10.4.8 10.4.8.2 0 .2 0 .2.2 2.3 2 4.5 1.9 5 1.9l3.6-1.4c.3-.2 3.1-1.4 4.5-1.9 1.1-.3 1.9-.2 2.3.3.8.8.5 1.9.5 2 0 .2-.2.3-.3.5l-9.6 6.4c-.2.2-.3.2-.6.2L13 31.8l-7.5 2.5c-.2.2-.2.2-.3.2zm.7-8.7v6.7l6.5-2.3h.5l8.1 1.4 9-6.1v-.3s-.3-.2-.9 0c-1.4.3-4.3 1.7-4.3 1.7l-3.4 1.2h-.2c-.2 0-3.1.5-6.2-2-.5.3-3.5-.5-9.1-.3zm16.8-24-5.1 7.6c0 .2-.2.2-.2.3 0 .3.2.5.5.5h10.4c.3 0 .5-.3.5-.5s0-.2-.2-.3l-5.1-7.6c-.2-.2-.3-.3-.5-.3 0 0-.1.2-.3.3z"/><path fill="currentColor" fill-rule="evenodd" stroke="#00000000" d="M24.1 9.3h-1.7c-.3 0-.5.2-.5.5v7.1c0 .3.2.5.5.5h1.7c.3 0 .5-.2.5-.5V9.8c0-.3-.2-.5-.5-.5zM13.4 19.9l5.1-7.6c0-.2.2-.2.2-.3 0-.3-.2-.5-.5-.5H7.8c-.3 0-.5.3-.5.5s0 .2.2.3l5.1 7.6c.2.2.3.3.5.3 0-.2.1-.2.3-.3z"/><path fill="currentColor" fill-rule="evenodd" stroke="#00000000" d="M13.7 4.3H12c-.3 0-.5.2-.5.5v7.1c0 .3.2.5.5.5h1.7c.3 0 .5-.2.5-.5V4.8c0-.3-.2-.5-.5-.5z"/></svg>