<svg xmlns="http://www.w3.org/2000/svg" width="24" height="24" viewBox="0 0 24 24"><path fill="currentColor" stroke="#00000000" d="M3.16 4.63a.75.75 0 0 1 1.02-.04l15.5 15.5a.75.75 0 0 1-1.1 1.01L8.3 10.83l-2.14 2.15a3.15 3.15 0 0 0 0 4.45l.14.14a3.15 3.15 0 0 0 4.46 0l1.5-1.5a.75.75 0 0 1 1.06 1.06l-1.5 1.5a4.63 4.63 0 0 1-6.58 0l-.14-.14a4.65 4.65 0 0 1 0-6.58l2.14-2.14L3.16 5.7a.75.75 0 0 1 0-1.06Zm9.8-.56a4.76 4.76 0 0 1 6.71 6.71l-2.43 2.43q-.61.61-1.38.95l-1.17-1.18q.83-.19 1.49-.83l2.43-2.43a3.24 3.24 0 0 0 0-4.6 3.26 3.26 0 0 0-4.6 0l-1.43 1.44a.75.75 0 1 1-1.06-1.07Zm-3.08 4.1c1.5-.33 3.13.08 4.3 1.24l.14.15a.75.75 0 0 1-1.06 1.06l-.14-.14a3 3 0 0 0-1.83-.9Z"/></svg>