<svg xmlns="http://www.w3.org/2000/svg" width="24" height="24" viewBox="0 0 24 24"><path fill="currentColor" fill-rule="evenodd" stroke="#00000000" d="M10.67 14.4c0-.68.6-1.23 1.33-1.23s1.33.55 1.33 1.24c0 .4-.22.77-.55 1v2.07c0 .4-.35.73-.78.73s-.78-.33-.78-.73V15.4a1.2 1.2 0 0 1-.55-1ZM5 18.8C5 20.01 6.05 21 7.33 21h9.34c1.28 0 2.33-.99 2.33-2.2v-6.56c0-1.21-1.05-2.2-2.33-2.2h-7.7V7.4A3 3 0 0 1 12 4.46c.8 0 1.56.3 2.13.86.3.29.8.3 1.1.01a.7.7 0 0 0 .02-1.04A4.7 4.7 0 0 0 12 3a4.5 4.5 0 0 0-4.58 4.4v2.64h-.09c-1.28 0-2.33.99-2.33 2.2z"/></svg>