<svg xmlns="http://www.w3.org/2000/svg" width="24" height="24" viewBox="0 0 24 24"><path fill="currentColor" stroke="#00000000" d="M15.13 2.6c.96 0 1.74.78 1.74 1.75v4.47c.6.28 1 .88 1 1.58v6.5a4.5 4.5 0 0 1-4.5 4.5h-2.74a4.5 4.5 0 0 1-4.5-4.5v-6.5c0-.7.4-1.3 1-1.58V4.35c0-.96.78-1.75 1.75-1.75Zm0 1.5H8.87a.25.25 0 0 0-.25.25v4.3h6.76v-4.3a.25.25 0 0 0-.26-.25Zm-4.38 1.45c.35 0 .63.28.63.62v.43a.63.63 0 0 1-1.26 0v-.43c0-.34.28-.62.63-.62Zm2.5 0c.35 0 .63.28.63.62v.43a.63.63 0 0 1-1.26 0v-.43c0-.34.28-.62.63-.62Z"/></svg>