<svg xmlns="http://www.w3.org/2000/svg" width="80" height="80" viewBox="0 0 80 80"><path fill="#00000000" fill-rule="evenodd" stroke="currentColor" stroke-linecap="round" stroke-linejoin="round" stroke-width="5" d="M48.68 65.22A26.67 26.67 0 1 1 66.66 40"/><path fill="#00000000" fill-rule="evenodd" stroke="currentColor" stroke-linecap="round" stroke-linejoin="round" stroke-width="5" d="M49.94 38.7c-.27-13.68-4.61-24.57-9.94-24.57-5.5 0-9.95 11.59-9.95 25.87S34.5 65.87 40 65.87c2 0 3.86-1.53 5.42-4.18M47.69 40H14.97"/><path fill="#00000000" fill-rule="evenodd" stroke="currentColor" stroke-linecap="round" stroke-linejoin="round" stroke-width="5" d="M71.67 52.08a14.58 14.58 0 1 1-29.17 0 14.58 14.58 0 0 1 29.17 0"/><path fill="#00000000" fill-rule="evenodd" stroke="currentColor" stroke-linecap="round" stroke-linejoin="round" stroke-width="5" d="M62.78 52.08h-4.76a.94.94 0 0 1-.94-.94v-6.39"/></svg>