<svg xmlns="http://www.w3.org/2000/svg" width="24" height="24" viewBox="0 0 24 24"><path fill="#00000000" fill-rule="evenodd" stroke="currentColor" stroke-linecap="round" stroke-linejoin="round" stroke-width="1.5" d="M13.27 4.88 8.43 8.75H5.3c-.83 0-1.5.67-1.5 1.5v3.25c0 .83.67 1.5 1.5 1.5h3.13l4.84 4.37c.61.56 1.12.33 1.12-.5V5.38c0-.82-.5-1.04-1.12-.49m6.16 14.3-1.85-1.84a.75.75 0 0 1 0-1.06l1.32-1.32a.75.75 0 0 0 0-1.06l-1.32-1.31a.75.75 0 0 1 0-1.06l1.32-1.32a.75.75 0 0 0 0-1.06l-1.32-1.31a.75.75 0 0 1 0-1.06l1.85-1.84m-14.9-.5 9.84 9.68"/></svg>