<svg xmlns="http://www.w3.org/2000/svg" width="24" height="24" viewBox="0 0 24 24"><path fill="currentColor" stroke="#00000000" d="M7.05 3.5a.75.75 0 0 1 .1 1.5h-1.4c-.65 0-1.18.5-1.24 1.12l-.01.13v1.34a.75.75 0 0 1-1.5.1V6.25a2.75 2.75 0 0 1 2.58-2.74l.17-.01zm11.2 0a2.75 2.75 0 0 1 2.74 2.58l.01.17v1.34a.75.75 0 0 1-1.5.1V6.25c0-.65-.5-1.18-1.12-1.24L18.25 5h-1.3a.75.75 0 0 1-.1-1.5zM3.75 16.12c.38 0 .7.28.74.64l.01.1v1.6c0 .64.5 1.17 1.12 1.24h1.43a.75.75 0 0 1 .1 1.5h-1.4A2.75 2.75 0 0 1 3 18.62v-1.75c0-.42.34-.75.75-.75Zm16.5.25c.38 0 .7.28.74.64l.01.1v1.34a2.75 2.75 0 0 1-2.58 2.75h-1.47a.75.75 0 0 1-.1-1.5h1.4c.65 0 1.18-.49 1.24-1.12l.01-.13v-1.33c0-.42.34-.75.75-.75Zm-5-8.27c.83 0 1.5.67 1.5 1.5v5.5c0 .83-.67 1.5-1.5 1.5h-6.5a1.5 1.5 0 0 1-1.5-1.5V9.6c0-.83.67-1.5 1.5-1.5Zm-4.62 2a.37.37 0 0 0-.38.38v3.74c0 .25.19.38.38.38l.25-.07 3.15-1.85q.21-.13.22-.33 0-.2-.22-.33l-3.15-1.85z"/></svg>