<svg xmlns="http://www.w3.org/2000/svg" width="24" height="24" viewBox="0 0 24 24"><path fill="currentColor" d="M17.75 1.55a.24.24 0 0 1 .45 0l.9 2.67 1.87.89c.18.09.18.35 0 .43l-1.87.9-.89 2.68a.24.24 0 0 1-.46 0l-.9-2.68L15 5.55a.24.24 0 0 1 0-.43l1.87-.9zm3.7 4.87c.04-.14.25-.14.3 0l.58 1.74 1.22.59c.12.06.12.22 0 .28l-1.22.59-.58 1.74a.16.16 0 0 1-.3 0l-.58-1.74-1.22-.58a.16.16 0 0 1 0-.29l1.22-.58z"/><path fill="none" stroke="currentColor" stroke-linecap="round" stroke-linejoin="round" stroke-width="1.5" d="m20 12.3.01 5.19a2.5 2.5 0 0 1-2.5 2.5l-11 .01a2.5 2.5 0 0 1-2.5-2.5L4 6.5A2.5 2.5 0 0 1 6.5 4h6.36m1.94 8.2-4.27 2.77a.6.6 0 0 1-.34.1c-.25 0-.51-.19-.51-.57V8.9c0-.37.25-.57.5-.57q.18 0 .35.1l4.27 2.77q.3.19.3.5t-.3.5"/></svg>