<svg xmlns="http://www.w3.org/2000/svg" width="24" height="24" viewBox="0 0 24 24"><path fill="currentColor" fill-rule="evenodd" d="M12.59 14.26a.86.86 0 0 1-1.21 1.21l-2.26-2.26-2.25 2.26a.85.85 0 0 1-1.22 0 .86.86 0 0 1 0-1.22L7.91 12 5.65 9.75a.86.86 0 0 1 1.22-1.22l2.25 2.26 2.25-2.26a.86.86 0 1 1 1.22 1.22L10.34 12zm9.87-7.85q-.23 0-.44.13l-4.3 2.5V7.57a2.87 2.87 0 0 0-2.86-2.87H3.7A2.87 2.87 0 0 0 .84 7.57v8.86A2.87 2.87 0 0 0 3.7 19.3h11.16a2.87 2.87 0 0 0 2.86-2.87v-1.48l4.3 2.49q.22.15.46.15c.34 0 .68-.26.68-.77V7.2c0-.51-.35-.78-.7-.78"/></svg>