<svg xmlns="http://www.w3.org/2000/svg" width="24" height="24" viewBox="0 0 24 24"><path fill="currentColor" fill-rule="evenodd" stroke="#00000000" d="m8.25 15.1-1.24-3.44h.88l.72 2.22.72-2.22h.88l-1.25 3.45zm3.37-1.88q.26 0 .37-.1.1-.12.1-.31a.5.5 0 0 0-.1-.32q-.12-.13-.37-.13h-.55v.86zm-1.35 1.89v-3.45h1.35q.6 0 .94.32.35.34.35.82 0 .52-.35.82t-.94.3h-.55v1.19zm4.91 0-1.23-1.96v1.96h-.8v-3.45h.74l1.24 1.97v-1.97h.8v3.45z"/><path fill="#00000000" fill-rule="evenodd" stroke="currentColor" stroke-linecap="round" stroke-linejoin="round" stroke-width="1.5" d="M10.17 20.44H7a2 2 0 0 1-2-2v-6.73c0-1.1.9-2 2-2h9a2 2 0 0 1 1.98 1.7m-1.7 11.05a1.85 1.85 0 1 1-2.62-2.62l2.74-2.74c.73-.73 1.9-.73 2.62 0m.31-2.94a1.85 1.85 0 1 1 2.63 2.63l-2.74 2.73c-.73.73-1.9.73-2.63 0M7.83 9V6.76A3.7 3.7 0 0 1 11.5 3a3.7 3.7 0 0 1 3.67 3.76V9"/></svg>