<svg xmlns="http://www.w3.org/2000/svg" width="24" height="24" viewBox="0 0 24 24"><path fill="currentColor" fill-rule="evenodd" stroke="#00000000" d="m8.28 15.1-1.24-3.44h.88l.71 2.22.72-2.22h.88L9 15.11zm3.36-1.88q.27 0 .38-.1.1-.12.1-.31a.5.5 0 0 0-.11-.32q-.11-.13-.37-.13h-.54v.86zm-1.35 1.89v-3.45h1.35q.6 0 .95.32.34.33.34.82 0 .52-.35.82-.33.3-.94.3h-.54v1.19zm4.92 0-1.23-1.96v1.96h-.8v-3.45h.74l1.24 1.97v-1.97h.8v3.45z"/><path fill="#00000000" fill-rule="evenodd" stroke="currentColor" stroke-linecap="round" stroke-linejoin="round" stroke-width="1.5" d="M18 12.88v-1.17a2 2 0 0 0-2-2H7a2 2 0 0 0-2 2v6.73c0 1.1.9 2 2 2h4.3M7.83 9V6.76A3.7 3.7 0 0 1 11.5 3a3.7 3.7 0 0 1 3.67 3.76V9m1.88 12.53 2.98-2.98a1.61 1.61 0 1 0-2.29-2.28l-2.97 2.97a1.62 1.62 0 0 0 2.28 2.29m2.65-.33-4.6-4.6"/></svg>