<svg xmlns="http://www.w3.org/2000/svg" width="24" height="24" viewBox="0 0 24 24"><path fill="currentColor" stroke="#00000000" d="M7.1 7.36c0-.9.76-1.64 1.7-1.64s1.7.73 1.7 1.64S9.74 9 8.8 9s-1.7-.73-1.7-1.64Zm11.08 11.79c0 .6-.57 1.09-1.27 1.09H6.1c-.13 0-1.27-.03-1.27-.8v-3.85l2.29-2.24a.65.65 0 0 1 .86.01l1.78 1.67c.23.23.62.23.86 0l4.47-4.24a.6.6 0 0 1 .84 0l2.26 2.3zM3 4.85v14.59C3 21.02 4.38 22 6.09 22H16.9c1.7 0 3.09-1.28 3.09-2.85V4.85C20 3.29 18.62 2 16.91 2H6.1C4.39 2 3 3.28 3 4.86Z"/></svg>