<svg xmlns="http://www.w3.org/2000/svg" width="24" height="24" viewBox="0 0 24 24"><path fill="#00000000" fill-rule="evenodd" stroke="currentColor" stroke-linecap="round" stroke-linejoin="round" stroke-width="1.5" d="M16.5 21.28h-9a2.8 2.8 0 0 1-2.81-2.81V5.53A2.8 2.8 0 0 1 7.5 2.72h9a2.8 2.8 0 0 1 2.81 2.81v12.94a2.8 2.8 0 0 1-2.81 2.81m2.53-7.34-2.53-2.67a1.13 1.13 0 0 0-1.6-.02l-3.73 3.66a.56.56 0 0 1-.79 0l-1.26-1.23a1.13 1.13 0 0 0-1.58.01l-2.57 2.59M9.5 9.25a1.69 1.69 0 1 0 0-3.38 1.69 1.69 0 0 0 0 3.38"/></svg>