<svg xmlns="http://www.w3.org/2000/svg" width="24" height="24" viewBox="0 0 24 24"><path fill="currentColor" stroke="#00000000" d="M22.11 11.16v1.68a.98.98 0 1 1-1.95 0v-1.68a.98.98 0 1 1 1.95 0ZM6.52 5.3c.54 0 .98.44.98.98v11.44a.98.98 0 1 1-1.96 0V6.28c0-.54.44-.98.98-.98Zm7.3-2.93c.55 0 .98.44.98.98v17.3a.98.98 0 1 1-1.95 0V3.35c0-.54.44-.98.98-.98ZM2.88 10.2c.54 0 .97.43.97.97v1.68a.98.98 0 0 1-1.95 0v-1.68c0-.54.44-.97.98-.97Zm7.3-1.96c.54 0 .98.44.98.98v5.58a.98.98 0 1 1-1.95 0V9.21c0-.54.43-.98.97-.98Zm7.31 0c.54 0 .98.44.98.98v5.58a.98.98 0 1 1-1.96 0V9.21c0-.54.44-.98.98-.98Z"/></svg>