<svg xmlns="http://www.w3.org/2000/svg" width="80" height="80" viewBox="0 0 80 80"><path fill="currentColor" fill-rule="evenodd" stroke="#00000000" d="M45.75 27.7 42.8 26l2.95-1.7a1.5 1.5 0 0 0-1.5-2.6l-2.95 1.7V20a1.5 1.5 0 0 0-3 0v3.4l-2.94-1.7a1.5 1.5 0 1 0-1.5 2.6L36.8 26l-2.94 1.7a1.5 1.5 0 0 0 1.5 2.6l2.94-1.7V32a1.5 1.5 0 1 0 3 0v-3.4l2.95 1.7q.37.2.75.2a1.5 1.5 0 0 0 .75-2.8m0 28L42.8 54l2.95-1.7a1.5 1.5 0 0 0-1.5-2.6l-2.95 1.7V48a1.5 1.5 0 0 0-3 0v3.4l-2.94-1.7a1.5 1.5 0 1 0-1.5 2.6L36.8 54l-2.94 1.7a1.5 1.5 0 0 0 1.5 2.6l2.94-1.7V60a1.5 1.5 0 1 0 3 0v-3.4l2.95 1.7q.37.2.75.2a1.5 1.5 0 0 0 .75-2.8m-19.61-14L23.2 40l2.94-1.7a1.5 1.5 0 0 0-1.5-2.6l-2.94 1.7V34a1.5 1.5 0 0 0-3 0v3.4l-2.95-1.7a1.5 1.5 0 0 0-1.5 2.6L17.2 40l-2.95 1.7a1.5 1.5 0 0 0 1.5 2.6l2.95-1.7V46a1.5 1.5 0 1 0 3 0v-3.4l2.94 1.7q.37.2.75.2a1.5 1.5 0 0 0 .75-2.8m39.61 0L62.8 40l2.95-1.7a1.5 1.5 0 0 0-1.5-2.6l-2.95 1.7V34a1.5 1.5 0 0 0-3 0v3.4l-2.94-1.7a1.5 1.5 0 0 0-1.5 2.6L56.8 40l-2.94 1.7a1.5 1.5 0 0 0 1.5 2.6l2.94-1.7V46a1.5 1.5 0 1 0 3 0v-3.4l2.95 1.7q.37.2.75.2a1.5 1.5 0 0 0 .75-2.8"/></svg>