<svg xmlns="http://www.w3.org/2000/svg" width="80" height="80" viewBox="0 0 80 80"><path fill="currentColor" fill-rule="evenodd" stroke="#00000000" d="M45.58 55.42a3 3 0 0 1-2.12-5.12l12.02-12.02a3 3 0 1 1 4.24 4.24L47.7 54.55c-.59.6-1.35.88-2.12.88m19.74-19.75a3 3 0 0 1-2.12-5.12l1.41-1.41a3 3 0 1 1 4.24 4.24l-1.41 1.41c-.59.6-1.35.88-2.12.88M40 44.02a3 3 0 0 1-2.12-5.12l9.2-9.2a3 3 0 0 1 4.24 4.25l-9.19 9.2c-.58.58-1.35.87-2.12.87M16.26 50.8a3 3 0 0 1-2.12-5.12l19.8-19.8a3 3 0 1 1 4.24 4.24l-19.8 19.8c-.58.59-1.35.88-2.12.88m-3.01-13.96a3 3 0 0 1-2.12-5.12l4.95-4.95A3 3 0 0 1 20.32 31l-4.95 4.95c-.58.59-1.35.88-2.12.88"/></svg>