<svg xmlns="http://www.w3.org/2000/svg" width="80" height="80" viewBox="0 0 80 80"><path fill="currentColor" fill-rule="evenodd" stroke="#00000000" d="M37.43 65.25a2.5 2.5 0 0 1-1.91-4.1L40.65 55a2.5 2.5 0 1 1 3.83 3.22l-5.15 6.13c-.5.59-1.2.89-1.91.89m15.01.01a2.5 2.5 0 0 1-1.91-4.1L55.65 55a2.5 2.5 0 1 1 3.83 3.22l-5.15 6.13c-.5.59-1.2.89-1.91.89m7.35-40.09a10.4 10.4 0 1 1-20.8 0 10.4 10.4 0 0 1 20.8 0"/><path fill="currentColor" fill-rule="evenodd" stroke="#00000000" d="M54.4 30.75h-6.72A16 16 0 1 0 32 49.95h22.4a9.6 9.6 0 1 0 0-19.2"/><path fill="currentColor" fill-rule="evenodd" stroke="#00000000" d="m38.07 45.2-16.3 19.55c-.55.65-1.59.01-1.25-.77l5.68-13.1a.74.74 0 0 0-.68-1.04h-6.46a.74.74 0 0 1-.68-1.03l6.98-16.08a.7.7 0 0 1 .67-.44h7.11c.53 0 .89.54.68 1.03l-4.19 9.64a.74.74 0 0 0 .68 1.03h7.2c.62 0 .96.73.56 1.21"/></svg>