<svg xmlns="http://www.w3.org/2000/svg" width="70" height="70" viewBox="0 0 70 70"><path fill="currentColor" fill-rule="evenodd" stroke="#00000000" d="M25.14 16c7.58 0 14.14 4.4 17.24 10.79h7.24a13.72 13.72 0 1 1 0 27.44H28.36q-.75 0-1.48-.08-.86.08-1.74.08A19.13 19.13 0 0 1 6 35.12 19.13 19.13 0 0 1 25.14 16Z"/><path fill="currentColor" fill-rule="evenodd" stroke="#00000000" d="M21.44 40a2.94 2.94 0 1 1 5.88 0 2.94 2.94 0 1 1-5.88 0m10.66 0a2.94 2.94 0 1 1 5.88 0 2.94 2.94 0 1 1-5.88 0m10.66 0a2.94 2.94 0 1 1 5.88 0 2.94 2.94 0 1 1-5.88 0"/></svg>