<svg xmlns="http://www.w3.org/2000/svg" width="80" height="80" viewBox="0 0 80 80"><path fill="currentColor" fill-rule="evenodd" stroke="#00000000" d="m47.65 62-.64-.02a9.5 9.5 0 0 1-7.74-5.36 2.5 2.5 0 0 1 4.5-2.2A4.5 4.5 0 0 0 47.31 57a4.83 4.83 0 0 0 5-4.27 4.6 4.6 0 0 0-1.28-3.37A3.7 3.7 0 0 0 48.46 48H24.83a2.5 2.5 0 1 1 0-5h23.63a8.6 8.6 0 0 1 6.28 2.99 9.6 9.6 0 0 1 2.56 7.21c-.43 4.34-4.2 8.8-9.65 8.8m11.97-25H14a2.5 2.5 0 0 1 0-5h45.62c.86 0 1.82-.5 2.59-1.35a4.6 4.6 0 0 0 1.28-3.37 4.83 4.83 0 0 0-5-4.27 4.5 4.5 0 0 0-3.56 2.57 2.5 2.5 0 0 1-4.5-2.2 9.5 9.5 0 0 1 7.74-5.36c5.8-.37 9.85 4.27 10.3 8.78A9.6 9.6 0 0 1 65.9 34a8.6 8.6 0 0 1-6.28 3"/><path fill="currentColor" fill-rule="evenodd" stroke="#00000000" d="M35.82 26h-12a2.5 2.5 0 1 1 0-5h12a2.5 2.5 0 1 1 0 5"/></svg>