<svg xmlns="http://www.w3.org/2000/svg" width="80" height="80" viewBox="0 0 80 80"><path fill="currentColor" fill-rule="evenodd" stroke="#00000000" d="M57.7 26.82h-8.26A20 20 0 1 0 30 51.44h27.7a12.3 12.3 0 1 0 0-24.62"/><path fill="currentColor" fill-rule="evenodd" stroke="#00000000" d="m51.05 46.2-18.4 22.06c-.62.74-1.79.02-1.4-.86l6.4-14.8a.83.83 0 0 0-.76-1.16h-7.3c-.6 0-1-.61-.76-1.16l7.87-18.15c.13-.3.43-.5.76-.5h8.03c.6 0 1 .6.76 1.16l-4.72 10.88a.83.83 0 0 0 .76 1.17h8.12c.7 0 1.09.82.64 1.36"/></svg>