<svg xmlns="http://www.w3.org/2000/svg" width="80" height="80" viewBox="0 0 80 80"><path fill="currentColor" fill-rule="evenodd" stroke="#00000000" d="M30.33 57.5a1 1 0 0 0-1.37-.37L27 58.27V56a1 1 0 0 0-2 0v2.27l-1.96-1.14a1 1 0 0 0-1 1.74L24 60l-1.96 1.13a1 1 0 1 0 1 1.74L25 61.73V64a1 1 0 0 0 2 0v-2.27l1.96 1.14a1 1 0 0 0 1.37-.37 1 1 0 0 0-.37-1.37L28 60l1.96-1.13a1 1 0 0 0 .37-1.37m14 0a1 1 0 0 0-1.37-.37L41 58.27V56a1 1 0 0 0-2 0v2.27l-1.96-1.14a1 1 0 0 0-1 1.74L38 60l-1.96 1.13a1 1 0 1 0 1 1.74L39 61.73V64a1 1 0 0 0 2 0v-2.27l1.96 1.14a1 1 0 0 0 1.37-.37 1 1 0 0 0-.37-1.37L42 60l1.96-1.13a1 1 0 0 0 .37-1.37m13.63 3.63L56 60l1.96-1.13a1 1 0 1 0-1-1.74L55 58.27V56a1 1 0 0 0-2 0v2.27l-1.96-1.14a1 1 0 0 0-1 1.74L52 60l-1.96 1.13a1 1 0 0 0 1 1.74L53 61.73V64a1 1 0 0 0 2 0v-2.27l1.96 1.14a1 1 0 0 0 1.37-.37 1 1 0 0 0-.37-1.37m1.81-35.73a10.4 10.4 0 1 1-20.8 0 10.4 10.4 0 0 1 20.8 0"/><path fill="currentColor" fill-rule="evenodd" stroke="#00000000" d="M54.4 31h-6.72A16 16 0 1 0 32 50.2h22.4a9.6 9.6 0 1 0 0-19.2"/></svg>