<svg xmlns="http://www.w3.org/2000/svg" width="80" height="80" viewBox="0 0 80 80"><path fill="currentColor" fill-rule="evenodd" stroke="#00000000" d="M46.2 53.6a3 3 0 0 1-2.12-5.13l10.61-10.6a3 3 0 1 1 4.24 4.24l-10.6 10.6c-.59.6-1.36.89-2.13.89m18.33-18.33a3 3 0 0 1-2.12-5.12l1.41-1.41a3 3 0 0 1 4.25 4.24l-1.42 1.41a3 3 0 0 1-2.12.88M40.64 42.2a3 3 0 0 1-2.12-5.12l9.19-9.2a3 3 0 0 1 4.24 4.24l-9.2 9.2c-.58.58-1.35.87-2.11.87M14.06 51.8a3 3 0 0 1-2.12-5.12l1.4-1.41a3 3 0 0 1 4.25 4.24l-1.4 1.41a3 3 0 0 1-2.13.88m11.28-11.29a3 3 0 0 1-2.12-5.12l8.52-8.51a3 3 0 0 1 4.24 4.24l-8.51 8.52a3 3 0 0 1-2.13.87"/></svg>