<svg xmlns="http://www.w3.org/2000/svg" width="80" height="80" viewBox="0 0 80 80"><path fill="currentColor" fill-rule="evenodd" stroke="#00000000" d="M44.04 40a4 4 0 1 1-8 0 4 4 0 0 1 8 0"/><path fill="currentColor" fill-rule="evenodd" stroke="#00000000" d="m36.6 63.53-.2-.01c-3-.25-5.95-1.03-8.76-2.34-11.2-5.22-16.67-17.26-12.2-26.83 2.2-4.72 6.41-8.12 11.88-9.58a24.4 24.4 0 0 1 16.51 1.68 19.2 19.2 0 0 1 9.24 8.82 2.5 2.5 0 0 1-4.47 2.23 14 14 0 0 0-6.88-6.52c-4.29-2-8.94-2.49-13.11-1.38-4.01 1.07-7.08 3.5-8.64 6.86-3.3 7.07 1.09 16.13 9.78 20.18a21 21 0 0 0 7.05 1.9 2.5 2.5 0 0 1-.2 4.99"/><path fill="currentColor" fill-rule="evenodd" stroke="#00000000" d="M46.83 55.97c-3.58 0-7.25-.81-10.7-2.42a19.2 19.2 0 0 1-9.23-8.82 2.5 2.5 0 1 1 4.47-2.24 14 14 0 0 0 6.88 6.53c4.29 2 8.94 2.48 13.11 1.37 4.01-1.07 7.08-3.5 8.64-6.85s1.46-7.27-.3-11.03a19.4 19.4 0 0 0-9.48-9.16 21 21 0 0 0-7.05-1.89 2.5 2.5 0 1 1 .4-4.98c3 .24 5.95 1.03 8.76 2.34 5.35 2.5 9.57 6.6 11.9 11.58 2.4 5.12 2.5 10.54.3 15.25s-6.41 8.12-11.88 9.57q-2.84.75-5.82.75"/></svg>