<svg xmlns="http://www.w3.org/2000/svg" width="24" height="24" viewBox="0 0 24 24"><path fill="currentColor" stroke="#00000000" d="m9.9 16.95.12.01c.47.05.83.46.83.94v.9c0 .53-.42.95-.94.95H9.8a.95.95 0 0 1-.84-.95v-.9c0-.52.42-.95.95-.95Zm3.5-.88a.95.95 0 0 1 1.29.34l.45.79a.95.95 0 0 1-1.64.95l-.45-.79a.95.95 0 0 1 .35-1.3Zm-8.25.25a.95.95 0 1 1 1.64.95l-.45.78a.95.95 0 0 1-1.64-.95Zm10.82-2.76a.95.95 0 0 1 1.3-.35l.78.45a.95.95 0 0 1-.95 1.64l-.78-.45a.95.95 0 0 1-.35-1.3ZM10 4.58a5.42 5.42 0 1 1 0 10.84 5.42 5.42 0 0 1 0-10.84Zm-7.36 8.47a.95.95 0 0 1 .94 1.64l-.78.45a.95.95 0 0 1-1.29-.35.95.95 0 0 1 .35-1.3Zm16.16-3.9a.95.95 0 0 1 0 1.9h-.9l-.1-.01a.95.95 0 0 1 .1-1.9Zm-16.7-.2a.95.95 0 0 1 0 1.9h-.9a.95.95 0 0 1 0-1.9Zm15.1-4.09a.95.95 0 1 1 .94 1.64l-.78.45a.94.94 0 0 1-1.29-.34.95.95 0 0 1 .35-1.3Zm-15.6.18a.95.95 0 0 1 1.3-.34l.78.45a.95.95 0 1 1-.95 1.64l-.78-.45a.95.95 0 0 1-.35-1.3Zm12.06-3.09a.95.95 0 0 1 1.64.95l-.45.78a.95.95 0 1 1-1.64-.95Zm-8.45-.44a.95.95 0 0 1 1.3.35l.44.78a.95.95 0 1 1-1.64.94l-.45-.78a.95.95 0 0 1 .35-1.3ZM10.09.25c.53 0 .95.42.95.95v.9a.95.95 0 0 1-1.9 0v-.9c0-.53.43-.95.95-.95Z"/></svg>