<svg xmlns="http://www.w3.org/2000/svg" width="80" height="80" viewBox="0 0 80 80"><path fill="currentColor" fill-rule="evenodd" stroke="#00000000" d="M56 55.35a2.5 2.5 0 1 1 0-5 2.5 2.5 0 0 0 0-5H19a2.5 2.5 0 1 1 0-5h37a7.5 7.5 0 0 1 0 15m0-19.78H19a2.5 2.5 0 1 1 0-5h37a2.5 2.5 0 0 0 0-5 2.5 2.5 0 1 1 0-5 7.5 7.5 0 0 1 0 15"/><path fill="currentColor" fill-rule="evenodd" stroke="#00000000" d="M43.73 21.14a3 3 0 1 1-6 0 3 3 0 0 1 6 0M33.22 52.85a3 3 0 1 1-6 0 3 3 0 0 1 6 0m12 6a3 3 0 1 1-6 0 3 3 0 0 1 6 0"/></svg>