<svg xmlns="http://www.w3.org/2000/svg" width="80" height="80" viewBox="0 0 80 80"><path fill="currentColor" fill-rule="evenodd" stroke="#00000000" d="M46.3 27.25a1.5 1.5 0 0 0-2.05-.55l-2.95 1.7V25a1.5 1.5 0 1 0-3 0v3.4l-2.94-1.7a1.5 1.5 0 0 0-1.5 2.6L36.8 31l-2.94 1.7a1.5 1.5 0 0 0 1.5 2.6l2.94-1.7V37a1.5 1.5 0 0 0 3 0v-3.4l2.95 1.7a1.5 1.5 0 1 0 1.5-2.6L42.8 31l2.95-1.7a1.5 1.5 0 0 0 .55-2.05m-16.6 18a1.5 1.5 0 0 0-2.06-.55l-2.94 1.7V43a1.5 1.5 0 0 0-3 0v3.4l-2.95-1.7a1.5 1.5 0 0 0-1.5 2.6L20.2 49l-2.95 1.7a1.5 1.5 0 1 0 1.5 2.6l2.95-1.7V55a1.5 1.5 0 1 0 3 0v-3.4l2.94 1.7a1.5 1.5 0 1 0 1.5-2.6L26.2 49l2.94-1.7a1.5 1.5 0 0 0 .55-2.05m33.06 5.45L59.8 49l2.95-1.7a1.5 1.5 0 0 0-1.5-2.6l-2.95 1.7V43a1.5 1.5 0 1 0-3 0v3.4l-2.94-1.7a1.5 1.5 0 0 0-1.5 2.6L53.8 49l-2.94 1.7a1.5 1.5 0 0 0 1.5 2.6l2.94-1.7V55a1.5 1.5 0 0 0 3 0v-3.4l2.95 1.7a1.5 1.5 0 0 0 2.05-.55 1.5 1.5 0 0 0-.55-2.05"/></svg>