<svg xmlns="http://www.w3.org/2000/svg" width="24" height="24" viewBox="0 0 24 24"><path fill="currentColor" fill-rule="evenodd" stroke="#00000000" d="M12 9.89a6.11 6.11 0 0 1 5.15 9.38H6.85A6.11 6.11 0 0 1 12 9.89Zm9.93 5.15h.12a1.07 1.07 0 0 1-.12 2.14h-1.01l-.12-.01a1.07 1.07 0 0 1 .11-2.13zm-18.84-.22a1.07 1.07 0 0 1 0 2.14H2.07a1.07 1.07 0 0 1 0-2.14Zm17.03-4.62a1.07 1.07 0 0 1 1.07 1.85l-.88.51a1.07 1.07 0 1 1-1.07-1.85Zm-17.6.2c.3-.5.96-.68 1.47-.38l.88.5a1.07 1.07 0 1 1-1.07 1.86l-.88-.51c-.51-.3-.69-.95-.4-1.46Zm13.61-3.48a1.07 1.07 0 0 1 1.85 1.07l-.5.88a1.07 1.07 0 1 1-1.86-1.07Zm-9.54-.5c.51-.3 1.17-.12 1.46.4l.51.87a1.07 1.07 0 0 1-1.85 1.07l-.5-.88c-.3-.51-.13-1.16.38-1.46ZM12.11 5c.59 0 1.07.48 1.07 1.07v1.02a1.07 1.07 0 0 1-2.14 0V6.07c0-.6.48-1.07 1.07-1.07Z"/></svg>