<svg xmlns="http://www.w3.org/2000/svg" width="80" height="80" viewBox="0 0 80 80"><path fill="currentColor" fill-rule="evenodd" stroke="#00000000" d="M37.43 63.65a2.5 2.5 0 0 1-1.91-4.1l5.14-6.14a2.5 2.5 0 1 1 3.83 3.22l-5.15 6.13c-.5.58-1.2.89-1.91.89m15 0a2.5 2.5 0 0 1-1.91-4.1l5.14-6.14a2.5 2.5 0 1 1 3.83 3.22l-5.15 6.13c-.5.58-1.2.89-1.91.89m1.97-34.5h-6.72A16 16 0 1 0 32 48.35h22.4a9.6 9.6 0 1 0 0-19.2"/><path fill="currentColor" fill-rule="evenodd" stroke="#00000000" d="m38.07 43.6-16.3 19.54c-.55.66-1.59.02-1.25-.76l5.68-13.1a.74.74 0 0 0-.68-1.04h-6.46a.74.74 0 0 1-.68-1.03l6.98-16.08a.7.7 0 0 1 .67-.44h7.11c.53 0 .89.54.68 1.03l-4.19 9.64a.74.74 0 0 0 .68 1.03h7.2c.62 0 .96.73.56 1.21"/></svg>