<svg xmlns="http://www.w3.org/2000/svg" width="70" height="70" viewBox="0 0 70 70"><path fill="currentColor" fill-rule="evenodd" stroke="#00000000" d="M59.72 26a13 13 0 1 1-26 0 13 13 0 0 1 26 0"/><path fill="currentColor" fill-rule="evenodd" stroke="#00000000" d="M53 33a12 12 0 0 1 0 24H25v-8.27q1.2.27 2.5.27a11.5 11.5 0 0 0 10.59-16Z"/><path fill="currentColor" fill-rule="evenodd" stroke="#00000000" d="M25 17a20 20 0 1 1 0 40 20 20 0 0 1 0-40Zm.5 11c-.9 0-1.64.73-1.64 1.64v6.22H17.5a1.64 1.64 0 0 0 .13 3.28h6.22v6.35a1.64 1.64 0 0 0 3.28-.13v-6.22h6.35a1.64 1.64 0 0 0-.13-3.28h-6.22V29.5A1.64 1.64 0 0 0 25.5 28Z"/></svg>