<svg xmlns="http://www.w3.org/2000/svg" width="80" height="80" viewBox="0 0 80 80"><path fill="currentColor" fill-rule="evenodd" stroke="#00000000" d="M37.52 45.66a1.5 1.5 0 0 0-2.05-.55l-2.94 1.7v-3.4a1.5 1.5 0 0 0-3 0v3.4l-2.95-1.7a1.5 1.5 0 0 0-1.5 2.6l2.95 1.7-2.95 1.7a1.5 1.5 0 1 0 1.5 2.6l2.95-1.7v3.4a1.5 1.5 0 1 0 3 0V52l2.94 1.7q.37.2.75.2a1.5 1.5 0 0 0 .75-2.8l-2.94-1.7 2.94-1.7a1.5 1.5 0 0 0 .55-2.05M69.2 33.7 66.25 32l2.95-1.7a1.5 1.5 0 1 0-1.5-2.6l-2.95 1.7V26a1.5 1.5 0 0 0-3 0v3.4l-2.94-1.7a1.5 1.5 0 0 0-1.5 2.6l2.94 1.7-2.94 1.7a1.5 1.5 0 1 0 1.5 2.6l2.94-1.7V38a1.5 1.5 0 1 0 3 0v-3.4l2.95 1.7q.37.2.75.2a1.5 1.5 0 0 0 .75-2.8m-49.08-4.69a3 3 0 1 0-4.24-4.24l-4.95 4.95a3 3 0 1 0 4.24 4.24zm17.86-5.13a3 3 0 0 0-4.24 0l-19.8 19.8a3 3 0 0 0 4.24 4.24l19.8-19.8a3 3 0 0 0 0-4.24m5.36 15.85 7.78-7.78a3 3 0 1 0-4.24-4.24l-7.78 7.78a3 3 0 0 0 4.24 4.24m7.69.79-9.19 9.2a3 3 0 1 0 4.24 4.24l9.2-9.2a3 3 0 0 0-4.25-4.24"/></svg>