<svg xmlns="http://www.w3.org/2000/svg" width="80" height="80" viewBox="0 0 80 80"><path fill="currentColor" fill-rule="evenodd" stroke="#00000000" d="m62.03 49.84-2.46-1.43 2.2-1.45A2.5 2.5 0 1 0 59 42.78l-4.29 2.84L45 40l9.72-5.61 4.3 2.83a2.5 2.5 0 0 0 3.46-.71 2.5 2.5 0 0 0-.71-3.46l-2.2-1.46 2.46-1.43a2.5 2.5 0 1 0-2.5-4.32l-2.46 1.42-.16-2.64a2.5 2.5 0 0 0-5 .3l.31 5.13-9.72 5.62V24.44l4.6-2.3a2.5 2.5 0 1 0-2.24-4.47l-2.36 1.18V16a2.5 2.5 0 1 0-5 0v2.85l-2.36-1.18a2.5 2.5 0 0 0-2.24 4.47l4.6 2.3v11.23l-9.72-5.62.3-5.12a2.5 2.5 0 0 0-4.99-.3l-.16 2.63-2.46-1.43a2.5 2.5 0 1 0-2.5 4.34l2.46 1.42-2.2 1.46A2.5 2.5 0 1 0 21 37.22l4.29-2.83L35 40l-9.72 5.62-4.3-2.84a2.5 2.5 0 1 0-2.75 4.17l2.2 1.46-2.46 1.43a2.5 2.5 0 1 0 2.5 4.32l2.46-1.42.16 2.63a2.5 2.5 0 1 0 5-.3l-.31-5.12 9.72-5.62v11.23l-4.6 2.3a2.5 2.5 0 0 0 2.24 4.47l2.36-1.18V64a2.5 2.5 0 0 0 5 0v-2.85l2.36 1.18a2.5 2.5 0 1 0 2.24-4.47l-4.6-2.3V44.33l9.72 5.62-.3 5.13a2.5 2.5 0 1 0 4.99.3l.16-2.64 2.46 1.42a2.5 2.5 0 0 0 3.42-.91 2.5 2.5 0 0 0-.92-3.41" clip-path="url(#a)"/><clipPath id="a"><path d="M16.72 13.5h46.56v53H16.71z"/></clipPath></svg>