<svg xmlns="http://www.w3.org/2000/svg" width="80" height="80" viewBox="0 0 80 80"><path fill="currentColor" fill-rule="evenodd" stroke="#00000000" d="M16.92 55.6a3 3 0 0 1-2.12-5.12l1.41-1.42a3 3 0 1 1 4.25 4.25l-1.42 1.4c-.58.6-1.35.89-2.12.89m7.26-7.27a3 3 0 0 1-2.12-5.12l10.6-10.6a3 3 0 0 1 4.25 4.24l-10.6 10.6c-.59.6-1.36.88-2.13.88M45.2 61.26a3 3 0 0 1-2.12-5.12l1.42-1.42a3 3 0 1 1 4.24 4.24l-1.41 1.42c-.59.58-1.36.88-2.13.88M52.47 54a3 3 0 0 1-2.12-5.12l10.6-10.62a3 3 0 0 1 4.25 4.25L54.59 53.1c-.59.59-1.35.88-2.12.88M20.65 34.9a3 3 0 0 1-2.12-5.12l9.9-9.9a3 3 0 0 1 4.24 4.24l-9.9 9.9c-.59.59-1.35.88-2.12.88m27.99 5.95a3 3 0 0 1-2.12-5.12l1.41-1.42a3 3 0 1 1 4.24 4.25l-1.41 1.41c-.59.59-1.35.88-2.12.88M30.06 59.43a3 3 0 0 1-2.12-5.12l12.73-12.73a3 3 0 1 1 4.24 4.24L32.18 58.55c-.58.59-1.35.88-2.12.88"/></svg>