<svg xmlns="http://www.w3.org/2000/svg" width="24" height="24" viewBox="0 0 24 24"><path fill="currentColor" fill-rule="evenodd" stroke="currentColor" stroke-width=".3" d="M15 18.32c.14.74-.52 1.46-1.48 1.64q-.23.04-.44.04c-.78 0-1.42-.4-1.53-1.03a.5.5 0 1 1 .98-.18c.01.1.32.28.8.18.5-.09.71-.37.7-.47a.5.5 0 1 1 .98-.18Zm1.64-13.28c2.08.75 3.27 1.95 3.27 3.3q0 .98-.8 1.81c.61.58.92 1.26.89 1.94-.07 1.54-1.82 2.73-4.23 3.04q.1.29.08.57c-.07 1.14-1.44 1.94-3.26 1.94l-.4-.01c-1.66-.1-3-.84-3.33-1.82a.5.5 0 1 1 .94-.32c.17.5 1.13 1.05 2.45 1.14 1.46.09 2.58-.45 2.61-.99.01-.16-.08-.31-.18-.44h-.64c-3-.14-5.34-1.52-5.62-3.22q-1.05-.25-1.92-.66C4.89 10.57 4 9.51 4 8.34c0-1.27 1.02-2.39 2.87-3.15a.6.6 0 0 1 .77.33.6.6 0 0 1-.32.78c-1.33.55-2.13 1.31-2.13 2.04 0 1.35 2.78 2.85 6.77 2.85s6.76-1.5 6.76-2.85c0-.79-.95-1.62-2.48-2.17a.6.6 0 0 1-.36-.77.6.6 0 0 1 .76-.36Zm1.7 5.76-.05.03q-.4.27-.88.5a13 13 0 0 1-5.45 1.06q-1.27 0-2.43-.18c.49.96 2.18 1.88 4.56 1.99 2.87.13 4.86-1 4.92-2.16q0-.63-.66-1.24Z"/></svg>