<svg xmlns="http://www.w3.org/2000/svg" width="24" height="24" viewBox="0 0 24 24"><path fill="currentColor" stroke="#00000000" d="M8.21 14.25c.91 0 1.65.72 1.65 1.62v3.51c0 .9-.74 1.62-1.65 1.62H4.65C3.74 21 3 20.27 3 19.38v-3.51c0-.9.74-1.62 1.65-1.62Zm10.29 0c.9 0 1.64.73 1.64 1.62v3.51c0 .9-.73 1.62-1.64 1.62h-3.57c-.9 0-1.64-.73-1.64-1.62v-3.51c0-.9.73-1.62 1.64-1.62ZM15.53 3.48a1.7 1.7 0 0 1 2.37 0l2.6 2.57c.66.65.66 1.7 0 2.34l-2.6 2.56a1.7 1.7 0 0 1-2.37 0L12.92 8.4a1.64 1.64 0 0 1 0-2.34Zm-7.32.36c.91 0 1.65.73 1.65 1.62v3.51c0 .9-.74 1.62-1.65 1.62H4.65A1.63 1.63 0 0 1 3 8.97v-3.5c0-.9.74-1.63 1.65-1.63Z"/></svg>