<svg xmlns="http://www.w3.org/2000/svg" width="24" height="24" viewBox="0 0 24 24"><path fill="#00000000" fill-rule="evenodd" stroke="currentColor" stroke-linecap="round" stroke-linejoin="round" stroke-width="1.5" d="M7.84 10.53h-2.8a1.7 1.7 0 0 1-1.7-1.69V6.03c0-.93.76-1.69 1.7-1.69h2.8c.93 0 1.7.76 1.7 1.69v2.81a1.7 1.7 0 0 1-1.7 1.69m11.9-1.9-1.98 1.99a1.7 1.7 0 0 1-2.4 0l-1.98-2a1.7 1.7 0 0 1 0-2.38l1.99-1.99a1.7 1.7 0 0 1 2.39 0l1.98 1.99a1.7 1.7 0 0 1 0 2.39M7.84 20.65h-2.8a1.7 1.7 0 0 1-1.7-1.69v-2.8c0-.94.76-1.7 1.7-1.7h2.8c.93 0 1.7.76 1.7 1.7v2.8a1.7 1.7 0 0 1-1.7 1.7m10.13 0h-2.81a1.7 1.7 0 0 1-1.7-1.69v-2.8c0-.94.77-1.7 1.7-1.7h2.8c.94 0 1.7.76 1.7 1.7v2.8a1.7 1.7 0 0 1-1.7 1.7"/></svg>