<svg xmlns="http://www.w3.org/2000/svg" width="24" height="24" viewBox="0 0 24 24"><path fill="currentColor" fill-rule="evenodd" d="M8.06 14.57a.75.75 0 1 0 1.06 1.06 4 4 0 0 1 5.63 0 .75.75 0 0 0 1.06-1.06 5.5 5.5 0 0 0-7.75 0"/><path fill="currentColor" fill-rule="evenodd" d="M11.93 8.6a9.8 9.8 0 0 0-6.95 2.88.75.75 0 0 0 1.06 1.06 8.35 8.35 0 0 1 11.8 0 .74.74 0 0 0 1.05 0c.3-.29.3-.76 0-1.06a9.8 9.8 0 0 0-6.96-2.88m0 8.56a1.17 1.17 0 1 0 0 2.33 1.17 1.17 0 0 0 0-2.33"/><path fill="currentColor" fill-rule="evenodd" d="M21.8 8.58a13.96 13.96 0 0 0-19.73 0 .75.75 0 1 0 1.06 1.06 12.46 12.46 0 0 1 17.6 0 .75.75 0 0 0 1.07-1.06"/></svg>