<svg xmlns="http://www.w3.org/2000/svg" width="24" height="24" viewBox="0 0 24 24"><path fill="currentColor" fill-rule="evenodd" d="M11.29 12.76c1.2 0 2.17.98 2.17 2.17v1.12l3.26-1.9q.16-.1.33-.1l.08.01c.24.04.45.24.45.59v6.49c0 .38-.26.58-.51.58a1 1 0 0 1-.36-.12l-3.25-1.88v1.12c0 1.2-.98 2.17-2.17 2.17H2.83c-1.2 0-2.17-.97-2.17-2.17v-5.9c0-1.2.97-2.18 2.17-2.18zm4.26-2.04a1.13 1.13 0 1 1 0 2.27 1.13 1.13 0 0 1 0-2.27m0-3.48c1.26 0 2.44.5 3.33 1.38a.85.85 0 1 1-1.2 1.2 3 3 0 0 0-4.25 0 .85.85 0 1 1-1.2-1.2 4.7 4.7 0 0 1 3.32-1.37M9.71 6.2a8.26 8.26 0 0 1 11.67 0 .85.85 0 0 1-.6 1.45.8.8 0 0 1-.6-.25 6.56 6.56 0 0 0-9.27 0 .85.85 0 1 1-1.2-1.2M15.55.35c3.1 0 6.01 1.2 8.2 3.4a.85.85 0 0 1-.6 1.44.8.8 0 0 1-.6-.24 9.8 9.8 0 0 0-7-2.9 9.8 9.8 0 0 0-7 2.9.85.85 0 1 1-1.2-1.2c2.2-2.2 5.1-3.4 8.2-3.4"/></svg>