<svg xmlns="http://www.w3.org/2000/svg" width="24" height="24" viewBox="0 0 24 24"><path fill="currentColor" stroke="#00000000" d="M18.09 19.82a1.05 1.05 0 1 1 .32 2.08 1.05 1.05 0 0 1-.32-2.08"/><path fill="#00000000" fill-rule="evenodd" stroke="currentColor" stroke-linecap="round" stroke-linejoin="round" stroke-width="1.5" d="M11.01 18.75H3.96a2.64 2.64 0 0 1-2.64-2.63V7.69a2.64 2.64 0 0 1 2.64-2.64h10.67a2.64 2.64 0 0 1 2.64 2.64v1.45l4.06-2.36a1 1 0 0 1 .41-.12c.33 0 .67.25.67.74v4m-6.57 7.05a3.4 3.4 0 0 1 4.82 0m-7.09-2.27a6.6 6.6 0 0 1 9.36 0"/></svg>