<svg xmlns="http://www.w3.org/2000/svg" width="24" height="24" viewBox="0 0 24 24"><path fill="currentColor" fill-rule="evenodd" stroke="#00000000" d="M4.44 6.77h.1c.33.02.69.15 1.16.62l1.18 1.19c.47.47.6.82.62 1.15s-.08.68-.5 1.1l-.48.48c-.43.43-.54.78-.52 1.1.02.28.15.55.17.58.24.48 1.5 2.7 4.18 4.24.08.05.44.25.71.25.34 0 .68-.09 1.1-.51l.49-.48c.42-.42.77-.52 1.1-.5.33 0 .69.14 1.16.6l1.18 1.2c.47.47.6.82.62 1.15.02.34-.08.68-.5 1.1a4.9 4.9 0 0 1-4 1.6 5.4 5.4 0 0 1-2.93-1.03l-.15-.1a25 25 0 0 1-6.22-6.25l-.08-.13-.1-.15-.01-.02a5.4 5.4 0 0 1-.88-2.7 4.9 4.9 0 0 1 1.6-3.98c.42-.43.77-.53 1.1-.5Zm11.2 3.95a1.05 1.05 0 1 1 0 2.1 1.05 1.05 0 0 1 0-2.1Zm0-3.2c1.16 0 2.25.45 3.07 1.27a.78.78 0 0 1-1.1 1.1 2.76 2.76 0 0 0-3.93 0 .78.78 0 1 1-1.1-1.1 4.3 4.3 0 0 1 3.06-1.28Zm-5.4-.98a7.63 7.63 0 0 1 10.78 0 .79.79 0 0 1-1.1 1.1 6.06 6.06 0 0 0-8.56 0 .78.78 0 1 1-1.11-1.1Zm5.4-5.39a10.6 10.6 0 0 1 7.57 3.14.78.78 0 0 1-1.1 1.1 9 9 0 0 0-6.47-2.67c-2.44 0-4.74.95-6.46 2.67a.78.78 0 1 1-1.1-1.1 10.6 10.6 0 0 1 7.56-3.14Z"/></svg>