<svg xmlns="http://www.w3.org/2000/svg" width="24" height="24" viewBox="0 0 24 24"><path fill="currentColor" stroke="#00000000" d="M14.46 11a1.15 1.15 0 1 1 2.3 0 1.15 1.15 0 0 1-2.3 0"/><path fill="#00000000" fill-rule="evenodd" stroke="currentColor" stroke-linecap="round" stroke-linejoin="round" stroke-width="1.5" d="M10.98 13.22a2.3 2.3 0 0 1 2.3 2.31v.87l3.14-1.83q.15-.1.32-.1c.26 0 .51.2.51.57v6.27c0 .37-.25.56-.5.56a.6.6 0 0 1-.33-.11l-3.14-1.82v.88a2.3 2.3 0 0 1-2.3 2.3H3.25a2.3 2.3 0 0 1-2.3-2.3v-5.29a2.3 2.3 0 0 1 2.3-2.3zm7.4-4.51a3.6 3.6 0 0 0-5.13 0m7.5-2.37a6.95 6.95 0 0 0-9.87 0M23.08 4A10.24 10.24 0 0 0 8.54 4"/></svg>