<svg xmlns="http://www.w3.org/2000/svg" width="24" height="24" viewBox="0 0 24 24"><path fill="#00000000" fill-rule="evenodd" stroke="currentColor" stroke-linecap="round" stroke-linejoin="round" stroke-width="1.5" d="m6.44 9.26 5.27 5.27m0-5.27-5.27 5.27"/><path fill="currentColor" stroke="#00000000" d="M17.96 19.82a1.05 1.05 0 1 1 .32 2.08 1.05 1.05 0 0 1-.32-2.08"/><path fill="#00000000" fill-rule="evenodd" stroke="currentColor" stroke-linecap="round" stroke-linejoin="round" stroke-width="1.5" d="M10.88 18.75H3.83A2.64 2.64 0 0 1 1.2 16.1V7.68a2.64 2.64 0 0 1 2.63-2.63h10.68a2.64 2.64 0 0 1 2.63 2.63v1.46l4.06-2.36a1 1 0 0 1 .42-.12c.32 0 .66.25.66.73v4m-6.56 7.06a3.4 3.4 0 0 1 4.81 0m-7.09-2.27a6.6 6.6 0 0 1 9.36 0"/></svg>