<svg xmlns="http://www.w3.org/2000/svg" width="24" height="24" viewBox="0 0 24 24"><path fill="currentColor" fill-rule="evenodd" d="M13.16 17.81c0-.63-.52-1.14-1.16-1.14s-1.16.51-1.16 1.14c0 .64.52 1.15 1.16 1.15s1.16-.51 1.16-1.15"/><path fill="none" stroke="currentColor" stroke-linecap="round" stroke-linejoin="round" stroke-width="1.5" d="M21.25 8.79a13.2 13.2 0 0 0-18.5 0m13.82 1.46a9.1 9.1 0 0 0-10.94 1.38m8.13 2a4.8 4.8 0 0 0-5.08 1.02m10.11-1.7c.67.33 1.28.56 2.02.68a.5.5 0 0 1 .44.5v1.83a2.9 2.9 0 0 1-1.14 2.27c-.53.45-1.1.7-1.32.77a4 4 0 0 1-1.31-.77 2.9 2.9 0 0 1-1.14-2.27v-1.84a.5.5 0 0 1 .43-.5 7 7 0 0 0 2.02-.66"/></svg>