<svg xmlns="http://www.w3.org/2000/svg" width="24" height="24" viewBox="0 0 24 24"><path fill="currentColor" stroke="#00000000" d="M19.17 13.34a3.75 3.75 0 1 1 0 7.5 3.75 3.75 0 0 1 0-7.5Zm-2.02 2.78a2.25 2.25 0 0 0 3 3zm-6.07.55a1.17 1.17 0 1 1 0 2.33 1.17 1.17 0 0 1 0-2.33Zm8.1-1.83q-.53 0-.97.22l3 3q.2-.46.21-.97c0-1.25-1-2.25-2.25-2.25ZM7.2 14.07a5.5 5.5 0 0 1 7.75 0 .75.75 0 1 1-1.06 1.06 4 4 0 0 0-5.63 0 .75.75 0 0 1-1.06-1.06ZM4.13 11a9.84 9.84 0 0 1 13.91 0 .75.75 0 1 1-1.06 1.06 8.34 8.34 0 0 0-11.8 0A.75.75 0 0 1 4.14 11ZM1.22 8.1a13.95 13.95 0 0 1 19.73 0 .75.75 0 1 1-1.06 1.06 12.45 12.45 0 0 0-17.61 0A.75.75 0 0 1 1.22 8.1Z"/></svg>