<svg xmlns="http://www.w3.org/2000/svg" width="24" height="24" viewBox="0 0 24 24"><path fill="currentColor" fill-rule="evenodd" stroke="#00000000" d="M15.64 10.72a1.05 1.05 0 1 1 0 2.1 1.05 1.05 0 0 1 0-2.1Zm0-3.2c1.16 0 2.25.45 3.07 1.27a.78.78 0 0 1-1.1 1.1 2.76 2.76 0 0 0-3.93 0 .78.78 0 1 1-1.1-1.1 4.3 4.3 0 0 1 3.06-1.28Zm-5.4-.98a7.63 7.63 0 0 1 10.78 0 .79.79 0 0 1-1.1 1.1 6.06 6.06 0 0 0-8.56 0 .78.78 0 1 1-1.11-1.1Zm5.4-5.39a10.6 10.6 0 0 1 7.57 3.14.78.78 0 0 1-1.1 1.1 9 9 0 0 0-6.47-2.67c-2.44 0-4.74.95-6.46 2.67a.78.78 0 1 1-1.1-1.1 10.6 10.6 0 0 1 7.56-3.14Z"/><path fill="#00000000" fill-rule="evenodd" stroke="currentColor" stroke-linecap="round" stroke-linejoin="round" stroke-width="1.5" d="m12.06 16.08-.45.45c-.4.4-.73.49-1.05.49-.26 0-.6-.19-.67-.24a10.4 10.4 0 0 1-3.96-4 2 2 0 0 1-.15-.55c-.02-.32.07-.64.48-1.05l.45-.45c.4-.4.5-.73.48-1.04-.01-.31-.14-.65-.58-1.1L5.49 7.48c-.45-.44-.78-.57-1.1-.58-.31-.02-.64.08-1.04.48h0a4.6 4.6 0 0 0-1.51 3.77c.04.79.24 1.6.83 2.55a24 24 0 0 0 6.43 6.43c.94.59 1.76.8 2.55.83a4.6 4.6 0 0 0 3.77-1.5h0v-.01c.4-.4.5-.73.48-1.04-.01-.31-.14-.65-.58-1.1l-1.12-1.12c-.45-.44-.79-.57-1.1-.58s-.64.08-1.04.48"/></svg>