<svg xmlns="http://www.w3.org/2000/svg" width="24" height="24" viewBox="0 0 24 24"><path fill="currentColor" fill-rule="evenodd" stroke="#00000000" d="M18.19 15q.28-.01.5.17l1.98 1.81c.32.27.36.72.14 1.04a11.5 11.5 0 0 1-8.5 3.61c-3.33 0-6.54-1.3-9.07-3.61a.7.7 0 0 1-.22-.5q-.07-.25.13-.45l1.67-1.8q.16-.17.45-.19.29 0 .5.18c.05 0 .05 0 .1.05h.04q1.01.89 2.16 1.45.34.16.41.58l.18 1.22.05.27.13.05a10 10 0 0 0 2.71.45h.59q1.62 0 3.11-.45l.32-.1-.05-.31-.13-1.08a.5.5 0 0 1 .13-.5l.18-.13a8 8 0 0 0 2.04-1.59.7.7 0 0 1 .45-.18ZM12 13.42a1.22 1.22 0 1 1 0 2.44 1.22 1.22 0 0 1 0-2.44Zm0-3.64c1.33 0 2.57.52 3.51 1.45a.81.81 0 1 1-1.15 1.15 3.3 3.3 0 0 0-4.72 0 .81.81 0 1 1-1.15-1.15A5 5 0 0 1 12 9.8Zm0-3.74c2.34 0 4.55.91 6.2 2.57a.81.81 0 1 1-1.14 1.15A7 7 0 0 0 12 7.67c-1.92 0-3.72.75-5.07 2.1a.81.81 0 0 1-1.15-1.15A8.7 8.7 0 0 1 12 6.05Zm-8.76-.06a12.4 12.4 0 0 1 17.52 0 .81.81 0 0 1-1.15 1.15 10.8 10.8 0 0 0-15.22 0A.81.81 0 1 1 3.24 6Z"/></svg>