<svg xmlns="http://www.w3.org/2000/svg" width="24" height="24" viewBox="0 0 24 24"><path fill="currentColor" fill-rule="evenodd" stroke="#00000000" d="M10.79 14.01a1.22 1.22 0 1 1 2.43 0 1.22 1.22 0 0 1-2.43 0"/><path fill="#00000000" fill-rule="evenodd" stroke="currentColor" stroke-linecap="round" stroke-linejoin="round" stroke-width="1.5" d="M17.75 14.42q.26 0 .46.18l1.81 1.66c.27.24.3.64.09.88a10.4 10.4 0 0 1-7.8 3.34c-3.04 0-6-1.17-8.34-3.3a.7.7 0 0 1-.22-.45.6.6 0 0 1 .15-.43l1.52-1.67q.16-.17.42-.18t.46.19l.07.06.06.04q.92.81 1.98 1.32c.21.1.36.31.39.54v.01l.16 1.1.03.24.23.06a11 11 0 0 0 3 .43 10 10 0 0 0 2.85-.42l.3-.1-.04-.3-.15-1v-.02a.6.6 0 0 1 .14-.44q.07-.07.15-.12 1.05-.55 1.86-1.44.17-.17.42-.18m-3.13-3.03a3.7 3.7 0 0 0-5.24 0m7.66-2.42a7.1 7.1 0 0 0-10.08 0M19.42 6.6a10.46 10.46 0 0 0-14.84 0"/></svg>