<svg xmlns="http://www.w3.org/2000/svg" width="24" height="24" viewBox="0 0 24 24"><path fill="currentColor" fill-rule="evenodd" d="M18.04 19.76a1.14 1.14 0 1 1 0 2.27 1.14 1.14 0 0 1 0-2.28m-3.27-2.04a4.6 4.6 0 0 1 6.53 0 .85.85 0 0 1-1.2 1.2 2.9 2.9 0 0 0-4.12 0 .85.85 0 1 1-1.2-1.2M13.91 4.5a2.85 2.85 0 0 1 2.84 2.84V8.8l4.27-2.47q.21-.13.44-.13c.34 0 .69.26.69.77v5.13a9.75 9.75 0 0 0-10.71 1.66l-2.02-2.02 2.24-2.23a.85.85 0 0 0-1.2-1.2l-2.24 2.23L5.98 8.3a.85.85 0 0 0-1.2 1.2L7 11.75l-2.23 2.24a.85.85 0 0 0 1.2 1.2l2.24-2.23 2.23 2.24h.01q-.1.33-.1.68c0 .68.28 1.33.76 1.8l1.3 1.31H2.84A2.85 2.85 0 0 1 0 16.14v-8.8A2.85 2.85 0 0 1 2.84 4.5zm-1.59 10.77a8.1 8.1 0 0 1 11.43 0 .85.85 0 1 1-1.2 1.2 6.4 6.4 0 0 0-9.02 0 .85.85 0 1 1-1.2-1.2"/></svg>