<svg xmlns="http://www.w3.org/2000/svg" width="24" height="24" viewBox="0 0 24 24"><path fill="currentColor" fill-rule="evenodd" stroke="#00000000" d="M5.05 3.87h.1c.4.02.8.18 1.36.73L7.9 5.99c.55.55.7.96.72 1.35s-.1.8-.6 1.29l-.55.56c-.5.5-.62.9-.6 1.3.01.31.17.63.2.67.28.56 1.75 3.17 4.89 4.96.1.06.51.29.83.3.4 0 .8-.1 1.3-.6l.56-.57c.5-.5.9-.61 1.29-.6s.8.18 1.35.73l1.4 1.4c.54.54.7.96.72 1.35.02.38-.1.79-.6 1.28a5.7 5.7 0 0 1-4.67 1.88 6.3 6.3 0 0 1-3.61-1.34 29 29 0 0 1-7.5-7.64l-.17-.29a6 6 0 0 1-.87-2.88 5.7 5.7 0 0 1 1.87-4.67c.5-.5.9-.62 1.3-.6Zm11.34 5.3a1.07 1.07 0 1 1 0 2.14 1.07 1.07 0 0 1 0-2.14ZM13.3 7.25a4.36 4.36 0 0 1 6.16 0 .8.8 0 1 1-1.14 1.13 2.75 2.75 0 0 0-3.88 0 .8.8 0 1 1-1.14-1.13Zm-2.32-2.32a7.64 7.64 0 0 1 10.8 0 .8.8 0 1 1-1.14 1.14 6.03 6.03 0 0 0-8.52 0A.8.8 0 0 1 11 4.93Z"/></svg>