<svg xmlns="http://www.w3.org/2000/svg" width="24" height="24" viewBox="0 0 24 24"><path fill="currentColor" fill-rule="evenodd" stroke="#00000000" d="M16.39 9.17a1.07 1.07 0 1 1 0 2.14 1.07 1.07 0 0 1 0-2.14ZM13.3 7.25a4.36 4.36 0 0 1 6.16 0 .8.8 0 1 1-1.14 1.13 2.75 2.75 0 0 0-3.88 0 .8.8 0 1 1-1.14-1.13Zm-2.32-2.32a7.64 7.64 0 0 1 10.8 0 .8.8 0 1 1-1.14 1.14 6.03 6.03 0 0 0-8.52 0A.8.8 0 0 1 11 4.93Z"/><path fill="#00000000" fill-rule="evenodd" stroke="currentColor" stroke-linecap="round" stroke-linejoin="round" stroke-width="1.5" d="m14.5 15.03-.52.53c-.47.46-.84.56-1.2.55-.3 0-.7-.2-.79-.27a12 12 0 0 1-4.56-4.62 2 2 0 0 1-.18-.63c-.02-.37.09-.74.56-1.2l.52-.53c.46-.47.57-.84.55-1.2-.01-.37-.16-.75-.67-1.27L6.9 5.1c-.51-.5-.9-.65-1.26-.67-.36-.01-.74.1-1.2.56h0A5.4 5.4 0 0 0 2.7 9.33c.04.91.28 1.86.96 2.94a27 27 0 0 0 7.42 7.43c1.09.68 2.04.92 2.95.96a5.4 5.4 0 0 0 4.35-1.74h0c.47-.47.58-.84.56-1.2-.02-.37-.16-.76-.68-1.27l-1.3-1.3c-.5-.51-.9-.66-1.26-.67s-.73.09-1.2.55"/></svg>