<svg xmlns="http://www.w3.org/2000/svg" width="24" height="24" viewBox="0 0 24 24"><path fill="currentColor" fill-rule="evenodd" d="M11.77 11.65h-.32a.75.75 0 0 1 0-1.5h.32a.75.75 0 1 1 0 1.5m-.32-4.75h.32a.75.75 0 1 1 0 1.5h-.32a.75.75 0 0 1 0-1.5M8.27 8.4h-.32a.75.75 0 0 1 0-1.5h.32a.75.75 0 1 1 0 1.5m0 3.25h-.32a.75.75 0 0 1 0-1.5h.32a.75.75 0 1 1 0 1.5M12.58 20h4.5a2.5 2.5 0 0 0 2.55-2.43v-5.64a2.5 2.5 0 0 0-2.55-2.43h-1.95V6.43A2.5 2.5 0 0 0 12.58 4H6.92a2.5 2.5 0 0 0-2.54 2.43v11.15A2.5 2.5 0 0 0 6.92 20h1.61v-4.43a1 1 0 0 1 1-1h1.75a1 1 0 0 1 1 1V20z"/></svg>