<svg xmlns="http://www.w3.org/2000/svg" width="36" height="36" viewBox="0 0 36 36"><path fill="currentColor" stroke="#00000000" d="M22.5 9.5h-9V6.9c0-.3.3-.6.6-.6h7.7c.3 0 .6.3.6.6v2.6zm-2.3 16.7h-4.5l.7-5.6c-.9-.5-1.6-1.5-1.6-2.7 0-1.7 1.4-3.1 3.1-3.1s3.1 1.4 3.1 3.1c0 1.2-.6 2.2-1.6 2.7zM30.3 9.5h-4.5V6.4c0-1.6-1.3-2.9-3-2.9h-9.5c-1.6 0-3 1.3-3 2.9v3.1h-5c-1.5 0-2.7 1.2-2.7 2.6v17.7c0 1.5 1.2 2.6 2.7 2.6h24.9c1.5 0 2.7-1.2 2.7-2.6V12.2c0-1.5-1.2-2.7-2.6-2.7z" clip-path="url(#a)"/><clipPath id="a"><path d="M0 36h36V0H0zM0 0"/></clipPath></svg>