<svg xmlns="http://www.w3.org/2000/svg" width="24" height="24" viewBox="0 0 24 24"><path fill="currentColor" fill-rule="evenodd" d="M9.5 9.46q.57-.05 1.06.22l10.09 6.68a1.22 1.22 0 0 1-.43 2.29q-.41.05-.78-.16l-6.05-4-.98 1.61 2.67.72c.45.15.78.55.84 1.01a1.22 1.22 0 0 1-1.63 1.3l-3.88-1.07a1.5 1.5 0 0 1-.77-2.41l1.68-2.57-1.42-.96-2.33 1.6c-.47.33-.75.53-1.19.59h-.03c-.43.05-.88-.07-1.23-.35l-1.8-1.5c-.33-.3-.53-.54-.6-1.08-.09-.68.38-1.14.96-1.14.65 0 .65.1 1.06.3l1.34 1.15 2.17-1.59c.51-.39.88-.62 1.24-.64M13.46 7c.4-.25.93-.26 1.3-.02s.56.7.5 1.17l-.54 2.52-3.77-2.3ZM7.49 4.8a2 2 0 1 1 0 4.02 2 2 0 0 1 0-4.02"/></svg>